<svg width="300" height="110" viewBox="0 0 224 110" fill="none" xmlns="http://www.w3.org/2000/svg">
<path d="M1.25214 109.356C1.25214 108.281 1.08529 107.214 1.02873 106.141C0.717386 100.23 2.99169 94.3386 5.16176 88.8309C7.71024 82.3628 11.0404 76.3315 14.88 70.3571C22.6598 58.2516 31.0119 45.6216 41.9441 35.4053C66.3922 12.5581 101.99 -0.212037 137.833 1.09087C155.757 1.74238 177.49 5.94393 189.696 18.4837C193.768 22.6679 196.417 27.8686 198.648 32.9384C200.978 38.2343 202.902 43.8605 203.403 49.5412C203.526 50.9292 203.727 53.14 202.637 54.3225C202.593 54.371 202.605 53.847 202.605 53.7266" stroke="#DEE8F5" stroke-linecap="round"/>
<path d="M181.926 42.5C183.861 44.1811 186.297 45.5252 188.373 47.0873C190.053 48.3517 191.643 49.2673 193.096 50.3718C194.081 51.1202 195.016 51.9676 196.016 52.7278C196.444 53.0527 196.939 53.2048 197.437 53.4207C197.876 53.6114 197.838 54.032 198.171 54.1968C199.331 54.7725 200.918 56.5857 202.447 56.2064C202.908 56.0921 203.329 55.3047 203.756 55.2224C204.599 55.0597 205.316 54.4101 206.118 54.1691C208.526 53.4451 210.274 51.4324 212.309 50.2332C213.209 49.703 213.907 49.0119 214.671 48.3484C215.472 47.6524 216.471 47.4638 217.256 46.8794C218.783 45.7428 222.109 45.0471 223.001 43.4978" stroke="#DEE8F5" stroke-linecap="round"/>
</svg>
