<svg viewBox="0 0 318 213" fill="none" xmlns="http://www.w3.org/2000/svg">
<path d="M29.0069 211.008C23.6088 209.083 18.3714 206.567 13.5993 199.525C12.6201 198.082 11.6999 196.233 12.2366 194.506C12.6405 193.206 13.8089 192.372 14.9962 192.16C15.4384 192.086 15.8866 192.072 16.3317 192.118C16.3338 192.118 16.336 192.12 16.3368 192.118C17.0207 192.199 17.6967 192.351 18.3564 192.574L18.545 192.636C21.6946 193.667 24.6948 195.226 27.4487 197.265C27.6983 197.448 27.9943 197.528 28.2887 197.493C28.583 197.458 28.8583 197.309 29.0699 197.071C29.2815 196.833 29.4169 196.52 29.4541 196.182C29.4913 195.844 29.4281 195.501 29.2748 195.21C28.9939 194.682 28.667 194.188 28.2991 193.736C27.7566 193.083 27.1623 192.489 26.5237 191.964C25.6753 191.251 24.7696 190.615 23.8835 189.965C20.5895 187.55 17.4688 184.836 14.5514 181.848C12.4691 179.713 10.4326 177.343 9.44292 174.342C8.98803 172.962 8.78117 171.37 9.32354 170.032C10.2186 167.837 12.7541 167.221 14.8274 167.677C18.4606 168.478 21.363 171.543 23.9367 174.598C26.071 177.137 28.4624 179.948 31.5288 180.104C32.0516 180.16 32.5772 180.039 33.0407 179.755C33.9153 179.145 34.1402 177.732 33.8284 176.61C33.5166 175.488 32.7954 174.592 32.0987 173.731C28.0519 168.733 24.0686 163.534 21.4404 157.409C18.8121 151.284 17.6478 144.055 19.4742 137.552C20.0097 135.652 20.8143 133.802 22.0694 132.421C23.3245 131.04 25.0846 130.174 26.8077 130.439C29.1552 130.794 30.9232 133.075 32.1126 135.429C36.2009 143.508 35.951 153.406 37.1025 162.66C37.4249 165.251 37.8929 167.908 39.2339 170.04C39.3575 170.245 39.5179 170.417 39.7043 170.545C40.8076 171.28 41.7978 169.798 42.2118 168.539C43.8471 163.561 44.2559 157.869 47.1839 153.749C48.3014 152.18 49.8822 150.87 51.6439 150.882C53.7957 150.899 55.6382 152.968 56.2661 155.337C56.8941 157.706 56.5182 160.279 55.8456 162.632C54.5968 166.994 52.3586 170.913 49.7211 174.357C48.3311 176.177 46.7582 178.013 46.3415 180.386C46.2137 181.192 46.2672 182.023 46.4967 182.799C46.7263 183.575 47.1244 184.27 47.6532 184.819C47.9005 185.067 48.1884 185.255 48.4999 185.372C48.8114 185.49 49.1402 185.534 49.4668 185.502C50.1733 185.427 50.8121 185.013 51.4278 184.61C51.6865 184.441 51.9457 184.268 52.2065 184.1C53.2349 183.426 54.2635 182.751 55.2923 182.076C57.9074 180.359 61.0652 178.604 63.7891 180.083C65.1791 180.839 66.09 182.325 66.5182 184.031C66.9017 185.579 66.9017 187.22 66.5182 188.768C65.7068 191.987 60.5926 200.946 58.4833 203.256C56.0203 205.956 47.4785 217.596 29.0069 211.008Z" fill="#8DDBE0"/>
<path d="M249.203 2.40472H79.9248V143.498H249.203V2.40472Z" fill="#DEE8F5"/>
<path d="M249.203 2.40472H79.9248V14.0272H249.203V2.40472Z" fill="#C1D8ED"/>
<path d="M243.533 11.1321C244.932 11.1321 246.067 9.82659 246.067 8.2161C246.067 6.60561 244.932 5.30005 243.533 5.30005C242.134 5.30005 241 6.60561 241 8.2161C241 9.82659 242.134 11.1321 243.533 11.1321Z" fill="white"/>
<path d="M115.484 31.2927H93.0745V57.0848H115.484V31.2927Z" fill="white"/>
<path d="M145.627 31.2927H123.217V57.0848H145.627V31.2927Z" fill="white"/>
<path d="M175.769 31.2927H153.359V57.0848H175.769V31.2927Z" fill="white"/>
<path d="M205.911 31.2927H183.501V57.0848H205.911V31.2927Z" fill="white"/>
<path d="M115.484 65.6692H93.0745V91.4613H115.484V65.6692Z" fill="white"/>
<path d="M145.627 65.6692H123.217V91.4613H145.627V65.6692Z" fill="#367CFF"/>
<path d="M175.769 65.6692H153.359V91.4613H175.769V65.6692Z" fill="white"/>
<path d="M205.911 65.6692H183.501V91.4613H205.911V65.6692Z" fill="white"/>
<path d="M115.484 100.045H93.0745V125.838H115.484V100.045Z" fill="white"/>
<path d="M145.627 100.045H123.217V125.838H145.627V100.045Z" fill="white"/>
<path d="M175.769 100.045H153.359V125.838H175.769V100.045Z" fill="white"/>
<path d="M205.911 100.045H183.501V125.838H205.911V100.045Z" fill="white"/>
<path d="M236.054 31.2927H213.644V57.0848H236.054V31.2927Z" fill="white"/>
<path d="M236.054 65.6692H213.644V91.4613H236.054V65.6692Z" fill="white"/>
<path d="M236.054 100.045H213.644V125.838H236.054V100.045Z" fill="white"/>
<path d="M109.918 209.607L104.234 208.829C104.49 206.353 104.779 203.379 104.799 202.891C104.799 202.923 104.799 202.948 104.799 202.968H110.522C110.521 203.165 110.521 203.766 109.918 209.607Z" fill="#E98862"/>
<path d="M87.1118 210.394L81.3882 210.373C81.3882 210.373 81.4073 203.57 81.4073 202.968H87.1308C87.1308 203.572 87.1118 210.394 87.1118 210.394Z" fill="#E98862"/>
<path d="M112.029 207.329C111.556 193.524 111.527 179.025 111.379 165.183C109.41 150.253 108.375 133.879 105.946 119.055L105.873 119.08L105.66 117.408L84.925 115.935L84.1183 131.526H84.1957C83.1518 152.411 81.1341 185.987 79.9131 207.152L89.9618 208.13C91.7565 187.314 94.4104 154.152 96.032 133.635C97.8118 144.089 99.7624 155.862 101.343 166.44C101.689 179.953 101.978 194.035 101.946 207.526L112.029 207.329Z" fill="#262626"/>
<path d="M94.0695 212.942C94.2165 212.941 94.362 212.907 94.4976 212.842C94.6331 212.776 94.7562 212.681 94.8596 212.56C94.9631 212.44 95.045 212.298 95.1006 212.141C95.1562 211.984 95.1844 211.817 95.1837 211.647C95.1837 211.616 95.1837 211.585 95.1804 211.553C95.164 211.308 95.087 211.074 94.9586 210.878C94.8303 210.682 94.6559 210.532 94.456 210.446L87.794 207.878C87.665 207.829 87.5282 207.813 87.3931 207.83C87.258 207.847 87.1278 207.898 87.0112 207.978C86.0955 208.71 84.9999 209.084 83.8856 209.045C83.0179 208.974 82.185 208.624 81.4817 208.034C81.4199 207.976 81.345 207.939 81.2656 207.928C81.1863 207.917 81.1058 207.932 81.0336 207.971C80.9613 208.011 80.9003 208.073 80.8577 208.151C80.8151 208.228 80.7925 208.319 80.7927 208.411V212.16C80.7927 212.383 80.8696 212.596 81.0065 212.754C81.1434 212.911 81.329 213 81.5226 213H81.5256L94.0695 212.942Z" fill="#C1D8ED"/>
<path d="M116.891 212.942C117.038 212.941 117.184 212.907 117.319 212.842C117.455 212.776 117.578 212.681 117.681 212.56C117.785 212.44 117.867 212.298 117.922 212.141C117.978 211.984 118.006 211.817 118.005 211.647C118.005 211.616 118.005 211.585 118.002 211.553C117.986 211.308 117.909 211.074 117.781 210.878C117.652 210.682 117.478 210.532 117.277 210.446L110.616 207.878C110.487 207.829 110.35 207.812 110.215 207.83C110.08 207.847 109.949 207.898 109.833 207.978C108.917 208.709 107.822 209.083 106.707 209.045C105.84 208.974 105.007 208.623 104.303 208.034C104.241 207.976 104.167 207.939 104.087 207.927C104.008 207.916 103.927 207.931 103.855 207.971C103.783 208.01 103.722 208.072 103.679 208.15C103.637 208.228 103.614 208.318 103.615 208.41V212.16C103.615 212.382 103.691 212.596 103.828 212.754C103.965 212.911 104.151 213 104.344 213H104.347L116.891 212.942Z" fill="#C1D8ED"/>
<path d="M95.0194 69.2311L94.0862 69.5918C94.0862 69.5918 94.208 73.4013 94.5528 75.3392C94.8976 77.2772 95.1663 79.8024 96.2377 80.0797C97.6596 80.448 99.3557 80.5838 100.588 80.0769C101.52 79.6935 101.663 76.0522 101.754 74.2539C101.794 73.4549 101.706 73.5245 101.013 73.5791C99.5931 73.6914 97.3854 73.7777 96.5727 73.3282C95.3345 72.6443 95.0194 69.2311 95.0194 69.2311Z" fill="#0F1011"/>
<path d="M91.5691 83.5074C91.5691 83.5074 93.6767 82.2213 93.206 75.6162L97.5603 74.6868C97.5603 74.6868 97.0697 80.6089 99.2741 82.4888L91.5691 83.5074Z" fill="#E98862"/>
<path d="M90.7353 73.055C91.0367 75.0588 91.9868 76.9566 93.5229 77.6035C95.346 78.372 96.6965 78.4241 98.7987 78.4241C101.667 78.4241 101.572 74.9807 101.653 71.5107C101.735 68.0287 101.716 65.0854 100.583 63.8714C98.3204 61.4482 91.4545 62.1875 90.6464 66.2404C90.2286 68.3365 90.4483 71.1474 90.7353 73.055Z" fill="#E98862"/>
<path d="M89.3541 70.4774C89.773 73.5236 90.3216 74.4845 91.1137 75.9406C91.583 76.8507 92.2132 77.6371 92.9635 78.249C93.5473 78.6816 99.2741 78.5919 100.263 78.4256C101.721 78.18 101.942 73.3969 101.682 73.3969C101.358 73.3969 101.28 73.3869 100.915 73.3869C100.249 73.3869 100.182 68.8174 100.057 66.7956C100.159 66.7792 100.262 66.7709 100.366 66.7708C103.501 66.7696 88.6509 65.3636 89.3541 70.4774Z" fill="#0F1011"/>
<path d="M99.495 73.4844C99.0681 73.497 98.6532 73.321 98.3354 72.9926C98.0176 72.6642 97.8211 72.2082 97.7861 71.7183C97.7645 71.471 97.7853 71.2212 97.8476 70.9832C97.9099 70.7452 98.0122 70.5237 98.1489 70.3312C98.2856 70.1388 98.4539 69.9792 98.6442 69.8617C98.8345 69.7441 99.043 69.6709 99.2579 69.6461C99.2726 69.6442 99.2876 69.643 99.3023 69.6417C99.341 71.0094 99.4023 72.4489 99.495 73.4844Z" fill="#E98862"/>
<path d="M89.354 70.4774C89.354 70.4774 87.8839 61.9203 94.9884 61.1295C102.093 60.3387 101.666 67.9839 101.666 67.9839L98.8472 69.6389C98.8472 69.6389 95.7006 70.6323 89.354 70.4774Z" fill="#262626"/>
<path d="M90.3671 69.482C90.3499 68.7383 90.5899 68.0171 91.0344 67.4768C91.4789 66.9365 92.0915 66.6214 92.7377 66.6006C93.3839 66.5799 94.0108 66.8551 94.4808 67.366C94.9508 67.8768 95.2255 68.5815 95.2444 69.3252" fill="#0F1011"/>
<path d="M98.8486 69.637C98.8486 69.637 101.167 68.7374 102.408 67.8942C103.729 66.9961 105.515 65.3646 105.506 64.879C105.489 64.032 102.919 63.7958 100.82 63.8915L100.836 63.9276C101.186 64.7251 101.284 65.6381 101.112 66.5095C100.94 67.3809 100.51 68.1563 99.8958 68.7022L98.8486 69.637Z" fill="#262626"/>
<path d="M78.8217 127.238C78.8217 128.173 79.2504 131.298 78.5606 131.522C78.1471 131.655 77.6587 129.326 77.6587 129.326" fill="#E98862"/>
<path d="M75.566 126.747C75.566 126.747 73.3136 133.057 75.8827 136.682C75.9482 136.774 76.0362 136.841 76.1354 136.875C76.2345 136.909 76.3402 136.907 76.4386 136.871C76.5371 136.834 76.6237 136.765 76.6872 136.671C76.7507 136.577 76.7882 136.463 76.7947 136.344C76.9195 133.9 77.3477 128.88 78.7478 129.467V125.524" fill="#E98862"/>
<path d="M126.355 93.1313C126.355 93.1313 129.501 90.2554 129.723 89.2225C129.945 88.1895 127.73 86.1577 127.73 86.1577C127.73 86.1577 130.676 82.7385 130.088 82.2448C129.395 81.6601 125.977 86.6308 125.977 86.6308C125.977 86.6308 126.46 84.8427 125.858 84.7251C125.611 84.6771 125.415 84.9563 125.028 86.222C124.587 87.665 123.706 89.8342 123.706 89.8342L126.355 93.1313Z" fill="#E98862"/>
<path d="M123.042 89.3072L113.738 101.356L106.461 86.3616C105.772 83.993 104.203 82.4063 101.003 82.2485C99.909 82.1946 94.5695 82.1858 90.66 82.1858C88.0337 82.1858 85.8775 83.1131 84.6322 84.5463C84.005 85.2577 83.5358 86.1323 83.264 87.0963L83.2261 87.0803L76.9703 106.66C76.9002 106.879 76.8498 107.107 76.8198 107.338L74.2949 126.917L80.1736 127.92L82.6538 108.69L85.1803 100.783C85.4433 101.998 85.587 103.243 85.6088 104.496C85.6088 111.083 83.0196 114.037 83.2103 117.42C83.5101 122.735 105.949 121.479 107.092 118.46C108.27 115.346 105.88 113.428 105.985 103.243C105.996 102.135 106.071 100.975 106.173 99.7947L110.588 108.892C110.82 109.368 111.146 109.774 111.542 110.075C111.937 110.377 112.389 110.565 112.86 110.624C113.332 110.683 113.809 110.611 114.251 110.415C114.693 110.219 115.088 109.903 115.403 109.496L127.636 93.0269L123.042 89.3072Z" fill="#54ABA7"/>
<path d="M264.17 163.326L255.587 211.504C255.532 211.756 255.406 211.979 255.228 212.138C255.05 212.298 254.832 212.384 254.606 212.384C254.452 212.384 254.301 212.344 254.162 212.266C254.024 212.189 253.903 212.076 253.808 211.936C253.714 211.797 253.648 211.634 253.616 211.461C253.585 211.288 253.587 211.109 253.625 210.937L262.331 162.202L264.17 163.326Z" fill="#C1D8ED"/>
<path d="M284.333 163.249L292.916 211.426C292.971 211.678 293.097 211.901 293.275 212.061C293.453 212.22 293.672 212.307 293.897 212.307C294.051 212.307 294.203 212.267 294.341 212.189C294.479 212.111 294.6 211.998 294.695 211.859C294.789 211.719 294.855 211.557 294.887 211.384C294.919 211.21 294.916 211.031 294.878 210.859L286.174 162.125L284.333 163.249Z" fill="#C1D8ED"/>
<path d="M293.354 158.614H255.149C254.183 158.614 253.4 159.515 253.4 160.627V165.059C253.4 166.17 254.183 167.072 255.149 167.072H293.354C294.32 167.072 295.103 166.17 295.103 165.059V160.627C295.103 159.515 294.32 158.614 293.354 158.614Z" fill="#DEE8F5"/>
<path d="M282.495 136.331C281.353 135.901 280.18 136.383 279.059 137.366C280.536 133.072 281.146 129.195 278.62 129.02C276.853 128.898 275.499 130.458 274.471 132.677C274.109 128.776 273.176 125.867 271.086 126.832C268.791 127.89 268.442 131.519 268.79 135.316C267.779 133.377 266.692 132.295 265.702 133.434C262.753 136.829 269.993 146.396 269.993 146.396H271.792L272.818 147.679C272.61 148.184 272.496 148.485 272.496 148.485L273.8 151.538C273.8 151.538 287.235 138.117 282.495 136.331Z" fill="#8DDBE0"/>
<path d="M279.271 158.373H269.094L267.391 144.7H280.974L279.271 158.373Z" fill="#C1D8ED"/>
</svg>
