<svg viewBox="0 0 270 204" fill="none" xmlns="http://www.w3.org/2000/svg">
<g clip-path="url(#clip0_234_1751)">
<path d="M29.3352 204H42.2113C44.4492 201.062 48.3735 195.135 45.8373 192.604C44.6836 191.455 43.4155 192.548 42.2364 194.506C42.6413 190.666 42.2364 186.998 39.5587 185.926C37.1228 184.953 36.0315 187.894 35.6104 191.84C34.4101 189.595 32.8317 188.016 30.7738 188.14C27.8271 188.316 28.5384 192.238 30.2623 196.58C28.9543 195.588 27.5874 195.1 26.2554 195.535C23.4633 196.449 26.069 200.355 29.3352 204Z" fill="#8DDBE0"/>
<path d="M56.4108 201.073L48.9972 201.049C48.9972 201.049 49.0219 193.408 49.0219 192.731H56.4355C56.4355 193.41 56.4108 201.073 56.4108 201.073Z" fill="#E98862"/>
<path d="M85.9507 200.188L78.589 199.314C78.9205 196.533 79.2951 193.193 79.3205 192.645C79.3205 192.68 79.3205 192.709 79.3205 192.731H86.7341C86.7324 192.953 86.7323 193.628 85.9507 200.188Z" fill="#E98862"/>
<path d="M75.6256 197.852L88.6877 197.63C88.0742 182.115 88.0367 165.841 87.8454 150.289C85.294 133.527 83.9525 115.12 80.806 98.4774L80.7113 98.5052L80.4356 96.6272L53.5781 94.9712C53.5781 94.9712 52.8579 108.106 52.6154 112.483C51.223 137.638 48.6815 173.069 47.0862 197.429L60.1021 198.527C62.4473 174.643 66.0764 139.841 68.3087 114.75C70.872 126.966 72.6156 139.615 74.8447 151.726C75.2906 166.888 75.6672 182.737 75.6256 197.852Z" fill="#262626"/>
<path d="M65.4229 203.935C65.6222 203.934 65.8193 203.892 66.0017 203.811C66.1841 203.731 66.3479 203.614 66.483 203.467C66.618 203.321 66.7214 203.148 66.7865 202.96C66.8517 202.772 66.8773 202.573 66.8618 202.374C66.8403 202.099 66.7406 201.836 66.5744 201.616C66.4081 201.396 66.1823 201.227 65.9235 201.131L57.2943 198.247C57.1272 198.191 56.95 198.173 56.775 198.192C56.6 198.211 56.4313 198.268 56.2804 198.359C55.0941 199.18 53.675 199.6 52.2318 199.557C51.1079 199.477 50.0289 199.084 49.1181 198.422C49.038 198.356 48.941 198.315 48.8382 198.302C48.7354 198.29 48.6311 198.306 48.5376 198.351C48.444 198.395 48.365 198.465 48.3098 198.552C48.2546 198.64 48.2254 198.741 48.2256 198.845V203.057C48.2256 203.181 48.2502 203.304 48.298 203.419C48.3457 203.534 48.4157 203.638 48.5039 203.725C48.5921 203.813 48.6968 203.883 48.812 203.93C48.9271 203.977 49.0505 204.001 49.1749 204L65.4229 203.935Z" fill="#C1D8ED"/>
<path d="M94.9836 203.935C95.183 203.934 95.3801 203.892 95.5625 203.811C95.7449 203.731 95.9087 203.614 96.0438 203.467C96.1788 203.321 96.2821 203.148 96.3473 202.96C96.4125 202.772 96.4381 202.573 96.4226 202.374C96.4011 202.099 96.3014 201.836 96.1351 201.616C95.9687 201.396 95.7428 201.227 95.4839 201.131L86.8551 198.247C86.688 198.191 86.5108 198.173 86.3358 198.192C86.1608 198.211 85.9921 198.268 85.8412 198.359C84.6548 199.18 83.2358 199.6 81.7926 199.557C80.6685 199.477 79.5895 199.084 78.6785 198.422C78.5985 198.356 78.5014 198.315 78.3987 198.302C78.2959 198.289 78.1916 198.306 78.0981 198.351C78.0046 198.395 77.9256 198.465 77.8704 198.552C77.8152 198.64 77.7861 198.741 77.7864 198.845V203.057C77.7864 203.181 77.811 203.304 77.8588 203.419C77.9065 203.534 77.9765 203.638 78.0647 203.725C78.1529 203.813 78.2576 203.883 78.3728 203.93C78.4879 203.977 78.6113 204.001 78.7357 204L94.9836 203.935Z" fill="#C1D8ED"/>
<path d="M61.8081 56.7142C61.8081 56.7142 64.5381 55.2696 63.9284 47.8506L69.5685 46.8066C69.5685 46.8066 68.9348 53.4586 71.7883 55.5705L61.8081 56.7142Z" fill="#E98862"/>
<g opacity="0.15">
<path d="M70.6323 54.18L65.948 50.6023L69.628 50.5642C69.7343 51.8214 70.0749 53.0476 70.6323 54.18Z" fill="black"/>
</g>
<path d="M60.7281 44.9739C61.1185 47.2246 62.3492 49.3563 64.3389 50.0829C66.5074 50.9417 68.8535 51.258 71.1725 51.0043C77.347 50.499 76.1256 36.4876 73.1943 33.7654C70.2631 31.0432 61.6597 32.7683 60.613 37.3202C60.0718 39.6742 60.3563 42.8312 60.7281 44.9739Z" fill="#E98862"/>
<path d="M69.5607 43.2401C69.2782 43.2401 69.0492 43.0115 69.0492 42.7295C69.0492 42.4476 69.2782 42.219 69.5607 42.219C69.8432 42.219 70.0723 42.4476 70.0723 42.7295C70.0723 43.0115 69.8432 43.2401 69.5607 43.2401Z" fill="#0F1011"/>
<path d="M73.5961 42.9098C73.3136 42.9098 73.0846 42.6812 73.0846 42.3992C73.0846 42.1173 73.3136 41.8887 73.5961 41.8887C73.8786 41.8887 74.1077 42.1173 74.1077 42.3992C74.1077 42.6812 73.8786 42.9098 73.5961 42.9098Z" fill="#0F1011"/>
<path d="M74.4826 41.3113H74.4794L73.1242 41.294C73.062 41.2909 73.0034 41.2639 72.9607 41.2186C72.9181 41.1733 72.8948 41.1133 72.8956 41.0512C72.8964 40.989 72.9213 40.9296 72.9652 40.8855C73.009 40.8413 73.0682 40.8159 73.1305 40.8145L74.4858 40.8314C74.5496 40.8318 74.6105 40.8575 74.6553 40.9028C74.7001 40.9481 74.725 41.0093 74.7246 41.0729C74.7242 41.1365 74.6985 41.1974 74.6531 41.2421C74.6077 41.2868 74.5464 41.3117 74.4826 41.3113Z" fill="#0F1011"/>
<path d="M68.4546 41.8045C68.3955 41.8047 68.3385 41.7833 68.2943 41.7442C68.2501 41.7051 68.2219 41.6511 68.215 41.5926C68.2081 41.5341 68.223 41.4751 68.2569 41.4268C68.2908 41.3785 68.3413 41.3444 68.3988 41.331L69.7347 41.0103C69.7656 41.0025 69.7977 41.0009 69.8291 41.0055C69.8606 41.0101 69.8909 41.021 69.9181 41.0374C69.9454 41.0538 69.9691 41.0754 69.9879 41.1011C70.0068 41.1267 70.0203 41.1558 70.0277 41.1867C70.0352 41.2176 70.0364 41.2496 70.0314 41.281C70.0263 41.3123 70.0151 41.3424 69.9983 41.3694C69.9815 41.3964 69.9595 41.4198 69.9336 41.4382C69.9077 41.4567 69.8783 41.4698 69.8473 41.4769L68.5111 41.7978C68.4926 41.8021 68.4736 41.8044 68.4546 41.8045Z" fill="#0F1011"/>
<path d="M64.2592 49.8143C64.142 50.1889 64.0601 50.352 63.7222 50.1515C62.3963 49.3651 59.7651 47.6541 58.7484 41.2435C57.8372 35.5003 61.3877 33.1304 64.2204 32.2852C66.6609 31.5565 71.7421 32.0713 74.4841 33.5592C76.5179 34.6631 75.0298 37.6235 75.0298 37.6235C74.0117 37.6704 74.2348 34.9732 71.8328 34.9732C69.9758 34.9732 68.3403 37.7155 66.6016 37.7884C65.0101 37.8554 64.6832 38.8236 64.7397 39.4445C65.0807 43.2082 64.6737 48.4913 64.2592 49.8143Z" fill="#0F1011"/>
<path d="M66.9011 43.9787C66.9394 44.5462 66.7524 45.1059 66.3806 45.5369C66.0087 45.9678 65.4818 46.2354 64.9139 46.2816C64.3459 46.3279 63.7825 46.1493 63.3455 45.7843C62.9085 45.4192 62.633 44.8972 62.5786 44.3311C62.5503 44.0469 62.5796 43.7599 62.6648 43.4872C62.75 43.2146 62.8894 42.9618 63.0745 42.744C63.2596 42.5263 63.4868 42.3479 63.7425 42.2196C63.9981 42.0913 64.277 42.0156 64.5626 41.9972C66.1064 41.9482 66.8015 42.7875 66.9011 43.9787Z" fill="#E98862"/>
<g opacity="0.15">
<path d="M71.8312 45.5613C71.7889 45.5613 71.748 45.5462 71.716 45.5186C71.6839 45.4911 71.6629 45.453 71.6566 45.4113C71.6503 45.3695 71.6592 45.3269 71.6818 45.2912C71.7043 45.2555 71.7389 45.2291 71.7793 45.2167L72.8197 44.8978L72.0918 43.2805C72.0726 43.2379 72.0711 43.1894 72.0878 43.1456C72.1044 43.1019 72.1378 43.0666 72.1806 43.0475C72.2233 43.0283 72.2719 43.0269 72.3157 43.0435C72.3595 43.0601 72.3949 43.0934 72.4141 43.1361L73.2236 44.9351C73.2339 44.9579 73.2393 44.9827 73.2393 45.0077C73.2393 45.0327 73.2339 45.0575 73.2236 45.0803C73.2133 45.1031 73.1982 45.1234 73.1794 45.1399C73.1606 45.1565 73.1385 45.1688 73.1145 45.1762L71.8831 45.5535C71.8663 45.5586 71.8488 45.5612 71.8312 45.5613Z" fill="black"/>
</g>
<path d="M69.796 46.7504C69.796 46.7504 71.6843 46.9491 73.0085 46.4875C73.0085 46.4875 72.9979 47.7289 71.5039 47.8511C70.0099 47.9734 69.796 46.7504 69.796 46.7504Z" fill="white"/>
<path d="M74.6516 33.7498C76.482 34.9731 76.1216 37.3173 75.7781 39.352H73.5123L72.562 36.0604L71.403 39.352L62.5694 39.6572L63.6345 35.2849" fill="#0F1011"/>
<path d="M58.0396 51.7417C55.3088 51.7417 53.095 49.5323 53.095 46.8068C53.095 44.0813 55.3088 41.8718 58.0396 41.8718C60.7704 41.8718 62.9841 44.0813 62.9841 46.8068C62.9841 49.5323 60.7704 51.7417 58.0396 51.7417Z" fill="#0F1011"/>
<path d="M100.311 57.1177C100.311 57.1177 100.364 52.886 103.394 53.1062C105.306 53.245 114.392 52.8243 114.527 53.6499C114.861 55.6935 106.551 56.1931 105.797 58.0975L100.311 57.1177Z" fill="#E98862"/>
<path d="M102.321 53.2419C102.321 53.2419 106.539 51.8677 107.576 52.1143C108.494 52.3321 106.581 53.8232 106.581 53.8232L102.321 53.2419Z" fill="#E98862"/>
<path d="M82.5552 95.8767C81.0764 99.2698 52.0113 100.679 51.623 94.7105C51.3758 90.9122 54.7297 87.5966 54.7297 80.1938C54.7297 72.7911 49.6954 65.124 55.2557 59.5746C56.869 57.9643 57.8646 55.1385 61.2607 55.135C61.5149 57.1117 73.5392 57.1187 73.6309 55.1808C74.0899 55.1879 74.4464 55.1949 74.6689 55.2055C86.3824 55.7093 81.2352 69.0139 81.1223 78.788C80.9846 90.2255 84.0807 92.3815 82.5552 95.8767Z" fill="white"/>
<path d="M73.6309 55.1808C73.5391 57.1187 72.4835 59.9692 69.225 60.1841C64.8828 60.4695 61.5148 57.1117 61.2607 55.135H61.2712C65.5464 55.135 71.1374 55.1421 73.6309 55.1808Z" fill="#E98862"/>
<path d="M53.4656 57.787C55.079 56.1768 57.9269 55.074 61.3231 55.0718C62.6501 55.0718 62.3691 54.8749 62.8983 57.6679C63.3117 60.6837 64.2126 66.4325 64.8929 73.1785L69.1088 81.9836L72.6554 81.8755C72.6363 79.6205 72.5893 77.3859 72.482 75.2951C72.129 68.3609 71.6174 55.8167 72.327 55.1085C72.4442 54.9915 75.3324 55.1198 75.5248 55.1279C78.056 55.2385 79.7107 56.0683 80.761 57.3994L92.3972 68.7284L99.9542 54.6455L106.49 58.1387L96.6046 76.5589C96.3333 77.0646 95.9479 77.5003 95.4789 77.8317C95.0099 78.1632 94.4701 78.3812 93.9021 78.4687C93.3341 78.5561 92.7536 78.5106 92.2063 78.3356C91.659 78.1607 91.1599 77.8611 90.7486 77.4606L82.046 68.9891C81.6809 72.2716 81.1577 75.7105 81.1221 78.7886C81.1101 79.791 81.1274 80.7304 81.1659 81.6183L88.7843 81.3864L89.0187 89.0654L82.1586 89.274C82.9953 93.1206 83.8927 95.2706 82.9787 97.365C82.5459 98.3575 79.5779 99.3472 75.7716 99.9276C75.0987 100.029 74.4131 99.8586 73.8657 99.4552C73.3183 99.0517 72.9539 98.4477 72.8527 97.7761C72.8421 97.7057 72.8345 97.6345 72.8298 97.5626C72.6864 95.4084 72.6638 92.6167 72.6635 89.5644L66.8349 89.7405C66.7957 89.7405 66.7566 89.7427 66.717 89.7427C66.39 89.7409 66.0645 89.6972 65.7486 89.6126C65.7337 92.4797 65.5624 95.3438 65.2353 98.1923C65.1451 98.9289 64.7748 99.6029 64.201 100.075C63.6272 100.547 62.8937 100.781 62.152 100.729C52.9901 100.086 51.775 97.0848 51.6228 94.7125C51.3757 90.9142 54.7295 87.5986 54.7295 80.1959C54.7295 72.7931 47.9054 63.3365 53.4656 57.787Z" fill="#54ABA7"/>
<path d="M87.2004 63.0698L82.9138 81.0296C82.8473 81.309 82.845 81.5998 82.9071 81.8803C82.9692 82.1607 83.0941 82.4235 83.2724 82.6489C83.4508 82.8743 83.678 83.0565 83.9369 83.1817C84.1959 83.307 84.4799 83.3722 84.7676 83.3723H110.041C110.459 83.3723 110.865 83.2354 111.197 82.9828C111.529 82.7301 111.769 82.3757 111.879 81.9739L116.819 64.0145C116.896 63.7322 116.907 63.4358 116.851 63.1484C116.796 62.8611 116.674 62.5905 116.496 62.3577C116.318 62.1249 116.089 61.9362 115.826 61.8063C115.563 61.6764 115.274 61.6087 114.981 61.6086H89.0569C88.6279 61.6081 88.2112 61.7521 87.8743 62.0173C87.5374 62.2824 87.2999 62.6533 87.2004 63.0698Z" fill="#9EBCEA"/>
<path d="M73.9187 83.3705H104.464C104.761 83.3705 105.046 83.2528 105.256 83.0432C105.466 82.8336 105.583 82.5493 105.583 82.2529C105.583 81.9565 105.466 81.6722 105.256 81.4626C105.046 81.253 104.761 81.1353 104.464 81.1353H73.9198C73.6228 81.1353 73.338 81.253 73.128 81.4626C72.9179 81.6722 72.8 81.9565 72.8 82.2529C72.8 82.5491 72.9178 82.8332 73.1276 83.0428C73.3373 83.2524 73.6219 83.3703 73.9187 83.3705Z" fill="#9EBCEA"/>
<path d="M100.901 75.2945C99.2505 75.2945 97.9124 73.959 97.9124 72.3116C97.9124 70.6641 99.2505 69.3286 100.901 69.3286C102.552 69.3286 103.89 70.6641 103.89 72.3116C103.89 73.959 102.552 75.2945 100.901 75.2945Z" fill="white"/>
<path d="M95.1435 85.7279C93.5584 86.7039 91.1048 87.1654 88.9655 87.3346L88.8451 83.4447C89.8516 83.4165 91.3979 83.3108 92.912 83.3707C93.5965 82.814 93.9905 82.6484 94.6931 81.9472C95.4408 81.2009 97.4029 80.7527 97.7736 81.9472C98.1443 83.1416 96.5362 84.8699 95.1435 85.7279Z" fill="#E98862"/>
<path d="M228.71 185.691C231.362 184.932 233.359 182.564 234.152 179.926C234.945 177.289 234.665 174.427 233.891 171.785C233.259 169.628 232.302 167.543 232.064 165.309C231.278 157.868 238.51 150.265 235.107 143.598C234.006 141.442 231.877 139.757 231.497 137.368C231.182 135.392 232.158 133.471 232.643 131.529C233.31 128.857 232.972 125.825 231.235 123.686C229.498 121.546 226.216 120.611 223.821 121.981C220.691 123.773 220.42 128.198 221.224 131.709C222.029 135.22 223.519 138.833 222.537 142.298C221.6 145.601 218.551 148.089 218.004 151.478C217.549 154.297 218.928 157.043 219.533 159.832C220.486 164.216 219.516 168.76 219.474 173.245C219.433 177.73 220.703 182.762 228.71 185.691Z" fill="#8DDBE0"/>
<path d="M232.803 186.117C234.381 185.617 235.797 184.706 236.906 183.478C238.015 182.251 238.776 180.751 239.112 179.133C239.631 176.464 238.994 173.466 240.458 171.173C242.441 168.067 244.476 167.717 246.943 164.977C250.74 160.767 250.873 158.902 250.623 151.103C250.517 147.805 255.079 144.083 253.472 140.914C252.057 138.122 247.753 138.108 245.313 140.073C242.872 142.037 241.8 145.186 240.737 148.13C239.674 151.073 238.333 154.186 235.638 155.786C234.021 156.744 231.905 157.187 231.013 158.838C230.296 160.165 230.657 161.785 230.945 163.265C231.67 166.985 231.489 171.524 228.36 173.673C226.948 174.642 225.1 174.976 223.94 176.234C222.793 177.478 222.608 179.321 222.686 181.01C222.838 184.257 223.735 187.427 225.306 190.274" fill="#DEE8F5"/>
<path d="M229.03 188.708C230.41 187.068 231.241 185.038 231.409 182.903C231.576 180.767 231.07 178.633 229.963 176.799C228.048 173.771 224.478 171.685 223.729 168.182C223.061 165.063 224.913 161.84 224.358 158.698C223.756 155.282 220.594 153.041 218.082 150.643C217.429 150.061 216.867 149.384 216.414 148.635C215.31 146.651 215.618 144.217 215.243 141.977C214.525 137.69 210.985 133.886 206.687 133.178C202.918 132.556 200.219 134.717 200.219 138.697C200.219 143.411 203.757 145.432 205.563 147.566C208.156 150.656 209.532 154.583 209.434 158.613C209.307 163.114 207.386 167.905 209.438 171.916C210.943 174.859 214.159 176.428 216.685 178.563C218.594 180.196 220.149 182.201 221.252 184.456C222.355 186.711 222.985 189.167 223.101 191.673" fill="white"/>
<path d="M216.875 181.316H239.603V204H216.875V181.316Z" fill="#367CFF"/>
<g opacity="0.42">
<path d="M216.875 185.739H239.603V190.167H216.875V185.739Z" fill="white"/>
</g>
<path d="M179.065 95.7189C152.581 95.7189 131.112 74.2915 131.112 47.8595C131.112 21.4274 152.581 0 179.065 0C205.548 0 227.017 21.4274 227.017 47.8595C227.017 74.2915 205.548 95.7189 179.065 95.7189Z" fill="#DEE8F5"/>
<path d="M179.065 86.2525C157.82 86.2525 140.597 69.0634 140.597 47.8595C140.597 26.6557 157.82 9.46655 179.065 9.46655C200.31 9.46655 217.532 26.6557 217.532 47.8595C217.532 69.0634 200.31 86.2525 179.065 86.2525Z" fill="white"/>
<path d="M179.065 76.594C163.164 76.594 150.274 63.7291 150.274 47.8595C150.274 31.9899 163.164 19.125 179.065 19.125C194.965 19.125 207.855 31.9899 207.855 47.8595C207.855 63.7291 194.965 76.594 179.065 76.594Z" fill="#DEE8F5"/>
<path d="M179.065 66.9646C168.493 66.9646 159.922 58.4109 159.922 47.8594C159.922 37.3079 168.493 28.7542 179.065 28.7542C189.637 28.7542 198.207 37.3079 198.207 47.8594C198.207 58.4109 189.637 66.9646 179.065 66.9646Z" fill="white"/>
<path d="M179.065 57.6331C173.656 57.6331 169.272 53.2573 169.272 47.8594C169.272 42.4615 173.656 38.0857 179.065 38.0857C184.473 38.0857 188.857 42.4615 188.857 47.8594C188.857 53.2573 184.473 57.6331 179.065 57.6331Z" fill="#DEE8F5"/>
<path d="M145.432 82.1993L145.906 86.2524L151.314 80.8548L150.84 76.8018L145.432 82.1993Z" fill="#367CFF"/>
<path d="M141.464 81.8187L145.525 82.2923L150.933 76.8947L146.872 76.4211L141.464 81.8187Z" fill="#367CFF"/>
<path d="M178.099 50.2218C177.919 50.0422 177.675 49.9412 177.421 49.9412C177.166 49.9412 176.922 50.0421 176.742 50.2217L145.067 81.8354L146.424 83.1897L178.099 51.5764C178.279 51.3968 178.38 51.1532 178.38 50.8992C178.38 50.6452 178.279 50.4016 178.099 50.222L178.099 50.2218Z" fill="#367CFF"/>
<path d="M131.29 52.584L129.276 56.1352L136.833 54.9651L138.848 51.4138L131.29 52.584Z" fill="#367CFF"/>
<path d="M128.313 49.9393L131.31 52.7144L138.868 51.5439L135.87 48.7688L128.313 49.9393Z" fill="#367CFF"/>
<path d="M176.572 46.0207C176.533 45.7697 176.396 45.5445 176.191 45.3945C175.985 45.2446 175.729 45.1822 175.477 45.2212L131.212 52.0755L131.506 53.9682L175.771 47.1139C176.023 47.0749 176.248 46.9379 176.399 46.7329C176.549 46.5279 176.611 46.2717 176.572 46.0207Z" fill="#367CFF"/>
</g>
<defs>
<clipPath id="clip0_234_1751">
<rect width="270" height="204" fill="white" transform="matrix(-1 0 0 1 270 0)"/>
</clipPath>
</defs>
</svg>
