<svg viewBox="0 0 320 212" fill="none" xmlns="http://www.w3.org/2000/svg">
<g clip-path="url(#clip0_6_142)">
<path d="M74.8017 204.931H17.3741C14.2247 194.969 23.6894 190.054 26.6967 196.511C24.9018 192.659 24.4244 187.777 28.1524 184.634C32.0594 182.143 36.7628 184.991 37.4828 189.497C36.525 183.497 41.0875 177.517 46.1651 176.157C59.1966 172.67 62.1037 188.297 60.9221 190.754C64.3649 183.595 78.5964 192.431 74.8017 204.931Z" fill="#8DDBE0"/>
<path d="M235.341 0H79.6926V137.035H235.341V0Z" fill="#DEE8F5"/>
<path d="M235.341 0H79.6926V11.2882H235.341V0Z" fill="#C1D8ED"/>
<path d="M230.717 8.47643C232.004 8.47643 233.047 7.20842 233.047 5.64425C233.047 4.08008 232.004 2.81207 230.717 2.81207C229.43 2.81207 228.387 4.08008 228.387 5.64425C228.387 7.20842 229.43 8.47643 230.717 8.47643Z" fill="white"/>
<path d="M194.194 72.676H87.1089V96.2974H194.194V72.676Z" fill="white"/>
<path d="M194.194 104.034H87.1089V127.656H194.194V104.034Z" fill="white"/>
<path d="M124.776 19.2266H87.1091V65.4161H124.776V19.2266Z" fill="#C1D8ED"/>
<path d="M106.493 31.228H105.392V53.4144H106.493V31.228Z" fill="white"/>
<path d="M115.067 41.6522H96.8176V42.9906H115.067V41.6522Z" fill="white"/>
<path d="M229.693 19.2266H131.246V65.4161H229.693V19.2266Z" fill="#C1D8ED"/>
<path d="M229.105 72.676H200.078V88.0178H229.105V72.676Z" fill="white"/>
<path d="M229.105 92.7477H200.078V108.09H229.105V92.7477Z" fill="white"/>
<path d="M229.105 112.314H200.078V127.656H229.105V112.314Z" fill="white"/>
<path d="M60.5985 201.907C61.1533 196.235 61.1533 195.651 61.1533 195.459H55.8906C55.8906 195.44 55.8906 195.415 55.8918 195.384C55.8733 195.858 55.6076 198.747 55.3726 201.151L60.5985 201.907Z" fill="#E98862"/>
<path d="M39.6287 202.672C39.6287 202.672 39.6465 196.046 39.6465 195.459H34.3838C34.3838 196.044 34.366 202.651 34.366 202.651L39.6287 202.672Z" fill="#E98862"/>
<path d="M53.2691 199.887L62.54 199.695C62.1045 186.28 62.0777 172.208 61.9421 158.761C60.1325 144.267 59.1796 128.35 56.9462 113.96L56.8793 113.984L56.6836 112.36L37.6179 110.928C37.6179 110.928 37.0678 122.286 36.8761 126.07C35.9471 144.436 34.1423 178.457 33.0098 199.521L42.2494 200.47C43.9139 179.818 46.4902 149.726 48.0747 128.03C49.8944 138.593 51.1322 149.53 52.7145 160.002C53.031 173.113 53.2984 186.817 53.2691 199.887Z" fill="#262626"/>
<path d="M46.0264 205.146C46.1679 205.145 46.3078 205.109 46.4373 205.04C46.5667 204.97 46.683 204.869 46.7789 204.742C46.8747 204.616 46.9481 204.467 46.9944 204.304C47.0407 204.141 47.0589 203.969 47.0479 203.797C47.0327 203.56 46.9618 203.332 46.8438 203.142C46.7257 202.951 46.5653 202.806 46.3815 202.722L40.2562 200.227C40.1375 200.179 40.0117 200.163 39.8874 200.18C39.7632 200.197 39.6433 200.246 39.5362 200.324C38.6942 201.035 37.6869 201.398 36.6625 201.36C35.8645 201.291 35.0985 200.951 34.4519 200.378C34.3951 200.322 34.3262 200.286 34.2532 200.275C34.1802 200.264 34.1062 200.279 34.0398 200.317C33.9734 200.355 33.9174 200.416 33.8782 200.492C33.839 200.567 33.8184 200.655 33.8186 200.744V204.385C33.8186 204.493 33.8361 204.599 33.87 204.698C33.9039 204.798 33.9535 204.888 34.0161 204.964C34.0788 205.039 34.1531 205.099 34.2348 205.14C34.3166 205.181 34.4041 205.202 34.4925 205.201L46.0264 205.146Z" fill="#C1D8ED"/>
<path d="M67.0106 205.146C67.1521 205.145 67.292 205.109 67.4214 205.04C67.5509 204.97 67.6672 204.869 67.7631 204.742C67.859 204.616 67.9323 204.467 67.9786 204.304C68.0249 204.141 68.0431 203.969 68.032 203.797C68.0168 203.56 67.946 203.332 67.828 203.142C67.71 202.951 67.5497 202.806 67.3659 202.722L61.2403 200.227C61.1217 200.179 60.9959 200.163 60.8717 200.18C60.7475 200.197 60.6277 200.246 60.5206 200.324C59.6784 201.035 58.6711 201.398 57.6466 201.36C56.8487 201.291 56.0828 200.951 55.4363 200.378C55.3794 200.322 55.3105 200.286 55.2375 200.275C55.1646 200.264 55.0906 200.279 55.0242 200.317C54.9578 200.355 54.9017 200.416 54.8625 200.492C54.8233 200.567 54.8026 200.655 54.8027 200.744V204.385C54.8027 204.493 54.8202 204.599 54.8541 204.698C54.888 204.798 54.9377 204.888 55.0003 204.964C55.0629 205.039 55.1372 205.099 55.2189 205.14C55.3007 205.181 55.3883 205.202 55.4766 205.201L67.0106 205.146Z" fill="#C1D8ED"/>
<path d="M43.7673 79.6112C43.7673 79.6112 45.705 78.362 45.2725 71.9467L49.2762 71.0443C49.2762 71.0443 48.8251 76.796 50.8517 78.6219L43.7673 79.6112Z" fill="#E98862"/>
<path d="M43.0007 69.4591C43.2779 71.4056 44.1515 73.2488 45.5637 73.8767C47.2402 74.6232 48.482 74.6737 50.4149 74.6737C53.0526 74.6737 52.9654 71.3294 53.0393 67.9592C53.1145 64.5774 52.8924 60.9464 51.8499 59.7673C49.7699 57.4141 43.6618 58.9042 42.919 62.8405C42.5348 64.8769 42.7368 67.6055 43.0007 69.4591Z" fill="#E98862"/>
<path d="M54.4533 61.7254C54.4533 61.7254 55.5334 61.4324 55.2377 60.1226C55.0417 59.2543 54.1265 59.4471 54.1265 59.4471C54.1265 59.4471 54.9931 59.2543 54.9931 58.3345C54.9931 57.7556 54.6267 56.7731 53.5216 57.3343C52.2252 57.9927 50.7463 57.9083 49.6221 57.6783C48.986 57.5091 48.3403 57.3983 47.6904 57.3468H47.6872C46.9402 57.3311 46.1956 57.4522 45.4783 57.706C43.4685 58.4372 40.3797 60.6375 41.0734 65.5947C41.8227 70.9529 44.5067 73.3073 44.8761 73.6333C45.5703 74.2469 49.8381 74.3712 50.2609 73.857C50.8939 73.0874 51.2383 69.9935 51.11 64.6033C52.859 64.2682 54.0609 64.1232 54.0609 64.1232C54.0609 64.1232 55.5144 64.1893 55.5144 62.8978C55.5144 61.6063 54.4533 61.7254 54.4533 61.7254Z" fill="#0F1011"/>
<path d="M52.3861 68.5987C52.4056 68.8456 52.3845 69.0947 52.3241 69.3316C52.2637 69.5685 52.1652 69.7884 52.0342 69.9786C51.9033 70.1688 51.7426 70.3255 51.5614 70.4395C51.3803 70.5535 51.1823 70.6227 50.979 70.6428C50.7756 70.663 50.571 70.6339 50.3771 70.5571C50.1831 70.4803 50.0036 70.3575 49.849 70.1956C49.6944 70.0338 49.5679 69.8362 49.4766 69.6143C49.3854 69.3925 49.3314 69.1509 49.3177 68.9034C49.2977 68.6577 49.3185 68.4096 49.379 68.1738C49.4396 67.9381 49.5385 67.7196 49.6699 67.5313C49.8013 67.343 49.9625 67.1888 50.144 67.0778C50.3254 66.9668 50.5234 66.9013 50.7261 66.8853C51.8232 66.8439 52.3167 67.5687 52.3861 68.5987Z" fill="#E98862"/>
<path d="M66.4157 74.2893L66.5322 74.3502L65.0745 74.6363L66.5054 77.9572C66.5054 77.9572 71.8115 79.4668 74.2943 76.0713C74.3574 75.9847 74.3976 75.877 74.4096 75.7623C74.4216 75.6475 74.4048 75.531 74.3615 75.428C74.3182 75.325 74.2504 75.2402 74.1669 75.1848C74.0833 75.1294 73.988 75.1059 73.8933 75.1174C72.4624 75.2941 69.9109 75.504 68.7616 74.9529C69.2671 74.6512 69.9372 74.1894 69.832 73.9133C69.5551 73.1882 67.153 74.1446 66.4157 74.2893Z" fill="#E98862"/>
<path d="M99.6338 29.2462H61.9668V75.4357H99.6338V29.2462Z" fill="#367CFF"/>
<path d="M82.1415 74.2893L82.2583 74.3502L80.8005 74.6363L82.2315 77.9572C82.2315 77.9572 87.5376 79.4668 90.0204 76.0713C90.0835 75.9847 90.1237 75.877 90.1357 75.7623C90.1476 75.6475 90.1309 75.531 90.0876 75.428C90.0443 75.325 89.9765 75.2402 89.8929 75.1848C89.8094 75.1294 89.7141 75.1059 89.6194 75.1174C88.1887 75.2941 85.637 75.504 84.488 74.9529C84.9934 74.6512 85.6636 74.1894 85.5583 73.9133C85.2816 73.1882 82.8791 74.1446 82.1415 74.2893Z" fill="#E98862"/>
<path d="M80.6258 74.0004L67.2935 85.6975L64.1992 83.9265L68.9553 79.1365L65.4691 74.0208L58.7373 80.8006L55.735 79.0823C55.572 78.9747 55.4041 78.8786 55.232 78.7944L54.7481 78.5174L54.7243 78.5783C54.0946 78.3608 53.4454 78.2381 52.7911 78.2127C51.7849 78.1603 46.8753 78.1518 43.2806 78.1518C40.8657 78.1518 38.8832 79.0527 37.7382 80.4444C33.7909 85.2432 38.6358 93.4205 38.6358 99.8212C38.6358 106.222 36.2551 109.089 36.4305 112.373C36.7062 117.536 57.3384 116.316 58.3897 113.384C59.472 110.36 57.2752 108.496 57.3715 98.6047C57.3965 95.9419 57.7772 92.9757 58.0255 90.1478L59.551 88.6116L66.4234 92.5452C66.8648 92.7977 67.3539 92.902 67.8397 92.8472C68.3255 92.7924 68.7904 92.5805 69.1861 92.2335L83.825 79.3909L80.6258 74.0004Z" fill="#54ABA7"/>
<path d="M281.282 134.635L278.7 135.377L281.938 152.027L284.52 151.285L281.282 134.635Z" fill="#F0F6FF"/>
<path d="M284.125 133.344L281.907 147.958L283.341 148.28L285.558 133.666L284.125 133.344Z" fill="#C1D8ED"/>
<path d="M284.126 133.34L283.873 134.952L285.306 135.283L285.558 133.671L284.126 133.34Z" fill="#DEE8F5"/>
<path d="M279.685 137.055L278.888 137.436L283.535 151.775L284.331 151.394L279.685 137.055Z" fill="#367CFF"/>
<path d="M285.671 143.332H278.667V154.215H285.671V143.332Z" fill="#C1D8ED"/>
<path d="M259.97 173.872H257.351V205.203H259.97V173.872Z" fill="#C1D8ED"/>
<path d="M257.814 173.872H255.195V205.203H257.814V173.872Z" fill="#DEE8F5"/>
<path d="M292.601 173.872H289.981V205.203H292.601V173.872Z" fill="#C1D8ED"/>
<path d="M290.445 173.872H287.825V205.203H290.445V173.872Z" fill="#DEE8F5"/>
<path d="M267.155 173.872H264.536V205.203H267.155V173.872Z" fill="#C1D8ED"/>
<path d="M264.999 173.872H262.38V205.203H264.999V173.872Z" fill="#DEE8F5"/>
<path d="M299.786 173.872H297.166V205.203H299.786V173.872Z" fill="#C1D8ED"/>
<path d="M297.63 173.872H295.01V205.203H297.63V173.872Z" fill="#DEE8F5"/>
<path d="M299.786 153.817H264.552V174.623H299.786V153.817Z" fill="#C1D8ED"/>
<path d="M290.428 153.817H255.195V174.623H290.428V153.817Z" fill="#DEE8F5"/>
<g opacity="0.53">
<path d="M288.533 156.775H257.09V171.574H288.533V156.775Z" fill="#F3F5FD"/>
</g>
<path d="M272.811 165.872C273.583 165.872 274.208 165.112 274.208 164.174C274.208 163.237 273.583 162.477 272.811 162.477C272.04 162.477 271.415 163.237 271.415 164.174C271.415 165.112 272.04 165.872 272.811 165.872Z" fill="white"/>
<path d="M220.395 138.985C220.395 138.985 218.495 147.26 217.428 151.553C217.378 151.757 217.367 151.972 217.397 152.181C217.427 152.39 217.497 152.588 217.601 152.759C217.706 152.929 217.841 153.068 217.998 153.163C218.154 153.259 218.326 153.308 218.501 153.308H225.167C225.455 153.308 225.732 153.173 225.94 152.931C226.149 152.69 226.273 152.36 226.286 152.01L226.736 140.492L220.395 138.985Z" fill="#0F1011"/>
<path d="M230.611 157.391C230.611 157.391 228.672 156.144 229.1 149.728L225.095 148.83C225.095 148.83 225.549 154.581 223.525 156.409L230.611 157.391Z" fill="#E98862"/>
<path opacity="0.15" d="M224.345 155.207L227.669 152.11L225.057 152.079C224.982 153.166 224.741 154.227 224.345 155.207Z" fill="black"/>
<path d="M231.37 147.239C231.094 149.185 230.222 151.03 228.81 151.66C227.271 152.404 225.606 152.68 223.96 152.462C219.576 152.029 220.434 139.913 222.514 137.557C224.594 135.201 230.701 136.685 231.447 140.62C231.833 142.656 231.633 145.387 231.37 147.239Z" fill="#E98862"/>
<path d="M225.099 145.746C225.299 145.746 225.462 145.549 225.462 145.305C225.462 145.061 225.299 144.863 225.099 144.863C224.898 144.863 224.736 145.061 224.736 145.305C224.736 145.549 224.898 145.746 225.099 145.746Z" fill="#0F1011"/>
<path d="M222.234 145.464C222.434 145.464 222.597 145.266 222.597 145.022C222.597 144.779 222.434 144.581 222.234 144.581C222.033 144.581 221.871 144.779 221.871 145.022C221.871 145.266 222.033 145.464 222.234 145.464Z" fill="#0F1011"/>
<path d="M222.566 143.859L221.604 143.875" stroke="#0F1011" stroke-width="1.362" stroke-miterlimit="10" stroke-linecap="round"/>
<path d="M225.882 144.297L224.933 144.02" stroke="#0F1011" stroke-width="1.362" stroke-miterlimit="10" stroke-linecap="round"/>
<path d="M224.933 148.782C224.933 148.782 223.593 148.955 222.653 148.557C222.653 148.557 222.661 149.63 223.722 149.735C224.783 149.84 224.933 148.782 224.933 148.782Z" fill="white"/>
<g opacity="0.15">
<path d="M223.489 147.755C223.519 147.755 223.548 147.742 223.57 147.718C223.593 147.695 223.608 147.662 223.613 147.626C223.617 147.59 223.611 147.553 223.595 147.522C223.579 147.491 223.554 147.468 223.526 147.457L222.787 147.183L223.302 145.784C223.314 145.747 223.314 145.707 223.302 145.67C223.29 145.634 223.267 145.605 223.237 145.588C223.208 145.572 223.174 145.571 223.144 145.584C223.113 145.597 223.088 145.624 223.074 145.659L222.442 147.374L223.452 147.749C223.464 147.754 223.476 147.756 223.489 147.755Z" fill="black"/>
</g>
<path d="M220.166 139.977C220.166 139.977 220.808 133.667 229.125 135.216C231.199 135.603 234.138 137.571 234.614 144.021C234.831 146.98 235.67 149.77 236.31 151.536C236.386 151.743 236.418 151.97 236.403 152.196C236.389 152.423 236.328 152.641 236.226 152.831C236.124 153.021 235.985 153.177 235.821 153.286C235.657 153.394 235.474 153.451 235.287 153.451L229.44 153.453C229.294 153.454 229.148 153.419 229.012 153.351C228.876 153.283 228.753 153.183 228.649 153.057C228.545 152.931 228.462 152.781 228.406 152.616C228.349 152.451 228.32 152.274 228.32 152.096C228.32 152.076 228.32 152.056 228.32 152.035C228.362 150.825 228.395 148.777 228.338 145.646C228.034 143.859 228.844 142.599 227.669 143.01C223.305 144.534 220.494 140.079 220.166 139.977Z" fill="#0F1011"/>
<path d="M226.934 147.206C226.917 147.451 226.941 147.697 227.003 147.931C227.065 148.165 227.164 148.382 227.295 148.569C227.426 148.756 227.586 148.91 227.766 149.023C227.946 149.135 228.142 149.203 228.344 149.222C228.545 149.242 228.748 149.214 228.94 149.138C229.133 149.063 229.311 148.942 229.465 148.783C229.619 148.624 229.746 148.429 229.838 148.211C229.93 147.992 229.986 147.753 230.003 147.508C230.042 147.023 229.921 146.538 229.666 146.161C229.411 145.784 229.044 145.545 228.644 145.497C228.627 145.495 228.61 145.494 228.594 145.492C227.495 145.448 227.003 146.175 226.934 147.206Z" fill="#E98862"/>
<path d="M214.753 204.498C214.277 204.401 208.905 203.286 208.905 203.286L209.791 196.979C209.791 196.979 215.148 198.091 215.623 198.188L214.753 204.498Z" fill="#E98862"/>
<path d="M205.841 210.548C205.818 210.717 205.824 210.891 205.859 211.058C205.894 211.225 205.957 211.381 206.044 211.517C206.131 211.652 206.24 211.765 206.364 211.847C206.488 211.93 206.625 211.98 206.766 211.995C206.962 212.016 207.158 211.969 207.332 211.859C207.506 211.749 207.651 211.581 207.749 211.374L210.784 204.442C210.842 204.307 210.876 204.159 210.883 204.007C210.89 203.855 210.87 203.704 210.824 203.562C210.386 202.435 210.258 201.167 210.458 199.945C210.646 199 211.048 198.138 211.62 197.457C211.675 197.398 211.715 197.322 211.736 197.236C211.757 197.15 211.757 197.059 211.737 196.973C211.717 196.887 211.677 196.81 211.622 196.75C211.567 196.691 211.5 196.652 211.427 196.637L208.473 196.036C208.386 196.018 208.297 196.021 208.211 196.046C208.125 196.07 208.043 196.114 207.971 196.177C207.9 196.24 207.839 196.319 207.792 196.41C207.745 196.501 207.714 196.603 207.7 196.709L205.841 210.548Z" fill="#C1D8ED"/>
<path d="M231.382 187.44C233.613 187.553 235.882 187.632 238.153 187.701L241.565 187.792L244.973 187.867L245.313 187.874C246.72 187.906 248.066 188.586 249.077 189.777C250.089 190.967 250.692 192.58 250.764 194.289C250.837 195.998 250.373 197.678 249.467 198.988C248.562 200.298 247.281 201.143 245.883 201.35L212.202 206.322L210.829 194.221L244.361 187.928L245.271 201.411L241.81 201.683L238.352 201.937C236.042 202.1 233.732 202.252 231.381 202.369L231.382 187.44Z" fill="#262626"/>
<path d="M239.879 201.848C235.229 201.026 234.766 200.873 234.613 200.824L235.98 194.646C235.965 194.641 235.945 194.635 235.921 194.628C236.302 194.729 238.665 195.168 240.636 195.517L239.879 201.848Z" fill="#E98862"/>
<path d="M245.687 207.347C245.736 207.509 245.757 207.681 245.749 207.853C245.741 208.024 245.703 208.192 245.639 208.346C245.575 208.499 245.486 208.635 245.377 208.744C245.267 208.854 245.141 208.935 245.005 208.982C244.816 209.048 244.616 209.047 244.428 208.979C244.24 208.911 244.072 208.779 243.943 208.599L239.881 202.493C239.803 202.374 239.747 202.237 239.717 202.09C239.686 201.942 239.683 201.789 239.705 201.64C239.959 200.432 239.887 199.158 239.5 198.004C239.168 197.119 238.638 196.365 237.971 195.829C237.908 195.784 237.856 195.718 237.822 195.639C237.788 195.559 237.774 195.47 237.78 195.381C237.786 195.292 237.813 195.207 237.858 195.136C237.903 195.065 237.963 195.011 238.032 194.98L240.839 193.707C240.922 193.67 241.01 193.653 241.098 193.657C241.186 193.661 241.273 193.686 241.353 193.731C241.434 193.775 241.506 193.839 241.566 193.918C241.626 193.997 241.673 194.089 241.703 194.19L245.687 207.347Z" fill="#C1D8ED"/>
<path d="M223.904 201.272C222.492 201.126 221.082 201.021 219.671 200.922C218.261 200.831 216.85 200.739 215.44 200.678L213.325 200.579L211.21 200.505C209.8 200.448 208.391 200.424 206.981 200.392L207.47 188.08C210.108 188.529 212.75 188.941 215.392 189.364C218.033 189.786 220.677 190.175 223.321 190.57L227.289 191.139L231.26 191.68C233.908 192.026 236.557 192.369 239.212 192.653L238.047 204.788C235.41 204.32 232.767 203.913 230.124 203.508L226.158 202.923L222.189 202.365C219.541 202.01 216.894 201.649 214.245 201.32C211.595 200.991 208.945 200.653 206.292 200.351C205.02 200.206 203.839 199.482 202.987 198.324C202.135 197.167 201.674 195.66 201.696 194.107C201.718 192.554 202.222 191.068 203.107 189.946C203.992 188.825 205.192 188.152 206.468 188.061L206.782 188.039C208.189 187.939 209.597 187.848 211.003 187.723L213.114 187.547L215.224 187.347C216.631 187.218 218.038 187.058 219.444 186.9C220.851 186.733 222.257 186.56 223.662 186.346L223.904 201.272Z" fill="#262626"/>
<path d="M236.503 185.571L237.245 200.715L215.821 200.409L217.438 187.002L236.503 185.571Z" fill="#262626"/>
<path d="M243.656 182.148L237.978 160.747C237.743 159.632 237.254 158.621 236.567 157.829C235.422 156.437 233.445 155.539 231.034 155.536C230.853 157.245 222.318 157.251 222.253 155.575C221.927 155.581 221.674 155.587 221.516 155.596C218.067 155.777 216.679 157.391 216.238 159.819L209 181.113C208.823 181.635 208.763 182.203 208.825 182.762C208.887 183.321 209.07 183.85 209.355 184.296C209.639 184.741 210.015 185.087 210.445 185.299C210.876 185.51 211.344 185.58 211.803 185.5L215.758 184.815C215.563 186.013 215.532 186.944 215.917 188.021C216.967 190.955 237.6 192.173 237.875 187.012C237.878 186.961 237.878 186.911 237.88 186.86L241.308 186.472C241.716 186.426 242.109 186.269 242.461 186.014C242.812 185.758 243.111 185.409 243.336 184.994C243.561 184.579 243.707 184.107 243.762 183.614C243.818 183.121 243.781 182.619 243.656 182.146V182.148ZM215.624 178.377L216.933 174.528C216.918 175.905 216.858 177.113 216.771 178.179L215.624 178.377ZM237.409 180.244L236.409 180.357C235.915 178.449 235.666 176.461 235.67 174.461C235.67 174.228 235.678 173.997 235.69 173.766L237.409 180.244Z" fill="#54ABA7"/>
<path d="M229.376 165.775L230.262 181.824C230.272 182.013 230.251 182.203 230.198 182.382C230.146 182.561 230.064 182.724 229.957 182.863C229.851 183.001 229.722 183.112 229.579 183.187C229.436 183.263 229.282 183.302 229.126 183.302H210.687C210.405 183.302 210.133 183.174 209.924 182.945C209.715 182.716 209.583 182.4 209.554 182.059L208.189 166.01C208.173 165.817 208.19 165.622 208.24 165.438C208.289 165.254 208.37 165.084 208.477 164.94C208.583 164.796 208.714 164.681 208.859 164.602C209.005 164.524 209.163 164.483 209.322 164.483H228.24C228.529 164.483 228.807 164.616 229.018 164.856C229.229 165.096 229.357 165.424 229.376 165.775Z" fill="#9EBCEA"/>
<path d="M212.227 183.302H231.6C232.039 183.302 232.395 182.869 232.395 182.335C232.395 181.801 232.039 181.369 231.6 181.369H212.227C211.788 181.369 211.432 181.801 211.432 182.335C211.432 182.869 211.788 183.302 212.227 183.302Z" fill="#9EBCEA"/>
<path d="M218.737 176.025C219.706 176.025 220.491 175.07 220.491 173.892C220.491 172.714 219.706 171.76 218.737 171.76C217.768 171.76 216.983 172.714 216.983 173.892C216.983 175.07 217.768 176.025 218.737 176.025Z" fill="white"/>
<path d="M221.265 185.34C222.39 186.184 224.132 186.583 225.65 186.729L225.736 183.366C225.021 183.341 223.924 183.25 222.849 183.302C222.363 182.82 222.083 182.677 221.585 182.071C221.054 181.425 219.661 181.038 219.398 182.071C219.135 183.104 220.277 184.597 221.265 185.34Z" fill="#E98862"/>
<path d="M222.252 155.575C222.318 157.251 223.067 159.715 225.38 159.901C228.462 160.148 230.853 157.245 231.034 155.536H231.026C227.991 155.536 224.022 155.542 222.252 155.575Z" fill="#E98862"/>
<path d="M210.544 162.155L206.579 159.109H187.783V140.511H210.544V162.155Z" fill="#DEE8F5"/>
<path d="M191.128 149.638L196.251 146.616V147.798L192.187 150.097V150.124L196.251 152.436V153.605L191.128 150.584V149.638Z" fill="white" stroke="white" stroke-miterlimit="10"/>
<path d="M197.429 154.131L200.066 144.606H200.996L198.359 154.131H197.429Z" fill="white" stroke="white" stroke-miterlimit="10"/>
<path d="M207.199 150.61L202.077 153.605V152.436L206.205 150.124V150.097L202.077 147.785V146.616L207.199 149.611V150.61Z" fill="white" stroke="white" stroke-miterlimit="10"/>
<path d="M181.02 31.228H179.919V53.4144H181.02V31.228Z" fill="white"/>
<path d="M189.594 41.6522H171.345V42.9906H189.594V41.6522Z" fill="white"/>
<g opacity="0.61">
<path d="M70.5826 48.4889C73.4851 48.4889 75.8381 45.6284 75.8381 42.0997C75.8381 38.5711 73.4851 35.7106 70.5826 35.7106C67.6801 35.7106 65.3271 38.5711 65.3271 42.0997C65.3271 45.6284 67.6801 48.4889 70.5826 48.4889Z" fill="white"/>
<path d="M96.2571 59.0785H65.3271V62.3402H96.2571V59.0785Z" fill="white"/>
<path d="M96.2571 51.7198H65.3271V54.9816H96.2571V51.7198Z" fill="white"/>
<path d="M96.2571 66.4368H65.3271V69.6985H96.2571V66.4368Z" fill="white"/>
<path d="M96.257 44.3613H77.4978V47.623H96.257V44.3613Z" fill="white"/>
<path d="M96.257 37.0027H77.4978V40.2644H96.257V37.0027Z" fill="white"/>
</g>
</g>
<defs>
<clipPath id="clip0_6_142">
<rect width="320" height="212" fill="white"/>
</clipPath>
</defs>
</svg>
