<svg  viewBox="0 0 217 180" fill="none" xmlns="http://www.w3.org/2000/svg">
<g clip-path="url(#clip0_192_3)">
<path d="M155.134 73.5632L65.7801 73.5632C63.5859 73.5632 61.8071 71.7837 61.8071 69.5884L61.8071 4.13872C61.8071 1.9435 63.5859 0.163918 65.7801 0.163918L155.134 0.163918C157.328 0.163918 159.107 1.9435 159.107 4.13872V69.5884C159.107 71.7837 157.328 73.5632 155.134 73.5632Z" fill="white"/>
<path d="M65.78 73.727H155.133C156.23 73.7258 157.282 73.2894 158.057 72.5135C158.833 71.7376 159.269 70.6856 159.27 69.5884V4.13864C159.269 3.04138 158.833 1.9894 158.057 1.21352C157.282 0.437633 156.23 0.0012105 155.133 0L65.78 0C64.6832 0.0012104 63.6317 0.437627 62.8561 1.2135C62.0806 1.98938 61.6443 3.04136 61.643 4.13864V69.5884C61.6443 70.6856 62.0806 71.7376 62.8561 72.5135C63.6317 73.2894 64.6832 73.7258 65.78 73.727ZM155.133 0.327687C156.143 0.328845 157.111 0.730727 157.825 1.44517C158.54 2.15961 158.941 3.12827 158.942 4.13864V69.5884C158.941 70.5987 158.54 71.5674 157.825 72.2818C157.111 72.9963 156.143 73.3982 155.133 73.3993H65.78C64.7701 73.3982 63.8018 72.9963 63.0877 72.2818C62.3735 71.5674 61.9718 70.5988 61.9706 69.5884V4.13864C61.9718 3.12825 62.3735 2.15959 63.0877 1.44516C63.8018 0.73072 64.7701 0.328845 65.78 0.327687H155.133Z" fill="#292A2E"/>
<path d="M147.527 6.32991L153.914 6.93577C154.573 6.99834 155.057 7.58402 154.995 8.24391L154.389 14.633C154.327 15.2929 153.741 15.7771 153.082 15.7145L146.695 15.1087C146.036 15.0461 145.552 14.4604 145.614 13.8005L146.22 7.41144C146.282 6.75155 146.868 6.26734 147.527 6.32991Z" fill="#292A2E"/>
<path d="M129.341 20.1894L135.719 19.5029C136.378 19.432 136.97 19.9088 137.04 20.5678L137.727 26.9487C137.798 27.6078 137.321 28.1995 136.662 28.2704L130.284 28.957C129.625 29.0279 129.034 28.5511 128.963 27.892L128.277 21.5111C128.206 20.8521 128.683 20.2604 129.341 20.1894Z" fill="white"/>
<path d="M130.154 29.1631C130.204 29.163 130.255 29.1603 130.306 29.1549L136.683 28.4683C137.052 28.4282 137.39 28.2435 137.622 27.9546C137.855 27.6657 137.964 27.2964 137.924 26.9275L137.238 20.547C137.218 20.3643 137.163 20.1872 137.075 20.0259C136.987 19.8647 136.868 19.7223 136.725 19.607C136.582 19.4917 136.418 19.4057 136.241 19.354C136.065 19.3022 135.88 19.2857 135.698 19.3054L129.32 19.992C128.951 20.0318 128.613 20.2165 128.381 20.5054C128.148 20.7943 128.04 21.1639 128.079 21.5328L128.765 27.9134C128.802 28.2561 128.964 28.5732 129.22 28.8038C129.477 29.0345 129.809 29.1624 130.153 29.1631H130.154ZM130.263 28.7594C129.999 28.7878 129.735 28.7102 129.528 28.5436C129.321 28.377 129.189 28.135 129.161 27.871L128.474 21.4903C128.446 21.2262 128.524 20.9616 128.69 20.7548C128.857 20.548 129.099 20.4158 129.363 20.3873L135.741 19.7009C135.871 19.6868 136.004 19.6986 136.13 19.7357C136.256 19.7727 136.374 19.8343 136.476 19.9168C136.578 19.9993 136.663 20.1012 136.726 20.2166C136.789 20.332 136.829 20.4587 136.843 20.5895L137.529 26.9701C137.557 27.2341 137.48 27.4985 137.313 27.7053C137.146 27.912 136.905 28.0443 136.641 28.073L130.263 28.7594Z" fill="#292A2E"/>
<path d="M101.04 30.3064C101.073 30.3064 101.105 30.2984 101.134 30.2831C101.163 30.2678 101.187 30.2456 101.205 30.2185C105.252 24.1965 111.391 23.1001 115.83 23.2393C118.832 23.3536 121.795 23.9516 124.607 25.0101C124.655 25.0298 124.71 25.0295 124.758 25.0093C124.806 24.989 124.845 24.9505 124.865 24.9021C124.885 24.8537 124.885 24.7993 124.865 24.7507C124.846 24.7022 124.807 24.6634 124.759 24.6429C121.903 23.5668 118.892 22.9586 115.843 22.8418C111.305 22.699 105.024 23.8236 100.875 29.9964C100.855 30.0263 100.844 30.0611 100.842 30.0971C100.84 30.1331 100.848 30.1689 100.865 30.2008C100.882 30.2326 100.907 30.2592 100.938 30.2778C100.969 30.2963 101.004 30.3062 101.04 30.3062V30.3064Z" fill="#292A2E"/>
<path d="M100.967 30.3876C100.985 30.3876 101.003 30.385 101.021 30.3801L105.093 29.2294C105.144 29.2151 105.187 29.1812 105.213 29.1352C105.238 29.0892 105.245 29.0348 105.231 28.984C105.216 28.9333 105.182 28.8903 105.136 28.8645C105.09 28.8387 105.036 28.8323 104.985 28.8466L101.104 29.943L100.008 26.0601C99.9927 26.0105 99.9586 25.9689 99.913 25.9441C99.8674 25.9193 99.814 25.9133 99.764 25.9274C99.7141 25.9415 99.6717 25.9746 99.6458 26.0197C99.62 26.0647 99.6127 26.118 99.6256 26.1683L100.776 30.2425C100.787 30.2842 100.812 30.3209 100.847 30.3471C100.881 30.3733 100.923 30.3876 100.967 30.3876Z" fill="#292A2E"/>
<path d="M94.5794 32.1715L100.966 32.7773C101.625 32.8399 102.109 33.4256 102.047 34.0855L101.441 40.4745C101.379 41.1344 100.793 41.6186 100.134 41.5561L93.7473 40.9502C93.0877 40.8876 92.6037 40.302 92.6663 39.6421L93.2719 33.253C93.3344 32.5931 93.9198 32.1089 94.5794 32.1715Z" fill="#54ABA7"/>
<path d="M73.7076 12.5298L80.1092 12.118C80.7704 12.0755 81.3409 12.5773 81.3834 13.2387L81.795 19.6432C81.8375 20.3047 81.336 20.8754 80.6748 20.918L74.2732 21.3298C73.612 21.3723 73.0415 20.8706 72.999 20.2091L72.5874 13.8046C72.5449 13.1431 73.0464 12.5724 73.7076 12.5298Z" fill="#292A2E"/>
<path d="M70.0906 33.4297L76.4686 32.7431C77.1274 32.6722 77.7188 33.149 77.7897 33.8081L78.4759 40.189C78.5468 40.848 78.0703 41.4398 77.4115 41.5107L71.0335 42.1972C70.3747 42.2681 69.7832 41.7913 69.7124 41.1323L69.0261 34.7514C68.9552 34.0923 69.4318 33.5006 70.0906 33.4297Z" fill="#367CFF"/>
<path d="M105.102 54.2157L111.488 54.8215C112.148 54.8841 112.632 55.4698 112.569 56.1296L111.964 62.5187C111.901 63.1786 111.316 63.6628 110.656 63.6003L104.27 62.9944C103.61 62.9318 103.126 62.3461 103.189 61.6863L103.794 55.2972C103.857 54.6373 104.442 54.1531 105.102 54.2157Z" fill="white"/>
<path d="M110.77 63.8046C111.118 63.8039 111.453 63.6738 111.71 63.4396C111.967 63.2054 112.128 62.8839 112.161 62.5376L112.767 56.1485C112.801 55.7792 112.688 55.4112 112.452 55.1254C112.216 54.8395 111.876 54.659 111.507 54.6236L105.121 54.0177C104.938 54.0004 104.753 54.0192 104.578 54.0732C104.402 54.1272 104.239 54.2152 104.098 54.3323C103.956 54.4494 103.839 54.5932 103.753 54.7556C103.667 54.9179 103.614 55.0956 103.597 55.2786L102.991 61.6675C102.956 62.0368 103.07 62.4047 103.306 62.6906C103.542 62.9765 103.882 63.1569 104.251 63.1924L110.637 63.7982C110.682 63.8024 110.726 63.8046 110.77 63.8046ZM104.986 54.409C105.018 54.409 105.05 54.4106 105.082 54.4136L111.469 55.0189C111.733 55.0442 111.977 55.1734 112.146 55.378C112.315 55.5827 112.396 55.8461 112.372 56.1105L111.766 62.4994C111.74 62.7636 111.611 63.0069 111.407 63.176C111.202 63.3451 110.939 63.4263 110.675 63.4017L104.289 62.7959C104.025 62.7705 103.781 62.6413 103.612 62.4367C103.443 62.232 103.362 61.9686 103.387 61.7042L103.992 55.3154C104.016 55.0675 104.131 54.8374 104.315 54.6698C104.499 54.5021 104.738 54.409 104.987 54.4084L104.986 54.409Z" fill="#292A2E"/>
<path d="M146.28 52.0548L152.666 52.6606C153.325 52.7232 153.809 53.3089 153.747 53.9688L153.141 60.3578C153.079 61.0177 152.493 61.5019 151.834 61.4394L145.448 60.8335C144.788 60.7709 144.304 60.1853 144.366 59.5254L144.972 53.1363C145.035 52.4764 145.62 51.9922 146.28 52.0548Z" fill="#54ABA7"/>
<path d="M95.1859 28.9163C95.1935 28.9163 95.2012 28.9159 95.2088 28.9151C95.2347 28.9121 95.2598 28.9041 95.2826 28.8914C95.3054 28.8787 95.3255 28.8616 95.3417 28.8412C95.3579 28.8207 95.37 28.7972 95.3771 28.7721C95.3843 28.747 95.3864 28.7207 95.3835 28.6948C95.0848 26.6873 94.4644 24.7412 93.5462 22.9314C91.5587 19.0773 88.4419 16.8668 84.5349 16.5376C84.4824 16.5331 84.4302 16.5498 84.39 16.5838C84.3497 16.6178 84.3246 16.6665 84.3201 16.719C84.3157 16.7716 84.3323 16.8237 84.3663 16.864C84.4004 16.9043 84.449 16.9294 84.5015 16.9339C93.614 17.7006 94.9756 28.63 94.9887 28.7403C94.9943 28.7887 95.0175 28.8334 95.0539 28.8658C95.0902 28.8983 95.1372 28.9162 95.1859 28.9163Z" fill="#292A2E"/>
<path d="M86.4249 18.9043C86.4642 18.9044 86.5027 18.8927 86.5354 18.8709C86.568 18.8491 86.5935 18.8181 86.6086 18.7818C86.6237 18.7455 86.6277 18.7055 86.6201 18.667C86.6125 18.6284 86.5936 18.593 86.5659 18.5651L84.7294 16.7197L86.5738 14.8824C86.5928 14.8641 86.608 14.8422 86.6185 14.818C86.6289 14.7937 86.6345 14.7677 86.6348 14.7413C86.635 14.7149 86.6301 14.6887 86.6201 14.6642C86.6102 14.6398 86.5955 14.6175 86.5768 14.5988C86.5582 14.5801 86.5361 14.5653 86.5117 14.5553C86.4873 14.5452 86.4611 14.5401 86.4347 14.5403C86.4083 14.5405 86.3822 14.5459 86.358 14.5563C86.3337 14.5666 86.3117 14.5817 86.2934 14.6007L84.3082 16.5783C84.271 16.6156 84.2501 16.6662 84.2501 16.7189C84.2501 16.7716 84.271 16.8222 84.3082 16.8595L86.2848 18.8457C86.3032 18.8642 86.325 18.879 86.349 18.889C86.3731 18.8991 86.3989 18.9043 86.4249 18.9043Z" fill="#292A2E"/>
<path d="M108.107 51.2454C108.149 51.2454 108.191 51.2317 108.225 51.2064C108.259 51.1811 108.284 51.1455 108.297 51.1048C108.327 51.0076 111.185 41.3508 103.785 37.3451C103.762 37.3321 103.737 37.3238 103.711 37.3207C103.684 37.3176 103.658 37.3198 103.632 37.3271C103.607 37.3344 103.583 37.3467 103.563 37.3633C103.542 37.3798 103.525 37.4004 103.513 37.4236C103.5 37.4469 103.492 37.4724 103.49 37.4987C103.487 37.525 103.49 37.5516 103.497 37.5768C103.505 37.6021 103.518 37.6256 103.535 37.6458C103.552 37.6661 103.573 37.6828 103.596 37.6949C110.707 41.5438 107.945 50.8934 107.916 50.9875C107.907 51.0172 107.905 51.0487 107.91 51.0793C107.916 51.11 107.928 51.139 107.947 51.164C107.965 51.189 107.989 51.2093 108.017 51.2233C108.045 51.2373 108.075 51.2446 108.106 51.2446L108.107 51.2454Z" fill="#292A2E"/>
<path d="M104.541 39.9977C104.573 39.9977 104.605 39.9898 104.634 39.9747C104.662 39.9596 104.687 39.9378 104.705 39.9111C104.723 39.8844 104.735 39.8536 104.738 39.8215C104.742 39.7894 104.738 39.7569 104.726 39.7267L103.897 37.5958L106.027 36.7654C106.075 36.7457 106.114 36.7078 106.134 36.6599C106.155 36.612 106.156 36.558 106.137 36.5094C106.118 36.4608 106.081 36.4216 106.033 36.4002C105.986 36.3787 105.932 36.3768 105.883 36.3948L103.568 37.2963C103.543 37.3058 103.521 37.32 103.502 37.338C103.483 37.3561 103.468 37.3777 103.458 37.4016C103.447 37.4255 103.442 37.4513 103.441 37.4774C103.44 37.5035 103.445 37.5295 103.455 37.5538L104.356 39.8701C104.37 39.9076 104.396 39.9399 104.429 39.9627C104.462 39.9854 104.501 39.9977 104.541 39.9977Z" fill="#292A2E"/>
<path d="M132.826 18.401C132.879 18.401 132.929 18.38 132.967 18.3427C133.004 18.3054 133.025 18.2549 133.025 18.2021C133.025 15.1816 133.916 12.8758 135.674 11.3491C138.794 8.63955 143.648 9.29273 143.696 9.29969C143.748 9.30716 143.801 9.29357 143.844 9.26193C143.886 9.23029 143.914 9.18319 143.921 9.13098C143.929 9.07877 143.915 9.02574 143.883 8.98354C143.852 8.94135 143.805 8.91345 143.752 8.90599C143.547 8.87636 138.674 8.2188 135.415 11.0471C133.565 12.6527 132.627 15.0601 132.627 18.2021C132.627 18.2282 132.633 18.2541 132.643 18.2782C132.653 18.3023 132.667 18.3243 132.686 18.3427C132.704 18.3612 132.726 18.3758 132.75 18.3858C132.774 18.3958 132.8 18.401 132.826 18.401Z" fill="#292A2E"/>
<path d="M132.817 18.4722C132.823 18.4722 132.829 18.4722 132.835 18.4722C132.861 18.4697 132.887 18.4622 132.91 18.45C132.933 18.4378 132.953 18.4211 132.97 18.401L134.757 16.2418C134.791 16.2012 134.807 16.1488 134.802 16.0963C134.797 16.0438 134.772 15.9954 134.731 15.9617C134.69 15.9281 134.638 15.9119 134.586 15.9169C134.533 15.9218 134.485 15.9474 134.451 15.9881L132.79 17.995L130.785 16.3342C130.765 16.3176 130.741 16.3051 130.716 16.2974C130.691 16.2897 130.665 16.287 130.639 16.2895C130.613 16.2919 130.588 16.2995 130.565 16.3117C130.542 16.3239 130.521 16.3406 130.505 16.3607C130.488 16.3808 130.476 16.404 130.468 16.429C130.46 16.4539 130.458 16.4802 130.46 16.5062C130.463 16.5321 130.47 16.5574 130.482 16.5805C130.495 16.6036 130.511 16.624 130.531 16.6407L132.69 18.4272C132.726 18.4564 132.771 18.4723 132.817 18.4722Z" fill="#292A2E"/>
<path d="M128.422 40.3362H134.837C135.5 40.3362 136.037 40.8735 136.037 41.5364V47.9541C136.037 48.617 135.5 49.1543 134.837 49.1543H128.422C127.76 49.1543 127.222 48.617 127.222 47.9541V41.5364C127.222 40.8735 127.76 40.3362 128.422 40.3362Z" fill="#367CFF"/>
<path d="M112.084 52.0651C112.129 52.065 112.172 52.0501 112.206 52.0229C112.241 51.9956 112.266 51.9575 112.277 51.9145C114.493 43.0463 125.327 43.6683 125.435 43.6756C125.461 43.6774 125.487 43.674 125.512 43.6656C125.537 43.6573 125.56 43.6441 125.58 43.6269C125.599 43.6097 125.615 43.5887 125.627 43.5653C125.639 43.5418 125.645 43.5163 125.647 43.4902C125.649 43.4641 125.646 43.4379 125.637 43.4131C125.629 43.3883 125.616 43.3654 125.599 43.3457C125.581 43.326 125.56 43.3099 125.537 43.2982C125.514 43.2866 125.488 43.2797 125.462 43.278C123.466 43.2104 121.473 43.4728 119.563 44.0546C116.727 44.9413 113.093 47.0078 111.891 51.8171C111.885 51.8425 111.884 51.8688 111.888 51.8946C111.892 51.9205 111.9 51.9453 111.914 51.9677C111.927 51.9901 111.945 52.0096 111.966 52.0252C111.987 52.0407 112.011 52.052 112.036 52.0583C112.052 52.0626 112.068 52.0649 112.084 52.0651Z" fill="#292A2E"/>
<path d="M112.057 52.132C112.098 52.132 112.138 52.1191 112.172 52.0952L114.421 50.4984C114.464 50.4678 114.493 50.4214 114.502 50.3694C114.511 50.3174 114.498 50.2641 114.468 50.2211C114.437 50.1781 114.391 50.149 114.339 50.1402C114.287 50.1315 114.234 50.1437 114.191 50.1743L112.106 51.6544L110.62 49.4986C110.59 49.4556 110.544 49.4262 110.492 49.417C110.441 49.4077 110.387 49.4192 110.344 49.449C110.301 49.4788 110.271 49.5245 110.262 49.5761C110.252 49.6277 110.263 49.6811 110.293 49.7245L111.893 52.0461C111.908 52.0678 111.927 52.0863 111.949 52.1005C111.971 52.1148 111.996 52.1244 112.022 52.129C112.034 52.131 112.045 52.132 112.057 52.132Z" fill="#292A2E"/>
<path d="M14.3474 180L13.9571 179.925L20.0579 119.273L20.4482 119.348L14.3474 180Z" fill="#494949"/>
<path d="M37.0642 180L36.6738 179.925L42.7745 119.273L43.1648 119.348L37.0642 180Z" fill="#494949"/>
<path d="M87.2779 180L87.6682 179.925L81.5674 119.273L81.177 119.348L87.2779 180Z" fill="#494949"/>
<path d="M64.5611 180L64.9514 179.925L58.8508 119.273L58.4604 119.348L64.5611 180Z" fill="#494949"/>
<path d="M56.4726 92.578L60.0366 119.283L59.6426 119.336L56.0786 92.6306L56.4726 92.578Z" fill="#494949"/>
<path d="M15.5654 92.5778L19.1294 119.283L18.7354 119.335L15.1714 92.6304L15.5654 92.5778Z" fill="#494949"/>
<path d="M60.0003 121.266H19.9879C18.9084 121.266 18.0332 120.39 18.0332 119.31V119.31C18.0332 118.23 18.9084 117.354 19.9879 117.354H60.0003C61.0798 117.354 61.955 118.23 61.955 119.31V119.31C61.955 120.39 61.0798 121.266 60.0003 121.266Z" fill="#292A2E"/>
<path opacity="0.8" d="M60.0003 121.266H19.9879C18.9084 121.266 18.0332 120.39 18.0332 119.31V119.31C18.0332 118.23 18.9084 117.354 19.9879 117.354H60.0003C61.0798 117.354 61.955 118.23 61.955 119.31V119.31C61.955 120.39 61.0798 121.266 60.0003 121.266Z" fill="white"/>
<path d="M62.1538 119.31C62.1531 118.739 61.926 118.191 61.5223 117.788C61.1186 117.384 60.5713 117.157 60.0003 117.156H19.988C19.4169 117.156 18.8691 117.383 18.4653 117.787C18.0614 118.191 17.8345 118.739 17.8345 119.31C17.8345 119.882 18.0614 120.43 18.4653 120.834C18.8691 121.238 19.4169 121.465 19.988 121.465H60.0003C60.5713 121.464 61.1187 121.237 61.5224 120.833C61.9261 120.429 62.1532 119.881 62.1538 119.31ZM60.0003 117.553C60.4661 117.553 60.9127 117.739 61.242 118.068C61.5713 118.397 61.7563 118.844 61.7563 119.31C61.7563 119.776 61.5713 120.223 61.242 120.552C60.9127 120.882 60.4661 121.067 60.0003 121.067H19.988C19.5223 121.067 19.0757 120.882 18.7464 120.552C18.4171 120.223 18.232 119.776 18.232 119.31C18.232 118.844 18.4171 118.397 18.7464 118.068C19.0757 117.739 19.5223 117.553 19.988 117.553H60.0003Z" fill="#292A2E"/>
<path d="M81.9612 121.266H41.9489C40.8693 121.266 39.9941 120.39 39.9941 119.31V119.31C39.9941 118.23 40.8693 117.354 41.9489 117.354H81.9612C83.0408 117.354 83.9159 118.23 83.9159 119.31V119.31C83.9159 120.39 83.0408 121.266 81.9612 121.266Z" fill="white"/>
<path d="M84.1157 119.31C84.115 118.739 83.8877 118.191 83.4838 117.787C83.0799 117.383 82.5323 117.156 81.9613 117.156H41.9489C41.3778 117.156 40.83 117.383 40.4262 117.787C40.0223 118.191 39.7955 118.739 39.7955 119.31C39.7955 119.882 40.0223 120.43 40.4262 120.834C40.83 121.238 41.3778 121.465 41.9489 121.465H81.9613C82.5324 121.464 83.08 121.237 83.4839 120.833C83.8878 120.429 84.115 119.882 84.1157 119.31ZM81.9613 117.554C82.1919 117.554 82.4202 117.599 82.6332 117.687C82.8463 117.776 83.0399 117.905 83.2029 118.068C83.366 118.231 83.4953 118.425 83.5836 118.638C83.6718 118.851 83.7172 119.08 83.7172 119.31C83.7172 119.541 83.6718 119.77 83.5836 119.983C83.4953 120.196 83.366 120.39 83.2029 120.553C83.0399 120.716 82.8463 120.845 82.6332 120.933C82.4202 121.022 82.1919 121.067 81.9613 121.067H41.9489C41.4832 121.067 41.0366 120.882 40.7073 120.553C40.378 120.223 40.193 119.776 40.193 119.31C40.193 118.845 40.378 118.398 40.7073 118.068C41.0366 117.739 41.4832 117.554 41.9489 117.554H81.9613Z" fill="#292A2E"/>
<path d="M54.2785 92.6055H15.4731C14.8387 92.6055 14.2259 92.3744 13.7492 91.9556C13.2725 91.5367 12.9644 90.9586 12.8824 90.3292L10.3158 70.6079C10.2678 70.2393 10.2989 69.8647 10.4071 69.5091C10.5154 69.1535 10.6982 68.825 10.9433 68.5457C11.1885 68.2664 11.4904 68.0426 11.8289 67.8893C12.1674 67.736 12.5347 67.6567 12.9063 67.6567H51.7116C52.3463 67.6566 52.9593 67.8875 53.4362 68.3065C53.9131 68.7255 54.2213 69.3038 54.3031 69.9334L56.87 89.6543C56.918 90.023 56.8868 90.3977 56.7785 90.7534C56.6702 91.109 56.4873 91.4375 56.242 91.7168C55.9967 91.9961 55.6947 92.2199 55.3561 92.3731C55.0175 92.5264 54.6501 92.6056 54.2785 92.6055Z" fill="#292A2E"/>
<path opacity="0.8" d="M54.2785 92.6055H15.4731C14.8387 92.6055 14.2259 92.3744 13.7492 91.9556C13.2725 91.5367 12.9644 90.9586 12.8824 90.3292L10.3158 70.6079C10.2678 70.2393 10.2989 69.8647 10.4071 69.5091C10.5154 69.1535 10.6982 68.825 10.9433 68.5457C11.1885 68.2664 11.4904 68.0426 11.8289 67.8893C12.1674 67.736 12.5347 67.6567 12.9063 67.6567H51.7116C52.3463 67.6566 52.9593 67.8875 53.4362 68.3065C53.9131 68.7255 54.2213 69.3038 54.3031 69.9334L56.87 89.6543C56.918 90.023 56.8868 90.3977 56.7785 90.7534C56.6702 91.109 56.4873 91.4375 56.242 91.7168C55.9967 91.9961 55.6947 92.2199 55.3561 92.3731C55.0175 92.5264 54.6501 92.6056 54.2785 92.6055Z" fill="white"/>
<path d="M56.3901 91.8477C56.654 91.5471 56.8508 91.1937 56.9673 90.8111C57.0838 90.4284 57.1174 90.0253 57.0659 89.6286L54.499 69.9078C54.4095 69.231 54.0776 68.6098 53.5649 68.1593C53.0523 67.7089 52.3937 67.4598 51.7114 67.4583H12.906C12.5062 67.4582 12.1109 67.5436 11.7466 67.7085C11.3824 67.8735 11.0575 68.1143 10.7936 68.4149C10.5298 68.7155 10.3331 69.0689 10.2166 69.4516C10.1002 69.8343 10.0667 70.2374 10.1184 70.6341L12.685 90.3548C12.7745 91.0315 13.1064 91.6527 13.6191 92.1032C14.1318 92.5537 14.7904 92.8028 15.4727 92.8043H54.2786C54.6783 92.8041 55.0734 92.7187 55.4375 92.5538C55.8016 92.3888 56.1263 92.1481 56.3901 91.8477ZM51.7118 67.8559C52.2975 67.8574 52.8627 68.0714 53.3027 68.4581C53.7428 68.8449 54.0276 69.3782 54.1045 69.9591L56.6714 89.6799C56.7157 90.0205 56.6869 90.3666 56.5869 90.6952C56.4869 91.0237 56.318 91.3272 56.0914 91.5852C55.8649 91.8433 55.5859 92.05 55.2732 92.1917C54.9605 92.3333 54.6211 92.4066 54.2778 92.4066H15.4725C14.8866 92.4053 14.3211 92.1915 13.881 91.8047C13.4408 91.4179 13.1558 90.8845 13.0789 90.3035L10.5123 70.5826C10.4679 70.242 10.4967 69.8959 10.5967 69.5674C10.6967 69.2388 10.8655 68.9354 11.092 68.6773C11.3186 68.4192 11.5975 68.2125 11.9102 68.0708C12.223 67.9292 12.5623 67.8559 12.9056 67.8559H51.7118Z" fill="#292A2E"/>
<path d="M56.4729 92.6055H17.6675C17.0331 92.6055 16.4203 92.3744 15.9436 91.9556C15.4669 91.5367 15.1588 90.9586 15.0768 90.3292L12.51 70.6079C12.462 70.2393 12.4932 69.8647 12.6014 69.5091C12.7097 69.1534 12.8925 68.825 13.1377 68.5457C13.3829 68.2664 13.6848 68.0426 14.0233 67.8893C14.3618 67.736 14.7291 67.6567 15.1007 67.6567H53.9056C54.5401 67.6567 55.1528 67.8877 55.6295 68.3065C56.1062 68.7254 56.4142 69.3035 56.4961 69.9328L59.063 89.6537C59.1111 90.0224 59.08 90.397 58.9719 90.7527C58.8637 91.1083 58.681 91.4368 58.4358 91.7162C58.1907 91.9955 57.8888 92.2194 57.5503 92.3727C57.2118 92.5261 56.8445 92.6055 56.4729 92.6055Z" fill="white"/>
<path d="M58.5852 91.8477C58.8491 91.5471 59.0458 91.1937 59.1624 90.8111C59.2789 90.4284 59.3125 90.0253 59.261 89.6286L56.6941 69.9078C56.6045 69.2309 56.2725 68.6096 55.7597 68.1591C55.2469 67.7086 54.5881 67.4596 53.9057 67.4583H15.1003C14.7005 67.4582 14.3052 67.5436 13.9409 67.7085C13.5767 67.8735 13.2518 68.1143 12.9879 68.4149C12.7241 68.7155 12.5274 69.0689 12.4109 69.4516C12.2945 69.8343 12.261 70.2374 12.3126 70.6341L14.8793 90.3548C14.969 91.0315 15.3009 91.6527 15.8136 92.1032C16.3263 92.5536 16.9849 92.8027 17.6672 92.8043H56.4729C56.8727 92.8042 57.268 92.7189 57.6322 92.5539C57.9965 92.3889 58.3214 92.1482 58.5852 91.8477ZM53.9057 67.8559C54.4915 67.8573 55.0569 68.0712 55.4971 68.458C55.9372 68.8447 56.2222 69.3781 56.2992 69.9591L58.8661 89.6799C58.9104 90.0205 58.8816 90.3666 58.7816 90.6952C58.6816 91.0237 58.5127 91.3272 58.2861 91.5852C58.0596 91.8433 57.7807 92.05 57.4679 92.1917C57.1552 92.3333 56.8158 92.4066 56.4725 92.4066H17.6676C17.0817 92.4053 16.5163 92.1915 16.0761 91.8047C15.6359 91.4179 15.3509 90.8845 15.274 90.3035L12.7072 70.5828C12.6629 70.2422 12.6917 69.8961 12.7917 69.5675C12.8917 69.239 13.0606 68.9355 13.2871 68.6774C13.5136 68.4194 13.7926 68.2126 14.1053 68.0709C14.4181 67.9293 14.7574 67.856 15.1007 67.8559H53.9057Z" fill="#292A2E"/>
<path d="M85.8014 169.494C85.8014 169.494 86.8669 175.02 92.039 175.328C97.2111 175.636 96.0895 179.758 96.0895 179.758H76.3248V169.879L85.8014 169.494Z" fill="#54ABA7"/>
<path d="M68.0675 166.004C68.0675 166.004 66.5855 171.434 71.0903 173.994C75.5952 176.555 72.7704 179.758 72.7704 179.758L55.0355 171.029L59.3943 162.165L68.0675 166.004Z" fill="#54ABA7"/>
<path d="M57.0831 164.471L72.0389 117.268H44.9294C39.4836 117.268 37.2137 112.648 37.2137 107.2C37.2137 101.753 42.567 96.9768 48.0124 96.9768H84.6004C87.9216 96.9768 91.6457 99.0089 93.4687 101.787C95.2916 104.565 94.7989 108.869 93.4782 111.918L69.5288 170.111" fill="#262626"/>
<path opacity="0.8" d="M57.0831 164.471L72.0389 117.268H44.9294C39.4836 117.268 37.2137 112.648 37.2137 107.2C37.2137 101.753 42.567 96.9768 48.0124 96.9768H84.6004C87.9216 96.9768 91.6457 99.0089 93.4687 101.787C95.2916 104.565 94.7989 108.869 93.4782 111.918L69.5288 170.111" fill="#0A0A0A"/>
<path d="M74.7799 173.455L70.0496 117.268L37.2144 117.266C29.5203 116.663 25.9969 112.444 26.1088 106.998C26.2195 101.62 28.941 96.3086 34.2921 96.3086H78.547C82.5061 96.3899 87.0897 100.137 87.0897 104.446L89.3894 172.802" fill="#262626"/>
<path d="M23.8684 96.3744C23.8684 96.3744 22.4101 105.888 24.7216 111.177C27.6072 117.781 38.4248 117.266 38.4248 117.266L37.8152 96.3086L23.8684 96.3744Z" fill="#262626"/>
<path d="M22.2612 95.299L22.2191 95.3013C22.2191 95.3013 22.2495 94.4909 22.2612 95.299Z" fill="#333333"/>
<path d="M22.3142 95.299L22.2721 95.3013C22.2721 95.3013 22.3025 94.4909 22.3142 95.299Z" fill="#333333"/>
<path d="M92.7084 56.7288C92.6311 56.5755 92.508 56.45 92.3563 56.3697C92.2046 56.2893 92.0318 56.258 91.8615 56.2802C91.8629 56.2651 91.8595 56.2499 91.852 56.2367C91.8441 56.2265 91.8337 56.2186 91.8217 56.2137C91.8098 56.2089 91.7968 56.2072 91.784 56.209L92.3584 55.797C92.53 55.6793 92.6532 55.5035 92.7054 55.302C92.7575 55.1005 92.7351 54.8869 92.6422 54.7006C92.5444 54.5196 92.3828 54.3813 92.1888 54.3127C91.9949 54.244 91.7823 54.2498 91.5924 54.329C91.5938 54.3209 91.5885 54.3131 91.5873 54.3048L91.8232 54.1355C91.9845 54.0241 92.1024 53.8603 92.1569 53.6719C92.2114 53.4835 92.1993 53.282 92.1225 53.1016C92.0719 52.9894 91.997 52.8898 91.9032 52.81C91.8095 52.7302 91.6992 52.6723 91.5804 52.6403C91.4615 52.6083 91.3371 52.6031 91.216 52.6251C91.0949 52.6471 90.9802 52.6956 90.8801 52.7673L90.3353 53.1578C90.3337 53.1547 90.3353 53.1509 90.3332 53.1479C90.331 53.1449 90.3252 53.1437 90.322 53.1405C90.4471 52.9998 90.5206 52.8207 90.5306 52.6326C90.5405 52.4445 90.4863 52.2586 90.3769 52.1054C90.1197 51.6916 89.5262 51.7761 89.174 52.0286L85.968 54.2441L86.5406 53.277C86.656 53.0912 86.6966 52.8686 86.6543 52.654C86.6119 52.4395 86.4898 52.249 86.3124 52.1211C86.2186 52.0583 86.113 52.0153 86.002 51.9947C85.891 51.974 85.777 51.9763 85.6669 52.0012C85.5568 52.0261 85.4529 52.0733 85.3616 52.1397C85.2703 52.2061 85.1935 52.2904 85.1358 52.3875L82.0069 57.6568C81.6399 58.275 81.5282 59.0121 81.6957 59.7114C81.8632 60.4106 82.2966 61.017 82.9039 61.4017C83.6081 61.8479 84.4295 62.0735 85.2627 62.0495C86.0959 62.0256 86.903 61.7532 87.5805 61.2673L92.422 57.7956C92.5828 57.676 92.6986 57.5056 92.7505 57.312C92.8025 57.1184 92.7877 56.9129 92.7084 56.7288Z" fill="#E98862"/>
<g opacity="0.25">
<path d="M87.1628 55.3454C87.1746 55.3616 87.1923 55.3725 87.212 55.3759C87.2318 55.3792 87.2521 55.3747 87.2685 55.3633L90.3146 53.2526C90.3311 53.2409 90.3424 53.2232 90.346 53.2033C90.3495 53.1833 90.3451 53.1628 90.3336 53.1461C90.322 53.1295 90.3044 53.1181 90.2845 53.1143C90.2646 53.1106 90.2441 53.1149 90.2273 53.1263L87.1811 55.2374C87.1728 55.2431 87.1656 55.2503 87.1601 55.2588C87.1546 55.2672 87.1508 55.2767 87.1489 55.2866C87.1471 55.2966 87.1472 55.3068 87.1493 55.3166C87.1514 55.3265 87.1555 55.3359 87.1612 55.3442L87.1628 55.3454Z" fill="#0C0C0C"/>
</g>
<g opacity="0.25">
<path d="M88.0561 56.7152C88.0679 56.7314 88.0856 56.7423 88.1053 56.7457C88.1251 56.749 88.1454 56.7445 88.1619 56.7331L91.5605 54.3774C91.5772 54.3659 91.5887 54.3481 91.5924 54.3281C91.5962 54.3081 91.5918 54.2874 91.5803 54.2706C91.5684 54.2544 91.5507 54.2433 91.5309 54.2396C91.5111 54.2359 91.4906 54.2399 91.4736 54.2507L88.074 56.6064C88.0657 56.6121 88.0586 56.6194 88.0531 56.6278C88.0476 56.6363 88.0438 56.6457 88.0419 56.6557C88.0401 56.6656 88.0402 56.6758 88.0423 56.6856C88.0444 56.6955 88.0484 56.7049 88.0541 56.7132L88.0561 56.7152Z" fill="#0C0C0C"/>
</g>
<g opacity="0.25">
<path d="M89.0152 58.2043C89.027 58.2205 89.0447 58.2315 89.0645 58.2348C89.0842 58.2382 89.1045 58.2337 89.121 58.2222L91.8327 56.3432C91.8488 56.3314 91.8597 56.3137 91.863 56.294C91.8663 56.2742 91.8617 56.254 91.8503 56.2376C91.8389 56.2211 91.8216 56.2098 91.8019 56.206C91.7823 56.2022 91.762 56.2062 91.7453 56.2171L89.0335 58.0962C89.0252 58.1019 89.0181 58.1092 89.0126 58.1176C89.0071 58.1261 89.0033 58.1355 89.0015 58.1454C88.9996 58.1554 88.9997 58.1655 89.0018 58.1754C89.0039 58.1853 89.0079 58.1946 89.0137 58.2029L89.0152 58.2043Z" fill="#0C0C0C"/>
</g>
<path d="M80.1606 56.4573L70.972 72.1137L59.7599 57.401L50.4489 65.7993L66.3509 86.4023L66.455 86.5488C67.0915 87.421 67.9394 88.1166 68.919 88.5703C69.8985 89.0239 70.9773 89.2206 72.0538 89.1418C73.1303 89.063 74.169 88.7113 75.0721 88.1198C75.9751 87.5283 76.7128 86.7166 77.2156 85.761L90.282 62.088L80.1606 56.4573Z" fill="#54ABA7"/>
<path d="M70.072 73.9962C70.052 73.9962 70.0324 73.9911 70.015 73.9813C69.9975 73.9716 69.9829 73.9575 69.9725 73.9405C69.962 73.9234 69.9562 73.904 69.9554 73.884C69.9546 73.864 69.959 73.8442 69.9681 73.8264L70.8688 72.0605C70.8835 72.034 70.9079 72.0142 70.9369 72.0054C70.9658 71.9965 70.9971 71.9992 71.0241 72.013C71.0511 72.0268 71.0717 72.0505 71.0816 72.0792C71.0914 72.1079 71.0897 72.1392 71.0769 72.1667L70.176 73.9326C70.1662 73.9518 70.1513 73.9679 70.133 73.9791C70.1146 73.9903 70.0935 73.9963 70.072 73.9962Z" fill="#0C0C0C"/>
<path d="M59.1145 72.0249L59.3474 72.0381L59.0669 76.983L58.834 76.9698L59.1145 72.0249Z" fill="#0C0C0C"/>
<path d="M29.5061 36.2364C29.5061 36.2364 29.0755 41.7407 27.8136 43.7249C24.1808 49.437 23.0728 55.8976 26.605 59.3203C30.1372 62.7429 52.9149 63.0541 54.7305 55.2971C56.2591 48.7659 53.1494 48.0258 52.4534 42.6152C52.1384 40.1673 51.2536 35.0312 51.2536 35.0312" fill="#0A0A0A"/>
<path d="M48.9319 54.0563C48.8921 54.0511 48.4563 61.294 40.045 60.6633C34.2216 60.2269 32.1459 54.046 32.0123 54.046C32.6401 53.9125 33.6973 53.7185 33.9762 53.5687C34.8932 53.0758 36.0276 52.563 36.3232 50.7816C36.4935 49.7548 36.2039 44.5021 36.2936 43.4631L45.2318 45.4591C45.1069 47.6531 44.2328 52.7394 47.2966 53.6395C47.8064 53.7893 48.3555 53.9263 48.9319 54.0563Z" fill="#E98862"/>
<path opacity="0.52" d="M45.3572 51.5615C45.2172 51.1101 45.127 50.6447 45.0883 50.1736C44.99 49.0987 45.0096 48.0163 45.1467 46.9456C43.33 46.7003 41.6184 45.9501 40.2066 44.7803C40.0406 45.3935 39.1277 48.0731 39.3806 48.6558C39.8584 49.7576 42.1032 51.5615 45.3572 51.5615Z" fill="#0C0C0C"/>
<path d="M44.1722 49.282C40.6446 49.5822 36.1016 48.1192 35.2114 43.4136L34.4082 39.1676C33.518 34.4619 35.2668 30.1801 39.695 29.341C44.1235 28.5025 48.1554 31.6905 49.0456 36.3962L49.4011 38.2758C49.7432 40.0815 50.4664 48.7461 44.1722 49.282Z" fill="#E98862"/>
<path d="M48.1395 38.4808C47.8329 38.4808 47.5844 38.2322 47.5844 37.9255C47.5844 37.6188 47.8329 37.3701 48.1395 37.3701C48.4461 37.3701 48.6946 37.6188 48.6946 37.9255C48.6946 38.2322 48.4461 38.4808 48.1395 38.4808Z" fill="#0C0C0C"/>
<path d="M42.4522 39.2406C42.1456 39.2406 41.8971 38.992 41.8971 38.6852C41.8971 38.3785 42.1456 38.1299 42.4522 38.1299C42.7588 38.1299 43.0073 38.3785 43.0073 38.6852C43.0073 38.992 42.7588 39.2406 42.4522 39.2406Z" fill="#0C0C0C"/>
<path d="M45.5732 42.7571C45.5761 42.7569 45.5789 42.7565 45.5817 42.7559C45.7611 42.7205 45.9384 42.6753 46.1128 42.6205C46.3734 42.5368 46.7144 42.398 46.6693 42.1631C46.6188 41.8951 45.3377 39.1408 45.1914 38.828C45.1787 38.8006 45.1556 38.7795 45.1272 38.7691C45.0989 38.7588 45.0676 38.7601 45.0402 38.7728C45.0129 38.7856 44.9917 38.8087 44.9814 38.837C44.971 38.8654 44.9724 38.8967 44.9851 38.924C45.5316 40.0972 46.4117 42.0259 46.4457 42.2049C46.4165 42.2886 45.9842 42.4475 45.539 42.532C45.5098 42.5372 45.4839 42.5535 45.4666 42.5776C45.4493 42.6016 45.4421 42.6315 45.4465 42.6608C45.4509 42.6901 45.4665 42.7165 45.49 42.7344C45.5136 42.7524 45.5432 42.7604 45.5726 42.7569L45.5732 42.7571Z" fill="#0C0C0C"/>
<path d="M44.9174 44.7888C45.6398 44.6949 46.33 44.4325 46.9325 44.0229C46.9578 44.0064 46.9755 43.9805 46.9817 43.951C46.9879 43.9215 46.9822 43.8907 46.9657 43.8654C46.9492 43.8401 46.9234 43.8224 46.8938 43.8162C46.8643 43.8099 46.8335 43.8157 46.8083 43.8322C45.5047 44.682 44.209 44.8194 43.062 44.2299C43.0389 44.2171 43.0151 44.2058 42.9907 44.1959C42.9623 44.1856 42.931 44.187 42.9037 44.1998C42.8764 44.2127 42.8553 44.2358 42.8451 44.2642C42.8348 44.2925 42.8363 44.3238 42.8491 44.3511C42.8619 44.3784 42.885 44.3996 42.9134 44.4098C42.9223 44.4136 42.9374 44.4215 42.9581 44.4323C43.5612 44.7435 44.2434 44.8676 44.9174 44.7888Z" fill="#0C0C0C"/>
<path d="M30.8654 40.6473L34.8355 39.9191C37.8419 38.7018 38.7508 33.4946 38.7508 33.4946C38.7508 33.4946 42.4029 37.0558 51.2522 35.0305C51.2522 35.0305 49.4776 22.6825 36.4026 26.2728C32.1867 27.4306 29.1609 31.6812 29.5378 37.3617C29.8033 41.3426 30.8654 40.6473 30.8654 40.6473Z" fill="#0A0A0A"/>
<path d="M35.7577 44.7949C34.4119 45.0497 33.0485 43.8159 32.7937 42.4685C32.5389 41.1212 33.4893 40.1729 34.8355 39.9182L35.6996 40.6891L36.9148 44.575L35.7577 44.7949Z" fill="#E98862"/>
<path d="M46.0031 36.5772C46.3957 36.3236 46.8492 36.1803 47.3162 36.1624C47.5461 36.1522 47.7761 36.1765 47.9987 36.2346C48.2193 36.2913 48.4319 36.3755 48.6314 36.4854C48.6569 36.5007 48.6757 36.525 48.6842 36.5535C48.6927 36.5821 48.6903 36.6127 48.6773 36.6395C48.6644 36.6663 48.6419 36.6873 48.6143 36.6984C48.5866 36.7095 48.5559 36.7098 48.528 36.6993L48.5197 36.6955C48.3352 36.6052 48.1402 36.5384 47.9391 36.4967C47.7404 36.4541 47.5363 36.4419 47.3339 36.4605C46.9323 36.494 46.5468 36.6333 46.2165 36.8643L46.2058 36.8721C46.187 36.8878 46.1651 36.8995 46.1416 36.9064C46.1181 36.9133 46.0934 36.9153 46.0691 36.9123C46.0448 36.9092 46.0213 36.9012 46.0002 36.8887C45.9791 36.8763 45.9608 36.8596 45.9464 36.8397C45.932 36.8199 45.9219 36.7972 45.9166 36.7733C45.9113 36.7494 45.911 36.7246 45.9156 36.7005C45.9203 36.6764 45.9299 36.6536 45.9438 36.6334C45.9577 36.6131 45.9756 36.596 45.9963 36.583L46.0031 36.5772Z" fill="#0C0C0C"/>
<path d="M42.4624 37.4112C42.071 37.3155 41.6613 37.3249 41.2747 37.4385C41.0792 37.4944 40.8933 37.5796 40.7233 37.6912C40.551 37.803 40.3934 37.9361 40.2543 38.0873L40.2479 38.0936C40.2258 38.1135 40.197 38.1243 40.1672 38.124C40.1375 38.1237 40.1089 38.1122 40.0872 38.0919C40.0654 38.0716 40.052 38.0439 40.0496 38.0143C40.0472 37.9846 40.056 37.9551 40.0742 37.9316C40.2206 37.7572 40.3884 37.6018 40.5735 37.4693C40.7601 37.3346 40.9658 37.2287 41.1839 37.1551C41.6258 37.003 42.1005 36.9727 42.5582 37.0674C42.6018 37.0799 42.6391 37.1085 42.6625 37.1474C42.6858 37.1863 42.6935 37.2327 42.684 37.2771C42.6745 37.3215 42.6484 37.3606 42.6112 37.3865C42.5739 37.4124 42.5282 37.4231 42.4833 37.4166L42.4759 37.4148L42.4624 37.4112Z" fill="#0C0C0C"/>
<path d="M45.071 45.8572C45.2019 45.8422 45.3313 45.8162 45.4578 45.7794C45.4868 45.771 45.5113 45.7515 45.5258 45.7251C45.5404 45.6987 45.5439 45.6675 45.5356 45.6385C45.5272 45.6095 45.5077 45.585 45.4813 45.5704C45.4549 45.5558 45.4238 45.5523 45.3948 45.5607C44.6336 45.7794 44.2007 45.4895 44.1824 45.477C44.1577 45.4596 44.1271 45.4528 44.0974 45.458C44.0677 45.4632 44.0412 45.48 44.0239 45.5047C44.0066 45.5294 43.9997 45.56 44.0049 45.5897C44.0101 45.6195 44.0269 45.6459 44.0516 45.6633C44.3588 45.8438 44.719 45.9123 45.071 45.8572Z" fill="#0C0C0C"/>
<path d="M34.8441 39.8689L34.8043 39.759C39.8343 37.9525 38.6042 33.0142 38.5913 32.9644L38.7042 32.9348C38.7177 32.9855 39.976 38.0257 34.8441 39.8689Z" fill="#0C0C0C"/>
<path opacity="0.1" d="M40.87 42.445C40.8241 42.0188 41.2577 41.6227 41.8385 41.5602C42.4192 41.4977 42.9271 41.7925 42.9729 42.2186C43.0188 42.6448 42.5851 43.0409 42.0044 43.1034C41.4237 43.1659 40.9158 42.8711 40.87 42.445Z" fill="#0C0C0C"/>
<path opacity="0.1" d="M48.1509 41.4734C48.198 41.899 48.7056 42.1934 49.2864 42.1316C49.3868 42.1209 49.4858 42.0997 49.5817 42.0684C49.6145 41.5619 49.6215 41.0742 49.6122 40.6232C49.4516 40.581 49.2847 40.5693 49.1198 40.5886C48.5397 40.6502 48.1056 41.0463 48.1509 41.4734Z" fill="#0C0C0C"/>
<path d="M59.3822 70.0033C59.1173 73.1173 57.8286 92.4721 57.5736 96.3085L23.8684 96.3801C23.6696 92.9203 21.3788 77.7942 20.6268 71.0293C19.9089 64.5742 18.5001 61.3422 19.5336 59.4338C21.2206 56.3148 25.8304 54.5125 28.9743 54.0866C30.8936 53.8267 33.7806 53.6404 33.7806 53.6404C33.7806 53.6404 34.0249 58.5873 39.8534 58.8627C47.7877 59.2371 47.2579 53.6404 47.2972 53.6404C48.5825 53.6404 55.9254 54.4542 57.7219 55.5196C62.6161 58.4189 59.9447 63.4044 59.3822 70.0033Z" fill="#54ABA7"/>
<path d="M81.2602 72.1787L78.0112 87.9771C77.9453 88.2979 77.7713 88.5864 77.5185 88.7944C77.2656 89.0024 76.9491 89.1174 76.6218 89.1202L54.2503 89.3107C54.0368 89.3125 53.8257 89.2666 53.6323 89.1762C53.439 89.0858 53.2683 88.9533 53.1327 88.7884C52.9971 88.6235 52.9002 88.4303 52.8489 88.2231C52.7976 88.0158 52.7933 87.7997 52.8363 87.5905L56.0853 71.7922C56.1513 71.4714 56.3253 71.183 56.5781 70.975C56.831 70.767 57.1474 70.652 57.4748 70.6492L79.8463 70.4585C80.0597 70.4567 80.2708 70.5027 80.4642 70.593C80.6576 70.6834 80.8283 70.8159 80.9638 70.9808C81.0994 71.1457 81.1964 71.3389 81.2476 71.5462C81.2989 71.7534 81.3032 71.9696 81.2602 72.1787Z" fill="#292A2E"/>
<path d="M60.3991 83.4006C60.411 83.6086 60.3474 83.8139 60.22 83.9787C60.0925 84.1434 59.9099 84.2566 59.7057 84.2974L59.017 84.4493C59.0293 84.4533 59.0404 84.4604 59.0494 84.4697C59.0584 84.4791 59.0649 84.4905 59.0685 84.503C59.0701 84.5176 59.0668 84.5323 59.0591 84.5449C59.2247 84.5915 59.3717 84.6885 59.4796 84.8224C59.5875 84.9564 59.6511 85.1206 59.6614 85.2924C59.6623 85.4925 59.5958 85.6872 59.4725 85.8448C59.3493 86.0025 59.1765 86.114 58.982 86.1613L53.1666 87.4537C52.8692 87.5202 52.5654 87.5535 52.2607 87.5532C51.5819 87.5531 50.9134 87.3878 50.3127 87.0717C49.712 86.7555 49.1972 86.2979 48.8126 85.7383C48.4048 85.1464 48.2439 84.4185 48.3642 83.7097C48.4846 83.0009 48.8766 82.367 49.4569 81.9429L54.4038 78.324C54.5127 78.2443 54.6393 78.1922 54.7727 78.1721L54.3176 80.384L54.4388 80.356L54.4646 80.3514L58.2584 79.5795C58.6809 79.486 59.2599 79.6392 59.3346 80.1213C59.3747 80.3055 59.3514 80.4978 59.2684 80.667C59.1854 80.8362 59.0476 80.9724 58.8775 81.0533C58.8799 81.0555 58.8846 81.0579 58.8846 81.0626C58.8846 81.0674 58.8823 81.0696 58.8823 81.0742L59.5381 80.9294C59.6581 80.9029 59.7824 80.9033 59.9022 80.9306C60.022 80.9579 60.1342 81.0114 60.2308 81.0873C60.3275 81.1632 60.4061 81.2595 60.461 81.3695C60.516 81.4794 60.5459 81.6001 60.5486 81.723C60.5485 81.9193 60.4806 82.1096 60.3564 82.2615C60.2322 82.4135 60.0592 82.5178 59.8669 82.5567L59.5844 82.6198C59.5821 82.6291 59.5844 82.6384 59.5797 82.6456C59.7856 82.6471 59.9836 82.7253 60.1351 82.8648C60.2866 83.0044 60.3807 83.1954 60.3991 83.4006Z" fill="#E98862"/>
<g opacity="0.25">
<path d="M55.1051 81.8408C55.1096 81.8603 55.1215 81.8773 55.1383 81.8882C55.1551 81.899 55.1755 81.9029 55.1951 81.8989L58.8251 81.154C58.8352 81.1522 58.8448 81.1484 58.8534 81.1429C58.862 81.1373 58.8694 81.1301 58.8752 81.1216C58.8809 81.1131 58.8849 81.1035 58.8869 81.0935C58.8889 81.0834 58.8889 81.0731 58.8869 81.063C58.8848 81.053 58.8808 81.0435 58.875 81.035C58.8692 81.0266 58.8617 81.0194 58.8531 81.0138C58.8445 81.0083 58.8348 81.0046 58.8247 81.0028C58.8146 81.0011 58.8043 81.0014 58.7943 81.0037L55.1643 81.7486C55.1545 81.7506 55.1451 81.7545 55.1368 81.7602C55.1284 81.7658 55.1213 81.773 55.1158 81.7814C55.1102 81.7898 55.1064 81.7992 55.1045 81.8091C55.1026 81.819 55.1027 81.8292 55.1047 81.839L55.1051 81.8408Z" fill="#0C0C0C"/>
</g>
<g opacity="0.25">
<path d="M55.389 83.4516C55.3936 83.4711 55.4055 83.4881 55.4224 83.4989C55.4392 83.5097 55.4596 83.5135 55.4792 83.5095L59.5304 82.6784C59.5402 82.6763 59.5496 82.6724 59.5579 82.6668C59.5662 82.6611 59.5734 82.6539 59.5789 82.6455C59.5844 82.6371 59.5883 82.6277 59.5902 82.6178C59.5921 82.6079 59.592 82.5977 59.59 82.5879C59.5852 82.5683 59.5732 82.5513 59.5564 82.5402C59.5396 82.5291 59.5192 82.5248 59.4993 82.5282L55.4484 83.3594C55.4285 83.3635 55.4111 83.3754 55.3999 83.3924C55.3887 83.4094 55.3847 83.4301 55.3888 83.4501L55.389 83.4516Z" fill="#0C0C0C"/>
</g>
<g opacity="0.25">
<path d="M55.6867 85.198C55.6912 85.2175 55.7032 85.2345 55.72 85.2453C55.7369 85.2562 55.7573 85.26 55.7769 85.256L59.0084 84.5931C59.0281 84.5888 59.0453 84.5768 59.0563 84.5599C59.0672 84.543 59.0711 84.5224 59.067 84.5026C59.0629 84.4829 59.0513 84.4655 59.0345 84.4543C59.0177 84.4431 58.9972 84.439 58.9774 84.4428L55.7461 85.1057C55.7263 85.1098 55.7088 85.1217 55.6976 85.1386C55.6865 85.1556 55.6825 85.1763 55.6865 85.1962L55.6867 85.198Z" fill="#0C0C0C"/>
</g>
<path d="M52.8066 89.7547L21.2557 95.459C20.2711 95.5662 19.2751 95.4437 18.3459 95.1012C17.4166 94.7586 16.5793 94.2052 15.8997 93.4845C15.2201 92.7638 14.7166 91.8953 14.4289 90.9473C14.1411 89.9992 14.0769 88.9973 14.2412 88.0202L18.6582 61.7536C18.7956 60.9211 19.0959 60.124 19.5418 59.4079C19.9877 58.6918 20.5705 58.0707 21.2568 57.5803C21.9431 57.09 22.7193 56.7399 23.5411 56.5502C24.3628 56.3605 25.2139 56.3349 26.0455 56.4748C26.8772 56.6148 27.6731 56.9176 28.3875 57.3658C29.102 57.8141 29.721 58.399 30.2092 59.087C30.6973 59.775 31.0449 60.5527 31.232 61.3753C31.4192 62.198 31.4423 63.0495 31.2999 63.8811L28.2871 81.9634L51.4196 79.0569L52.8066 89.7547Z" fill="#54ABA7"/>
<path d="M21.2553 95.576C21.2263 95.5757 21.1985 95.5645 21.1773 95.5448C21.156 95.525 21.1429 95.498 21.1404 95.4691C21.1379 95.4402 21.1463 95.4114 21.1639 95.3883C21.1814 95.3652 21.2069 95.3495 21.2355 95.3442L52.6777 89.6598L51.3196 79.1875L28.3044 82.0794C28.2863 82.0819 28.2678 82.0801 28.2505 82.074C28.2332 82.0679 28.2176 82.0578 28.205 82.0444C28.1925 82.0314 28.1832 82.0156 28.1778 81.9984C28.1725 81.9811 28.1712 81.9629 28.174 81.945L30.0874 70.3891C30.0897 70.3739 30.0951 70.3593 30.1031 70.3462C30.1112 70.3331 30.1217 70.3217 30.1342 70.3128C30.1467 70.3038 30.1609 70.2975 30.1759 70.2941C30.1909 70.2907 30.2064 70.2903 30.2215 70.293C30.2521 70.2982 30.2793 70.3152 30.2973 70.3404C30.3153 70.3656 30.3226 70.3969 30.3175 70.4275L28.4294 81.8289L51.4049 78.9424C51.4355 78.9387 51.4663 78.9473 51.4907 78.9661C51.5151 78.985 51.5311 79.0126 51.5353 79.0432L52.9224 89.7407C52.9262 89.7704 52.9185 89.8005 52.9008 89.8247C52.8831 89.8489 52.8568 89.8654 52.8274 89.8708L21.2762 95.5741C21.2693 95.5753 21.2623 95.576 21.2553 95.576Z" fill="#0C0C0C"/>
<path d="M28.2685 81.8492L28.3054 82.0801L26.276 82.4051L26.239 82.1742L28.2685 81.8492Z" fill="#0C0C0C"/>
<path d="M0.139542 179.882H216.861C216.898 179.882 216.933 179.868 216.959 179.842C216.985 179.816 217 179.78 217 179.743C217 179.706 216.985 179.671 216.959 179.645C216.933 179.619 216.898 179.604 216.861 179.604H0.139923C0.103027 179.604 0.0676422 179.619 0.0415497 179.645C0.0154572 179.671 0.000808716 179.706 0.000808716 179.743C0.000808716 179.78 0.0154572 179.816 0.0415497 179.842C0.0676422 179.868 0.103027 179.882 0.139923 179.882H0.139542Z" fill="#292A2E"/>
<g opacity="0.65">
<path d="M0.139542 179.882H216.861C216.898 179.882 216.933 179.868 216.959 179.842C216.985 179.816 217 179.78 217 179.743C217 179.706 216.985 179.671 216.959 179.645C216.933 179.619 216.898 179.604 216.861 179.604H0.139923C0.103027 179.604 0.0676422 179.619 0.0415497 179.645C0.0154572 179.671 0.000808716 179.706 0.000808716 179.743C0.000808716 179.78 0.0154572 179.816 0.0415497 179.842C0.0676422 179.868 0.103027 179.882 0.139923 179.882H0.139542Z" fill="#292A2E"/>
</g>
<path d="M203.534 180L203.924 179.925L197.823 119.273L197.433 119.348L203.534 180Z" fill="#494949"/>
<path d="M180.817 180L181.207 179.925L175.107 119.273L174.716 119.348L180.817 180Z" fill="#494949"/>
<path d="M130.603 180L130.213 179.925L136.314 119.273L136.704 119.348L130.603 180Z" fill="#494949"/>
<path d="M153.32 180L152.93 179.925L159.03 119.273L159.421 119.348L153.32 180Z" fill="#494949"/>
<path d="M161.411 92.5797L161.805 92.6323L158.241 119.337L157.847 119.285L161.411 92.5797Z" fill="#494949"/>
<path d="M202.318 92.5795L202.712 92.6321L199.148 119.337L198.754 119.284L202.318 92.5795Z" fill="#494949"/>
<path d="M157.881 117.355H197.893C198.973 117.355 199.848 118.23 199.848 119.31V119.311C199.848 120.391 198.973 121.266 197.893 121.266H157.881C156.801 121.266 155.926 120.391 155.926 119.311V119.31C155.926 118.23 156.801 117.355 157.881 117.355Z" fill="#292A2E"/>
<path opacity="0.8" d="M157.881 117.355H197.893C198.973 117.355 199.848 118.23 199.848 119.31V119.311C199.848 120.391 198.973 121.266 197.893 121.266H157.881C156.801 121.266 155.926 120.391 155.926 119.311V119.31C155.926 118.23 156.801 117.355 157.881 117.355Z" fill="white"/>
<path d="M157.881 121.465H197.893C198.176 121.465 198.456 121.409 198.717 121.301C198.978 121.193 199.216 121.034 199.416 120.834C199.616 120.634 199.774 120.396 199.882 120.135C199.991 119.874 200.046 119.593 200.046 119.31C200.046 119.028 199.991 118.747 199.882 118.486C199.774 118.225 199.616 117.987 199.416 117.787C199.216 117.587 198.978 117.428 198.717 117.32C198.456 117.212 198.176 117.156 197.893 117.156H157.881C157.309 117.156 156.762 117.383 156.358 117.787C155.954 118.191 155.727 118.739 155.727 119.31C155.727 119.882 155.954 120.43 156.358 120.834C156.762 121.238 157.309 121.465 157.881 121.465ZM197.893 117.554C198.124 117.554 198.352 117.599 198.565 117.688C198.778 117.776 198.972 117.905 199.135 118.068C199.298 118.232 199.427 118.425 199.515 118.638C199.603 118.851 199.649 119.08 199.649 119.311C199.649 119.541 199.603 119.77 199.515 119.983C199.427 120.196 199.298 120.39 199.135 120.553C198.972 120.716 198.778 120.845 198.565 120.934C198.352 121.022 198.124 121.067 197.893 121.067H157.881C157.415 121.067 156.968 120.882 156.639 120.553C156.31 120.223 156.125 119.777 156.125 119.311C156.125 118.845 156.31 118.398 156.639 118.068C156.968 117.739 157.415 117.554 157.881 117.554H197.893Z" fill="#292A2E"/>
<path d="M135.92 117.355H175.932C177.012 117.355 177.887 118.23 177.887 119.31V119.311C177.887 120.391 177.012 121.266 175.932 121.266H135.92C134.84 121.266 133.965 120.391 133.965 119.311V119.31C133.965 118.23 134.84 117.355 135.92 117.355Z" fill="white"/>
<path d="M135.92 121.465H175.932C176.215 121.465 176.495 121.409 176.756 121.301C177.017 121.193 177.255 121.034 177.455 120.834C177.655 120.634 177.813 120.396 177.922 120.135C178.03 119.874 178.085 119.593 178.085 119.31C178.085 119.028 178.03 118.747 177.922 118.486C177.813 118.225 177.655 117.987 177.455 117.787C177.255 117.587 177.017 117.428 176.756 117.32C176.495 117.212 176.215 117.156 175.932 117.156H135.92C135.637 117.156 135.357 117.212 135.096 117.32C134.834 117.428 134.597 117.587 134.397 117.787C134.197 117.987 134.038 118.225 133.93 118.486C133.822 118.747 133.766 119.028 133.766 119.31C133.766 119.593 133.822 119.874 133.93 120.135C134.038 120.396 134.197 120.634 134.397 120.834C134.597 121.034 134.834 121.193 135.096 121.301C135.357 121.409 135.637 121.465 135.92 121.465ZM175.932 117.554C176.163 117.554 176.391 117.599 176.604 117.688C176.817 117.776 177.011 117.905 177.174 118.068C177.337 118.232 177.466 118.425 177.554 118.638C177.643 118.851 177.688 119.08 177.688 119.311C177.688 119.541 177.643 119.77 177.554 119.983C177.466 120.196 177.337 120.39 177.174 120.553C177.011 120.716 176.817 120.845 176.604 120.934C176.391 121.022 176.163 121.067 175.932 121.067H135.92C135.689 121.067 135.461 121.022 135.248 120.934C135.035 120.845 134.841 120.716 134.678 120.553C134.515 120.39 134.386 120.196 134.297 119.983C134.209 119.77 134.164 119.541 134.164 119.311C134.164 119.08 134.209 118.851 134.297 118.638C134.386 118.425 134.515 118.232 134.678 118.068C134.841 117.905 135.035 117.776 135.248 117.688C135.461 117.599 135.689 117.554 135.92 117.554H175.932Z" fill="#292A2E"/>
<path d="M163.602 92.6055H202.408C203.042 92.6055 203.655 92.3744 204.132 91.9556C204.608 91.5367 204.916 90.9586 204.998 90.3292L207.565 70.6079C207.613 70.2393 207.582 69.8647 207.474 69.5091C207.366 69.1534 207.183 68.825 206.938 68.5457C206.692 68.2664 206.39 68.0426 206.052 67.8893C205.713 67.736 205.346 67.6567 204.975 67.6567H166.169C165.535 67.6567 164.922 67.8877 164.445 68.3065C163.969 68.7254 163.661 69.3034 163.579 69.9328L161.012 89.6537C160.964 90.0224 160.995 90.3971 161.103 90.7528C161.211 91.1084 161.394 91.4369 161.639 91.7163C161.884 91.9957 162.186 92.2195 162.525 92.3729C162.863 92.5262 163.231 92.6055 163.602 92.6055Z" fill="#292A2E"/>
<path opacity="0.8" d="M163.602 92.6055H202.408C203.042 92.6055 203.655 92.3744 204.132 91.9556C204.608 91.5367 204.916 90.9586 204.998 90.3292L207.565 70.6079C207.613 70.2393 207.582 69.8647 207.474 69.5091C207.366 69.1534 207.183 68.825 206.938 68.5457C206.692 68.2664 206.39 68.0426 206.052 67.8893C205.713 67.736 205.346 67.6567 204.975 67.6567H166.169C165.535 67.6567 164.922 67.8877 164.445 68.3065C163.969 68.7254 163.661 69.3034 163.579 69.9328L161.012 89.6537C160.964 90.0224 160.995 90.3971 161.103 90.7528C161.211 91.1084 161.394 91.4369 161.639 91.7163C161.884 91.9957 162.186 92.2195 162.525 92.3729C162.863 92.5262 163.231 92.6055 163.602 92.6055Z" fill="white"/>
<path d="M163.602 92.8043H202.408C203.09 92.8027 203.749 92.5536 204.261 92.1032C204.774 91.6527 205.106 91.0315 205.196 90.3548L207.762 70.6341C207.814 70.2374 207.78 69.8343 207.664 69.4516C207.548 69.0689 207.351 68.7155 207.087 68.4149C206.823 68.1143 206.498 67.8735 206.134 67.7085C205.77 67.5436 205.374 67.4582 204.975 67.4583H166.169C165.487 67.4598 164.828 67.7089 164.316 68.1593C163.803 68.6098 163.471 69.231 163.382 69.9078L160.815 89.6286C160.763 90.0253 160.797 90.4284 160.913 90.8111C161.03 91.1937 161.226 91.5472 161.49 91.8477C161.754 92.1483 162.079 92.3891 162.443 92.554C162.807 92.719 163.203 92.8043 163.602 92.8043ZM204.975 67.8559C205.318 67.8559 205.657 67.9292 205.97 68.0709C206.283 68.2125 206.562 68.4192 206.788 68.6773C207.015 68.9354 207.184 69.2388 207.284 69.5674C207.384 69.8959 207.413 70.242 207.368 70.5826L204.801 90.3035C204.724 90.8845 204.439 91.4179 203.999 91.8047C203.559 92.1915 202.994 92.4053 202.408 92.4066H163.602C163.259 92.4066 162.92 92.3333 162.607 92.1917C162.294 92.05 162.015 91.8433 161.789 91.5852C161.562 91.3272 161.393 91.0237 161.293 90.6952C161.193 90.3666 161.165 90.0205 161.209 89.6799L163.775 69.9591C163.852 69.378 164.137 68.8447 164.577 68.4579C165.017 68.0711 165.582 67.8573 166.168 67.8559H204.975Z" fill="#292A2E"/>
<path d="M161.408 92.6055H200.214C200.848 92.6054 201.461 92.3744 201.937 91.9556C202.414 91.5367 202.722 90.9586 202.804 90.3292L205.371 70.6079C205.419 70.2393 205.388 69.8647 205.28 69.5091C205.171 69.1534 204.988 68.825 204.743 68.5457C204.498 68.2664 204.196 68.0426 203.858 67.8893C203.519 67.736 203.152 67.6567 202.78 67.6567H163.975C163.34 67.6567 162.728 67.8877 162.251 68.3065C161.774 68.7254 161.466 69.3035 161.384 69.9328L158.818 89.6537C158.769 90.0224 158.801 90.3971 158.909 90.7528C159.017 91.1085 159.2 91.4369 159.445 91.7163C159.69 91.9957 159.992 92.2195 160.331 92.3729C160.669 92.5262 161.037 92.6055 161.408 92.6055Z" fill="white"/>
<path d="M161.408 92.8043H200.214C200.896 92.8027 201.554 92.5536 202.067 92.1032C202.58 91.6527 202.912 91.0315 203.001 90.3548L205.568 70.6341C205.62 70.2374 205.586 69.8343 205.47 69.4516C205.353 69.0689 205.156 68.7155 204.893 68.4149C204.629 68.1144 204.304 67.8736 203.94 67.7086C203.575 67.5436 203.18 67.4583 202.78 67.4583H163.975C163.293 67.4598 162.634 67.7089 162.121 68.1594C161.609 68.6098 161.277 69.231 161.187 69.9078L158.62 89.6286C158.569 90.0253 158.602 90.4284 158.719 90.8111C158.835 91.1937 159.032 91.5471 159.296 91.8477C159.56 92.1482 159.885 92.389 160.249 92.554C160.613 92.7189 161.008 92.8043 161.408 92.8043ZM202.78 67.8559C203.124 67.8559 203.463 67.9291 203.776 68.0707C204.089 68.2124 204.368 68.4191 204.594 68.6772C204.821 68.9353 204.99 69.2388 205.09 69.5674C205.19 69.896 205.219 70.2422 205.174 70.5828L202.608 90.3035C202.531 90.8846 202.246 91.418 201.805 91.8048C201.365 92.1915 200.799 92.4054 200.214 92.4066H161.408C161.065 92.4066 160.726 92.3333 160.413 92.1917C160.1 92.05 159.821 91.8433 159.595 91.5852C159.368 91.3272 159.199 91.0237 159.099 90.6952C158.999 90.3666 158.97 90.0205 159.015 89.6799L161.581 69.9591C161.658 69.378 161.943 68.8446 162.384 68.4579C162.824 68.0711 163.389 67.8572 163.975 67.8559H202.78Z" fill="#292A2E"/>
<path d="M165.685 37.2308C165.685 37.2308 163.107 35.2835 162.468 30.8013C161.973 27.3308 165.173 29.5792 165.173 29.5792C165.173 29.5792 164.841 27.0768 166.663 27.3252C168.486 27.5735 169.506 30.2022 169.506 30.2022" fill="#0C0C0C"/>
<path d="M176.082 27.6189C176.082 27.6189 185.124 28.5888 181.856 40.8469L181.056 40.9004L179.431 41.0093" fill="#0C0C0C"/>
<path d="M167.2 53.6469C167.24 53.6417 167.681 60.9642 176.184 60.3265C182.071 59.8853 184.171 53.6366 184.305 53.6366C183.671 53.5016 182.886 53.2968 182.575 53.2264C181.895 53.0686 181.28 52.7077 180.811 52.1915C180.341 51.6753 180.04 51.0284 179.947 50.3368C179.775 49.2989 180.066 43.9883 179.977 42.9382L170.941 44.9576C171.067 47.1757 171.951 52.3179 168.854 53.228C168.338 53.3775 167.783 53.5161 167.2 53.6469Z" fill="#E98862"/>
<path opacity="0.52" d="M170.814 51.1253C170.956 50.669 171.047 50.1985 171.086 49.7223C171.185 48.6356 171.165 47.5412 171.026 46.4588C172.863 46.2108 174.593 45.4524 176.021 44.2698C176.189 44.8898 177.111 47.5985 176.855 48.1879C176.373 49.3016 174.104 51.1253 170.814 51.1253Z" fill="#0C0C0C"/>
<path d="M172.679 49.676C176.244 49.3563 180.511 47.1026 180.572 42.2613L180.629 37.8928C180.69 33.0512 178.198 29.0941 173.642 29.0363C169.086 28.9782 165.63 32.8598 165.568 37.7011L165.544 39.6352C165.547 40.2993 165.595 40.9625 165.689 41.62C165.922 43.3599 166.285 46.005 167.465 47.7946C168.579 49.4839 170.401 49.8804 172.679 49.676Z" fill="#E98862"/>
<path d="M171.025 45.2509C170.289 45.2842 169.556 45.1441 168.884 44.8418C168.871 44.8359 168.858 44.8273 168.847 44.8165C168.837 44.8057 168.829 44.793 168.823 44.7789C168.817 44.7649 168.814 44.7499 168.815 44.7348C168.815 44.7197 168.818 44.7048 168.824 44.6909C168.83 44.677 168.838 44.6644 168.849 44.6539C168.86 44.6433 168.873 44.635 168.887 44.6293C168.901 44.6237 168.916 44.6209 168.931 44.6211C168.946 44.6212 168.961 44.6244 168.975 44.6303C170.422 45.2467 171.736 45.1572 172.774 44.369C172.795 44.3524 172.817 44.3369 172.84 44.3225C172.866 44.3102 172.896 44.3082 172.923 44.3168C172.951 44.3255 172.974 44.3442 172.988 44.3692C173.003 44.3942 173.007 44.4238 173.001 44.4519C172.995 44.4801 172.978 44.5049 172.954 44.5213C172.946 44.5267 172.932 44.5372 172.914 44.5515C172.368 44.9677 171.71 45.2112 171.025 45.2509Z" fill="#0C0C0C"/>
<path d="M171.059 46.3415C170.926 46.3496 170.793 46.3464 170.661 46.332C170.631 46.328 170.604 46.3125 170.585 46.2889C170.567 46.2653 170.558 46.2354 170.562 46.2056C170.565 46.1758 170.579 46.1484 170.602 46.1293C170.626 46.1101 170.655 46.1007 170.685 46.1031C171.481 46.1878 171.861 45.8227 171.878 45.8072C171.899 45.7866 171.928 45.7753 171.958 45.7756C171.988 45.776 172.017 45.7881 172.038 45.8092C172.059 45.8304 172.071 45.859 172.072 45.8889C172.072 45.9189 172.061 45.9479 172.04 45.9697C171.766 46.2033 171.419 46.3346 171.059 46.3415Z" fill="#0C0C0C"/>
<path d="M167.073 40.5664C166.763 40.5664 166.511 40.315 166.511 40.0049C166.511 39.6948 166.763 39.4434 167.073 39.4434C167.382 39.4434 167.634 39.6948 167.634 40.0049C167.634 40.315 167.382 40.5664 167.073 40.5664Z" fill="#0C0C0C"/>
<path d="M172.556 40.2219C172.246 40.2219 171.995 39.9705 171.995 39.6604C171.995 39.3503 172.246 39.0989 172.556 39.0989C172.866 39.0989 173.117 39.3503 173.117 39.6604C173.117 39.9705 172.866 40.2219 172.556 40.2219Z" fill="#0C0C0C"/>
<path d="M180.271 43.7326C181.655 43.7503 182.797 42.2824 182.815 40.8973C182.833 39.5122 181.72 38.7338 180.335 38.7161L179.61 39.6353L179.081 43.7175L180.271 43.7326Z" fill="#E98862"/>
<path d="M178.893 41.5067C178.893 41.5067 178.426 34.6561 176.349 34.2332C174.966 33.9514 171.613 35.9137 168.507 35.3212C167.148 35.0627 165.858 35.3984 165.726 36.0406C165.674 36.2949 164.828 32.6405 166.956 29.8676C168.65 27.6605 174.195 27.0362 176.717 27.7599C183.702 29.7644 180.62 39.0176 180.62 39.0176L180.309 41.3794L178.893 41.5067Z" fill="#0C0C0C"/>
<path d="M170.188 43.6342H170.179C169.733 43.6296 168.985 43.5723 168.988 43.2383C168.991 42.9617 169.778 39.9823 169.868 39.6435C169.876 39.6143 169.895 39.5894 169.921 39.5742C169.947 39.5591 169.978 39.5549 170.007 39.5626C170.036 39.5704 170.061 39.5894 170.076 39.6154C170.091 39.6415 170.096 39.6726 170.088 39.7017C169.738 41.0212 169.217 43.0526 169.215 43.2411C169.258 43.3206 169.719 43.4023 170.181 43.4071C170.211 43.4071 170.239 43.4186 170.26 43.4392C170.282 43.4598 170.294 43.4879 170.295 43.5174C170.296 43.547 170.285 43.5758 170.265 43.5976C170.245 43.6194 170.217 43.6326 170.188 43.6344V43.6342Z" fill="#0C0C0C"/>
<path d="M168.666 36.9603C168.197 36.8313 167.701 36.8313 167.233 36.9603C167.002 37.0224 166.782 37.1186 166.581 37.2458C166.381 37.3705 166.198 37.5199 166.036 37.6904C166.006 37.7208 165.989 37.7615 165.989 37.8041C165.988 37.8468 166.004 37.888 166.033 37.9192C166.062 37.9505 166.102 37.9693 166.144 37.9719C166.187 37.9745 166.229 37.9605 166.261 37.933L166.271 37.9242C166.421 37.7853 166.588 37.6658 166.768 37.5685C166.945 37.4718 167.135 37.4025 167.332 37.3627C167.72 37.2813 168.123 37.3038 168.5 37.4279L168.516 37.4335C168.546 37.4444 168.579 37.4491 168.612 37.4474C168.644 37.4456 168.676 37.4375 168.706 37.4234C168.735 37.4094 168.762 37.3896 168.783 37.3653C168.805 37.341 168.822 37.3127 168.833 37.2819C168.844 37.2511 168.849 37.2184 168.847 37.1858C168.845 37.1532 168.837 37.1212 168.823 37.0918C168.809 37.0623 168.789 37.0359 168.765 37.014C168.741 36.9922 168.712 36.9753 168.681 36.9644C168.676 36.9632 168.67 36.9617 168.666 36.9603Z" fill="#0C0C0C"/>
<path d="M171.986 37.2428C172.343 37.0693 172.739 36.9933 173.135 37.0223C173.336 37.0354 173.534 37.0788 173.721 37.1511C173.912 37.2237 174.093 37.32 174.261 37.4377L174.271 37.4446C174.307 37.4689 174.351 37.4781 174.394 37.4704C174.436 37.4626 174.474 37.4385 174.499 37.4032C174.524 37.3679 174.534 37.3241 174.527 37.2814C174.52 37.2387 174.497 37.2003 174.462 37.1746C174.279 37.0271 174.078 36.9034 173.863 36.8064C173.646 36.7072 173.416 36.6411 173.179 36.6103C172.697 36.5448 172.207 36.6106 171.759 36.8008C171.698 36.8272 171.651 36.8765 171.627 36.9381C171.602 36.9996 171.604 37.0682 171.63 37.1289C171.656 37.1895 171.706 37.2372 171.767 37.2614C171.829 37.2857 171.897 37.2845 171.958 37.2581C171.963 37.2561 171.967 37.2539 171.972 37.2516L171.986 37.2428Z" fill="#0C0C0C"/>
<path d="M169.333 32.244C168.308 32.0298 167.733 30.6326 168.048 29.1234C168.363 27.6142 169.449 26.5644 170.474 26.7786C171.499 26.9928 172.075 28.39 171.759 29.8992C171.444 31.4084 170.358 32.4582 169.333 32.244Z" fill="#0C0C0C"/>
<path d="M112.17 169.494C112.17 169.494 111.104 175.02 105.932 175.328C100.76 175.636 101.881 179.758 101.881 179.758H121.646V169.879L112.17 169.494Z" fill="#54ABA7"/>
<path d="M149.77 166.004C149.77 166.004 151.253 171.434 146.748 173.994C142.242 176.555 145.068 179.758 145.068 179.758L162.802 171.029L158.444 162.165L149.77 166.004Z" fill="#54ABA7"/>
<path d="M160.755 164.471L145.799 117.268H172.909C178.355 117.268 180.625 112.648 180.625 107.2C180.625 101.753 175.271 96.9768 169.826 96.9768H133.238C129.917 96.9768 126.192 99.0089 124.37 101.787C122.547 104.565 123.039 108.869 124.36 111.918L148.309 170.111" fill="#262626"/>
<path opacity="0.8" d="M160.755 164.471L145.799 117.268H172.909C178.355 117.268 180.625 112.648 180.625 107.2C180.625 101.753 175.271 96.9768 169.826 96.9768H133.238C129.917 96.9768 126.192 99.0089 124.37 101.787C122.547 104.565 123.039 108.869 124.36 111.918L148.309 170.111" fill="#0A0A0A"/>
<path d="M122.782 174.626L147.789 117.268L180.624 117.266C188.318 116.663 191.842 112.444 191.73 106.998C191.619 101.62 188.898 96.3086 183.547 96.3086H139.291C135.332 96.3899 132.217 100.767 130.749 104.446L109.959 171.114" fill="#262626"/>
<path d="M193.97 96.3744C193.97 96.3744 195.428 105.888 193.117 111.177C190.231 117.781 179.413 117.266 179.413 117.266L180.023 96.3086L193.97 96.3744Z" fill="#262626"/>
<path d="M129.808 96.1873L153.002 91.3788C153.969 91.1785 154.869 90.7375 155.62 90.0967C156.371 89.4559 156.949 88.636 157.299 87.7128L166.421 63.6624C166.695 62.9415 166.824 62.1737 166.801 61.403C166.777 60.6323 166.603 59.8737 166.287 59.1705C165.97 58.4673 165.519 57.8332 164.958 57.3046C164.397 56.776 163.737 56.3631 163.017 56.0895C162.296 55.8159 161.529 55.687 160.758 55.7102C159.988 55.7333 159.229 55.908 158.527 56.2243C157.824 56.5406 157.19 56.9924 156.662 57.5537C156.133 58.115 155.72 58.775 155.447 59.4959L147.467 80.5331L127.426 84.6877C127.426 84.6877 129.406 96.2704 129.808 96.1873Z" fill="#54ABA7"/>
<path d="M156.635 69.7701C156.903 72.9181 158.801 92.559 159.059 96.4366H193.955C194.155 92.9392 194.806 78.0905 195.566 71.2514C196.292 64.7253 196.555 61.0011 195.719 58.9729C194.245 55.396 190.556 54.1089 187.378 53.6784C185.437 53.4156 182.519 53.2271 182.519 53.2271C182.519 53.2271 182.272 58.2285 176.379 58.5068C168.357 58.8846 168.893 53.2271 168.854 53.2271C167.554 53.2271 160.48 54.1725 158.712 55.326C156.214 56.9549 155.475 59.1749 155.446 61.2144C155.413 63.5627 156.33 66.1995 156.635 69.7701Z" fill="#54ABA7"/>
<path d="M158.007 85.819C158.009 85.8192 158.012 85.8192 158.015 85.819C158.041 85.8169 158.066 85.8043 158.083 85.7842C158.1 85.7641 158.108 85.7381 158.106 85.7119L157.2 74.8244C157.199 74.8113 157.196 74.7985 157.19 74.7867C157.184 74.7749 157.176 74.7645 157.166 74.756C157.156 74.7475 157.144 74.7412 157.132 74.7373C157.119 74.7335 157.106 74.7323 157.093 74.7337C157.066 74.736 157.042 74.7485 157.025 74.7686C157.008 74.7887 157 74.8147 157.002 74.8409L157.908 85.7284C157.91 85.7531 157.921 85.7762 157.94 85.7929C157.958 85.8097 157.982 85.819 158.007 85.819Z" fill="#0C0C0C"/>
<path d="M141.387 92.3527L133.73 68.8056C133.595 68.3918 133.333 68.0312 132.981 67.7755C132.629 67.5198 132.206 67.3821 131.771 67.3821H100.576C100.251 67.3821 99.9307 67.4591 99.641 67.6068C99.3513 67.7546 99.1007 67.9688 98.9096 68.232C98.7185 68.4952 98.5924 68.8 98.5416 69.1213C98.4908 69.4426 98.5168 69.7714 98.6173 70.0807L106.274 93.6279C106.409 94.0416 106.671 94.4022 107.023 94.6579C107.375 94.9136 107.798 95.0513 108.233 95.0514H139.428C139.753 95.0512 140.074 94.9741 140.363 94.8264C140.653 94.6786 140.903 94.4644 141.094 94.2012C141.285 93.938 141.412 93.6333 141.462 93.312C141.513 92.9907 141.487 92.662 141.387 92.3527Z" fill="#292A2E"/>
<path d="M141.387 92.3527L133.73 68.8056C133.595 68.3918 133.333 68.0312 132.981 67.7755C132.629 67.5198 132.206 67.3821 131.771 67.3821H100.576C100.251 67.3821 99.9307 67.4591 99.641 67.6068C99.3513 67.7546 99.1007 67.9688 98.9096 68.232C98.7185 68.4952 98.5924 68.8 98.5416 69.1213C98.4908 69.4426 98.5168 69.7714 98.6173 70.0807L106.274 93.6279C106.409 94.0416 106.671 94.4022 107.023 94.6579C107.375 94.9136 107.798 95.0513 108.233 95.0514H139.428C139.753 95.0512 140.074 94.9741 140.363 94.8264C140.653 94.6786 140.903 94.4644 141.094 94.2012C141.285 93.938 141.412 93.6333 141.462 93.312C141.513 92.9907 141.487 92.662 141.387 92.3527Z" fill="#292A2E"/>
<path d="M135.14 93.1421H156.022C156.542 93.1421 156.964 93.5641 156.964 94.0846V94.1088C156.964 94.6294 156.542 95.0513 156.022 95.0513H135.14C134.62 95.0513 134.198 94.6294 134.198 94.1088V94.0846C134.198 93.5641 134.62 93.1421 135.14 93.1421Z" fill="#292A2E"/>
<path d="M135.14 93.1421H156.022C156.542 93.1421 156.964 93.5641 156.964 94.0846V94.1088C156.964 94.6294 156.542 95.0513 156.022 95.0513H135.14C134.62 95.0513 134.198 94.6294 134.198 94.1088V94.0846C134.198 93.5641 134.62 93.1421 135.14 93.1421Z" fill="#292A2E"/>
<path d="M120.002 85.6385C118.195 85.6385 116.73 84.1731 116.73 82.3654C116.73 80.5577 118.195 79.0923 120.002 79.0923C121.809 79.0923 123.273 80.5577 123.273 82.3654C123.273 84.1731 121.809 85.6385 120.002 85.6385Z" fill="white"/>
<path d="M143.132 86.8367L148.343 85.0094L147.595 84.9575C147.354 84.9361 147.13 84.8238 146.968 84.6434C146.807 84.463 146.72 84.228 146.725 83.9858C146.732 83.8609 146.764 83.7387 146.82 83.6267C146.875 83.5147 146.953 83.4153 147.049 83.3344C147.144 83.2535 147.255 83.1929 147.374 83.1563C147.494 83.1197 147.62 83.1078 147.744 83.1214L156.964 84.1015L156.725 87.0658C156.651 87.9865 156.303 88.864 155.727 89.5858C155.151 90.3076 154.373 90.8408 153.492 91.1172L149.499 92.3615C149.293 92.4301 149.069 92.4254 148.866 92.348C148.663 92.2707 148.493 92.1256 148.384 91.9372C148.29 91.765 148.253 91.5672 148.279 91.3726C148.305 91.178 148.392 90.9968 148.529 90.8555C148.52 90.8492 148.512 90.8412 148.507 90.8319C148.501 90.8227 148.498 90.8124 148.496 90.8017C148.495 90.7909 148.495 90.78 148.498 90.7696C148.501 90.7591 148.506 90.7494 148.513 90.741L147.777 90.9718C147.548 91.0489 147.298 91.036 147.077 90.9356C146.857 90.8352 146.683 90.6548 146.59 90.431C146.515 90.2279 146.513 90.0047 146.586 89.8006C146.659 89.5965 146.801 89.4245 146.988 89.3151C146.979 89.3104 146.972 89.3042 146.965 89.2968L146.663 89.3918C146.456 89.4605 146.233 89.4557 146.03 89.3784C145.827 89.3011 145.656 89.1559 145.548 88.9675C145.433 88.7585 145.404 88.5133 145.467 88.2833C145.529 88.0533 145.678 87.8563 145.882 87.7337C145.88 87.7276 145.879 87.7213 145.879 87.715L143.709 88.4762C143.492 88.5524 143.253 88.5391 143.045 88.4393C142.838 88.3394 142.678 88.1612 142.602 87.9438C142.526 87.7264 142.539 87.4876 142.639 87.28C142.739 87.0724 142.917 86.913 143.134 86.8367H143.132Z" fill="#E98862"/>
<path opacity="0.2" d="M145.962 87.7999C145.972 87.8 145.982 87.7982 145.991 87.7948L148.091 87.032C148.112 87.0241 148.13 87.008 148.139 86.9871C148.149 86.9663 148.15 86.9425 148.142 86.921C148.134 86.8994 148.118 86.8819 148.097 86.8723C148.076 86.8626 148.053 86.8617 148.031 86.8696L145.932 87.6331C145.913 87.64 145.897 87.6535 145.887 87.6711C145.876 87.6887 145.873 87.7093 145.876 87.7294C145.88 87.7494 145.89 87.7676 145.906 87.7807C145.921 87.7937 145.941 87.8009 145.961 87.8009L145.962 87.7999Z" fill="#0A0A0A"/>
<path opacity="0.2" d="M147.023 89.327C147.033 89.327 147.043 89.3253 147.052 89.3221L148.707 88.7347C148.717 88.7309 148.727 88.725 148.736 88.7174C148.744 88.7098 148.751 88.7006 148.756 88.6903C148.761 88.6801 148.763 88.669 148.764 88.6576C148.765 88.6463 148.763 88.6349 148.759 88.6242C148.755 88.6135 148.75 88.6037 148.742 88.5952C148.734 88.5868 148.725 88.5799 148.715 88.5751C148.705 88.5702 148.693 88.5674 148.682 88.5668C148.671 88.5662 148.659 88.5678 148.649 88.5716L146.994 89.159C146.975 89.1658 146.959 89.1792 146.948 89.1968C146.938 89.2145 146.934 89.2351 146.938 89.2553C146.941 89.2754 146.952 89.2936 146.967 89.3067C146.983 89.3199 147.003 89.3271 147.023 89.327Z" fill="#0A0A0A"/>
<path opacity="0.2" d="M148.581 90.8763C148.592 90.8763 148.602 90.8743 148.612 90.8705L149.387 90.5748C149.398 90.5711 149.408 90.5653 149.417 90.5575C149.426 90.5498 149.433 90.5403 149.438 90.5298C149.443 90.5192 149.446 90.5078 149.446 90.4961C149.447 90.4844 149.445 90.4728 149.441 90.4619C149.436 90.451 149.43 90.441 149.422 90.4326C149.414 90.4242 149.404 90.4176 149.393 90.413C149.383 90.4085 149.371 90.4062 149.359 90.4063C149.348 90.4063 149.336 90.4087 149.325 90.4134L148.55 90.709C148.532 90.7163 148.516 90.7299 148.506 90.7475C148.496 90.7651 148.493 90.7856 148.496 90.8055C148.5 90.8253 148.511 90.8432 148.526 90.8562C148.541 90.8691 148.561 90.8762 148.581 90.8763H148.581Z" fill="#0A0A0A"/>
<path d="M152.883 82.3474L174.746 82.3327L183.016 62.1479L195.354 67.3377L185.035 91.2936L184.934 91.5322C184.429 92.6966 183.579 93.6777 182.498 94.3425C181.417 95.0073 180.158 95.3237 178.892 95.2489L152.552 93.692L152.883 82.3474Z" fill="#54ABA7"/>
<path d="M179.255 95.3587C180.48 95.3565 181.679 94.9972 182.704 94.3247C183.728 93.6521 184.535 92.6954 185.025 91.5716L185.126 91.333L193.919 70.9203L193.737 70.8418L184.843 91.4932C184.344 92.6371 183.506 93.6006 182.444 94.2542C181.381 94.9079 180.143 95.2203 178.898 95.1495L152.654 93.5985L152.979 82.447L174.812 82.4325L181.172 66.9125L180.988 66.8372L174.679 82.2337L152.787 82.2484L152.45 93.7858L152.547 93.7914L178.887 95.3483C179.009 95.3552 179.132 95.3587 179.255 95.3587Z" fill="#0C0C0C"/>
<path d="M47.8643 96.9569L48.2598 96.9968L39.881 179.982L39.4855 179.942L47.8643 96.9569Z" fill="#494949"/>
<path d="M203.572 96.9576L211.957 179.942L211.561 179.982L203.177 96.9976L203.572 96.9576Z" fill="#494949"/>
<path d="M168.93 96.9576L177.315 179.942L176.919 179.982L168.535 96.9976L168.93 96.9576Z" fill="#494949"/>
<path d="M13.2224 96.9566L13.6179 96.9966L5.23916 179.982L4.84367 179.942L13.2224 96.9566Z" fill="#494949"/>
<path d="M5.66664 95.3479H210.578C211.478 95.3479 212.207 96.0773 212.207 96.9771C212.207 97.8769 211.478 98.6063 210.578 98.6063H5.66664C4.76721 98.6063 4.03809 97.8769 4.03809 96.9771C4.03809 96.0773 4.76721 95.3479 5.66664 95.3479Z" fill="#292A2E"/>
<path opacity="0.8" d="M5.66664 95.3479H210.578C211.478 95.3479 212.207 96.0773 212.207 96.9771C212.207 97.8769 211.478 98.6063 210.578 98.6063H5.66664C4.76721 98.6063 4.03809 97.8769 4.03809 96.9771C4.03809 96.0773 4.76721 95.3479 5.66664 95.3479Z" fill="white"/>
<path d="M5.66647 98.8051H210.578C210.819 98.8076 211.059 98.7622 211.283 98.6714C211.507 98.5807 211.71 98.4465 211.882 98.2765C212.054 98.1065 212.19 97.9041 212.283 97.681C212.376 97.458 212.424 97.2187 212.424 96.9771C212.424 96.7354 212.376 96.4961 212.283 96.2731C212.19 96.05 212.054 95.8476 211.882 95.6776C211.71 95.5076 211.507 95.3734 211.283 95.2827C211.059 95.1919 210.819 95.1465 210.578 95.149H5.66647C5.18518 95.154 4.72528 95.3489 4.3867 95.6911C4.04814 96.0334 3.85822 96.4955 3.85822 96.9771C3.85822 97.4586 4.04814 97.9207 4.3867 98.263C4.72528 98.6053 5.18518 98.8001 5.66647 98.8051ZM210.578 95.5467C210.767 95.5445 210.955 95.5798 211.13 95.6507C211.305 95.7216 211.465 95.8266 211.6 95.9596C211.734 96.0927 211.841 96.2511 211.914 96.4258C211.987 96.6004 212.024 96.7878 212.024 96.9771C212.024 97.1663 211.987 97.3537 211.914 97.5284C211.841 97.703 211.734 97.8614 211.6 97.9945C211.465 98.1275 211.305 98.2325 211.13 98.3034C210.955 98.3743 210.767 98.4096 210.578 98.4074H5.66647C5.29022 98.403 4.93088 98.2503 4.66637 97.9826C4.40187 97.7148 4.25351 97.3535 4.25351 96.9771C4.25351 96.6006 4.40187 96.2393 4.66637 95.9716C4.93088 95.7038 5.29022 95.5511 5.66647 95.5467H210.578Z" fill="#292A2E"/>
<path d="M5.66656 95.3477H174.612C175.512 95.3477 176.241 96.0771 176.241 96.9768C176.241 97.8766 175.512 98.606 174.612 98.606H5.66656C4.76714 98.606 4.03801 97.8766 4.03801 96.9768C4.03801 96.0771 4.76714 95.3477 5.66656 95.3477Z" fill="white"/>
<path d="M5.66643 98.805H174.613C175.094 98.8 175.554 98.6052 175.892 98.2629C176.231 97.9206 176.421 97.4585 176.421 96.977C176.421 96.4954 176.231 96.0333 175.892 95.691C175.554 95.3488 175.094 95.1539 174.613 95.1489H5.66643C5.18512 95.1539 4.72523 95.3488 4.38666 95.691C4.0481 96.0333 3.85817 96.4954 3.85817 96.977C3.85817 97.4585 4.0481 97.9206 4.38666 98.2629C4.72523 98.6052 5.18512 98.8 5.66643 98.805ZM174.613 95.5466C174.989 95.551 175.348 95.7037 175.613 95.9715C175.877 96.2392 176.026 96.6005 176.026 96.977C176.026 97.3534 175.877 97.7147 175.613 97.9825C175.348 98.2502 174.989 98.4029 174.613 98.4073H5.66643C5.29016 98.4029 4.93083 98.2502 4.66632 97.9825C4.40182 97.7147 4.25346 97.3534 4.25346 96.977C4.25346 96.6005 4.40182 96.2392 4.66632 95.9715C4.93083 95.7037 5.29016 95.551 5.66643 95.5466H174.613Z" fill="#292A2E"/>
</g>
<defs>
<clipPath id="clip0_192_3">
<rect width="217" height="180" fill="white" transform="matrix(-1 0 0 1 217 0)"/>
</clipPath>
</defs>
</svg>
