<svg  viewBox="0 0 226 179" fill="none" xmlns="http://www.w3.org/2000/svg">
<path d="M40.2334 157.689L210.573 157.689C214.756 157.689 218.147 153.894 218.147 149.213L218.147 9.65149C218.147 4.97041 214.756 1.17566 210.573 1.17566L40.2334 1.17566C36.0503 1.17566 32.6592 4.97041 32.6592 9.65149L32.6592 149.213C32.6592 153.894 36.0503 157.689 40.2334 157.689Z" fill="white"/>
<path d="M210.573 158.038H40.2328C38.142 158.035 36.1374 157.104 34.659 155.45C33.1805 153.796 32.3488 151.553 32.3464 149.213V9.65114C32.3487 7.31122 33.1805 5.06789 34.6591 3.41338C36.1377 1.75888 38.1424 0.828332 40.2334 0.825928L210.574 0.825928C212.665 0.828517 214.669 1.75914 216.148 3.41363C217.626 5.06812 218.458 7.31134 218.46 9.65114V149.213C218.458 151.553 217.626 153.796 216.147 155.45C214.669 157.105 212.664 158.035 210.573 158.038V158.038ZM40.2334 1.52468C38.3079 1.5268 36.4618 2.38362 35.1001 3.90713C33.7384 5.43063 32.9725 7.49639 32.9702 9.65114V149.213C32.9725 151.367 33.7383 153.433 35.0997 154.956C36.4611 156.48 38.3069 157.336 40.2322 157.339H210.572C212.498 157.336 214.344 156.48 215.705 154.956C217.066 153.433 217.832 151.367 217.834 149.213V9.65114C217.832 7.49675 217.066 5.43131 215.705 3.90787C214.344 2.38442 212.498 1.52736 210.573 1.52468H40.2334Z" fill="#292A2E"/>
<g opacity="0.14">
<path d="M88.6458 30.1233C87.5028 26.2386 85.3754 22.8094 82.5224 20.253C79.6694 17.6967 76.214 16.1234 72.5766 15.7247C68.9391 15.3261 65.2766 16.1192 62.0346 18.0075C58.7926 19.8958 56.1111 22.7979 54.3162 26.3607C52.5213 29.9235 51.6906 33.9933 51.9251 38.0748C52.1596 42.1563 53.4491 46.0735 55.6369 49.3498C57.8246 52.626 60.8162 55.12 64.2476 56.5283C67.6789 57.9365 71.4021 58.1983 74.964 57.2817C74.1428 54.4949 73.8504 51.547 74.1054 48.6265C74.3605 45.7061 75.1573 42.8773 76.4451 40.3212C77.7328 37.765 79.4831 35.5377 81.584 33.7817C83.6848 32.0257 86.0901 30.7797 88.6458 30.1233V30.1233Z" fill="#54ABA7"/>
<path d="M92.8632 29.5864C91.444 29.5874 90.0294 29.7674 88.6462 30.1231C89.4675 32.9098 89.7601 35.8578 89.5051 38.7783C89.2501 41.6988 88.4533 44.5276 87.1655 47.0838C85.8777 49.64 84.1274 51.8673 82.0265 53.6233C79.9255 55.3792 77.5202 56.6251 74.9644 57.2814C76.0517 60.9716 78.0289 64.2539 80.6778 66.7661C83.3267 69.2783 86.5444 70.9228 89.9756 71.5182C93.4069 72.1135 96.9184 71.6364 100.123 70.1397C103.327 68.643 106.1 66.1848 108.134 63.0363C110.169 59.8878 111.387 56.1714 111.654 52.2972C111.921 48.4231 111.226 44.5418 109.646 41.0816C108.067 37.6214 105.663 34.7168 102.702 32.6884C99.7402 30.6599 96.3355 29.5864 92.8632 29.5864V29.5864Z" fill="#54ABA7"/>
</g>
<g opacity="0.22">
<path d="M70.7474 58.1673C66.9581 58.1674 63.2538 56.91 60.1031 54.5542C56.9524 52.1984 54.4967 48.85 53.0466 44.9324C51.5965 41.0148 51.217 36.7039 51.9563 32.545C52.6955 28.3861 54.5202 24.5658 57.1997 21.5674C59.8791 18.569 63.2929 16.527 67.0094 15.6998C70.7259 14.8725 74.5782 15.2972 78.079 16.9199C81.5798 18.5427 84.5721 21.2907 86.6772 24.8165C88.7824 28.3423 89.906 32.4875 89.906 36.7279C89.9003 42.4121 87.8799 47.8615 84.2882 51.8808C80.6965 55.9001 75.8268 58.1609 70.7474 58.1673ZM70.7474 15.987C67.0816 15.9869 63.4981 17.2033 60.4501 19.4823C57.402 21.7613 55.0264 25.0006 53.6235 28.7905C52.2206 32.5804 51.8535 36.7507 52.5687 40.7741C53.2838 44.7975 55.049 48.4932 57.6411 51.3939C60.2332 54.2946 63.5357 56.27 67.131 57.0704C70.7264 57.8707 74.4531 57.46 77.8398 55.8902C81.2266 54.3203 84.1213 51.6619 86.1579 48.2511C88.1945 44.8402 89.2816 40.8301 89.2816 36.7279C89.2759 31.2291 87.3214 25.9572 83.8468 22.0689C80.3722 18.1806 75.6612 15.9933 70.7474 15.987V15.987Z" fill="#54ABA7"/>
<path d="M92.8624 72.117C89.0731 72.1171 85.3689 70.8597 82.2182 68.504C79.0674 66.1482 76.6117 62.7998 75.1616 58.8822C73.7115 54.9646 73.332 50.6538 74.0712 46.4948C74.8104 42.3359 76.6351 38.5157 79.3145 35.5172C81.9939 32.5188 85.4077 30.4768 89.1242 29.6495C92.8407 28.8223 96.6929 29.2468 100.194 30.8695C103.695 32.4922 106.687 35.2402 108.792 38.766C110.897 42.2917 112.021 46.4369 112.021 50.6773C112.015 56.3615 109.995 61.8111 106.403 65.8304C102.812 69.8498 97.9418 72.1107 92.8624 72.117V72.117ZM92.8624 29.9363C89.1966 29.9362 85.6131 31.1526 82.5651 33.4316C79.517 35.7106 77.1414 38.9499 75.7385 42.7398C74.3356 46.5297 73.9685 50.7001 74.6836 54.7234C75.3988 58.7468 77.164 62.4426 79.7561 65.3433C82.3481 68.244 85.6507 70.2194 89.246 71.0197C92.8414 71.8201 96.5681 71.4093 99.9548 69.8395C103.342 68.2697 106.236 65.6113 108.273 62.2004C110.31 58.7896 111.397 54.7795 111.397 50.6773C111.391 45.1784 109.437 39.9064 105.962 36.0181C102.487 32.1297 97.7763 29.9425 92.8624 29.9363V29.9363Z" fill="#54ABA7"/>
</g>
<path d="M225.448 178.258H8.76021C8.6774 178.258 8.59799 178.221 8.53944 178.155C8.48089 178.09 8.448 178.001 8.448 177.908C8.448 177.816 8.48089 177.727 8.53944 177.661C8.59799 177.596 8.6774 177.559 8.76021 177.559H225.448C225.531 177.559 225.61 177.596 225.669 177.661C225.727 177.727 225.76 177.816 225.76 177.908C225.76 178.001 225.727 178.09 225.669 178.155C225.61 178.221 225.531 178.258 225.448 178.258Z" fill="#292A2E"/>
<path d="M120.826 80.6228L120.514 74.4504C120.527 74.0116 120.391 73.5835 120.133 73.2527C119.875 72.9219 119.515 72.7131 119.124 72.6686C118.922 72.6533 118.72 72.6844 118.529 72.7597C118.338 72.8351 118.162 72.9532 118.014 73.1069C117.865 73.2605 117.745 73.4465 117.663 73.6535C117.581 73.8604 117.537 74.084 117.534 74.3106L117.284 91.5446" fill="#E98862"/>
<path d="M128.528 68.3347L129.267 71.3404L115.198 75.8889L114.458 72.8829L128.528 68.3347Z" fill="#367CFF"/>
<path opacity="0.5" d="M128.528 68.3347L129.267 71.3404L115.198 75.8889L114.458 72.8829L128.528 68.3347Z" fill="white"/>
<path d="M112.233 73.5763L112.973 76.5823L115.198 75.8888L114.458 72.8828L112.233 73.5763Z" fill="#262626"/>
<path d="M128.528 68.3347C128.528 68.3347 129.348 68.558 130.083 68.7606C130.666 68.9213 131.194 69.0691 131.215 69.082C130.962 69.426 130.691 69.7527 130.403 70.0603C129.869 70.6706 129.268 71.3418 129.268 71.3418L128.528 68.3347Z" fill="#54ABA7"/>
<path opacity="0.9" d="M128.528 68.3347C128.528 68.3347 129.348 68.558 130.083 68.7606C130.666 68.9213 131.194 69.0691 131.215 69.082C130.962 69.426 130.691 69.7527 130.403 70.0603C129.869 70.6706 129.268 71.3418 129.268 71.3418L128.528 68.3347Z" fill="white"/>
<path d="M130.083 68.7605C130.666 68.9212 131.194 69.069 131.215 69.0819C130.962 69.4259 130.691 69.7525 130.403 70.0602L130.083 68.7605Z" fill="#367CFF"/>
<path d="M117.282 91.5441L122.092 91.7698C123.586 91.8399 125.065 91.409 126.339 90.5326C127.612 89.6561 128.623 88.3739 129.242 86.8503L132.031 79.9435C132.182 79.5878 132.219 79.1845 132.135 78.802C132.051 78.4195 131.851 78.0813 131.57 77.8445C131.312 77.6367 131.002 77.5266 130.684 77.5303C130.366 77.5341 130.058 77.6513 129.804 77.8651C129.791 77.8414 129.774 77.8217 129.753 77.8078C129.733 77.7962 129.71 77.7904 129.687 77.791C129.665 77.7915 129.642 77.7984 129.623 77.8109L130.139 76.5378C130.308 76.142 130.337 75.6891 130.22 75.2706C130.102 74.852 129.847 74.499 129.505 74.2829C129.194 74.1019 128.836 74.0494 128.494 74.1346C128.152 74.2198 127.847 74.4374 127.634 74.749C127.628 74.7326 127.62 74.7174 127.609 74.7043L127.822 74.1802C127.973 73.8244 128.009 73.4211 127.925 73.0386C127.841 72.656 127.642 72.3177 127.361 72.0808C127.048 71.8286 126.659 71.7218 126.278 71.7829C125.896 71.844 125.55 72.0682 125.313 72.4085C125.303 72.4042 125.293 72.4012 125.283 72.3995L120.597 76.2241" fill="#E98862"/>
<path d="M127.843 68.814C127.757 69.2075 127.55 69.555 127.26 69.7964C126.463 70.5766 125.761 71.4702 125.172 72.4545C124.273 73.8562 123.541 76.1229 123.334 76.8793C123.225 77.2781 122.979 77.6121 122.65 77.8078C122.321 78.0036 121.936 78.0451 121.58 77.9232C121.224 77.8013 120.925 77.526 120.75 77.1579C120.575 76.7897 120.538 76.3589 120.647 75.9601C120.683 75.8287 121.54 72.7249 122.89 70.6206C123.524 69.6322 125.082 67.6534 125.675 67.1999C125.906 67.0233 126.178 66.928 126.458 66.9261C126.738 66.9241 127.012 67.0158 127.245 67.1891C127.478 67.3625 127.659 67.6098 127.766 67.8993C127.872 68.1888 127.899 68.5073 127.843 68.814V68.814Z" fill="#E98862"/>
<path opacity="0.2" d="M125.402 72.5726C125.4 72.5907 125.395 72.6083 125.388 72.6246L123.746 76.2319C123.737 76.2503 123.726 76.2666 123.712 76.28C123.698 76.2933 123.681 76.3035 123.664 76.3099C123.646 76.3162 123.628 76.3186 123.61 76.317C123.591 76.3154 123.573 76.3097 123.557 76.3004C123.541 76.291 123.526 76.2781 123.514 76.2625C123.502 76.2468 123.493 76.2286 123.487 76.2091C123.482 76.1895 123.479 76.1688 123.481 76.1483C123.482 76.1277 123.487 76.1077 123.496 76.0894L125.138 72.4824C125.153 72.4498 125.178 72.4241 125.208 72.4098C125.239 72.3955 125.272 72.3936 125.304 72.4043C125.335 72.415 125.362 72.4377 125.38 72.4685C125.398 72.4992 125.406 72.5361 125.402 72.5726H125.402Z" fill="#0A0A0A"/>
<path opacity="0.2" d="M127.646 74.8199C127.644 74.8376 127.639 74.8547 127.632 74.8706L126.361 77.7173C126.343 77.7518 126.314 77.7775 126.28 77.789C126.246 77.8005 126.209 77.7969 126.177 77.7791C126.145 77.7613 126.12 77.7305 126.108 77.693C126.096 77.6555 126.097 77.6142 126.111 77.5775L127.382 74.7312C127.397 74.698 127.422 74.6717 127.452 74.657C127.482 74.6422 127.516 74.64 127.548 74.6507C127.58 74.6614 127.607 74.6843 127.625 74.7153C127.643 74.7464 127.65 74.7835 127.646 74.8203L127.646 74.8199Z" fill="#0A0A0A"/>
<path opacity="0.2" d="M129.827 77.9652C129.824 77.9841 129.819 78.0024 129.811 78.0194L129.183 79.347C129.165 79.3821 129.135 79.408 129.1 79.4192C129.065 79.4304 129.028 79.426 128.996 79.407C128.964 79.388 128.94 79.3559 128.928 79.3173C128.917 79.2788 128.92 79.2368 128.935 79.2003L129.564 77.8726C129.579 77.8403 129.604 77.8151 129.634 77.8012C129.665 77.7874 129.698 77.7858 129.73 77.7968C129.761 77.8078 129.788 77.8306 129.805 77.8614C129.823 77.8922 129.831 77.9289 129.827 77.9652V77.9652Z" fill="#0A0A0A"/>
<path d="M114.887 80.3784L103.12 118.146L83.9967 90.1609L66.1035 106.894L99.1613 146.396C100.337 147.899 101.847 149.027 103.539 149.665C105.231 150.302 107.043 150.427 108.792 150.027C110.54 149.627 112.163 148.715 113.495 147.385C114.827 146.055 115.82 144.354 116.374 142.455L132.487 86.8419L114.887 80.3784Z" fill="#54ABA7"/>
<path d="M10.46 161.458C8.82001 161.458 7.20427 161.014 5.75036 160.165C4.29645 159.316 3.04743 158.086 2.10964 156.581C1.17186 155.075 0.573089 153.338 0.364308 151.518C0.155527 149.698 0.342921 147.848 0.910534 146.126C1.48656 144.379 15.0457 103.228 17.6164 95.8132L36.5965 104.053C35.1512 108.222 29.9152 124.024 25.7067 136.755L32.6964 135.904L34.8968 158.553L11.5615 161.392C11.1957 161.436 10.828 161.458 10.46 161.458V161.458Z" fill="#54ABA7"/>
<path d="M22.6587 160.294L19.5547 177.584H79.8425L76.3702 159.966L22.6587 160.294Z" fill="#262626"/>
<path d="M35.6938 83.0285C30.6567 83.4477 25.5206 85.2784 21.7382 89.0248C16.0338 94.6756 16.5415 98.2074 19.3891 113.855C21.8393 127.319 20.8671 133.203 22.5062 158.048C22.5546 158.78 22.6579 160.294 22.6579 160.294L76.5405 160.194C76.5405 160.194 81.5889 127.231 84.3769 112.027C86.4968 100.469 92.0644 86.4373 68.5886 83.6095C68.5268 83.6021 49.6985 81.8657 35.6938 83.0285Z" fill="#54ABA7"/>
<path d="M68.5881 83.6104C68.5257 83.6013 66.8154 90.8037 53.4686 89.6825C44.2272 88.908 41.9756 81.8698 41.7639 81.8698C42.7602 81.6329 44.3777 81.387 44.8204 81.1225C46.2753 80.2491 47.3353 79.1828 47.8685 76.8975C48.2859 75.1101 48.4985 68.2292 48.4985 64.7773L62.7168 68.3525C62.5185 72.2466 61.1314 81.2745 65.9931 82.8722C66.802 83.1384 67.6734 83.3795 68.5881 83.6104Z" fill="#E98862"/>
<path d="M62.2239 76.0087C56.6189 76.5035 49.4184 73.8552 48.0497 65.4866L46.8156 57.9356C45.4481 49.567 48.267 41.9789 55.3076 40.5367C62.3488 39.0955 68.7207 44.8026 70.0884 53.1712L70.6348 56.514C71.1621 59.7265 72.2261 75.1255 62.2239 76.0087Z" fill="#E98862"/>
<path d="M67.4222 68.325C66.416 62.6676 65.9549 58.8919 66.0083 54.9114C67.4254 52.1297 67.0529 48.9371 66.7307 47.5574C68.1197 48.4054 68.7004 48.498 70.0089 48.498C70.0089 48.498 67.6651 37.9723 59.6992 35.14C58.2346 34.502 54.4947 33.696 49.5287 34.4583C45.3049 35.1064 34.8934 38.6407 33.406 51.7573V51.7646C33.3567 52.1996 32.357 64.2848 30.3642 70.0834C27.6848 77.8783 23.9233 80.3002 24.0189 89.2938C24.1416 100.862 43.1466 102.402 54.6096 101.537C66.0726 100.671 72.4716 96.4535 72.5546 88.1164C72.6455 78.7762 69.4357 79.6447 67.4222 68.325Z" fill="#0A0A0A"/>
<path d="M67.4253 63.5829C65.2858 64.021 63.1325 61.8144 62.7422 59.4198C62.352 57.0252 63.8696 55.3496 66.0095 54.9128L67.4253 63.5829Z" fill="#E98862"/>
<path d="M81.884 127.234C81.8755 127.234 81.8671 127.233 81.8587 127.232C81.8412 127.228 81.8245 127.22 81.8096 127.209C81.7946 127.199 81.7818 127.184 81.7717 127.168C81.7617 127.151 81.7546 127.133 81.7509 127.113C81.7473 127.094 81.7471 127.074 81.7504 127.054L84.0098 111.216C84.0179 111.178 84.0388 111.145 84.068 111.124C84.0973 111.103 84.1328 111.095 84.1671 111.102C84.2014 111.109 84.232 111.131 84.2523 111.163C84.2727 111.194 84.2813 111.234 84.2765 111.272L82.018 127.111C82.0121 127.146 81.9955 127.177 81.971 127.2C81.9465 127.222 81.9158 127.235 81.884 127.234V127.234Z" fill="#0C0C0C"/>
<path d="M22.6588 160.446C22.6237 160.446 22.5899 160.431 22.5647 160.404C22.5394 160.376 22.5245 160.339 22.5233 160.3L20.8348 111.25C20.8341 111.231 20.8369 111.211 20.843 111.192C20.8491 111.173 20.8585 111.156 20.8706 111.141C20.8827 111.127 20.8973 111.115 20.9135 111.106C20.9297 111.098 20.9472 111.093 20.965 111.093C21.0005 111.093 21.0347 111.108 21.0607 111.135C21.0868 111.162 21.1029 111.199 21.1058 111.239L22.7946 160.288C22.7959 160.329 22.7829 160.368 22.7585 160.397C22.734 160.427 22.7 160.444 22.6641 160.446H22.6588Z" fill="#0C0C0C"/>
<path opacity="0.21" d="M139.31 96.6291C139.265 96.6292 139.22 96.6183 139.179 96.5971C139.138 96.5759 139.102 96.545 139.072 96.5065L136.384 92.9715C136.358 92.9366 136.337 92.8961 136.325 92.8524C136.312 92.8086 136.307 92.7626 136.311 92.7168C136.314 92.671 136.325 92.6263 136.344 92.5854C136.362 92.5444 136.388 92.508 136.419 92.4782C136.451 92.4484 136.487 92.4257 136.526 92.4116C136.565 92.3974 136.606 92.392 136.647 92.3956C136.688 92.3992 136.728 92.4119 136.764 92.4327C136.801 92.4536 136.834 92.4824 136.86 92.5173L139.165 95.5489L142.185 83.2296C142.203 83.1557 142.242 83.0906 142.297 83.0441C142.351 82.9976 142.418 82.9725 142.486 82.9724H142.488L171.076 83.1471C171.117 83.1472 171.157 83.1564 171.195 83.1741C171.233 83.1918 171.267 83.2176 171.296 83.2502C171.325 83.2827 171.348 83.3213 171.363 83.3637C171.379 83.4062 171.387 83.4516 171.387 83.4975C171.387 83.5434 171.379 83.5888 171.363 83.6311C171.347 83.6735 171.324 83.7119 171.295 83.7443C171.266 83.7766 171.231 83.8022 171.193 83.8197C171.155 83.8371 171.115 83.846 171.074 83.8458H171.072L142.723 83.6733L139.61 96.372C139.592 96.4458 139.553 96.5108 139.499 96.5572C139.444 96.6036 139.378 96.6288 139.309 96.6288L139.31 96.6291Z" fill="#54ABA7"/>
<g opacity="0.2">
<path d="M146.064 91.6633C146.392 90.7879 146.8 89.9525 147.281 89.1702C147.443 88.9078 147.663 88.4403 148.002 88.5902C148.32 88.7992 148.601 89.0715 148.832 89.3938C149.286 89.9635 149.81 90.4587 150.388 90.8646C150.981 91.2324 151.676 91.3334 152.333 91.1469C153.007 90.903 153.653 90.5689 154.257 90.1519C154.943 89.7238 155.717 89.5036 156.503 89.5133C157.352 89.5675 158.193 89.7215 159.014 89.9727C159.865 90.1949 160.72 90.3895 161.587 90.5261C163.546 90.8375 165.531 90.9026 167.503 90.72C167.944 90.6791 167.948 89.9046 167.503 89.9461C165.672 90.1191 163.829 90.0755 162.005 89.8162C161.096 89.6797 160.193 89.4921 159.3 89.254C158.451 89.0004 157.584 88.8312 156.709 88.7485C155.884 88.6937 155.059 88.869 154.309 89.2586C153.664 89.594 153.071 90.0681 152.393 90.321C152.073 90.449 151.729 90.4873 151.393 90.4325C151.056 90.3777 150.737 90.2315 150.463 90.0066C149.917 89.519 149.403 88.9882 148.925 88.4183C148.615 88.0986 148.261 87.7524 147.811 87.7734C147.619 87.804 147.436 87.8822 147.275 88.0023C147.114 88.1224 146.979 88.2812 146.88 88.4672C146.309 89.3339 145.834 90.2753 145.466 91.2706C145.423 91.3601 145.412 91.4647 145.435 91.563C145.458 91.6614 145.514 91.7462 145.591 91.8003C145.67 91.8514 145.765 91.8654 145.853 91.8392C145.942 91.813 146.018 91.7488 146.064 91.6605L146.064 91.6633Z" fill="#54ABA7"/>
</g>
<path d="M182.338 177.351H217.153V166.171H182.338V177.351Z" fill="#54ABA7"/>
<path opacity="0.69" d="M182.338 177.351H217.153V166.171H182.338V177.351Z" fill="white"/>
<path opacity="0.65" d="M187.014 177.351H191.576V166.171H187.014V177.351Z" fill="white"/>
<path opacity="0.65" d="M193.736 174.921H212.704V168.296H193.736V174.921Z" fill="white"/>
<path d="M174.038 166.181H208.374V155.001H174.038V166.181Z" fill="#54ABA7"/>
<path opacity="0.6" d="M174.038 166.181H208.374V155.001H174.038V166.181Z" fill="white"/>
<path opacity="0.42" d="M178.425 163.751H197.132V157.126H178.425V163.751Z" fill="white"/>
<path opacity="0.42" d="M199.263 166.181H203.762V155.001H199.263V166.181Z" fill="white"/>
<path d="M157.272 177.35L179.89 147.733L172.295 140.47L149.677 170.087L157.272 177.35Z" fill="#54ABA7"/>
<path opacity="0.78" d="M157.272 177.35L179.89 147.733L172.295 140.47L149.677 170.087L157.272 177.35Z" fill="white"/>
<path opacity="0.2" d="M160.31 173.373L163.273 169.492L155.678 162.229L152.715 166.11L160.31 173.373Z" fill="#54ABA7"/>
<path opacity="0.2" d="M163.027 166.075L175.35 149.939L170.849 145.635L158.526 161.771L163.027 166.075Z" fill="#54ABA7"/>
<path opacity="0.21" d="M188.178 137.655L168.284 99.0951C168.273 99.0756 168.26 99.0576 168.246 99.0416C168.217 99.0037 168.182 98.9732 168.141 98.9522C168.101 98.9313 168.058 98.9204 168.013 98.9204C167.969 98.9204 167.925 98.9313 167.885 98.9522C167.845 98.9732 167.81 99.0037 167.781 99.0416C167.767 99.0576 167.754 99.0756 167.743 99.0951L147.849 137.655C147.821 137.708 147.807 137.769 147.807 137.83C147.807 137.891 147.821 137.952 147.849 138.005C147.876 138.058 147.916 138.102 147.963 138.133C148.01 138.163 148.064 138.179 148.119 138.179H187.908C187.963 138.179 188.016 138.163 188.064 138.133C188.111 138.102 188.151 138.058 188.178 138.005C188.205 137.952 188.22 137.891 188.22 137.83C188.22 137.769 188.205 137.708 188.178 137.655ZM167.701 137.481H156.042C156.199 136.037 155.867 134.579 155.111 133.396C154.355 132.212 153.231 131.389 151.959 131.087L167.701 100.573V137.481ZM168.325 100.574L184.042 131.035C184.009 131.028 183.976 131.027 183.943 131.031C182.621 131.279 181.434 132.087 180.631 133.288C179.828 134.49 179.469 135.991 179.629 137.481H168.325V100.574ZM151.631 131.722C152.805 131.947 153.855 132.673 154.56 133.747C155.266 134.821 155.572 136.159 155.413 137.481H148.66L151.631 131.722ZM180.258 137.481C180.099 136.158 180.406 134.818 181.113 133.744C181.819 132.669 182.872 131.944 184.047 131.72C184.1 131.71 184.15 131.684 184.191 131.645C184.232 131.606 184.263 131.556 184.282 131.5L187.368 137.481H180.258Z" fill="#54ABA7"/>
<g opacity="0.2">
<path d="M204.735 23.0508H131.291C131.208 23.0508 131.129 23.014 131.07 22.9485C131.012 22.883 130.979 22.7941 130.979 22.7014C130.979 22.6088 131.012 22.5199 131.07 22.4544C131.129 22.3889 131.208 22.3521 131.291 22.3521H204.735C204.818 22.3521 204.897 22.3889 204.956 22.4544C205.014 22.5199 205.047 22.6088 205.047 22.7014C205.047 22.7941 205.014 22.883 204.956 22.9485C204.897 23.014 204.818 23.0508 204.735 23.0508Z" fill="#54ABA7"/>
</g>
<g opacity="0.2">
<path d="M127.872 70.1299C127.789 70.1299 127.709 70.0931 127.651 70.0275C127.592 69.962 127.559 69.8731 127.559 69.7805V25.9587C127.559 25.8661 127.592 25.7772 127.651 25.7117C127.709 25.6462 127.789 25.6094 127.872 25.6094C127.954 25.6094 128.034 25.6462 128.092 25.7117C128.151 25.7772 128.184 25.8661 128.184 25.9587V69.7805C128.184 69.8731 128.151 69.962 128.092 70.0275C128.034 70.0931 127.954 70.1299 127.872 70.1299Z" fill="#54ABA7"/>
</g>
<path d="M205.047 61.6058V53.616C205.049 53.5939 205.049 53.5717 205.047 53.5496V44.4106C205.049 44.3886 205.049 44.3663 205.047 44.3443V35.4352C205.049 35.4131 205.049 35.3909 205.047 35.3688V26.0426C205.049 26.0204 205.049 25.9981 205.047 25.9759V25.9587C205.047 25.8661 205.014 25.7772 204.956 25.7117C204.897 25.6462 204.818 25.6094 204.735 25.6094H131.291C131.208 25.6094 131.129 25.6462 131.07 25.7117C131.012 25.7772 130.979 25.8661 130.979 25.9587V69.7805C130.979 69.7892 130.983 69.7962 130.983 69.8046C130.985 69.8832 131.013 69.9583 131.062 70.0142C131.065 70.0177 131.066 70.023 131.07 70.0264C131.099 70.0591 131.133 70.085 131.172 70.1026C131.209 70.1203 131.25 70.1295 131.291 70.1295H165.11C165.155 70.1619 165.207 70.1791 165.26 70.1791C165.313 70.1791 165.365 70.1619 165.41 70.1295H174.029C174.073 70.1619 174.125 70.1791 174.179 70.1791C174.232 70.1791 174.284 70.1619 174.328 70.1295H182.035C182.079 70.1619 182.131 70.1791 182.184 70.1791C182.238 70.1791 182.289 70.1619 182.334 70.1295H189.952C189.996 70.1619 190.048 70.1791 190.101 70.1791C190.154 70.1791 190.206 70.1619 190.251 70.1295H197.363C197.408 70.1619 197.46 70.1791 197.513 70.1791C197.566 70.1791 197.618 70.1619 197.662 70.1295H204.735C204.818 70.1295 204.897 70.0927 204.956 70.0272C205.014 69.9617 205.047 69.8728 205.047 69.7801V61.6746C205.049 61.6517 205.049 61.6287 205.047 61.6058V61.6058ZM190.904 69.4318L204.423 54.4293V61.5041L197.425 69.4318H190.904ZM182.978 69.4318L204.423 45.2338V53.4441L190.017 69.4304L182.978 69.4318ZM174.973 69.4318L204.423 36.2555V44.2415L182.099 69.4315L174.973 69.4318ZM166.063 69.4318L204.423 26.8538V35.2633L174.092 69.4322L166.063 69.4318ZM157.392 69.4318L196.463 26.3081H204.028L165.176 69.4311L157.392 69.4318ZM148.744 69.4318L187.814 26.3081H195.574L156.502 69.4311L148.744 69.4318ZM140.504 69.4318L179.574 26.3081H186.925L147.853 69.4311L140.504 69.4318ZM132.051 69.4318L170.901 26.3081H178.685L139.613 69.4311L132.051 69.4318ZM131.603 34.2924L138.65 26.3081H145.173L131.603 41.3662V34.2924ZM131.603 42.3511L146.059 26.3081H153.097L131.603 50.5624V42.3511ZM131.603 51.5546L153.978 26.3081H161.104L131.603 59.5407V51.5546ZM131.603 60.5336L161.984 26.3095H170.014L131.603 68.942V60.5336ZM137.772 26.3095L131.603 33.297V26.3095H137.772ZM198.304 69.4311L204.423 62.4981V69.4311H198.304Z" fill="#367CFF"/>
</svg>
