<svg viewBox="0 0 992 940" fill="none" xmlns="http://www.w3.org/2000/svg">
<g clip-path="url(#clip0_608_118)">
<path d="M257.729 627.099H177.403V650.471H257.729V627.099Z" fill="#F4F4F4"/>
<path opacity="0.05" d="M198.715 627.099H188.19V650.471H198.715V627.099Z" fill="#292A2E"/>
<path d="M247.465 632.179H203.701V646.029H247.465V632.179Z" fill="white"/>
<path d="M321.8 630.148L247.163 597.549L237.808 618.968L312.445 651.566L321.8 630.148Z" fill="#F4F4F4"/>
<path opacity="0.05" d="M321.8 630.148L247.163 597.549L237.808 618.968L312.445 651.566L321.8 630.148Z" fill="#292A2E"/>
<path d="M311.777 625.77L301.997 621.499L292.642 642.917L302.422 647.188L311.777 625.77Z" fill="white"/>
<path d="M295.331 624.13L254.667 606.369L249.123 619.062L289.787 636.822L295.331 624.13Z" fill="white"/>
<path opacity="0.05" d="M321.94 923.175H301.754V936.656H321.94V923.175Z" fill="#292A2E"/>
<path opacity="0.05" d="M115.56 923.175H95.374V936.656H115.56V923.175Z" fill="#292A2E"/>
<path d="M340.444 651.567H76.8701V922.719H340.444V651.567Z" fill="#F4F4F4"/>
<path opacity="0.03" d="M340.444 651.567H76.8701V922.719H340.444V651.567Z" fill="#292A2E"/>
<path d="M389.288 651.567H125.714V922.719H389.288V651.567Z" fill="#F4F4F4"/>
<path opacity="0.05" d="M370.784 923.175H350.598V936.656H370.784V923.175Z" fill="#292A2E"/>
<path opacity="0.05" d="M164.404 923.175H144.218V936.656H164.404V923.175Z" fill="#292A2E"/>
<path opacity="0.7" d="M379.395 664.266H135.609V716.36H379.395V664.266Z" fill="white"/>
<path opacity="0.7" d="M379.395 729.111H135.609V781.205H379.395V729.111Z" fill="white"/>
<path opacity="0.7" d="M379.395 793.954H135.609V846.048H379.395V793.954Z" fill="white"/>
<path opacity="0.05" d="M257.502 697.602C261.528 697.602 264.791 694.339 264.791 690.313C264.791 686.288 261.528 683.024 257.502 683.024C253.476 683.024 250.213 686.288 250.213 690.313C250.213 694.339 253.476 697.602 257.502 697.602Z" fill="#292A2E"/>
<path opacity="0.05" d="M257.502 762.447C261.528 762.447 264.791 759.184 264.791 755.158C264.791 751.133 261.528 747.869 257.502 747.869C253.476 747.869 250.213 751.133 250.213 755.158C250.213 759.184 253.476 762.447 257.502 762.447Z" fill="#292A2E"/>
<path opacity="0.05" d="M257.502 827.291C261.528 827.291 264.791 824.028 264.791 820.002C264.791 815.977 261.528 812.713 257.502 812.713C253.476 812.713 250.213 815.977 250.213 820.002C250.213 824.028 253.476 827.291 257.502 827.291Z" fill="#292A2E"/>
<path opacity="0.7" d="M379.395 860.26H135.609V912.354H379.395V860.26Z" fill="white"/>
<path opacity="0.05" d="M257.502 893.596C261.528 893.596 264.791 890.333 264.791 886.307C264.791 882.282 261.528 879.018 257.502 879.018C253.476 879.018 250.213 882.282 250.213 886.307C250.213 890.333 253.476 893.596 257.502 893.596Z" fill="#292A2E"/>
<path d="M856.168 295.548C856.032 289.618 856.321 283.688 857.034 277.78C847.314 276.466 809.551 271.398 799.164 270C801.171 275.154 782.482 301 788.299 324.96C785.547 328.845 781.697 332.266 777 335H868C862.358 327.956 856.563 315.813 856.168 295.548Z" fill="#E98862"/>
<path opacity="0.15" d="M799.507 317.368L832.006 290.484L806.481 290.198C805.742 299.645 803.377 308.86 799.507 317.368Z" fill="black"/>
<path d="M868.206 248.19C863.223 287.968 827.734 296.481 795.761 293.51C752.932 289.713 761.405 184.427 781.737 163.971C802.069 143.515 861.754 156.47 869.005 190.678C872.758 208.369 870.785 232.09 868.206 248.19Z" fill="#E98862"/>
<path d="M751.781 154.196C751.754 140.163 767.977 117.317 810.864 148.927C834.387 149.39 848.028 150.743 865.334 164.704C903.365 192.783 870.314 280.873 847.436 287.097C845.095 288.604 844.527 287.378 843.714 284.564C841.16 274.163 839.332 263.57 838.246 252.874C836.848 241.754 827.606 234.684 828.723 221.367C829.114 216.712 836.047 199.656 814.589 199.463C767.749 202.844 746.534 195.017 751.781 154.196Z" fill="#0F1011"/>
<path d="M825.4 240.713C823.521 261.717 854.074 264.428 855.382 243.361C857.632 221.676 824.929 220.138 825.4 240.713Z" fill="#E98862"/>
<path d="M832.007 189.121L843.085 193.506C839.706 203.546 845.668 296.314 814.459 297.606C772.571 303.214 765.056 289.536 766.624 253.787C830.785 261.656 825.981 251.722 832.007 189.121Z" fill="#0F1011"/>
<path d="M803.408 231.012C803.361 232.008 803.675 232.984 804.282 233.734C804.89 234.485 805.743 234.95 806.663 235.031C807.582 235.112 808.494 234.803 809.206 234.17C809.918 233.536 810.374 232.628 810.477 231.637C810.524 230.641 810.211 229.665 809.603 228.915C808.996 228.165 808.142 227.7 807.223 227.618C806.304 227.537 805.392 227.846 804.679 228.48C803.967 229.113 803.511 230.021 803.408 231.012V231.012Z" fill="#0F1011"/>
<path d="M775.414 228.529C775.351 229.535 775.657 230.527 776.265 231.291C776.873 232.055 777.735 232.529 778.664 232.612C779.593 232.694 780.515 232.378 781.231 231.731C781.946 231.085 782.397 230.16 782.486 229.156C782.549 228.151 782.244 227.158 781.636 226.394C781.028 225.63 780.166 225.156 779.236 225.073C778.307 224.991 777.385 225.307 776.67 225.954C775.955 226.6 775.504 227.525 775.414 228.529V228.529Z" fill="#0F1011"/>
<path d="M772.804 220.668C772.804 220.668 782.212 220.538 782.222 220.541C782.653 220.518 783.06 220.315 783.355 219.975C783.651 219.635 783.814 219.184 783.808 218.717C783.803 218.25 783.63 217.804 783.326 217.472C783.023 217.14 782.612 216.948 782.18 216.937L772.782 217.064C772.351 217.085 771.944 217.285 771.647 217.624C771.35 217.962 771.186 218.411 771.189 218.878C771.191 219.344 771.361 219.791 771.663 220.125C771.964 220.459 772.373 220.653 772.804 220.668V220.668Z" fill="#0F1011"/>
<path d="M814.602 224.372C821.35 220.829 807.206 219.116 805.722 218.407C805.297 218.307 804.852 218.392 804.483 218.642C804.114 218.893 803.85 219.29 803.748 219.748C803.646 220.206 803.715 220.689 803.938 221.094C804.162 221.498 804.522 221.792 804.944 221.912C805.407 221.976 814.122 224.406 814.602 224.372Z" fill="#0F1011"/>
<g opacity="0.15">
<path d="M791.191 252.604C796.225 250.152 785.314 248.285 784.334 247.618L789.381 235.463C788.451 227.207 782.145 247.526 781.545 247.907C780.392 250.589 790.094 251.794 791.191 252.604Z" fill="black"/>
</g>
<path d="M805.301 261.54C805.301 261.54 792.203 263.033 783.018 259.564C782.638 271.738 803.873 273.576 805.301 261.54Z" fill="#F8FCFF"/>
<path d="M962.101 940.674L964.065 940.296L933.369 635.265L931.405 635.643L962.101 940.674Z" fill="#494949"/>
<path d="M847.803 940.674L849.767 940.296L819.072 635.265L817.108 635.643L847.803 940.674Z" fill="#494949"/>
<path d="M595.155 940.674L593.191 940.296L623.887 635.265L625.851 635.643L595.155 940.674Z" fill="#494949"/>
<path d="M709.453 940.674L707.489 940.296L738.184 635.265L740.148 635.643L709.453 940.674Z" fill="#494949"/>
<path d="M750.153 501.012L732.221 635.316L734.203 635.581L752.135 501.277L750.153 501.012Z" fill="#494949"/>
<path d="M955.975 501.011L938.043 635.315L940.025 635.58L957.957 501.276L955.975 501.011Z" fill="#494949"/>
<path d="M732.401 645.289H933.721C939.152 645.289 943.556 640.886 943.556 635.454V635.453C943.556 630.021 939.152 625.618 933.721 625.618H732.401C726.969 625.618 722.566 630.021 722.566 635.453V635.454C722.566 640.886 726.969 645.289 732.401 645.289Z" fill="#292A2E"/>
<path opacity="0.8" d="M732.401 645.289H933.721C939.152 645.289 943.556 640.886 943.556 635.454V635.453C943.556 630.021 939.152 625.618 933.721 625.618H732.401C726.969 625.618 722.566 630.021 722.566 635.453V635.454C722.566 640.886 726.969 645.289 732.401 645.289Z" fill="white"/>
<path d="M721.565 635.458C721.568 632.585 722.71 629.83 724.741 627.798C726.772 625.765 729.527 624.622 732.4 624.619H933.72C936.594 624.619 939.35 625.761 941.382 627.793C943.414 629.825 944.555 632.581 944.555 635.454C944.555 638.328 943.414 641.084 941.382 643.116C939.35 645.148 936.594 646.289 933.72 646.289H732.4C729.529 646.286 726.775 645.144 724.744 643.113C722.713 641.083 721.57 638.33 721.565 635.458ZM732.4 626.623C730.057 626.623 727.81 627.554 726.153 629.211C724.496 630.868 723.565 633.115 723.565 635.458C723.565 637.801 724.496 640.049 726.153 641.705C727.81 643.362 730.057 644.293 732.4 644.293H933.72C936.064 644.293 938.311 643.362 939.968 641.705C941.625 640.049 942.555 637.801 942.555 635.458C942.555 633.115 941.625 630.868 939.968 629.211C938.311 627.554 936.064 626.623 933.72 626.623H732.4Z" fill="#292A2E"/>
<path d="M621.906 645.289H823.226C828.657 645.289 833.061 640.886 833.061 635.454V635.453C833.061 630.021 828.657 625.618 823.226 625.618H621.906C616.474 625.618 612.071 630.021 612.071 635.453V635.454C612.071 640.886 616.474 645.289 621.906 645.289Z" fill="white"/>
<path d="M611.069 635.458C611.073 632.585 612.216 629.831 614.247 627.8C616.278 625.769 619.033 624.626 621.905 624.623H823.225C826.099 624.623 828.855 625.765 830.887 627.797C832.919 629.829 834.06 632.584 834.06 635.458C834.06 638.332 832.919 641.088 830.887 643.12C828.855 645.152 826.099 646.293 823.225 646.293H621.905C619.033 646.29 616.279 645.147 614.247 643.116C612.216 641.085 611.073 638.331 611.069 635.458ZM621.905 626.623C619.562 626.623 617.315 627.554 615.658 629.211C614.001 630.868 613.07 633.115 613.07 635.458C613.07 637.801 614.001 640.048 615.658 641.705C617.315 643.362 619.562 644.293 621.905 644.293H823.225C825.569 644.293 827.816 643.362 829.473 641.705C831.13 640.048 832.06 637.801 832.06 635.458C832.06 633.115 831.13 630.868 829.473 629.211C827.816 627.554 825.569 626.623 823.225 626.623H621.905Z" fill="#292A2E"/>
<path d="M761.189 501.149H956.436C959.628 501.149 962.711 499.988 965.11 497.881C967.509 495.775 969.059 492.868 969.471 489.702L982.385 390.522C982.627 388.668 982.47 386.784 981.925 384.996C981.381 383.207 980.461 381.556 979.227 380.151C977.994 378.746 976.475 377.621 974.772 376.85C973.069 376.079 971.221 375.68 969.351 375.68H774.1C770.908 375.68 767.825 376.842 765.426 378.949C763.027 381.055 761.477 383.963 761.065 387.128L748.15 486.307C747.909 488.161 748.066 490.046 748.61 491.835C749.155 493.623 750.076 495.275 751.31 496.68C752.544 498.085 754.063 499.21 755.767 499.981C757.471 500.751 759.319 501.15 761.189 501.149Z" fill="#292A2E"/>
<path opacity="0.8" d="M761.189 501.149H956.436C959.628 501.149 962.711 499.988 965.11 497.881C967.509 495.775 969.059 492.868 969.471 489.702L982.385 390.522C982.627 388.668 982.47 386.784 981.925 384.996C981.381 383.207 980.461 381.556 979.227 380.151C977.994 378.746 976.475 377.621 974.772 376.85C973.069 376.079 971.221 375.68 969.351 375.68H774.1C770.908 375.68 767.825 376.842 765.426 378.949C763.027 381.055 761.477 383.963 761.065 387.128L748.15 486.307C747.909 488.161 748.066 490.046 748.61 491.835C749.155 493.623 750.076 495.275 751.31 496.68C752.544 498.085 754.063 499.21 755.767 499.981C757.471 500.751 759.319 501.15 761.189 501.149Z" fill="white"/>
<path d="M750.561 497.338C749.233 495.827 748.243 494.05 747.657 492.126C747.071 490.201 746.902 488.174 747.161 486.179L760.076 386.999C760.527 383.596 762.196 380.472 764.775 378.207C767.354 375.941 770.667 374.688 774.1 374.68H969.351C971.363 374.68 973.351 375.109 975.184 375.939C977.017 376.768 978.652 377.979 979.979 379.491C981.307 381.003 982.296 382.78 982.882 384.704C983.468 386.629 983.637 388.656 983.377 390.651L970.462 489.831C970.012 493.234 968.342 496.359 965.762 498.624C963.183 500.889 959.869 502.142 956.436 502.149H761.189C759.177 502.149 757.189 501.72 755.356 500.89C753.523 500.061 751.889 498.85 750.561 497.338ZM774.1 376.68C771.153 376.688 768.309 377.764 766.095 379.709C763.881 381.654 762.448 384.337 762.061 387.258L749.146 486.438C748.923 488.151 749.068 489.892 749.571 491.544C750.074 493.196 750.924 494.722 752.064 496.02C753.204 497.318 754.607 498.357 756.181 499.07C757.754 499.782 759.462 500.15 761.189 500.15H956.436C959.384 500.144 962.229 499.069 964.444 497.124C966.658 495.179 968.092 492.496 968.479 489.574L981.393 390.394C981.616 388.681 981.471 386.941 980.968 385.288C980.465 383.636 979.616 382.11 978.476 380.812C977.336 379.514 975.933 378.474 974.359 377.762C972.786 377.05 971.078 376.681 969.351 376.681L774.1 376.68Z" fill="#292A2E"/>
<path d="M750.149 501.149H945.401C948.593 501.149 951.676 499.988 954.075 497.881C956.474 495.775 958.024 492.868 958.436 489.702L971.351 390.522C971.592 388.668 971.435 386.784 970.891 384.996C970.346 383.207 969.426 381.556 968.193 380.151C966.959 378.746 965.44 377.621 963.737 376.85C962.034 376.079 960.186 375.68 958.316 375.68H763.064C759.872 375.68 756.789 376.842 754.39 378.949C751.992 381.055 750.442 383.963 750.03 387.128L737.115 486.307C736.874 488.161 737.03 490.045 737.575 491.833C738.119 493.622 739.039 495.274 740.273 496.678C741.506 498.083 743.025 499.208 744.728 499.979C746.431 500.75 748.28 501.149 750.149 501.149Z" fill="white"/>
<path d="M739.521 497.338C738.193 495.827 737.203 494.05 736.617 492.125C736.031 490.201 735.862 488.174 736.121 486.179L749.036 386.999C749.487 383.596 751.157 380.472 753.736 378.206C756.315 375.941 759.629 374.688 763.062 374.68H958.311C960.323 374.68 962.311 375.109 964.144 375.939C965.977 376.768 967.611 377.979 968.939 379.491C970.266 381.003 971.256 382.78 971.842 384.704C972.428 386.629 972.597 388.656 972.337 390.651L959.423 489.831C958.972 493.234 957.303 496.357 954.724 498.622C952.146 500.887 948.833 502.14 945.401 502.149H750.149C748.137 502.149 746.149 501.72 744.316 500.89C742.483 500.061 740.848 498.85 739.521 497.338ZM763.064 376.68C760.116 376.687 757.271 377.763 755.056 379.708C752.842 381.653 751.408 384.336 751.021 387.258L738.106 486.438C737.883 488.151 738.028 489.892 738.531 491.544C739.034 493.196 739.884 494.722 741.024 496.02C742.164 497.318 743.567 498.357 745.141 499.07C746.714 499.782 748.422 500.15 750.149 500.15H945.401C948.348 500.144 951.194 499.069 953.408 497.124C955.623 495.179 957.057 492.496 957.444 489.574L970.359 390.395C970.582 388.682 970.437 386.942 969.934 385.289C969.431 383.637 968.581 382.111 967.441 380.813C966.301 379.515 964.898 378.475 963.324 377.762C961.751 377.05 960.043 376.681 958.316 376.681L763.064 376.68Z" fill="#292A2E"/>
<path d="M502.375 888.835C502.375 888.835 497.013 916.628 470.991 918.177C444.969 919.726 450.611 940.457 450.611 940.457H550.055V890.773L502.375 888.835Z" fill="#367CFF"/>
<path d="M691.563 871.287C691.563 871.287 699.02 898.593 676.353 911.47C653.686 924.347 667.9 940.458 667.9 940.458L757.133 896.558L735.2 851.979L691.563 871.287Z" fill="#367CFF"/>
<path d="M746.831 863.574L671.581 626.184H807.981C835.381 626.184 846.803 602.949 846.803 575.551C846.803 548.153 819.868 524.135 792.469 524.135H608.379C591.668 524.135 572.93 534.355 563.759 548.325C554.588 562.295 557.066 583.942 563.711 599.276L684.211 891.943" fill="#262626"/>
<path opacity="0.8" d="M746.831 863.574L671.581 626.184H807.981C835.381 626.184 846.803 602.949 846.803 575.551C846.803 548.153 819.868 524.135 792.469 524.135H608.379C591.668 524.135 572.93 534.355 563.759 548.325C554.588 562.295 557.066 583.942 563.711 599.276L684.211 891.943" fill="#0A0A0A"/>
<path d="M555.774 914.646L681.593 626.184L846.802 626.173C885.513 623.138 903.242 601.923 902.678 574.531C902.122 547.486 888.428 520.773 861.505 520.773H638.836C618.916 521.182 603.244 543.196 595.854 561.698L491.254 896.986" fill="#262626"/>
<path d="M913.949 521.104C913.949 521.104 921.286 568.95 909.656 595.551C895.137 628.761 840.709 626.174 840.709 626.174L843.776 520.774L913.949 521.104Z" fill="#262626"/>
<path d="M591.121 520.163L707.821 495.981C712.683 494.974 717.214 492.756 720.992 489.533C724.77 486.31 727.675 482.186 729.437 477.543L775.337 356.59C776.734 352.96 777.401 349.09 777.298 345.201C777.196 341.313 776.326 337.483 774.739 333.932C773.152 330.381 770.879 327.178 768.05 324.508C765.222 321.837 761.893 319.752 758.257 318.372C754.62 316.992 750.747 316.344 746.859 316.466C742.971 316.587 739.145 317.475 735.602 319.079C732.058 320.683 728.866 322.972 726.21 325.813C723.553 328.655 721.484 331.993 720.122 335.636L679.97 441.436L579.138 462.333C579.138 462.333 589.101 520.582 591.121 520.163Z" fill="#367CFF"/>
<path d="M733 468.017H733.042C733.174 468.006 733.296 467.943 733.382 467.842C733.467 467.74 733.509 467.609 733.498 467.477L728.94 412.723C728.936 412.657 728.919 412.593 728.89 412.534C728.86 412.474 728.819 412.422 728.769 412.379C728.718 412.336 728.66 412.304 728.597 412.285C728.533 412.265 728.467 412.259 728.401 412.266C728.336 412.272 728.272 412.29 728.214 412.32C728.155 412.35 728.103 412.391 728.061 412.442C728.018 412.492 727.986 412.55 727.966 412.612C727.946 412.675 727.939 412.741 727.944 412.806L732.5 467.558C732.51 467.684 732.568 467.801 732.66 467.886C732.753 467.971 732.874 468.018 733 468.017Z" fill="#0C0C0C"/>
<path d="M649.377 500.879L610.853 382.458C610.177 380.378 608.86 378.564 607.09 377.278C605.32 375.992 603.188 375.298 601 375.297H444.044C442.408 375.297 440.795 375.684 439.338 376.427C437.88 377.17 436.619 378.248 435.657 379.571C434.696 380.895 434.061 382.428 433.806 384.044C433.55 385.66 433.681 387.314 434.187 388.869L472.712 507.292C473.389 509.374 474.707 511.187 476.478 512.473C478.249 513.759 480.381 514.452 482.569 514.451H639.52C641.156 514.451 642.769 514.064 644.227 513.321C645.685 512.578 646.946 511.501 647.908 510.177C648.869 508.853 649.503 507.321 649.759 505.705C650.014 504.089 649.884 502.435 649.377 500.879Z" fill="#292A2E"/>
<path d="M649.377 500.879L610.853 382.458C610.177 380.378 608.86 378.564 607.09 377.278C605.32 375.992 603.188 375.298 601 375.297H444.044C442.408 375.297 440.795 375.684 439.338 376.427C437.88 377.17 436.619 378.248 435.657 379.571C434.696 380.895 434.061 382.428 433.806 384.044C433.55 385.66 433.681 387.314 434.187 388.869L472.712 507.292C473.389 509.374 474.707 511.187 476.478 512.473C478.249 513.759 480.381 514.452 482.569 514.451H639.52C641.156 514.451 642.769 514.064 644.227 513.321C645.685 512.578 646.946 511.501 647.908 510.177C648.869 508.853 649.503 507.321 649.759 505.705C650.014 504.089 649.884 502.435 649.377 500.879Z" fill="#292A2E"/>
<path d="M723.015 504.848H617.951C615.333 504.848 613.211 506.971 613.211 509.588V509.71C613.211 512.328 615.333 514.45 617.951 514.45H723.015C725.633 514.45 727.755 512.328 727.755 509.71V509.588C727.755 506.971 725.633 504.848 723.015 504.848Z" fill="#292A2E"/>
<path d="M723.015 504.848H617.951C615.333 504.848 613.211 506.971 613.211 509.588V509.71C613.211 512.328 615.333 514.45 617.951 514.45H723.015C725.633 514.45 727.755 512.328 727.755 509.71V509.588C727.755 506.971 725.633 504.848 723.015 504.848Z" fill="#292A2E"/>
<path d="M541.782 467.112C550.873 467.112 558.243 459.743 558.243 450.651C558.243 441.56 550.873 434.19 541.782 434.19C532.691 434.19 525.321 441.56 525.321 450.651C525.321 459.743 532.691 467.112 541.782 467.112Z" fill="white"/>
<path d="M658.159 473.138L684.38 463.947L680.616 463.687C679.403 463.579 678.275 463.014 677.462 462.107C676.649 461.2 676.211 460.017 676.236 458.799C676.271 458.171 676.434 457.557 676.714 456.994C676.994 456.43 677.386 455.93 677.866 455.523C678.346 455.117 678.903 454.812 679.505 454.628C680.106 454.444 680.739 454.384 681.364 454.452L727.755 459.382L726.55 474.29C726.176 478.92 724.427 483.333 721.528 486.963C718.63 490.593 714.713 493.275 710.28 494.664L690.19 500.922C689.153 501.268 688.028 501.244 687.005 500.856C685.983 500.467 685.127 499.737 684.581 498.789C684.107 497.923 683.922 496.928 684.053 495.949C684.183 494.97 684.624 494.059 685.309 493.348C685.248 493.303 685.2 493.243 685.17 493.173C685.146 493.107 685.139 493.036 685.149 492.966C685.159 492.896 685.186 492.83 685.228 492.773L681.528 493.934C680.373 494.322 679.114 494.257 678.005 493.752C676.896 493.247 676.021 492.34 675.555 491.214C675.175 490.193 675.167 489.071 675.532 488.044C675.898 487.018 676.615 486.153 677.555 485.603C677.512 485.58 677.473 485.549 677.441 485.511L675.919 485.988C674.881 486.337 673.754 486.315 672.729 485.927C671.705 485.539 670.847 484.808 670.3 483.858C669.725 482.808 669.579 481.576 669.892 480.42C670.205 479.264 670.953 478.274 671.98 477.658C671.972 477.628 671.967 477.596 671.966 477.564L661.046 481.392C660.505 481.582 659.931 481.663 659.359 481.631C658.786 481.599 658.225 481.455 657.708 481.206C656.664 480.704 655.862 479.808 655.479 478.714C655.096 477.621 655.163 476.42 655.665 475.376C656.167 474.332 657.064 473.53 658.157 473.147L658.159 473.138Z" fill="#E98862"/>
<path opacity="0.2" d="M672.4 477.982C672.451 477.982 672.501 477.973 672.549 477.956L683.111 474.115C683.165 474.095 683.214 474.065 683.256 474.027C683.298 473.988 683.332 473.941 683.356 473.889C683.38 473.837 683.394 473.781 683.396 473.724C683.398 473.667 683.389 473.61 683.37 473.556C683.35 473.502 683.32 473.453 683.281 473.411C683.243 473.369 683.196 473.335 683.144 473.311C683.092 473.287 683.036 473.273 682.979 473.271C682.922 473.269 682.864 473.277 682.811 473.297L672.248 477.138C672.151 477.173 672.071 477.241 672.019 477.329C671.968 477.418 671.95 477.522 671.968 477.623C671.985 477.724 672.038 477.815 672.117 477.881C672.195 477.946 672.294 477.982 672.397 477.982H672.4Z" fill="#0A0A0A"/>
<path opacity="0.2" d="M677.737 485.658C677.787 485.658 677.837 485.65 677.883 485.633L686.208 482.678C686.263 482.66 686.314 482.631 686.358 482.593C686.402 482.555 686.438 482.509 686.463 482.457C686.489 482.405 686.504 482.348 686.507 482.29C686.51 482.232 686.502 482.174 686.483 482.12C686.464 482.065 686.434 482.015 686.395 481.972C686.356 481.929 686.308 481.895 686.256 481.87C686.203 481.846 686.146 481.832 686.088 481.83C686.03 481.828 685.973 481.838 685.918 481.858L677.592 484.813C677.496 484.847 677.414 484.915 677.362 485.003C677.311 485.092 677.292 485.196 677.309 485.297C677.326 485.398 677.379 485.49 677.457 485.556C677.536 485.622 677.635 485.658 677.737 485.658Z" fill="#0A0A0A"/>
<path opacity="0.2" d="M685.577 493.458C685.63 493.458 685.683 493.448 685.732 493.429L689.632 491.942C689.74 491.901 689.827 491.819 689.874 491.713C689.921 491.608 689.925 491.488 689.883 491.38C689.842 491.272 689.76 491.185 689.654 491.138C689.549 491.091 689.429 491.088 689.321 491.129L685.421 492.617C685.327 492.654 685.248 492.722 685.198 492.811C685.149 492.899 685.131 493.002 685.15 493.102C685.168 493.202 685.221 493.292 685.299 493.357C685.377 493.422 685.475 493.458 685.576 493.458H685.577Z" fill="#0A0A0A"/>
<path d="M707.223 450.558L817.223 450.484L858.839 348.972L920.916 375.072L868.994 495.552L868.487 496.752C865.946 502.608 861.668 507.542 856.23 510.885C850.792 514.229 844.459 515.82 838.087 515.444L705.559 507.614L707.223 450.558Z" fill="#367CFF"/>
<path d="M839.91 515.996C846.077 515.985 852.107 514.178 857.263 510.796C862.419 507.414 866.479 502.602 868.945 496.95L869.453 495.75L913.693 393.094L912.775 392.694L868.025 496.558C865.514 502.311 861.301 507.156 855.954 510.444C850.607 513.731 844.382 515.302 838.115 514.945L706.072 507.145L707.708 451.062L817.557 450.988L849.557 372.936L848.631 372.557L816.888 449.988L706.738 450.063L705.045 508.086L705.53 508.115L838.058 515.944C838.675 515.978 839.3 515.996 839.91 515.996Z" fill="#0C0C0C"/>
<path d="M726.101 387.305C727.448 403.138 737.001 501.915 738.301 521.417H913.873C914.882 503.828 918.157 429.151 921.983 394.756C925.634 361.934 926.959 343.204 922.753 333.005C915.335 315.015 896.772 308.542 880.782 306.377C871.019 305.056 856.334 304.108 856.334 304.108C856.334 304.108 855.091 329.258 825.442 330.658C785.083 332.558 787.778 304.105 787.578 304.105C781.04 304.105 745.45 308.86 736.551 314.66C723.982 322.853 720.267 334.017 720.12 344.274C719.951 356.088 724.569 369.349 726.101 387.305Z" fill="#367CFF"/>
<path d="M278.827 524.038L236.67 941.387L238.66 941.588L280.817 524.239L278.827 524.038Z" fill="#494949"/>
<path d="M962.263 524.033L960.273 524.234L1002.46 941.581L1004.45 941.379L962.263 524.033Z" fill="#494949"/>
<path d="M787.965 524.033L785.976 524.235L828.162 941.581L830.152 941.38L787.965 524.033Z" fill="#494949"/>
<path d="M104.529 524.037L62.3721 941.386L64.3619 941.587L106.519 524.238L104.529 524.037Z" fill="#494949"/>
<path d="M66.512 532.329L997.515 532.329C1002.04 532.329 1005.71 528.661 1005.71 524.136C1005.71 519.61 1002.04 515.942 997.515 515.942L66.512 515.942C61.9866 515.942 58.318 519.61 58.318 524.136C58.318 528.661 61.9866 532.329 66.512 532.329Z" fill="#292A2E"/>
<path opacity="0.8" d="M66.512 532.329L997.515 532.329C1002.04 532.329 1005.71 528.661 1005.71 524.136C1005.71 519.61 1002.04 515.942 997.515 515.942L66.512 515.942C61.9866 515.942 58.318 519.61 58.318 524.136C58.318 528.661 61.9866 532.329 66.512 532.329Z" fill="white"/>
<path d="M57.3174 524.135C57.319 521.697 58.2881 519.36 60.012 517.636C61.7359 515.912 64.0735 514.943 66.5114 514.941H997.511C999.95 514.941 1002.29 515.91 1004.01 517.634C1005.74 519.358 1006.71 521.697 1006.71 524.135C1006.71 526.574 1005.74 528.912 1004.01 530.636C1002.29 532.361 999.95 533.329 997.511 533.329H66.5114C64.0735 533.328 61.7359 532.358 60.012 530.635C58.2881 528.911 57.319 526.573 57.3174 524.135ZM66.5114 516.941C64.6034 516.941 62.7736 517.699 61.4245 519.048C60.0753 520.397 59.3174 522.227 59.3174 524.135C59.3174 526.043 60.0753 527.873 61.4245 529.222C62.7736 530.571 64.6034 531.329 66.5114 531.329H997.511C999.419 531.329 1001.25 530.571 1002.6 529.222C1003.95 527.873 1004.71 526.043 1004.71 524.135C1004.71 522.227 1003.95 520.397 1002.6 519.048C1001.25 517.699 999.419 516.941 997.511 516.941H66.5114Z" fill="#292A2E"/>
<path d="M66.5121 532.329L816.554 532.329C821.079 532.329 824.748 528.661 824.748 524.136C824.748 519.61 821.079 515.942 816.554 515.942L66.5121 515.942C61.9867 515.942 58.3181 519.61 58.3181 524.136C58.3181 528.661 61.9867 532.329 66.5121 532.329Z" fill="white"/>
<path d="M57.3174 524.135C57.319 521.697 58.2881 519.36 60.012 517.636C61.7359 515.912 64.0735 514.943 66.5114 514.941H816.554C818.993 514.941 821.331 515.91 823.055 517.634C824.78 519.358 825.748 521.697 825.748 524.135C825.748 526.574 824.78 528.912 823.055 530.636C821.331 532.361 818.993 533.329 816.554 533.329H66.5114C64.0735 533.328 61.7359 532.358 60.012 530.635C58.2881 528.911 57.319 526.573 57.3174 524.135ZM66.5114 516.941C64.6034 516.941 62.7736 517.699 61.4245 519.048C60.0753 520.397 59.3174 522.227 59.3174 524.135C59.3174 526.043 60.0753 527.873 61.4245 529.222C62.7736 530.571 64.6034 531.329 66.5114 531.329H816.554C818.462 531.329 820.292 530.571 821.641 529.222C822.99 527.873 823.748 526.043 823.748 524.135C823.748 522.227 822.99 520.397 821.641 519.048C820.292 517.699 818.462 516.941 816.554 516.941H66.5114Z" fill="#292A2E"/>
<path d="M136.034 858.8C136.034 858.8 117.097 886.671 133.881 906.737C150.665 926.803 131.645 936.955 131.645 936.955L63.1826 864.346L99.4566 830.141L136.034 858.8Z" fill="#367CFF"/>
<path d="M235.414 410.676C235.414 410.676 299.337 630.537 284.271 662.676C269.459 694.276 134.271 878.867 134.271 878.867L85.6543 836.5L205.893 641.506C205.893 641.506 170.3 528.9 151.057 469.845C139.457 434.245 119.939 435.379 118.085 397.983L235.414 410.676Z" fill="#262626"/>
<path d="M164.635 658.526L180.448 640.519L176.332 746.223L158.708 762.974L164.635 658.526Z" fill="#0A0A0A"/>
<path d="M162.016 503.69C162.016 503.69 154.445 458.749 162.542 468.375C188.871 499.675 191.492 595.993 191.492 595.993L162.016 503.69Z" fill="#0A0A0A"/>
<path d="M206.248 883.943C206.248 883.943 211.629 911.834 237.748 913.388C263.867 914.942 258.199 935.746 258.199 935.746H158.4V885.888L206.248 883.943Z" fill="#367CFF"/>
<path d="M57.2492 405.167C57.2492 405.167 56.8072 403.112 56.5492 415.128C56.3642 423.613 52.9182 453.646 64.8322 501.016C87.1502 589.767 154 901.743 154 901.743L219.575 901.192L157.735 402.44L57.2492 405.167Z" fill="#262626"/>
<path d="M56.2345 405.527L56.0205 405.539C56.0205 405.539 56.1745 401.408 56.2345 405.527Z" fill="#333333"/>
<path d="M415.191 208.936C414.797 208.155 414.169 207.515 413.396 207.105C412.622 206.696 411.74 206.536 410.872 206.649C410.88 206.572 410.863 206.494 410.824 206.427C410.784 206.375 410.731 206.335 410.67 206.31C410.609 206.285 410.542 206.277 410.477 206.286L413.407 204.186C414.283 203.586 414.912 202.689 415.178 201.661C415.445 200.633 415.331 199.544 414.857 198.594C414.358 197.67 413.534 196.965 412.544 196.615C411.554 196.265 410.469 196.295 409.5 196.7C409.507 196.659 409.479 196.619 409.473 196.577L410.673 195.714C411.497 195.145 412.098 194.31 412.376 193.348C412.654 192.387 412.591 191.359 412.198 190.439C411.94 189.867 411.558 189.36 411.08 188.953C410.602 188.547 410.039 188.252 409.433 188.089C408.827 187.927 408.193 187.901 407.575 188.013C406.958 188.125 406.373 188.373 405.863 188.739L403.086 190.73C403.078 190.713 403.086 190.694 403.075 190.679C403.064 190.664 403.034 190.658 403.018 190.641C403.656 189.924 404.031 189.011 404.081 188.052C404.132 187.094 403.856 186.147 403.297 185.366C401.986 183.256 398.959 183.687 397.163 184.974L380.815 196.267L383.737 191.347C384.326 190.4 384.533 189.266 384.317 188.172C384.101 187.079 383.478 186.108 382.574 185.456C382.096 185.136 381.557 184.916 380.991 184.811C380.425 184.706 379.844 184.717 379.282 184.844C378.721 184.971 378.191 185.211 377.726 185.55C377.26 185.888 376.868 186.318 376.574 186.813L360.627 213.67C358.755 216.821 358.186 220.577 359.04 224.142C359.894 227.706 362.104 230.796 365.2 232.757C368.791 235.031 372.98 236.181 377.229 236.059C381.478 235.937 385.593 234.548 389.048 232.072L413.736 214.377C414.556 213.767 415.146 212.897 415.41 211.91C415.674 210.922 415.597 209.874 415.191 208.936Z" fill="#E98862"/>
<g opacity="0.25">
<path d="M386.912 201.886C386.972 201.969 387.062 202.025 387.163 202.042C387.264 202.059 387.367 202.036 387.451 201.978L402.984 191.219C403.026 191.19 403.062 191.152 403.09 191.109C403.118 191.066 403.137 191.018 403.146 190.967C403.155 190.916 403.154 190.865 403.143 190.814C403.133 190.764 403.112 190.717 403.083 190.674C403.053 190.632 403.016 190.596 402.973 190.568C402.93 190.541 402.881 190.521 402.831 190.512C402.78 190.503 402.728 190.504 402.678 190.515C402.628 190.526 402.58 190.547 402.538 190.576L387.005 201.335C386.963 201.364 386.927 201.401 386.899 201.444C386.871 201.487 386.852 201.536 386.842 201.586C386.833 201.637 386.834 201.689 386.845 201.739C386.855 201.789 386.876 201.837 386.905 201.879L386.912 201.886Z" fill="#0C0C0C"/>
</g>
<g opacity="0.25">
<path d="M391.469 208.868C391.529 208.95 391.619 209.006 391.72 209.023C391.82 209.04 391.924 209.017 392.008 208.959L409.343 196.952C409.385 196.923 409.421 196.885 409.449 196.842C409.477 196.799 409.496 196.751 409.505 196.701C409.515 196.65 409.514 196.598 409.503 196.548C409.492 196.498 409.472 196.45 409.443 196.408C409.381 196.325 409.291 196.269 409.19 196.251C409.089 196.232 408.985 196.253 408.899 196.308L391.564 208.315C391.521 208.344 391.485 208.381 391.457 208.424C391.429 208.467 391.41 208.516 391.401 208.566C391.392 208.617 391.392 208.668 391.403 208.719C391.414 208.769 391.435 208.817 391.464 208.859L391.469 208.868Z" fill="#0C0C0C"/>
</g>
<g opacity="0.25">
<path d="M396.359 216.458C396.42 216.54 396.51 216.596 396.61 216.613C396.711 216.63 396.814 216.607 396.898 216.549L410.726 206.972C410.812 206.913 410.87 206.822 410.888 206.72C410.907 206.618 410.884 206.513 410.825 206.427C410.766 206.342 410.675 206.284 410.573 206.265C410.471 206.247 410.366 206.27 410.28 206.329L396.452 215.906C396.41 215.935 396.374 215.972 396.346 216.015C396.318 216.058 396.299 216.107 396.29 216.157C396.28 216.208 396.281 216.259 396.292 216.31C396.303 216.36 396.323 216.408 396.352 216.45L396.359 216.458Z" fill="#0C0C0C"/>
</g>
<path d="M351.212 207.552L304.357 287.352L247.184 212.362L199.7 255.168L280.788 360.18L281.32 360.927C284.566 365.372 288.889 368.918 293.884 371.231C298.879 373.543 304.38 374.545 309.869 374.144C315.359 373.742 320.655 371.949 325.26 368.934C329.865 365.919 333.627 361.782 336.19 356.911L402.819 236.252L351.212 207.552Z" fill="#367CFF"/>
<path d="M299.763 296.948C299.661 296.948 299.561 296.922 299.472 296.872C299.383 296.822 299.309 296.751 299.255 296.664C299.202 296.577 299.172 296.478 299.168 296.376C299.165 296.274 299.187 296.173 299.233 296.082L303.826 287.082C303.909 286.961 304.032 286.875 304.174 286.839C304.315 286.803 304.465 286.819 304.595 286.886C304.725 286.952 304.827 287.064 304.88 287.2C304.934 287.336 304.936 287.487 304.886 287.624L300.293 296.624C300.243 296.721 300.167 296.803 300.073 296.86C299.98 296.917 299.873 296.948 299.763 296.948Z" fill="#0C0C0C"/>
<path d="M243.886 286.897L242.456 312.102L243.644 312.169L245.074 286.965L243.886 286.897Z" fill="#0C0C0C"/>
<path d="M92.9085 104.488C92.9085 104.488 90.7085 132.543 84.2785 142.656C65.7535 171.771 60.1005 204.7 78.1145 222.146C96.1285 239.592 212.276 241.176 221.534 201.635C229.328 168.346 213.472 164.574 209.922 136.997C208.316 124.519 203.803 98.3411 203.803 98.3411" fill="#0A0A0A"/>
<path d="M191.965 195.315C191.765 195.288 189.538 232.209 146.648 228.99C116.955 226.766 106.368 195.262 105.688 195.262C108.888 194.582 114.28 193.593 115.701 192.834C120.378 190.321 126.163 187.707 127.67 178.627C128.539 173.394 127.065 146.621 127.519 141.327L173.101 151.5C172.464 162.683 168.007 188.608 183.63 193.2C186.225 193.954 189.025 194.652 191.965 195.315Z" fill="#E98862"/>
<path opacity="0.52" d="M173.736 182.6C173.023 180.299 172.563 177.927 172.365 175.526C171.865 170.047 171.965 164.53 172.665 159.073C163.401 157.822 154.674 153.998 147.474 148.036C146.628 151.162 141.974 164.819 143.262 167.79C145.701 173.405 157.143 182.6 173.736 182.6Z" fill="#0C0C0C"/>
<path d="M167.694 170.98C149.706 172.51 126.54 165.054 122.001 141.069L117.901 119.428C113.362 95.4429 122.28 73.6159 144.862 69.3419C167.445 65.0679 188.004 81.3169 192.543 105.302L194.356 114.883C196.1 124.086 199.79 168.249 167.694 170.98Z" fill="#E98862"/>
<path d="M187.925 115.928C189.488 115.928 190.756 114.661 190.756 113.097C190.756 111.534 189.488 110.266 187.925 110.266C186.361 110.266 185.094 111.534 185.094 113.097C185.094 114.661 186.361 115.928 187.925 115.928Z" fill="#0C0C0C"/>
<path d="M158.923 119.801C160.486 119.801 161.754 118.533 161.754 116.97C161.754 115.406 160.486 114.139 158.923 114.139C157.359 114.139 156.092 115.406 156.092 116.97C156.092 118.533 157.359 119.801 158.923 119.801Z" fill="#0C0C0C"/>
<path d="M174.839 137.724C174.853 137.723 174.868 137.721 174.883 137.718C175.797 137.538 176.701 137.308 177.591 137.028C178.919 136.601 180.658 135.894 180.432 134.695C180.174 133.328 173.639 119.295 172.895 117.695C172.862 117.626 172.817 117.564 172.761 117.513C172.704 117.461 172.639 117.421 172.567 117.395C172.495 117.369 172.419 117.358 172.343 117.361C172.267 117.365 172.193 117.383 172.124 117.415C172.055 117.447 171.993 117.493 171.941 117.549C171.89 117.605 171.85 117.671 171.824 117.743C171.798 117.814 171.786 117.89 171.79 117.966C171.793 118.042 171.811 118.117 171.844 118.186C174.631 124.163 179.118 133.991 179.292 134.911C179.142 135.337 176.938 136.148 174.667 136.578C174.52 136.607 174.39 136.691 174.304 136.813C174.218 136.935 174.183 137.086 174.205 137.233C174.227 137.381 174.305 137.514 174.423 137.606C174.541 137.697 174.69 137.74 174.839 137.724Z" fill="#0C0C0C"/>
<path d="M171.494 148.079C175.177 147.602 178.697 146.266 181.769 144.179C181.896 144.094 181.985 143.963 182.016 143.813C182.047 143.663 182.017 143.508 181.934 143.379C181.851 143.251 181.72 143.161 181.571 143.129C181.421 143.097 181.265 143.125 181.136 143.207C174.488 147.538 167.882 148.239 162.036 145.233C161.918 145.169 161.796 145.111 161.672 145.06C161.528 145.009 161.369 145.017 161.231 145.083C161.093 145.148 160.986 145.266 160.934 145.41C160.882 145.554 160.889 145.713 160.953 145.851C161.018 145.99 161.135 146.098 161.278 146.151C161.324 146.17 161.4 146.211 161.506 146.266C164.581 147.85 168.059 148.482 171.494 148.079Z" fill="#0C0C0C"/>
<path d="M99.8397 126.97L120.084 123.259C135.415 117.059 140.052 90.514 140.052 90.514C140.052 90.514 158.674 108.664 203.804 98.341C203.804 98.341 194.755 35.404 128.083 53.704C106.583 59.604 91.1547 81.269 93.0767 110.223C94.4237 130.514 99.8397 126.97 99.8397 126.97Z" fill="#0A0A0A"/>
<path d="M124.787 148.111C117.924 149.411 110.972 143.121 109.673 136.258C108.374 129.395 113.221 124.558 120.084 123.258L124.49 127.187L130.69 146.993L124.787 148.111Z" fill="#E98862"/>
<path d="M177.03 106.225C179.033 104.932 181.347 104.202 183.73 104.111C184.902 104.059 186.075 104.183 187.211 104.479C188.335 104.768 189.419 105.198 190.436 105.757C190.574 105.83 190.679 105.955 190.728 106.104C190.777 106.253 190.767 106.415 190.699 106.556C190.63 106.697 190.51 106.807 190.363 106.861C190.216 106.916 190.053 106.911 189.91 106.848L189.866 106.828C188.926 106.366 187.931 106.024 186.906 105.81C185.892 105.593 184.852 105.531 183.82 105.625C181.771 105.796 179.805 106.506 178.12 107.683L178.066 107.723C177.87 107.853 177.631 107.902 177.4 107.86C177.169 107.818 176.963 107.688 176.826 107.497C176.688 107.307 176.63 107.071 176.662 106.838C176.695 106.605 176.816 106.394 177.001 106.249L177.03 106.225Z" fill="#0C0C0C"/>
<path d="M158.975 110.476C156.98 109.987 154.891 110.035 152.919 110.615C151.923 110.9 150.975 111.334 150.108 111.902C149.23 112.472 148.426 113.151 147.716 113.922L147.684 113.954C147.573 114.065 147.424 114.129 147.266 114.132C147.109 114.135 146.957 114.076 146.842 113.969C146.727 113.862 146.658 113.714 146.65 113.557C146.642 113.4 146.695 113.246 146.798 113.128C147.544 112.239 148.399 111.447 149.343 110.772C150.295 110.086 151.345 109.547 152.456 109.172C154.71 108.397 157.131 108.242 159.464 108.724C159.701 108.775 159.907 108.917 160.038 109.12C160.169 109.323 160.214 109.569 160.163 109.805C160.112 110.041 159.97 110.248 159.767 110.379C159.564 110.51 159.318 110.555 159.081 110.504L159.044 110.495L158.975 110.476Z" fill="#0C0C0C"/>
<path d="M172.278 153.525C172.945 153.448 173.605 153.314 174.25 153.125C174.323 153.104 174.391 153.069 174.451 153.021C174.511 152.974 174.56 152.915 174.597 152.848C174.634 152.781 174.657 152.708 174.666 152.633C174.674 152.557 174.668 152.48 174.647 152.407C174.626 152.334 174.591 152.265 174.543 152.206C174.496 152.146 174.437 152.097 174.37 152.06C174.303 152.023 174.23 151.999 174.154 151.991C174.079 151.982 174.002 151.989 173.929 152.01C170.048 153.127 167.841 151.647 167.748 151.583C167.622 151.494 167.466 151.46 167.314 151.486C167.163 151.513 167.028 151.598 166.939 151.724C166.851 151.85 166.816 152.006 166.843 152.158C166.869 152.31 166.955 152.444 167.081 152.533C168.647 153.454 170.483 153.805 172.278 153.525Z" fill="#0C0C0C"/>
<path d="M120.128 123L119.928 122.44C145.577 113.232 139.305 88.062 139.239 87.809L139.814 87.658C139.881 87.918 146.301 113.608 120.128 123Z" fill="#0C0C0C"/>
<path opacity="0.1" d="M156.637 139.491C159.599 139.173 161.81 137.153 161.576 134.981C161.342 132.809 158.752 131.306 155.791 131.625C152.829 131.943 150.618 133.963 150.852 136.135C151.086 138.307 153.676 139.81 156.637 139.491Z" fill="#0C0C0C"/>
<path opacity="0.1" d="M187.983 131.181C188.223 133.35 190.812 134.851 193.773 134.536C194.284 134.481 194.789 134.373 195.279 134.213C195.446 131.632 195.479 129.148 195.434 126.847C194.615 126.633 193.763 126.573 192.923 126.671C189.961 126.985 187.751 129 187.983 131.181Z" fill="#0C0C0C"/>
<path d="M245.253 276.6C243.902 292.471 237.33 391.491 236.032 411.041H56.6055C55.5945 393.409 51.4665 316.309 47.6315 281.829C43.9715 248.929 36.7895 232.454 42.0535 222.729C50.6535 206.829 74.1625 197.645 90.1905 195.475C99.9785 194.15 114.699 193.2 114.699 193.2C114.699 193.2 115.946 218.415 145.666 219.818C186.125 221.727 183.423 193.2 183.624 193.2C190.178 193.2 227.624 197.349 236.781 202.779C261.743 217.556 248.121 242.962 245.253 276.6Z" fill="#367CFF"/>
<path d="M356.814 287.684L340.247 368.207C339.91 369.842 339.023 371.312 337.734 372.372C336.445 373.433 334.831 374.019 333.162 374.034L219.084 375.005C217.996 375.014 216.919 374.779 215.933 374.318C214.948 373.858 214.077 373.182 213.386 372.342C212.695 371.501 212.2 370.517 211.939 369.461C211.677 368.404 211.655 367.303 211.874 366.237L228.442 285.714C228.779 284.079 229.665 282.609 230.955 281.549C232.244 280.488 233.858 279.902 235.527 279.887L349.605 278.916C350.693 278.907 351.769 279.142 352.755 279.603C353.74 280.064 354.611 280.739 355.302 281.58C355.993 282.42 356.487 283.404 356.749 284.461C357.01 285.517 357.033 286.618 356.814 287.684Z" fill="#292A2E"/>
<path d="M250.439 344.881C250.5 345.941 250.176 346.988 249.527 347.828C248.877 348.669 247.945 349.245 246.903 349.452L243.392 350.226C243.455 350.247 243.511 350.282 243.557 350.33C243.602 350.378 243.635 350.436 243.653 350.5C243.662 350.575 243.645 350.65 243.606 350.714C244.45 350.951 245.199 351.445 245.75 352.128C246.3 352.811 246.624 353.648 246.677 354.523C246.682 355.543 246.342 356.535 245.714 357.339C245.085 358.143 244.204 358.711 243.213 358.952L213.558 365.535C212.042 365.876 210.493 366.047 208.939 366.047C205.478 366.047 202.069 365.204 199.005 363.593C195.942 361.981 193.317 359.649 191.356 356.797C189.276 353.78 188.456 350.07 189.07 346.457C189.684 342.844 191.683 339.613 194.642 337.452L219.868 319.012C220.423 318.605 221.068 318.34 221.749 318.238L219.427 329.512L220.046 329.369L220.177 329.345L239.523 325.404C241.677 324.928 244.63 325.714 245.011 328.166C245.215 329.105 245.096 330.085 244.672 330.948C244.248 331.81 243.545 332.504 242.677 332.916C242.689 332.928 242.713 332.94 242.713 332.964C242.713 332.988 242.701 333 242.701 333.023L246.046 332.285C246.658 332.149 247.292 332.151 247.904 332.29C248.515 332.43 249.088 332.703 249.581 333.09C250.074 333.477 250.475 333.969 250.755 334.529C251.035 335.09 251.187 335.706 251.201 336.333C251.201 337.334 250.855 338.304 250.221 339.078C249.588 339.853 248.706 340.384 247.725 340.583L246.284 340.904C246.273 340.952 246.284 341.004 246.261 341.035C247.311 341.043 248.32 341.441 249.092 342.152C249.864 342.863 250.344 343.836 250.439 344.881Z" fill="#E98862"/>
<g opacity="0.25">
<path d="M223.443 336.931C223.465 337.031 223.525 337.119 223.611 337.175C223.697 337.231 223.802 337.251 223.903 337.231L242.413 333.431C242.514 333.41 242.603 333.35 242.66 333.263C242.717 333.176 242.738 333.071 242.717 332.969C242.696 332.867 242.635 332.778 242.549 332.721C242.462 332.664 242.356 332.644 242.255 332.665L223.745 336.465C223.644 336.487 223.556 336.547 223.5 336.634C223.443 336.72 223.424 336.825 223.445 336.926L223.443 336.931Z" fill="#0C0C0C"/>
</g>
<g opacity="0.25">
<path d="M224.892 345.141C224.915 345.241 224.976 345.327 225.062 345.382C225.148 345.437 225.252 345.457 225.352 345.436L246.009 341.2C246.11 341.178 246.198 341.117 246.254 341.031C246.31 340.944 246.33 340.839 246.309 340.738C246.285 340.638 246.224 340.552 246.138 340.496C246.052 340.44 245.948 340.419 245.847 340.438L225.19 344.674C225.089 344.696 225.001 344.757 224.945 344.844C224.889 344.93 224.869 345.035 224.89 345.136L224.892 345.141Z" fill="#0C0C0C"/>
</g>
<g opacity="0.25">
<path d="M226.41 354.042C226.431 354.143 226.492 354.23 226.578 354.286C226.664 354.343 226.769 354.363 226.87 354.342L243.347 350.963C243.397 350.953 243.446 350.934 243.489 350.905C243.532 350.877 243.569 350.84 243.598 350.797C243.627 350.754 243.647 350.705 243.657 350.654C243.667 350.604 243.667 350.551 243.656 350.5C243.646 350.45 243.626 350.402 243.596 350.359C243.567 350.316 243.53 350.279 243.486 350.251C243.443 350.223 243.394 350.204 243.343 350.194C243.292 350.185 243.24 350.186 243.19 350.197L226.712 353.576C226.611 353.598 226.523 353.659 226.466 353.745C226.41 353.832 226.39 353.937 226.412 354.038L226.41 354.042Z" fill="#0C0C0C"/>
</g>
<path d="M211.722 377.269L50.8361 406.343C45.8157 406.889 40.737 406.265 35.9985 404.519C31.2599 402.773 26.9905 399.952 23.5251 396.279C20.0597 392.605 17.4927 388.179 16.0253 383.347C14.558 378.515 14.2304 373.408 15.0681 368.428L37.5921 234.551C39.0307 226.003 43.8062 218.376 50.868 213.349C54.3646 210.86 58.3173 209.084 62.5004 208.122C66.6834 207.16 71.0149 207.032 75.2476 207.745C79.4802 208.457 83.5311 209.996 87.1689 212.274C90.8068 214.552 93.9603 217.524 96.4495 221.02C98.9387 224.517 100.715 228.47 101.676 232.653C102.638 236.836 102.766 241.167 102.054 245.4L86.7001 337.556L204.653 322.743L211.722 377.269Z" fill="#367CFF"/>
<path d="M50.8348 406.938C50.6923 406.928 50.5582 406.867 50.4566 406.766C50.355 406.666 50.2925 406.533 50.2805 406.39C50.2684 406.248 50.3075 406.106 50.3908 405.99C50.4741 405.874 50.5961 405.791 50.7348 405.757L211.063 376.784L204.139 323.408L86.7698 338.147C86.6783 338.159 86.5854 338.149 86.4985 338.118C86.4116 338.087 86.3332 338.036 86.2698 337.969C86.2053 337.902 86.1575 337.821 86.13 337.733C86.1026 337.644 86.0963 337.55 86.1118 337.459L95.8748 278.559C95.8868 278.482 95.9141 278.407 95.9552 278.34C95.9964 278.274 96.0504 278.216 96.1143 278.17C96.1781 278.125 96.2504 278.092 96.3269 278.075C96.4034 278.058 96.4826 278.056 96.5598 278.07C96.6369 278.083 96.7108 278.111 96.7772 278.152C96.8436 278.193 96.9011 278.247 96.9465 278.311C96.992 278.375 97.0244 278.447 97.0419 278.523C97.0595 278.599 97.0618 278.678 97.0488 278.755L87.4158 336.868L204.577 322.154C204.733 322.136 204.89 322.179 205.014 322.275C205.139 322.371 205.22 322.512 205.242 322.668L212.315 377.194C212.333 377.345 212.293 377.498 212.204 377.621C212.114 377.744 211.98 377.828 211.831 377.856L50.9418 406.929C50.9064 406.935 50.8706 406.938 50.8348 406.938Z" fill="#0C0C0C"/>
<path d="M86.6041 336.97L76.2549 338.627L76.4431 339.803L86.7924 338.146L86.6041 336.97Z" fill="#0C0C0C"/>
</g>
<defs>
<clipPath id="clip0_608_118">
<rect width="991.824" height="939.027" fill="white"/>
</clipPath>
</defs>
</svg>
