<svg width="200" height="199" viewBox="0 0 200 199" fill="none" xmlns="http://www.w3.org/2000/svg">
<g clip-path="url(#clip0_234_1270)">
<path d="M162.232 131.509H113.398C111.41 131.509 109.798 133.108 109.798 135.081V161.356C109.798 163.329 111.41 164.928 113.398 164.928H162.232C164.221 164.928 165.832 163.329 165.832 161.356V135.081C165.832 133.108 164.221 131.509 162.232 131.509Z" fill="white"/>
<path opacity="0.1" d="M162.232 131.509H113.398C111.41 131.509 109.798 133.108 109.798 135.081V161.356C109.798 163.329 111.41 164.928 113.398 164.928H162.232C164.221 164.928 165.832 163.329 165.832 161.356V135.081C165.832 133.108 164.221 131.509 162.232 131.509Z" fill="#54ABA7"/>
<path d="M150.397 149.428H146.073C145.81 149.428 145.597 149.64 145.597 149.901V159.41C145.597 159.671 145.81 159.883 146.073 159.883H150.397C150.661 159.883 150.874 159.671 150.874 159.41V149.901C150.874 149.64 150.661 149.428 150.397 149.428Z" fill="white"/>
<path d="M160.817 141.297H156.494C156.23 141.297 156.017 141.509 156.017 141.77V159.41C156.017 159.671 156.23 159.883 156.494 159.883H160.817C161.081 159.883 161.294 159.671 161.294 159.41V141.77C161.294 141.509 161.081 141.297 160.817 141.297Z" fill="white"/>
<path d="M119.137 149.428H114.813C114.549 149.428 114.336 149.64 114.336 149.901V159.41C114.336 159.671 114.549 159.883 114.813 159.883H119.137C119.4 159.883 119.613 159.671 119.613 159.41V149.901C119.613 149.64 119.4 149.428 119.137 149.428Z" fill="white"/>
<path d="M129.557 137.6H125.233C124.97 137.6 124.756 137.811 124.756 138.073V159.41C124.756 159.671 124.97 159.883 125.233 159.883H129.557C129.82 159.883 130.034 159.671 130.034 159.41V138.073C130.034 137.811 129.82 137.6 129.557 137.6Z" fill="white"/>
<path d="M139.977 147.084H135.653C135.39 147.084 135.177 147.296 135.177 147.557V159.41C135.177 159.671 135.39 159.883 135.653 159.883H139.977C140.24 159.883 140.454 159.671 140.454 159.41V147.557C140.454 147.296 140.24 147.084 139.977 147.084Z" fill="white"/>
<path d="M74.3427 111.069H12.363C9.83959 111.069 7.79395 113.099 7.79395 115.603V148.951C7.79395 151.455 9.83959 153.485 12.363 153.485H74.3427C76.8661 153.485 78.9118 151.455 78.9118 148.951V115.603C78.9118 113.099 76.8661 111.069 74.3427 111.069Z" fill="white"/>
<path opacity="0.1" d="M74.3427 111.069H12.363C9.83959 111.069 7.79395 113.099 7.79395 115.603V148.951C7.79395 151.455 9.83959 153.485 12.363 153.485H74.3427C76.8661 153.485 78.9118 151.455 78.9118 148.951V115.603C78.9118 113.099 76.8661 111.069 74.3427 111.069Z" fill="#54ABA7"/>
<path d="M59.322 133.812H53.8339C53.4998 133.812 53.229 134.081 53.229 134.412V146.481C53.229 146.813 53.4998 147.082 53.8339 147.082H59.322C59.6561 147.082 59.9269 146.813 59.9269 146.481V134.412C59.9269 134.081 59.6561 133.812 59.322 133.812Z" fill="white"/>
<path d="M72.5471 123.492H67.059C66.7249 123.492 66.4541 123.761 66.4541 124.093V146.482C66.4541 146.813 66.7249 147.082 67.059 147.082H72.5471C72.8812 147.082 73.152 146.813 73.152 146.482V124.093C73.152 123.761 72.8812 123.492 72.5471 123.492Z" fill="white"/>
<path d="M19.6462 133.812H14.1581C13.8241 133.812 13.5532 134.081 13.5532 134.412V146.481C13.5532 146.813 13.8241 147.082 14.1581 147.082H19.6462C19.9803 147.082 20.2511 146.813 20.2511 146.481V134.412C20.2511 134.081 19.9803 133.812 19.6462 133.812Z" fill="white"/>
<path d="M32.8713 118.8H27.3832C27.0491 118.8 26.7783 119.069 26.7783 119.4V146.481C26.7783 146.813 27.0491 147.082 27.3832 147.082H32.8713C33.2054 147.082 33.4762 146.813 33.4762 146.481V119.4C33.4762 119.069 33.2054 118.8 32.8713 118.8Z" fill="white"/>
<path d="M46.0969 130.838H40.6088C40.2747 130.838 40.0039 131.107 40.0039 131.438V146.481C40.0039 146.813 40.2747 147.082 40.6088 147.082H46.0969C46.431 147.082 46.7018 146.813 46.7018 146.481V131.438C46.7018 131.107 46.431 130.838 46.0969 130.838Z" fill="white"/>
<path d="M191.852 0H120.669C117.771 0 115.421 2.33103 115.421 5.20651V43.5073C115.421 46.3827 117.771 48.7138 120.669 48.7138H191.852C194.75 48.7138 197.1 46.3827 197.1 43.5073V5.20651C197.1 2.33103 194.75 0 191.852 0Z" fill="white"/>
<path opacity="0.1" d="M191.852 0H120.669C117.771 0 115.421 2.33103 115.421 5.20651V43.5073C115.421 46.3827 117.771 48.7138 120.669 48.7138H191.852C194.75 48.7138 197.1 46.3827 197.1 43.5073V5.20651C197.1 2.33103 194.75 0 191.852 0Z" fill="#54ABA7"/>
<path d="M174.601 26.1201H168.298C167.915 26.1201 167.604 26.4287 167.604 26.8094V40.6707C167.604 41.0513 167.915 41.3599 168.298 41.3599H174.601C174.985 41.3599 175.296 41.0513 175.296 40.6707V26.8094C175.296 26.4287 174.985 26.1201 174.601 26.1201Z" fill="white"/>
<path d="M189.79 14.2676H183.487C183.104 14.2676 182.792 14.5762 182.792 14.9569V40.6705C182.792 41.0512 183.104 41.3598 183.487 41.3598H189.79C190.174 41.3598 190.485 41.0512 190.485 40.6705V14.9569C190.485 14.5762 190.174 14.2676 189.79 14.2676Z" fill="white"/>
<path d="M129.034 26.1201H122.731C122.347 26.1201 122.036 26.4287 122.036 26.8094V40.6707C122.036 41.0513 122.347 41.3599 122.731 41.3599H129.034C129.417 41.3599 129.729 41.0513 129.729 40.6707V26.8094C129.729 26.4287 129.417 26.1201 129.034 26.1201Z" fill="white"/>
<path d="M144.223 8.87866H137.92C137.536 8.87866 137.225 9.18726 137.225 9.56794V40.6707C137.225 41.0513 137.536 41.3599 137.92 41.3599H144.223C144.607 41.3599 144.918 41.0513 144.918 40.6707V9.56794C144.918 9.18726 144.607 8.87866 144.223 8.87866Z" fill="white"/>
<path d="M159.412 22.7041H153.109C152.725 22.7041 152.414 23.0127 152.414 23.3934V40.6705C152.414 41.0512 152.725 41.3598 153.109 41.3598H159.412C159.796 41.3598 160.107 41.0512 160.107 40.6705V23.3934C160.107 23.0127 159.796 22.7041 159.412 22.7041Z" fill="white"/>
<path d="M37.2848 40.2075H2.55977C1.14605 40.2075 0 41.3446 0 42.7472V61.4314C0 62.8341 1.14605 63.9711 2.55977 63.9711H37.2848C38.6985 63.9711 39.8445 62.8341 39.8445 61.4314V42.7472C39.8445 41.3446 38.6985 40.2075 37.2848 40.2075Z" fill="white"/>
<path opacity="0.3" d="M37.2848 40.2075H2.55977C1.14605 40.2075 0 41.3446 0 42.7472V61.4314C0 62.8341 1.14605 63.9711 2.55977 63.9711H37.2848C38.6985 63.9711 39.8445 62.8341 39.8445 61.4314V42.7472C39.8445 41.3446 38.6985 40.2075 37.2848 40.2075Z" fill="#54ABA7"/>
<path d="M28.8693 52.9495H25.7944C25.6073 52.9495 25.4556 53.1 25.4556 53.2856V60.0477C25.4556 60.2333 25.6073 60.3839 25.7944 60.3839H28.8693C29.0564 60.3839 29.2081 60.2333 29.2081 60.0477V53.2856C29.2081 53.1 29.0564 52.9495 28.8693 52.9495Z" fill="white"/>
<path d="M36.2789 47.1677H33.2041C33.0169 47.1677 32.8652 47.3182 32.8652 47.5039V60.0477C32.8652 60.2333 33.0169 60.3838 33.2041 60.3838H36.2789C36.4661 60.3838 36.6178 60.2333 36.6178 60.0477V47.5039C36.6178 47.3182 36.4661 47.1677 36.2789 47.1677Z" fill="white"/>
<path d="M6.64052 52.9495H3.56564C3.37851 52.9495 3.22681 53.1 3.22681 53.2856V60.0477C3.22681 60.2333 3.37851 60.3839 3.56564 60.3839H6.64052C6.82766 60.3839 6.97936 60.2333 6.97936 60.0477V53.2856C6.97936 53.1 6.82766 52.9495 6.64052 52.9495Z" fill="white"/>
<path d="M14.0502 44.5388H10.9753C10.7882 44.5388 10.6365 44.6893 10.6365 44.875V60.0478C10.6365 60.2335 10.7882 60.384 10.9753 60.384H14.0502C14.2373 60.384 14.389 60.2335 14.389 60.0478V44.875C14.389 44.6893 14.2373 44.5388 14.0502 44.5388Z" fill="white"/>
<path d="M21.4596 51.2832H18.3847C18.1976 51.2832 18.0459 51.4337 18.0459 51.6194V60.0477C18.0459 60.2334 18.1976 60.3839 18.3847 60.3839H21.4596C21.6467 60.3839 21.7984 60.2334 21.7984 60.0477V51.6194C21.7984 51.4337 21.6467 51.2832 21.4596 51.2832Z" fill="white"/>
<path d="M33.1059 124.437L173.356 124.437C176.8 124.437 179.593 121.667 179.593 118.249V16.3683C179.593 12.9511 176.8 10.1809 173.356 10.1809L33.1059 10.1809C29.6617 10.1809 26.8696 12.9511 26.8696 16.3683V118.249C26.8696 121.667 29.6617 124.437 33.1059 124.437Z" fill="white"/>
<path d="M26.6616 118.249V16.3683C26.6635 14.6732 27.3431 13.048 28.5512 11.8494C29.7593 10.6507 31.3972 9.97652 33.1057 9.97461H173.356C175.065 9.97652 176.703 10.6507 177.911 11.8494C179.119 13.048 179.798 14.6732 179.8 16.3683V118.249C179.798 119.944 179.119 121.57 177.911 122.768C176.703 123.967 175.065 124.641 173.356 124.643H33.1057C31.3972 124.641 29.7593 123.967 28.5512 122.768C27.3431 121.57 26.6635 119.944 26.6616 118.249ZM33.1057 10.3871C31.5075 10.389 29.9752 11.0197 28.8451 12.141C27.715 13.2623 27.0792 14.7825 27.0774 16.3683V118.249C27.0792 119.835 27.7149 121.355 28.845 122.477C29.9752 123.598 31.5075 124.229 33.1057 124.23H173.356C174.954 124.229 176.487 123.598 177.617 122.477C178.747 121.355 179.383 119.835 179.385 118.249V16.3683C179.383 14.7825 178.747 13.2622 177.617 12.1409C176.487 11.0196 174.954 10.3889 173.356 10.3871H33.1057Z" fill="#292A2E"/>
<path d="M26.8696 16.3676V22.5936H179.592V16.3676C179.592 14.7266 178.935 13.1528 177.765 11.9924C176.596 10.8321 175.009 10.1802 173.355 10.1802H33.1059C31.4519 10.1802 29.8657 10.8321 28.6962 11.9924C27.5267 13.1528 26.8696 14.7266 26.8696 16.3676Z" fill="#292A2E"/>
<path d="M171.341 28.5098H111.833C110.372 28.5098 109.188 29.6846 109.188 31.1338V72.9006C109.188 74.3498 110.372 75.5247 111.833 75.5247H171.341C172.801 75.5247 173.985 74.3498 173.985 72.9006V31.1338C173.985 29.6846 172.801 28.5098 171.341 28.5098Z" fill="white"/>
<path opacity="0.15" d="M171.341 28.5098H111.833C110.372 28.5098 109.188 29.6846 109.188 31.1338V72.9006C109.188 74.3498 110.372 75.5247 111.833 75.5247H171.341C172.801 75.5247 173.985 74.3498 173.985 72.9006V31.1338C173.985 29.6846 172.801 28.5098 171.341 28.5098Z" fill="#54ABA7"/>
<path d="M120.819 34.3765H115.676C115.437 34.3765 115.243 34.5686 115.243 34.8057V69.2288C115.243 69.4658 115.437 69.658 115.676 69.658H120.819C121.058 69.658 121.251 69.4658 121.251 69.2288V34.8057C121.251 34.5686 121.058 34.3765 120.819 34.3765Z" fill="#FAFAFA"/>
<path opacity="0.6" d="M115.243 51.6709H121.251V69.2287C121.251 69.3426 121.205 69.4517 121.124 69.5322C121.043 69.6127 120.933 69.6579 120.818 69.6579H115.676C115.561 69.6579 115.451 69.6127 115.37 69.5322C115.289 69.4517 115.243 69.3426 115.243 69.2287V51.6709Z" fill="#54ABA7"/>
<path d="M132.488 34.3765H127.345C127.107 34.3765 126.913 34.5686 126.913 34.8057V69.2288C126.913 69.4658 127.107 69.658 127.345 69.658H132.488C132.727 69.658 132.921 69.4658 132.921 69.2288V34.8057C132.921 34.5686 132.727 34.3765 132.488 34.3765Z" fill="#FAFAFA"/>
<path opacity="0.6" d="M126.913 46.781H132.92V69.2285C132.92 69.3424 132.875 69.4516 132.794 69.532C132.713 69.6125 132.603 69.6578 132.488 69.6578H127.345C127.231 69.6578 127.121 69.6125 127.04 69.532C126.958 69.4516 126.913 69.3424 126.913 69.2285V46.781Z" fill="#54ABA7"/>
<path d="M167.498 34.3765H162.355C162.116 34.3765 161.922 34.5686 161.922 34.8057V69.2288C161.922 69.4658 162.116 69.658 162.355 69.658H167.498C167.737 69.658 167.93 69.4658 167.93 69.2288V34.8057C167.93 34.5686 167.737 34.3765 167.498 34.3765Z" fill="#FAFAFA"/>
<path opacity="0.6" d="M161.922 41.8477H167.93V69.2291C167.93 69.3429 167.884 69.4521 167.803 69.5325C167.722 69.613 167.612 69.6583 167.497 69.6583H162.355C162.24 69.6583 162.13 69.613 162.049 69.5325C161.968 69.4521 161.922 69.3429 161.922 69.2291V41.8477H161.922Z" fill="#54ABA7"/>
<path d="M144.158 34.3765H139.015C138.776 34.3765 138.583 34.5686 138.583 34.8057V69.2288C138.583 69.4658 138.776 69.658 139.015 69.658H144.158C144.397 69.658 144.591 69.4658 144.591 69.2288V34.8057C144.591 34.5686 144.397 34.3765 144.158 34.3765Z" fill="#FAFAFA"/>
<path opacity="0.6" d="M138.583 59.5798H144.59V69.2287C144.59 69.3425 144.545 69.4517 144.464 69.5322C144.383 69.6127 144.272 69.6579 144.158 69.6579H139.015C138.901 69.6579 138.791 69.6127 138.709 69.5322C138.628 69.4517 138.583 69.3425 138.583 69.2287V59.5798Z" fill="#54ABA7"/>
<path d="M155.828 34.3765H150.685C150.446 34.3765 150.252 34.5686 150.252 34.8057V69.2288C150.252 69.4658 150.446 69.658 150.685 69.658H155.828C156.067 69.658 156.26 69.4658 156.26 69.2288V34.8057C156.26 34.5686 156.067 34.3765 155.828 34.3765Z" fill="#FAFAFA"/>
<path opacity="0.6" d="M150.252 53.4148H156.259V69.2286C156.259 69.3424 156.214 69.4516 156.133 69.5321C156.051 69.6126 155.941 69.6578 155.827 69.6578H150.685C150.628 69.6578 150.572 69.6467 150.519 69.6251C150.467 69.6036 150.419 69.5719 150.379 69.5321C150.339 69.4922 150.307 69.4449 150.285 69.3929C150.264 69.3408 150.252 69.285 150.252 69.2286V53.4148H150.252Z" fill="#54ABA7"/>
<path opacity="0.15" d="M170.199 80.1267H112.258C110.167 80.1267 108.472 81.8085 108.472 83.8831V115.012C108.472 117.087 110.167 118.769 112.258 118.769H170.199C172.29 118.769 173.985 117.087 173.985 115.012V83.8831C173.985 81.8085 172.29 80.1267 170.199 80.1267Z" fill="#54ABA7"/>
<path d="M147.661 89.7789C148.438 89.7789 149.069 89.1538 149.069 88.3826C149.069 87.6115 148.438 86.9863 147.661 86.9863C146.884 86.9863 146.254 87.6115 146.254 88.3826C146.254 89.1538 146.884 89.7789 147.661 89.7789Z" fill="#54ABA7"/>
<path d="M147.661 96.8966C148.438 96.8966 149.069 96.2714 149.069 95.5003C149.069 94.7291 148.438 94.104 147.661 94.104C146.884 94.104 146.254 94.7291 146.254 95.5003C146.254 96.2714 146.884 96.8966 147.661 96.8966Z" fill="#262626"/>
<path d="M147.661 104.015C148.438 104.015 149.069 103.39 149.069 102.618C149.069 101.847 148.438 101.222 147.661 101.222C146.884 101.222 146.254 101.847 146.254 102.618C146.254 103.39 146.884 104.015 147.661 104.015Z" fill="white"/>
<path opacity="0.5" d="M147.661 111.132C148.438 111.132 149.069 110.507 149.069 109.736C149.069 108.965 148.438 108.34 147.661 108.34C146.884 108.34 146.254 108.965 146.254 109.736C146.254 110.507 146.884 111.132 147.661 111.132Z" fill="#54ABA7"/>
<path d="M167.191 88.382C167.191 88.5915 167.108 88.7924 166.958 88.9405C166.809 89.0887 166.606 89.1719 166.395 89.1719H152.868C152.68 89.1753 152.496 89.1145 152.348 88.9996C152.199 88.8847 152.095 88.7227 152.053 88.5408C152.029 88.4259 152.032 88.3072 152.06 88.1933C152.088 88.0795 152.142 87.9733 152.217 87.8825C152.291 87.7917 152.386 87.7185 152.492 87.6683C152.599 87.618 152.716 87.592 152.834 87.592H166.395C166.5 87.592 166.603 87.6124 166.7 87.6521C166.797 87.6918 166.884 87.75 166.958 87.8233C167.032 87.8967 167.091 87.9838 167.131 88.0796C167.171 88.1755 167.191 88.2782 167.191 88.382Z" fill="white"/>
<path d="M167.191 95.5002C167.191 95.7097 167.108 95.9106 166.958 96.0587C166.809 96.2069 166.606 96.2901 166.395 96.2901H152.876C152.766 96.2917 152.656 96.2714 152.554 96.2302C152.451 96.1891 152.358 96.128 152.28 96.0506C152.202 95.9732 152.14 95.881 152.099 95.7795C152.057 95.678 152.037 95.5693 152.038 95.4597C152.049 95.2575 152.137 95.0669 152.285 94.9275C152.434 94.7881 152.63 94.7104 152.834 94.7104H166.395C166.5 94.7104 166.603 94.7308 166.7 94.7705C166.796 94.8102 166.884 94.8683 166.958 94.9417C167.032 95.015 167.091 95.1021 167.131 95.1979C167.171 95.2937 167.191 95.3964 167.191 95.5002Z" fill="white"/>
<path d="M167.191 102.618C167.191 102.828 167.107 103.029 166.958 103.177C166.809 103.325 166.606 103.408 166.395 103.408H152.752C152.562 103.408 152.38 103.334 152.246 103.2C152.112 103.067 152.037 102.887 152.037 102.699V102.538C152.037 102.35 152.112 102.169 152.246 102.036C152.38 101.903 152.562 101.829 152.752 101.829H166.395C166.5 101.829 166.603 101.849 166.7 101.889C166.796 101.928 166.884 101.987 166.958 102.06C167.032 102.133 167.091 102.22 167.131 102.316C167.171 102.412 167.191 102.515 167.191 102.618Z" fill="white"/>
<path d="M167.191 109.737C167.191 109.946 167.107 110.147 166.958 110.295C166.809 110.443 166.606 110.526 166.395 110.526H152.871C152.682 110.53 152.498 110.469 152.35 110.355C152.201 110.24 152.096 110.078 152.053 109.896C152.029 109.781 152.031 109.662 152.06 109.549C152.088 109.435 152.141 109.329 152.216 109.238C152.291 109.147 152.385 109.074 152.492 109.024C152.599 108.973 152.715 108.947 152.834 108.947H166.395C166.499 108.947 166.603 108.968 166.699 109.007C166.796 109.047 166.884 109.105 166.958 109.178C167.032 109.251 167.09 109.339 167.13 109.434C167.171 109.53 167.191 109.633 167.191 109.737Z" fill="white"/>
<path d="M121.256 99.0593C121.256 100.761 121.788 102.421 122.779 103.811C123.77 105.2 125.171 106.251 126.789 106.817L124.514 112.322C121.385 111.152 118.769 108.93 117.121 106.043C115.474 103.156 114.9 99.7876 115.499 96.5237C116.098 93.2599 117.832 90.308 120.399 88.1823C122.966 86.0567 126.204 84.8921 129.547 84.8914V90.8342C127.348 90.8341 125.24 91.7006 123.685 93.2431C122.13 94.7856 121.256 96.8777 121.256 99.0593Z" fill="#54ABA7"/>
<path d="M143.829 99.0593H137.839C137.839 96.8776 136.965 94.7852 135.41 93.2425C133.855 91.6997 131.747 90.833 129.548 90.8329V84.8901C133.335 84.8901 136.968 86.383 139.646 89.0402C142.324 91.6974 143.829 95.3014 143.829 99.0593Z" fill="#262626"/>
<path d="M143.829 99.0593C143.828 102.27 142.729 105.385 140.712 107.895C138.694 110.406 135.878 112.162 132.723 112.877L131.708 107.002C133.468 106.531 135.022 105.497 136.13 104.061C137.238 102.626 137.839 100.868 137.839 99.0593H143.829Z" fill="white"/>
<path opacity="0.5" d="M132.723 112.877C129.99 113.491 127.137 113.298 124.514 112.322L126.789 106.817C128.372 107.369 130.087 107.434 131.708 107.003L132.723 112.877Z" fill="#54ABA7"/>
<path opacity="0.15" d="M100.159 28.5098H36.2107C34.1442 28.5098 32.469 30.1719 32.469 32.2222V115.056C32.469 117.106 34.1442 118.769 36.2107 118.769H100.159C102.225 118.769 103.901 117.106 103.901 115.056V32.2222C103.901 30.1719 102.225 28.5098 100.159 28.5098Z" fill="#54ABA7"/>
<path d="M87.5113 63.7359C87.5113 67.8545 86.2804 71.8805 83.9742 75.305C81.6681 78.7295 78.3902 81.3986 74.5551 82.9747C70.7201 84.5508 66.5001 84.9632 62.4288 84.1598C58.3575 83.3563 54.6177 81.3731 51.6825 78.4608C48.7472 75.5486 46.7483 71.8381 45.9385 67.7987C45.1286 63.7593 45.5442 59.5723 47.1328 55.7673C48.7213 51.9622 51.4114 48.71 54.8629 46.4218C58.3143 44.1336 62.3722 42.9124 66.5232 42.9124V63.7359H87.5113Z" fill="#FAFAFA"/>
<path opacity="0.6" d="M90.0844 61.0311H69.0974V40.2075C74.6636 40.2077 80.0017 42.4017 83.9375 46.3069C87.8733 50.212 90.0844 55.5085 90.0844 61.0311Z" fill="#54ABA7"/>
<path opacity="0.6" d="M44.7601 96.3727C45.5373 96.3727 46.1674 95.7475 46.1674 94.9764C46.1674 94.2052 45.5373 93.5801 44.7601 93.5801C43.9829 93.5801 43.3528 94.2052 43.3528 94.9764C43.3528 95.7475 43.9829 96.3727 44.7601 96.3727Z" fill="#54ABA7"/>
<path d="M44.7601 103.491C45.5373 103.491 46.1674 102.865 46.1674 102.094C46.1674 101.323 45.5373 100.698 44.7601 100.698C43.9829 100.698 43.3528 101.323 43.3528 102.094C43.3528 102.865 43.9829 103.491 44.7601 103.491Z" fill="#FAFAFA"/>
<path opacity="0.6" d="M92.9764 94.9769C92.9764 95.1864 92.8925 95.3873 92.7432 95.5355C92.5939 95.6836 92.3914 95.7668 92.1803 95.7668H49.9666C49.7783 95.7702 49.5946 95.7094 49.4462 95.5945C49.2978 95.4795 49.1937 95.3175 49.1513 95.1355C49.1277 95.0206 49.1302 94.9019 49.1585 94.7881C49.1869 94.6742 49.2404 94.568 49.3152 94.4772C49.3899 94.3864 49.4841 94.3133 49.591 94.263C49.6978 94.2128 49.8145 94.1867 49.9327 94.1868H92.1803C92.2848 94.1868 92.3884 94.2072 92.485 94.2469C92.5816 94.2866 92.6694 94.3448 92.7433 94.4182C92.8172 94.4916 92.8759 94.5787 92.9159 94.6745C92.9559 94.7704 92.9764 94.8731 92.9764 94.9769Z" fill="#54ABA7"/>
<path d="M92.9764 102.094C92.9764 102.304 92.8926 102.505 92.7433 102.653C92.5939 102.801 92.3914 102.884 92.1803 102.884H49.9747C49.8643 102.886 49.7547 102.865 49.6523 102.824C49.5499 102.783 49.4569 102.722 49.3788 102.645C49.3007 102.567 49.239 102.475 49.1973 102.373C49.1557 102.272 49.1351 102.163 49.1365 102.054C49.1473 101.851 49.2358 101.661 49.3839 101.521C49.5321 101.382 49.7285 101.304 49.9327 101.304H92.1803C92.2848 101.304 92.3884 101.325 92.485 101.364C92.5816 101.404 92.6693 101.462 92.7433 101.536C92.8172 101.609 92.8758 101.696 92.9158 101.792C92.9559 101.888 92.9764 101.99 92.9764 102.094Z" fill="white"/>
<path d="M26.3699 176.766C26.3475 176.766 26.3253 176.762 26.3045 176.753C26.2838 176.745 26.265 176.732 26.2492 176.717C26.0082 176.478 25.616 172.095 24.5589 159.047C24.1264 153.707 23.7177 148.664 23.4196 145.599C23.3988 145.38 23.3127 145.355 23.2847 145.347C22.8766 145.224 21.6354 146.196 20.9426 147.046C20.9284 147.063 20.911 147.078 20.8913 147.088C20.8716 147.099 20.8499 147.106 20.8276 147.108C20.8053 147.11 20.7827 147.108 20.7612 147.102C20.7397 147.096 20.7196 147.085 20.7021 147.071C20.6847 147.057 20.6702 147.04 20.6595 147.02C20.6487 147.001 20.642 146.979 20.6396 146.957C20.6373 146.935 20.6393 146.913 20.6457 146.891C20.652 146.87 20.6626 146.85 20.6767 146.833C21.134 146.27 22.6284 144.797 23.383 145.022C23.4965 145.06 23.5944 145.134 23.6623 145.232C23.7301 145.331 23.7644 145.448 23.7599 145.567C24.0582 148.634 24.4666 153.679 24.8996 159.019C25.542 166.949 26.2695 175.932 26.5088 176.498C26.527 176.523 26.5378 176.553 26.54 176.584C26.5423 176.615 26.5359 176.646 26.5216 176.674C26.5072 176.701 26.4855 176.725 26.4588 176.741C26.432 176.757 26.4013 176.766 26.3699 176.766V176.766Z" fill="#494949"/>
<path d="M22.9809 151.223C25.8165 148.968 26.7563 145.458 25.0801 143.383C23.4039 141.309 19.7464 141.455 16.9108 143.71C14.0753 145.965 13.1355 149.475 14.8117 151.55C16.4879 153.625 20.1454 153.478 22.9809 151.223Z" fill="#367CFF"/>
<path opacity="0.2" d="M22.9809 151.223C25.8165 148.968 26.7563 145.458 25.0801 143.383C23.4039 141.309 19.7464 141.455 16.9108 143.71C14.0753 145.965 13.1355 149.475 14.8117 151.55C16.4879 153.625 20.1454 153.478 22.9809 151.223Z" fill="white"/>
<path d="M15.606 152.077C15.5898 152.077 15.574 152.073 15.5603 152.064C15.5467 152.055 15.5357 152.043 15.5289 152.029C15.522 152.014 15.5194 151.998 15.5214 151.982C15.5235 151.966 15.53 151.951 15.5404 151.939L23.6215 142.27C23.636 142.252 23.6568 142.241 23.6793 142.239C23.7019 142.237 23.7244 142.244 23.7418 142.259C23.7593 142.273 23.7703 142.294 23.7724 142.316C23.7745 142.338 23.7675 142.361 23.7531 142.378L15.6719 152.047C15.6639 152.056 15.6538 152.064 15.6425 152.069C15.6311 152.075 15.6186 152.077 15.606 152.077Z" fill="white"/>
<path d="M28.1324 174.693C28.1051 174.693 28.0783 174.687 28.0541 174.675C28.0299 174.662 28.0091 174.644 27.9933 174.622C27.9775 174.6 27.9673 174.575 27.9634 174.548C27.9595 174.521 27.9622 174.494 27.9711 174.468L31.006 165.807C31.0953 165.552 31.2475 165.324 31.4488 165.143C31.6501 164.962 31.8939 164.834 32.158 164.771C32.4221 164.708 32.698 164.711 32.9603 164.781C33.2226 164.851 33.4631 164.985 33.6596 165.171L35.2643 166.693C35.2961 166.724 35.3143 166.766 35.3149 166.811C35.3155 166.855 35.2985 166.898 35.2675 166.93C35.2366 166.962 35.1942 166.981 35.1494 166.982C35.1046 166.984 35.0611 166.968 35.0282 166.938L33.4234 165.417C33.2683 165.27 33.0785 165.164 32.8714 165.108C32.6643 165.053 32.4465 165.05 32.238 165.1C32.0295 165.15 31.837 165.251 31.6781 165.394C31.5193 165.537 31.3991 165.717 31.3287 165.918L28.2937 174.581C28.2819 174.614 28.26 174.642 28.2311 174.663C28.2022 174.683 28.1677 174.694 28.1324 174.693Z" fill="#494949"/>
<path d="M39.7478 171.487C41.8492 169.837 41.7243 166.207 39.4688 163.38C37.2134 160.553 33.6815 159.599 31.5801 161.249C29.4787 162.9 29.6036 166.529 31.859 169.357C34.1145 172.184 37.6464 173.138 39.7478 171.487Z" fill="#367CFF"/>
<path d="M24.9909 176.214C24.9524 176.214 24.9151 176.201 24.885 176.177C24.8548 176.154 24.8335 176.121 24.8246 176.084L19.7316 154.951C19.6969 154.807 19.6228 154.675 19.5174 154.57C19.4121 154.465 19.2796 154.391 19.1345 154.356C18.9895 154.321 18.8374 154.326 18.6952 154.371C18.5529 154.416 18.426 154.499 18.3283 154.611L16.758 156.412C16.7435 156.429 16.7257 156.444 16.7055 156.454C16.6853 156.465 16.6632 156.471 16.6404 156.473C16.6177 156.475 16.5947 156.473 16.573 156.466C16.5513 156.459 16.5312 156.447 16.5139 156.433C16.4967 156.418 16.4826 156.4 16.4725 156.379C16.4624 156.359 16.4565 156.337 16.4551 156.314C16.4538 156.292 16.457 156.269 16.4647 156.248C16.4723 156.226 16.4842 156.207 16.4996 156.19L18.0699 154.389C18.2088 154.23 18.3892 154.112 18.5913 154.048C18.7934 153.984 19.0094 153.977 19.2155 154.027C19.4217 154.077 19.6099 154.182 19.7596 154.331C19.9093 154.48 20.0146 154.668 20.064 154.872L25.1569 176.005C25.1622 176.026 25.1631 176.049 25.1595 176.071C25.156 176.093 25.1482 176.114 25.1364 176.133C25.1247 176.152 25.1093 176.168 25.0911 176.181C25.073 176.194 25.0524 176.204 25.0306 176.209C25.0176 176.212 25.0042 176.214 24.9909 176.214Z" fill="#494949"/>
<path d="M23.1113 161.108C23.7305 157.555 22.0917 154.307 19.4509 153.854C16.81 153.401 14.1672 155.914 13.548 159.467C12.9288 163.02 14.5676 166.267 17.2084 166.72C19.8492 167.173 22.4921 164.661 23.1113 161.108Z" fill="#367CFF"/>
<path d="M26.3701 176.766C26.3631 176.766 26.3562 176.766 26.3493 176.765C26.3043 176.759 26.2634 176.736 26.2355 176.701C26.2076 176.666 26.195 176.621 26.2005 176.576L29.4533 150.372C29.4887 150.087 29.6065 149.817 29.7924 149.597C29.9784 149.376 30.2246 149.214 30.5015 149.128C30.7784 149.043 31.0742 149.039 31.3533 149.117C31.6324 149.195 31.8829 149.351 32.0748 149.566L35.7928 153.744C35.8077 153.761 35.8191 153.78 35.8264 153.801C35.8337 153.822 35.8367 153.845 35.8354 153.867C35.834 153.889 35.8282 153.911 35.8184 153.931C35.8085 153.951 35.7948 153.969 35.778 153.984C35.7612 153.998 35.7416 154.01 35.7204 154.017C35.6991 154.024 35.6767 154.027 35.6543 154.026C35.6319 154.024 35.61 154.019 35.5898 154.009C35.5696 153.999 35.5516 153.986 35.5367 153.969L31.8187 149.791C31.6704 149.624 31.4768 149.504 31.2611 149.444C31.0454 149.384 30.8168 149.387 30.6028 149.452C30.3888 149.518 30.1985 149.644 30.0548 149.814C29.911 149.985 29.82 150.193 29.7925 150.413L26.5395 176.617C26.5344 176.658 26.5144 176.696 26.4832 176.724C26.452 176.751 26.4118 176.766 26.3701 176.766Z" fill="#494949"/>
<path d="M39.6058 156.066C40.903 153.739 39.3767 150.438 36.1967 148.693C33.0167 146.948 29.3872 147.419 28.09 149.746C26.7928 152.073 28.3191 155.374 31.4991 157.119C34.6791 158.864 38.3086 158.393 39.6058 156.066Z" fill="#367CFF"/>
<path opacity="0.2" d="M39.7478 171.487C41.8492 169.837 41.7243 166.207 39.4688 163.38C37.2134 160.553 33.6815 159.599 31.5801 161.249C29.4787 162.9 29.6036 166.529 31.859 169.357C34.1145 172.184 37.6464 173.138 39.7478 171.487Z" fill="white"/>
<path opacity="0.5" d="M23.1113 161.108C23.7305 157.555 22.0917 154.307 19.4509 153.854C16.81 153.401 14.1672 155.914 13.548 159.467C12.9288 163.02 14.5676 166.267 17.2084 166.72C19.8492 167.173 22.4921 164.661 23.1113 161.108Z" fill="white"/>
<path opacity="0.5" d="M39.6058 156.066C40.903 153.739 39.3767 150.438 36.1967 148.693C33.0167 146.948 29.3872 147.419 28.09 149.746C26.7928 152.073 28.3191 155.374 31.4991 157.119C34.6791 158.864 38.3086 158.393 39.6058 156.066Z" fill="white"/>
<path d="M30.5304 199H22.2092L20.8303 172.585H31.9092L30.5304 199Z" fill="#292A2E"/>
<path opacity="0.3" d="M30.5304 199H22.2092L20.8303 172.585H31.9092L30.5304 199Z" fill="white"/>
<path d="M39.7486 171.572C39.7357 171.572 39.7229 171.569 39.7112 171.563C39.6996 171.558 39.6894 171.55 39.6814 171.539L31.5136 161.302C31.5067 161.293 31.5015 161.283 31.4984 161.272C31.4953 161.261 31.4944 161.25 31.4957 161.239C31.497 161.228 31.5004 161.217 31.5059 161.208C31.5113 161.198 31.5187 161.189 31.5275 161.182C31.5362 161.176 31.5463 161.17 31.5571 161.167C31.5679 161.164 31.5792 161.163 31.5903 161.165C31.6015 161.166 31.6123 161.169 31.6221 161.175C31.6319 161.18 31.6405 161.187 31.6475 161.196L39.8155 171.434C39.8295 171.452 39.8359 171.474 39.8333 171.497C39.8306 171.519 39.8191 171.539 39.8014 171.553C39.7864 171.565 39.7678 171.572 39.7486 171.572Z" fill="white"/>
<path d="M39.0627 156.886C39.0447 156.886 39.0271 156.881 39.0124 156.87L28.5605 149.298C28.5511 149.292 28.5431 149.283 28.5369 149.274C28.5308 149.264 28.5266 149.254 28.5247 149.242C28.5227 149.231 28.5231 149.22 28.5257 149.209C28.5283 149.198 28.5331 149.187 28.5398 149.178C28.5466 149.169 28.5551 149.161 28.5649 149.155C28.5746 149.15 28.5855 149.146 28.5968 149.144C28.6081 149.143 28.6196 149.143 28.6307 149.146C28.6417 149.149 28.6521 149.154 28.6611 149.161L39.1133 156.733C39.1278 156.744 39.1387 156.759 39.1442 156.776C39.1497 156.793 39.1497 156.811 39.1441 156.828C39.1385 156.845 39.1276 156.86 39.113 156.87C39.0984 156.881 39.0808 156.886 39.0627 156.886Z" fill="white"/>
<path d="M16.7844 166.609C16.7769 166.609 16.7694 166.608 16.7622 166.606C16.7405 166.601 16.7219 166.586 16.7106 166.567C16.6992 166.548 16.6961 166.525 16.7017 166.503L20.0289 154.135C20.035 154.113 20.0492 154.095 20.0686 154.084C20.088 154.072 20.1111 154.069 20.1329 154.075C20.1547 154.08 20.1733 154.094 20.1846 154.114C20.1959 154.133 20.1991 154.156 20.1934 154.178L16.8668 166.546C16.8619 166.564 16.8513 166.58 16.8364 166.592C16.8215 166.603 16.8032 166.609 16.7844 166.609Z" fill="white"/>
<path d="M186.561 199H16.0166C15.978 199 15.941 198.985 15.9137 198.958C15.8864 198.931 15.8711 198.894 15.8711 198.856C15.8711 198.817 15.8864 198.781 15.9137 198.753C15.941 198.726 15.978 198.711 16.0166 198.711H186.561C186.599 198.711 186.636 198.726 186.664 198.753C186.691 198.781 186.706 198.817 186.706 198.856C186.706 198.894 186.691 198.931 186.664 198.958C186.636 198.985 186.599 199 186.561 199Z" fill="#292A2E"/>
<path d="M59.4052 189.745C59.4052 189.745 60.3438 194.572 64.8983 194.842C69.4529 195.112 68.4657 198.711 68.4657 198.711H51.0591V190.082L59.4052 189.745Z" fill="#54ABA7"/>
<path d="M49.8784 101.692C49.8784 101.692 51.1801 100.241 51.1687 103.532C51.1257 115.81 50.2906 192.825 50.2906 192.825L61.7291 192.73L68.6582 101.193L49.8784 101.692Z" fill="#262626"/>
<path d="M78.9372 189.745C78.9372 189.745 79.8758 194.572 84.4309 194.841C88.9861 195.11 87.9983 198.71 87.9983 198.71H70.5911V190.082L78.9372 189.745Z" fill="#54ABA7"/>
<path d="M81.1497 102.645C81.1497 102.645 82.5786 144.607 82.4302 146.658L81.0865 192.507L69.8369 192.713L68.023 144.999C68.023 144.999 66.834 131.838 63.6288 119.616C61.9889 113.343 61.002 106.92 60.6836 100.448L81.1497 102.645Z" fill="#262626"/>
<path d="M66.3091 132.396L67.247 118.163C67.247 118.163 68.2105 124.08 68.2105 129.18C68.2105 131.673 67.6931 141.543 67.6931 141.543L66.3091 132.396Z" fill="#0A0A0A"/>
<path d="M49.7542 101.69L49.7168 101.692C49.7168 101.692 49.7442 100.977 49.7542 101.69Z" fill="#333333"/>
<path d="M49.8013 101.69L49.7639 101.692C49.7639 101.692 49.7909 100.977 49.8013 101.69Z" fill="#333333"/>
<path d="M112.481 67.6311C112.412 67.4957 112.303 67.3849 112.167 67.3139C112.032 67.2429 111.878 67.2153 111.727 67.2349C111.728 67.2215 111.725 67.2081 111.718 67.1965C111.711 67.1875 111.702 67.1805 111.691 67.1762C111.681 67.1719 111.669 67.1704 111.658 67.172L112.169 66.8082C112.323 66.7043 112.433 66.5488 112.479 66.3706C112.526 66.1924 112.506 66.0034 112.423 65.8388C112.335 65.6787 112.191 65.5565 112.019 65.4959C111.846 65.4352 111.656 65.4405 111.487 65.5107C111.489 65.5034 111.484 65.4966 111.483 65.49L111.693 65.3407C111.836 65.2421 111.942 65.0973 111.99 64.9308C112.039 64.7642 112.028 64.5861 111.959 64.4266C111.914 64.3275 111.847 64.2396 111.764 64.1692C111.68 64.0988 111.582 64.0476 111.476 64.0194C111.371 63.9912 111.26 63.9866 111.152 64.006C111.044 64.0253 110.942 64.0682 110.853 64.1315L110.368 64.4765C110.366 64.4736 110.368 64.4703 110.366 64.4677C110.364 64.465 110.359 64.4639 110.356 64.4611C110.467 64.3367 110.533 64.1786 110.542 64.0125C110.551 63.8464 110.502 63.6822 110.405 63.547C110.176 63.1815 109.647 63.2564 109.334 63.4793L106.479 65.4356L106.989 64.5834C107.092 64.4193 107.128 64.2228 107.09 64.0333C107.053 63.8439 106.944 63.6757 106.786 63.5627C106.703 63.5072 106.609 63.4692 106.51 63.451C106.411 63.4328 106.309 63.4348 106.211 63.4568C106.113 63.4789 106.021 63.5205 105.94 63.5791C105.858 63.6378 105.79 63.7122 105.739 63.798L102.953 68.4513C102.626 68.9972 102.527 69.6481 102.676 70.2656C102.825 70.8831 103.211 71.4186 103.751 71.7583C104.379 72.1523 105.11 72.3515 105.852 72.3303C106.594 72.3092 107.313 72.0687 107.916 71.6397L112.227 68.5738C112.37 68.4681 112.473 68.3175 112.519 68.1464C112.565 67.9753 112.552 67.7937 112.481 67.6311Z" fill="#E98862"/>
<g opacity="0.25">
<path d="M107.543 66.4096C107.554 66.424 107.569 66.4337 107.587 66.4366C107.604 66.4396 107.622 66.4356 107.637 66.4255L110.349 64.5617C110.357 64.5566 110.363 64.5501 110.368 64.5427C110.373 64.5352 110.376 64.5268 110.378 64.5181C110.379 64.5093 110.379 64.5003 110.377 64.4916C110.375 64.483 110.372 64.4747 110.367 64.4674C110.362 64.4601 110.355 64.4538 110.348 64.449C110.34 64.4442 110.332 64.4409 110.323 64.4393C110.314 64.4377 110.305 64.4379 110.296 64.4398C110.287 64.4416 110.279 64.4452 110.272 64.4503L107.559 66.3141C107.545 66.3244 107.534 66.3401 107.531 66.3577C107.528 66.3754 107.532 66.3936 107.542 66.4084L107.543 66.4096Z" fill="#0C0C0C"/>
</g>
<g opacity="0.25">
<path d="M108.339 67.6192C108.349 67.6336 108.365 67.6432 108.382 67.6462C108.4 67.6491 108.418 67.6451 108.433 67.6349L111.46 65.5549C111.474 65.5446 111.485 65.5289 111.488 65.5113C111.491 65.4936 111.487 65.4754 111.477 65.4607C111.466 65.4464 111.45 65.4367 111.433 65.4335C111.415 65.4303 111.397 65.4339 111.382 65.4435L108.355 67.5235C108.34 67.5338 108.33 67.5495 108.327 67.5673C108.323 67.585 108.327 67.6032 108.338 67.618L108.339 67.6192Z" fill="#0C0C0C"/>
</g>
<g opacity="0.25">
<path d="M109.193 68.934C109.203 68.9483 109.219 68.958 109.236 68.961C109.254 68.9639 109.272 68.96 109.287 68.9499L111.701 67.2907C111.716 67.2804 111.726 67.2648 111.73 67.2471C111.733 67.2294 111.729 67.2112 111.718 67.1964C111.708 67.1816 111.692 67.1715 111.675 67.1683C111.657 67.1651 111.638 67.1691 111.623 67.1793L109.209 68.8385C109.194 68.8488 109.184 68.8645 109.181 68.8821C109.177 68.8998 109.181 68.918 109.192 68.9328L109.193 68.934Z" fill="#0C0C0C"/>
</g>
<path d="M101.309 67.3916L93.1278 81.2168L83.1446 68.2248L74.8535 75.6409L89.0119 93.8342L89.1046 93.9637C89.6713 94.7338 90.4263 95.3481 91.2985 95.7486C92.1707 96.1492 93.1313 96.3228 94.0898 96.2532C95.0483 96.1836 95.9732 95.873 96.7773 95.3507C97.5814 94.8284 98.2382 94.1116 98.6859 93.2678L110.32 72.3638L101.309 67.3916Z" fill="#54ABA7"/>
<path d="M92.3253 82.8792C92.3075 82.8792 92.29 82.8747 92.2744 82.8661C92.2589 82.8575 92.2458 82.845 92.2365 82.83C92.2272 82.8149 92.2219 82.7977 92.2213 82.78C92.2206 82.7623 92.2245 82.7448 92.2326 82.7291L93.0348 81.1696C93.0474 81.1453 93.0692 81.1269 93.0954 81.1185C93.1217 81.1101 93.1502 81.1124 93.1747 81.1249C93.1993 81.1373 93.2178 81.159 93.2262 81.185C93.2347 81.211 93.2324 81.2393 93.2198 81.2637L92.4178 82.8229C92.4091 82.8398 92.3959 82.8541 92.3796 82.864C92.3633 82.8739 92.3445 82.8792 92.3253 82.8792Z" fill="#0C0C0C"/>
<path d="M82.5681 81.1377L82.3184 85.5044L82.5259 85.5161L82.7757 81.1494L82.5681 81.1377Z" fill="#0C0C0C"/>
<path d="M56.2051 49.5359C56.2051 49.5359 55.8218 54.3963 54.6982 56.1484C51.4635 61.1923 50.4769 66.8973 53.6218 69.9197C56.7668 72.942 77.0484 73.2178 78.6651 66.3663C80.026 60.599 77.2574 59.9456 76.6375 55.167C76.3571 53.0051 75.5692 48.47 75.5692 48.47" fill="#0A0A0A"/>
<path d="M73.5018 65.2712C73.4669 65.2667 73.0782 71.6631 65.5889 71.1056C60.4041 70.7201 58.5552 65.2622 58.4365 65.2622C58.9955 65.1444 59.937 64.9734 60.1852 64.8414C61.0015 64.4062 62.0118 63.9533 62.2749 62.3803C62.4267 61.4728 62.1693 56.8351 62.2485 55.9177L70.2072 57.6803C70.096 59.6176 69.3177 64.109 72.0457 64.9041C72.4997 65.0355 72.9886 65.1564 73.5018 65.2712Z" fill="#E98862"/>
<path opacity="0.52" d="M70.319 63.0685C70.1943 62.6699 70.114 62.2589 70.0795 61.843C69.992 60.8938 70.0094 59.9379 70.1315 58.9924C68.5139 58.7758 66.99 58.1133 65.7329 57.0803C65.5851 57.6219 64.7723 59.9884 64.9974 60.5026C65.4227 61.4755 67.4216 63.0685 70.319 63.0685Z" fill="#0C0C0C"/>
<path d="M69.2637 61.0555C66.1227 61.3205 62.0774 60.0288 61.285 55.8735L60.5697 52.1241C59.7771 47.9689 61.3343 44.1873 65.2777 43.4469C69.2208 42.7065 72.8108 45.5215 73.6035 49.6768L73.9201 51.3367C74.2244 52.931 74.8684 60.5823 69.2637 61.0555Z" fill="#E98862"/>
<path d="M72.7963 51.5175C73.0693 51.5175 73.2906 51.2979 73.2906 51.0271C73.2906 50.7562 73.0693 50.5366 72.7963 50.5366C72.5233 50.5366 72.302 50.7562 72.302 51.0271C72.302 51.2979 72.5233 51.5175 72.7963 51.5175Z" fill="#0C0C0C"/>
<path d="M67.7324 52.1887C68.0054 52.1887 68.2267 51.9691 68.2267 51.6982C68.2267 51.4273 68.0054 51.2078 67.7324 51.2078C67.4594 51.2078 67.238 51.4273 67.238 51.6982C67.238 51.9691 67.4594 52.1887 67.7324 52.1887Z" fill="#0C0C0C"/>
<path opacity="0.52" d="M70.5111 55.2948L70.5188 55.2936C70.6785 55.2625 70.8364 55.2226 70.9917 55.1742C71.2235 55.1001 71.5272 54.9778 71.4877 54.7699C71.4426 54.5332 70.3016 52.1013 70.1716 51.8249C70.1661 51.8129 70.1582 51.802 70.1484 51.793C70.1386 51.7839 70.1271 51.7769 70.1146 51.7723C70.1021 51.7677 70.0887 51.7657 70.0754 51.7662C70.062 51.7667 70.0489 51.7699 70.0368 51.7755C70.0247 51.7811 70.0138 51.789 70.0048 51.7988C69.9958 51.8086 69.9888 51.8201 69.9843 51.8325C69.9797 51.845 69.9777 51.8583 69.9784 51.8715C69.9791 51.8847 69.9823 51.8977 69.9881 51.9097C70.4747 52.9455 71.2582 54.6478 71.2885 54.8073C71.2626 54.8813 70.8776 55.0216 70.4812 55.096C70.4551 55.1005 70.4319 55.1149 70.4165 55.1362C70.401 55.1575 70.3946 55.1839 70.3985 55.2098C70.4024 55.2357 70.4163 55.2591 70.4374 55.275C70.4584 55.2908 70.4849 55.2979 70.5111 55.2946V55.2948Z" fill="#0C0C0C"/>
<path opacity="0.52" d="M69.9275 57.0877C70.5707 57.0049 71.1853 56.7732 71.7217 56.4114C71.7441 56.3969 71.7599 56.374 71.7654 56.348C71.771 56.3219 71.7658 56.2947 71.7512 56.2724C71.7365 56.2501 71.7135 56.2345 71.6872 56.229C71.661 56.2235 71.6336 56.2286 71.6111 56.2431C70.4503 56.9934 69.2968 57.1149 68.2755 56.5937C68.2549 56.5826 68.2336 56.5726 68.2119 56.5636C68.1866 56.5546 68.1588 56.5558 68.1344 56.5672C68.1101 56.5785 68.0913 56.599 68.0822 56.6241C68.0731 56.6491 68.0744 56.6768 68.0858 56.7009C68.0972 56.7251 68.1178 56.7437 68.1431 56.7527C68.151 56.756 68.1639 56.7631 68.1828 56.7734C68.7199 57.0481 69.3274 57.1575 69.9275 57.0877Z" fill="#0C0C0C"/>
<path d="M57.415 53.4306L60.9501 52.7877C63.6271 51.7128 64.4368 47.1147 64.4368 47.1147C64.4368 47.1147 67.6886 50.2594 75.5689 48.4708C75.5689 48.4708 73.9891 37.5669 62.3468 40.7365C58.5928 41.7589 55.8986 45.5122 56.2343 50.5283C56.4698 54.0446 57.415 53.4306 57.415 53.4306Z" fill="#0A0A0A"/>
<path d="M61.7715 57.0935C60.5734 57.3185 59.3592 56.2289 59.1315 55.0399C58.9039 53.8508 59.7512 53.0129 60.9496 52.7878L61.7187 53.4685L62.8009 56.9L61.7715 57.0935Z" fill="#E98862"/>
<path d="M70.8942 49.8369C71.2437 49.6128 71.6475 49.4862 72.0633 49.4706C72.268 49.4614 72.4729 49.4829 72.6711 49.5343C72.8675 49.5843 73.0567 49.6586 73.2343 49.7556C73.2593 49.7678 73.2785 49.7894 73.2876 49.8156C73.2967 49.8417 73.295 49.8704 73.2828 49.8954C73.2707 49.9203 73.2492 49.9395 73.2229 49.9487C73.1965 49.958 73.1676 49.9565 73.1424 49.9447L73.1349 49.9412C72.9707 49.8612 72.797 49.8019 72.6179 49.7649C72.441 49.7272 72.2593 49.7164 72.0791 49.7327C71.7216 49.7624 71.3783 49.8854 71.0842 50.0893L71.0746 50.0963C71.0578 50.1085 71.0386 50.1173 71.0183 50.1221C70.998 50.127 70.9769 50.1278 70.9563 50.1246C70.9356 50.1213 70.9158 50.1141 70.898 50.1033C70.8802 50.0924 70.8647 50.0782 70.8524 50.0615C70.8401 50.0447 70.8313 50.0257 70.8264 50.0055C70.8215 49.9854 70.8207 49.9645 70.824 49.944C70.8272 49.9235 70.8345 49.9039 70.8454 49.8862C70.8564 49.8685 70.8707 49.8532 70.8876 49.841L70.8942 49.8369Z" fill="#0C0C0C"/>
<path d="M67.7415 50.5732C67.3931 50.4884 67.0282 50.4967 66.6841 50.5973C66.51 50.6467 66.3445 50.7218 66.1931 50.8203C66.0396 50.9193 65.8993 51.0371 65.7755 51.1709L65.7698 51.1764C65.7505 51.1957 65.7243 51.2068 65.6968 51.2073C65.6694 51.2078 65.6428 51.1977 65.6227 51.1791C65.6027 51.1605 65.5907 51.1349 65.5893 51.1077C65.5878 51.0805 65.5971 51.0538 65.6152 51.0333C65.7455 50.8792 65.8948 50.742 66.0598 50.6251C66.2259 50.5061 66.4091 50.4126 66.6032 50.3477C66.9967 50.2135 67.4194 50.1867 67.827 50.2702C67.8683 50.279 67.9044 50.3037 67.9274 50.339C67.9504 50.3742 67.9583 50.4171 67.9494 50.4581C67.9405 50.4991 67.9156 50.535 67.8801 50.5577C67.8446 50.5805 67.8014 50.5884 67.76 50.5796L67.7536 50.5779L67.7415 50.5732Z" fill="#0C0C0C"/>
<path opacity="0.52" d="M70.0642 58.0315C70.1807 58.0183 70.2958 57.9953 70.4084 57.9628C70.4343 57.9554 70.4561 57.9382 70.4691 57.9149C70.4821 57.8915 70.4853 57.864 70.4779 57.8384C70.4704 57.8128 70.4531 57.7911 70.4296 57.7782C70.4061 57.7653 70.3783 57.7622 70.3525 57.7695C69.6746 57.9632 69.2892 57.7077 69.2732 57.6957C69.2512 57.6804 69.2239 57.6744 69.1974 57.679C69.1709 57.6837 69.1473 57.6986 69.1319 57.7204C69.1164 57.7423 69.1104 57.7694 69.1151 57.7957C69.1197 57.822 69.1348 57.8454 69.1568 57.8607C69.4303 58.0199 69.7509 58.0803 70.0642 58.0315Z" fill="#0C0C0C"/>
<path d="M60.9582 52.7432L60.9231 52.646C65.4018 51.0509 64.3065 46.6902 64.295 46.6463L64.3954 46.6201C64.4073 46.6649 65.5275 51.1157 60.9582 52.7432Z" fill="#0C0C0C"/>
<path opacity="0.1" d="M67.317 55.5838C67.8339 55.5286 68.2199 55.1788 68.1791 54.8026C68.1383 54.4264 67.6861 54.1661 67.1692 54.2213C66.6522 54.2765 66.2662 54.6263 66.3071 55.0025C66.3479 55.3788 66.8 55.639 67.317 55.5838Z" fill="#0C0C0C"/>
<path opacity="0.1" d="M72.8066 54.1605C72.8482 54.5363 73.3005 54.7962 73.8177 54.7417C73.9071 54.7321 73.9952 54.7133 74.0807 54.6856C74.1098 54.2385 74.1162 53.8083 74.1077 53.4096C73.9648 53.3724 73.8161 53.362 73.6693 53.3791C73.1521 53.4333 72.7663 53.7831 72.8066 54.1605Z" fill="#0C0C0C"/>
<path d="M82.8069 79.3531C82.571 82.1028 81.4235 99.258 81.1967 102.645H51.1855C51.0088 99.5903 48.9687 86.2327 48.2991 80.2592C47.6599 74.5589 46.4058 71.7051 47.325 70.0198C48.8271 67.2656 52.9318 65.674 55.7306 65.298C57.4398 65.0686 60.0101 64.9041 60.0101 64.9041C60.0101 64.9041 60.2278 69.2724 65.4176 69.5155C72.4822 69.8455 72.0105 64.9041 72.0455 64.9041C73.19 64.9041 79.7281 65.6228 81.3277 66.5635C85.6858 69.1245 83.3077 73.527 82.8069 79.3531Z" fill="#54ABA7"/>
<path d="M102.287 81.2741L99.3944 95.2242C99.336 95.5075 99.1814 95.7624 98.9565 95.9463C98.7315 96.1302 98.4499 96.2321 98.1584 96.2349L78.2386 96.4031C78.0486 96.4047 77.8606 96.3641 77.6885 96.2843C77.5163 96.2045 77.3643 96.0875 77.2436 95.9419C77.1229 95.7963 77.0366 95.6257 76.9909 95.4427C76.9453 95.2596 76.9415 95.0688 76.9798 94.8841L79.8725 80.9336C79.9313 80.6503 80.0862 80.3956 80.3114 80.2119C80.5365 80.0282 80.8183 79.9267 81.1098 79.9242L101.03 79.7559C101.219 79.7545 101.407 79.7952 101.579 79.875C101.751 79.9548 101.903 80.0718 102.023 80.2173C102.144 80.3628 102.23 80.5332 102.276 80.7161C102.322 80.8989 102.326 81.0896 102.287 81.2741Z" fill="#292A2E"/>
<path d="M83.7124 91.1834C83.723 91.3671 83.6664 91.5484 83.5529 91.6939C83.4395 91.8395 83.2769 91.9394 83.095 91.9754L82.4818 92.1095C82.4927 92.1131 82.5026 92.1193 82.5106 92.1276C82.5186 92.1358 82.5244 92.1459 82.5275 92.1569C82.529 92.1699 82.5261 92.1829 82.5192 92.1941C82.6666 92.2352 82.7975 92.3208 82.8936 92.4391C82.9897 92.5574 83.0463 92.7024 83.0555 92.854C83.0564 93.0308 82.9971 93.2027 82.8874 93.3419C82.7776 93.4811 82.6237 93.5796 82.4506 93.6213L77.2724 94.7618C77.0077 94.8209 76.7372 94.8506 76.4659 94.8505C75.8615 94.8505 75.2662 94.7045 74.7313 94.4254C74.1964 94.1462 73.738 93.7421 73.3956 93.248C73.0324 92.7252 72.8892 92.0825 72.9964 91.4566C73.1035 90.8307 73.4526 90.2709 73.9693 89.8965L78.3742 86.7017C78.4711 86.6313 78.5838 86.5853 78.7026 86.5676L78.2973 88.5208L78.4054 88.496L78.4282 88.4919L81.8062 87.8092C82.1824 87.7267 82.698 87.8629 82.7645 88.2877C82.8001 88.4504 82.7793 88.6202 82.7053 88.7696C82.6313 88.919 82.5086 89.0392 82.3571 89.1107C82.3591 89.1127 82.3633 89.1148 82.3633 89.1189C82.3633 89.123 82.3612 89.1251 82.3612 89.1292L82.9453 89.0013C83.0522 88.9778 83.163 88.9781 83.2697 89.0022C83.3765 89.0263 83.4765 89.0736 83.5626 89.1407C83.6487 89.2078 83.7187 89.2929 83.7676 89.3901C83.8165 89.4873 83.8431 89.594 83.8454 89.7026C83.8454 89.876 83.785 90.044 83.6743 90.1782C83.5637 90.3124 83.4097 90.4045 83.2384 90.4389L82.9869 90.4946C82.9848 90.5028 82.9869 90.5111 82.9828 90.5173C83.166 90.5186 83.3422 90.5876 83.4771 90.7107C83.612 90.8338 83.6958 91.0023 83.7124 91.1834Z" fill="#E98862"/>
<g opacity="0.25">
<path d="M78.9986 89.8062C79.0026 89.8235 79.0132 89.8385 79.0282 89.8481C79.0432 89.8576 79.0614 89.861 79.0789 89.8574L82.3109 89.1997C82.3197 89.1979 82.328 89.1944 82.3354 89.1894C82.3428 89.1844 82.3492 89.178 82.3541 89.1706C82.3591 89.1632 82.3625 89.1549 82.3642 89.1462C82.3659 89.1374 82.3658 89.1285 82.364 89.1198C82.3622 89.111 82.3587 89.1028 82.3537 89.0954C82.3486 89.0881 82.3422 89.0817 82.3347 89.0769C82.3272 89.072 82.3189 89.0686 82.3101 89.0669C82.3013 89.0652 82.2922 89.0653 82.2835 89.0671L79.0514 89.7246C79.0337 89.7282 79.0181 89.7387 79.0081 89.7537C78.9982 89.7687 78.9946 89.787 78.9982 89.8046L78.9986 89.8062Z" fill="#0C0C0C"/>
</g>
<g opacity="0.25">
<path d="M79.2517 91.2286C79.2557 91.2458 79.2664 91.2608 79.2814 91.2703C79.2964 91.2799 79.3145 91.2833 79.332 91.2797L82.939 90.5459C82.9567 90.5422 82.9722 90.5318 82.9822 90.5168C82.9922 90.5018 82.9958 90.4835 82.9922 90.4659C82.988 90.4486 82.9773 90.4335 82.9624 90.4237C82.9474 90.4139 82.9292 90.4101 82.9116 90.4131L79.3041 91.1471C79.2953 91.1489 79.287 91.1524 79.2796 91.1573C79.2721 91.1623 79.2658 91.1687 79.2608 91.1761C79.2559 91.1835 79.2525 91.1918 79.2508 91.2005C79.2491 91.2093 79.2491 91.2182 79.2509 91.2269L79.2517 91.2286Z" fill="#0C0C0C"/>
</g>
<g opacity="0.25">
<path d="M79.5167 92.7702C79.5207 92.7874 79.5314 92.8024 79.5463 92.8119C79.5613 92.8215 79.5795 92.8249 79.5969 92.8213L82.4741 92.2358C82.4829 92.234 82.4912 92.2305 82.4987 92.2255C82.5061 92.2206 82.5124 92.2142 82.5174 92.2068C82.5223 92.1993 82.5257 92.191 82.5274 92.1823C82.5291 92.1736 82.529 92.1646 82.5272 92.1559C82.5254 92.1472 82.5219 92.1389 82.5169 92.1315C82.5119 92.1242 82.5054 92.1179 82.498 92.113C82.4905 92.1081 82.4821 92.1047 82.4733 92.103C82.4645 92.1013 82.4555 92.1014 82.4467 92.1032L79.5695 92.6885C79.5517 92.6921 79.5362 92.7026 79.5262 92.7176C79.5162 92.7326 79.5127 92.7509 79.5163 92.7685L79.5167 92.7702Z" fill="#0C0C0C"/>
</g>
<path d="M76.952 96.7945L48.8588 101.832C47.9822 101.926 47.0955 101.818 46.2682 101.515C45.4409 101.213 44.6956 100.724 44.0906 100.088C43.4856 99.4512 43.0374 98.6844 42.7813 97.8473C42.5251 97.0102 42.468 96.1256 42.6142 95.2629L46.546 72.0689C46.6698 71.3352 46.9382 70.6328 47.3357 70.002C47.7333 69.3712 48.2522 68.8243 48.8629 68.3925C49.4736 67.9608 50.164 67.6527 50.8947 67.4858C51.6255 67.3189 52.3822 67.2966 53.1217 67.42C53.8611 67.5435 54.5688 67.8103 55.2043 68.2052C55.8398 68.6001 56.3906 69.1154 56.8253 69.7216C57.26 70.3279 57.57 71.0131 57.7376 71.7383C57.9052 72.4634 57.9271 73.2143 57.8022 73.9478L55.1206 89.9145L75.717 87.3481L76.952 96.7945Z" fill="#54ABA7"/>
<path d="M48.8586 101.935C48.8327 101.935 48.8077 101.925 48.7886 101.908C48.7694 101.89 48.7576 101.866 48.7553 101.841C48.753 101.815 48.7604 101.79 48.7762 101.769C48.7919 101.749 48.8148 101.735 48.8403 101.73L76.8362 96.7105L75.6272 87.4632L55.1335 90.0167C55.1174 90.0188 55.1011 90.0172 55.0858 90.0118C55.0705 90.0065 55.0567 89.9976 55.0456 89.986C55.0343 89.9744 55.026 89.9604 55.0212 89.945C55.0164 89.9296 55.0153 89.9134 55.0179 89.8975L56.7225 79.6928C56.7246 79.6794 56.7293 79.6665 56.7365 79.6549C56.7437 79.6434 56.7531 79.6333 56.7643 79.6254C56.7754 79.6175 56.788 79.6119 56.8014 79.6089C56.8147 79.606 56.8285 79.6056 56.842 79.608C56.8555 79.6102 56.8684 79.615 56.88 79.6222C56.8916 79.6294 56.9016 79.6387 56.9096 79.6497C56.9176 79.6607 56.9232 79.6732 56.9263 79.6864C56.9294 79.6996 56.9299 79.7133 56.9277 79.7266L55.2455 89.7948L75.7037 87.2456C75.731 87.2422 75.7585 87.2497 75.7803 87.2664C75.802 87.2831 75.8162 87.3076 75.8197 87.3347L77.0549 96.7808C77.0583 96.807 77.0514 96.8336 77.0357 96.8549C77.0199 96.8762 76.9965 96.8908 76.9703 96.8955L48.8773 101.933C48.8711 101.934 48.8649 101.935 48.8586 101.935Z" fill="#0C0C0C"/>
<path d="M55.1047 89.8128L53.2976 90.0999L53.3305 90.3037L55.1376 90.0167L55.1047 89.8128Z" fill="#0C0C0C"/>
<path d="M195.168 114.107H133.688C131.135 114.107 129.064 116.161 129.064 118.694V139.58C129.064 142.114 131.135 144.168 133.688 144.168H195.168C197.722 144.168 199.792 142.114 199.792 139.58V118.694C199.792 116.161 197.722 114.107 195.168 114.107Z" fill="white"/>
<path opacity="0.4" d="M195.168 114.107H133.688C131.135 114.107 129.064 116.161 129.064 118.694V139.58C129.064 142.114 131.135 144.168 133.688 144.168H195.168C197.722 144.168 199.792 142.114 199.792 139.58V118.694C199.792 116.161 197.722 114.107 195.168 114.107Z" fill="#54ABA7"/>
<path d="M195.168 144.373H133.689C132.407 144.372 131.179 143.866 130.274 142.967C129.368 142.069 128.858 140.85 128.857 139.579V118.695C128.858 117.424 129.368 116.206 130.274 115.307C131.179 114.408 132.407 113.903 133.689 113.901H195.168C196.449 113.903 197.677 114.408 198.583 115.307C199.489 116.206 199.999 117.424 200 118.695V139.58C199.998 140.851 199.489 142.069 198.583 142.968C197.677 143.866 196.449 144.372 195.168 144.373ZM133.689 114.313C132.518 114.314 131.395 114.777 130.567 115.598C129.739 116.42 129.274 117.534 129.272 118.695V139.58C129.274 140.741 129.74 141.855 130.568 142.676C131.395 143.497 132.518 143.959 133.689 143.961H195.168C196.339 143.959 197.462 143.497 198.289 142.676C199.117 141.855 199.583 140.741 199.584 139.579V118.695C199.583 117.534 199.117 116.42 198.289 115.599C197.462 114.777 196.339 114.315 195.168 114.314L133.689 114.313Z" fill="#292A2E"/>
<path d="M135.407 137.763C135.351 137.763 135.296 137.748 135.248 137.719C135.2 137.691 135.16 137.65 135.133 137.601C135.106 137.553 135.093 137.498 135.095 137.442C135.097 137.387 135.114 137.333 135.144 137.286C135.212 137.183 142.007 126.875 152.804 126.875C158.447 126.875 161.865 129.035 165.171 131.123C168.231 133.057 171.122 134.884 175.595 134.884C184.74 134.884 192.107 121.706 192.18 121.573C192.22 121.501 192.287 121.448 192.366 121.425C192.446 121.402 192.531 121.411 192.603 121.45C192.676 121.49 192.73 121.556 192.753 121.635C192.776 121.713 192.767 121.798 192.728 121.87C192.421 122.427 185.106 135.503 175.595 135.503C170.94 135.503 167.975 133.63 164.836 131.646C161.605 129.604 158.265 127.494 152.804 127.494C142.352 127.494 135.735 137.519 135.669 137.621C135.641 137.664 135.602 137.7 135.556 137.725C135.51 137.75 135.459 137.763 135.407 137.763Z" fill="white"/>
<path d="M192.541 122.933C193.215 122.933 193.761 122.391 193.761 121.722C193.761 121.054 193.215 120.512 192.541 120.512C191.867 120.512 191.321 121.054 191.321 121.722C191.321 122.391 191.867 122.933 192.541 122.933Z" fill="white"/>
</g>
<defs>
<clipPath id="clip0_234_1270">
<rect width="200" height="199" fill="white"/>
</clipPath>
</defs>
</svg>
