<svg  viewBox="0 0 744 986" fill="none" xmlns="http://www.w3.org/2000/svg">
<g clip-path="url(#clip0_2_1972)">
<path d="M372.001 986.001C577.451 986.001 744.001 818.918 744.001 612.81C744.001 406.703 577.451 239.62 372.001 239.62C166.55 239.62 0 406.703 0 612.81C0 818.918 166.55 986.001 372.001 986.001Z" fill="#367CFF"/>
<path opacity="0.86" d="M372.001 986.001C577.451 986.001 744.001 818.918 744.001 612.81C744.001 406.703 577.451 239.62 372.001 239.62C166.55 239.62 0 406.703 0 612.81C0 818.918 166.55 986.001 372.001 986.001Z" fill="white"/>
<path opacity="0.1" d="M176.163 618.55L253.707 729.273L124.054 750.911L80.6289 692.128L176.163 618.55Z" fill="#367CFF"/>
<path opacity="0.1" d="M675.541 448.281L623.432 404.756L565.532 486.953L583.644 507.975L675.541 448.281Z" fill="#367CFF"/>
<path opacity="0.1" d="M142.872 486.953L190.79 451.067L231.205 516.948L184.571 541.522L142.872 486.953Z" fill="#367CFF"/>
<path opacity="0.1" d="M425.671 884.935L480.815 839.919L514.871 884.935L453.46 927.046L425.671 884.935Z" fill="#367CFF"/>
<path opacity="0.1" d="M204.899 559.664L254.94 522.985L294.855 575.637L273.144 597.884L305.482 639.734L335.384 618.55L370.226 662.763L305.482 710.682L204.899 559.664Z" fill="#367CFF"/>
<path d="M743.453 633.193L557.092 759.773L642.936 868.528C640.384 871.262 637.786 873.95 635.143 876.593L548.03 766.23L396.666 879.426L463.706 974.574C459.847 975.564 455.963 976.483 452.054 977.332L384.484 881.417L289.676 748.789L123.698 782.336L136.978 902.087C132.785 898.661 128.675 895.144 124.647 891.536L112.305 780.22L2.07168 652.292C1.40584 646.083 0.904411 639.828 0.567383 633.527L119.703 771.797L282.574 738.868L53.9786 419.097C56.0501 415.671 58.1791 412.282 60.3657 408.93L294.506 736.456L295.788 736.196L466.588 615.628L345.603 458.062L363.075 239.736C366.046 239.662 369.022 239.625 372.002 239.625C372.742 239.625 373.482 239.625 374.222 239.637L357.008 454.673L475.675 609.208L705.377 447.065C707.054 450.43 708.673 453.828 710.235 457.258L301.275 745.931L390.226 870.359L550.039 750.845L550.187 751.03L743.934 619.428C743.86 624.04 743.699 628.617 743.453 633.193Z" fill="white"/>
<path d="M371.991 15.8617C254.9 15.8617 160.356 110.807 160.356 227.914C160.356 264.738 174.289 306.215 186.177 329.57C225.2 406.284 369.64 620.786 369.64 620.786C369.884 621.196 370.23 621.535 370.643 621.771C371.057 622.006 371.525 622.13 372.001 622.13C372.477 622.13 372.944 622.006 373.358 621.771C373.772 621.535 374.118 621.196 374.362 620.786C374.362 620.786 518.801 406.284 557.824 329.57C569.706 306.21 583.645 264.738 583.645 227.914C583.645 110.802 489.099 15.8617 372.009 15.8617H371.991Z" fill="#367CFF"/>
<path opacity="0.12" d="M371.991 15.8617C254.9 15.8617 160.356 110.807 160.356 227.914C160.356 264.738 174.289 306.215 186.177 329.57C225.2 406.284 369.64 620.786 369.64 620.786C369.884 621.196 370.23 621.535 370.643 621.771C371.057 622.006 371.525 622.13 372.001 622.13C372.477 622.13 372.944 622.006 373.358 621.771C373.772 621.535 374.118 621.196 374.362 620.786C374.362 620.786 518.801 406.284 557.824 329.57C569.706 306.21 583.645 264.738 583.645 227.914C583.645 110.802 489.099 15.8617 372.009 15.8617H371.991Z" fill="white"/>
<path d="M367.443 49.1166C368.963 49.0783 370.467 49.1166 371.995 49.1166C395.46 49.1169 418.691 53.796 440.338 62.882C461.985 71.9681 481.616 85.2798 498.09 102.044C514.563 118.807 527.552 138.689 536.299 160.532C545.047 182.376 549.38 205.745 549.046 229.283C547.713 324.954 469.881 403.042 374.511 404.368C327.798 404.916 282.761 386.925 249.209 354.315C215.657 321.704 196.307 277.115 195.375 230.258C194.443 183.402 212.003 138.073 244.232 104.146C276.46 70.2178 320.746 50.4389 367.443 49.1166V49.1166Z" fill="white"/>
<path d="M425.671 2.81536C425.671 2.81536 476.898 3.44374 459.236 74.2656L454.427 74.5006L444.663 74.9781L425.671 2.81536Z" fill="#0C0C0C"/>
<path d="M368.472 148.57C368.711 148.547 369.655 192.721 420.838 190.865C456.271 189.585 470.323 152.471 471.133 152.502C467.355 151.542 460.986 150.111 459.329 149.14C453.882 145.924 447.122 142.536 445.745 131.628C444.953 125.34 447.942 93.4499 447.648 87.1079L392.945 97.141C393.186 110.519 397.293 141.672 378.492 146.425C375.364 147.21 372.006 147.914 368.472 148.57Z" fill="#E98862"/>
<path opacity="0.52" d="M390.748 134.235C391.704 131.522 392.361 128.712 392.706 125.855C393.556 119.338 393.692 112.748 393.112 106.202C404.192 105.139 414.753 100.979 423.595 94.1945C424.458 97.9648 429.365 114.481 427.695 117.969C424.533 124.564 410.493 135.005 390.748 134.235Z" fill="#0C0C0C"/>
<path d="M403.166 126.431C424.609 124.896 450.479 111.794 451.378 82.6486L452.188 56.3492C453.087 27.2036 438.557 3.10234 411.201 2.25253C383.846 1.40397 362.671 24.3944 361.772 53.5438L361.413 65.1862C361.359 69.1857 361.577 73.1842 362.066 77.1539C363.279 87.6558 365.164 103.625 372.053 114.529C378.565 124.823 389.466 127.409 403.166 126.431Z" fill="#E98862"/>
<path d="M449.405 91.4744C457.718 91.7329 464.731 83.0197 464.989 74.68C465.247 66.3403 458.649 61.5322 450.336 61.2749L445.879 66.7299L442.257 91.253L449.405 91.4744Z" fill="#E98862"/>
<path d="M363.179 85.955C364.681 87.7416 366.604 89.123 368.774 89.9734C370.943 90.8238 373.291 91.1161 375.602 90.8238C380.544 90.2053 383.825 92.2351 387.952 91.8257C391.417 91.4831 392.021 89.8787 397.928 89.5274C420.755 88.1667 437.879 86.7281 438.994 57.9932L453.52 45.0507C453.52 45.0507 460.011 124.676 417.081 135.261C390.702 141.765 365.958 139.385 362.777 114.529C360.193 94.3331 363.179 85.955 363.179 85.955Z" fill="#0C0C0C"/>
<path d="M373.993 69.3276C375.855 69.3276 377.364 67.8135 377.364 65.9457C377.364 64.0779 375.855 62.5638 373.993 62.5638C372.131 62.5638 370.622 64.0779 370.622 65.9457C370.622 67.8135 372.131 69.3276 373.993 69.3276Z" fill="#0C0C0C"/>
<path d="M404.105 68.6967C405.967 68.6967 407.477 67.1826 407.477 65.3148C407.477 63.4471 405.967 61.9329 404.105 61.9329C402.244 61.9329 400.734 63.4471 400.734 65.3148C400.734 67.1826 402.244 68.6967 404.105 68.6967Z" fill="#0C0C0C"/>
<path d="M441.375 77.9196C441.375 77.9196 439.316 36.617 426.893 33.8412C418.621 31.9932 398.268 43.4426 379.68 39.5313C371.542 37.8218 363.764 39.7057 362.911 43.5589C362.571 45.0841 356.129 31.5528 369.217 15.0874C379.633 1.97545 413.503 -1.7095 428.572 2.92669C470.292 15.7653 452.017 63.1229 452.017 63.1229L449.888 77.311L441.375 77.9196Z" fill="#0C0C0C"/>
<path d="M460.337 44.6153C472.617 44.6153 482.573 34.6278 482.573 22.3076C482.573 9.98747 472.617 0 460.337 0C448.056 0 438.1 9.98747 438.1 22.3076C438.1 34.6278 448.056 44.6153 460.337 44.6153Z" fill="#0C0C0C"/>
<path d="M388.36 90.4997H388.305C385.627 90.4242 381.142 89.9974 381.196 87.9861C381.245 86.3199 386.297 68.4666 386.868 66.4368C386.888 66.346 386.927 66.2603 386.981 66.185C387.036 66.1097 387.105 66.0463 387.185 65.9987C387.264 65.9511 387.353 65.9202 387.445 65.908C387.537 65.8958 387.63 65.9026 387.719 65.9278C387.809 65.953 387.892 65.9962 387.964 66.0548C388.036 66.1133 388.095 66.186 388.139 66.2683C388.182 66.3507 388.208 66.441 388.215 66.5337C388.222 66.6265 388.211 66.7198 388.181 66.8079C385.939 74.7134 382.594 86.8926 382.561 88.0245C382.807 88.5069 385.571 89.0524 388.344 89.1316C388.525 89.1294 388.699 89.1995 388.828 89.3262C388.958 89.453 389.031 89.6262 389.034 89.8076C389.036 89.989 388.966 90.1638 388.839 90.2936C388.713 90.4234 388.541 90.4975 388.36 90.4997Z" fill="#0C0C0C"/>
<path d="M380.199 54.4566C377.431 53.6313 374.492 53.5702 371.692 54.2798C370.314 54.6198 368.996 55.1652 367.78 55.8977C366.577 56.6166 365.468 57.4848 364.481 58.4818C364.396 58.558 364.327 58.6501 364.278 58.7531C364.228 58.856 364.2 58.9677 364.194 59.0817C364.187 59.1957 364.204 59.3098 364.241 59.4175C364.279 59.5252 364.338 59.6244 364.414 59.7095C364.489 59.7945 364.581 59.8637 364.684 59.9131C364.787 59.9625 364.898 59.9912 365.012 59.9974C365.125 60.0037 365.239 59.9874 365.346 59.9496C365.454 59.9118 365.553 59.8531 365.637 59.7769L365.69 59.7324C366.61 58.9004 367.63 58.1876 368.727 57.6109C369.808 57.0366 370.968 56.6295 372.17 56.4036C374.542 55.9378 376.994 56.1085 379.278 56.8984L379.366 56.9306C379.69 57.05 380.048 57.0353 380.362 56.8898C380.675 56.7442 380.918 56.4797 381.037 56.1544C381.156 55.8291 381.142 55.4697 380.997 55.1553C380.851 54.8408 380.588 54.5971 380.264 54.4777L380.199 54.4566Z" fill="#0C0C0C"/>
<path d="M400.063 56.9083C402.261 55.8974 404.685 55.4873 407.092 55.7196C408.31 55.8276 409.504 56.1195 410.635 56.5855C411.783 57.0529 412.867 57.663 413.864 58.4014L413.919 58.4385C414.011 58.5061 414.115 58.555 414.225 58.5824C414.335 58.6097 414.45 58.615 414.563 58.5979C414.675 58.5808 414.783 58.5416 414.88 58.4826C414.978 58.4237 415.062 58.346 415.13 58.2542C415.197 58.1623 415.246 58.058 415.273 57.9473C415.301 57.8365 415.306 57.7214 415.289 57.6086C415.272 57.4958 415.233 57.3875 415.174 57.2899C415.115 57.1922 415.038 57.1071 414.946 57.0395C413.867 56.1428 412.68 55.3864 411.412 54.7882C410.131 54.1775 408.766 53.763 407.363 53.5586C404.509 53.1258 401.591 53.4728 398.917 54.563C398.759 54.6288 398.615 54.7252 398.494 54.8466C398.374 54.968 398.278 55.1121 398.212 55.2707C398.147 55.4293 398.114 55.5992 398.114 55.7708C398.114 55.9423 398.148 56.1122 398.213 56.2707C398.279 56.4291 398.375 56.5731 398.496 56.6943C398.617 56.8155 398.761 56.9117 398.919 56.9772C399.077 57.0427 399.246 57.0764 399.417 57.0762C399.588 57.0761 399.758 57.0422 399.915 56.9764L399.978 56.9492L400.063 56.9083Z" fill="#0C0C0C"/>
<path d="M252.24 149.768L253.703 113.446C253.735 112.648 253.601 111.852 253.309 111.108C253.018 110.365 252.575 109.691 252.01 109.129C251.444 108.566 250.768 108.128 250.025 107.843C249.282 107.557 248.487 107.429 247.692 107.469C246.225 107.586 244.855 108.246 243.846 109.321C242.838 110.395 242.263 111.807 242.233 113.282L241.92 121.075L231.699 96.1217C230.612 93.3286 227.495 90.5986 224.452 92.0298C223.246 92.5048 222.236 93.3755 221.587 94.5C220.937 95.6245 220.687 96.9365 220.876 98.2221C220.847 98.2258 220.818 98.232 220.791 98.2407C220.77 98.2506 220.755 98.2666 220.735 98.2778L219.058 93.9706C218.747 93.1726 218.263 92.4543 217.64 91.868C217.017 91.2816 216.272 90.8421 215.458 90.5814C214.645 90.3206 213.783 90.2453 212.937 90.3608C212.091 90.4764 211.281 90.7799 210.566 91.2493C209.457 92.0114 208.641 93.1327 208.257 94.4256C207.873 95.7186 207.943 97.1047 208.455 98.352L209.164 100.195C209.121 100.24 209.086 100.292 209.061 100.35C208.292 99.2237 207.149 98.4086 205.837 98.0503C204.524 97.692 203.127 97.8139 201.896 98.3941C200.567 99.0688 199.54 100.221 199.021 101.622C198.502 103.022 198.528 104.568 199.094 105.95L200.869 110.502C200.798 110.455 200.718 110.426 200.634 110.417C200.55 110.408 200.465 110.418 200.387 110.448C200.295 110.489 200.217 110.556 200.162 110.64C199.2 109.828 197.998 109.356 196.742 109.296C195.486 109.235 194.245 109.591 193.21 110.307C192.138 111.082 191.358 112.197 190.996 113.471C190.634 114.746 190.712 116.106 191.218 117.331L206.182 155.746C208.276 161.12 211.921 165.744 216.652 169.026C221.382 172.308 226.982 174.098 232.733 174.166V174.166C237.692 174.225 242.478 172.342 246.075 168.917C249.672 165.492 251.797 160.795 251.998 155.824L252.24 149.768Z" fill="#E98862"/>
<g opacity="0.2">
<path d="M230.865 122.964C230.736 123.014 230.593 123.01 230.466 122.955C230.339 122.9 230.239 122.798 230.187 122.67L220.497 98.9334C220.47 98.8687 220.456 98.7993 220.456 98.729C220.455 98.6588 220.469 98.5892 220.495 98.5243C220.522 98.4594 220.561 98.4005 220.611 98.3509C220.661 98.3013 220.719 98.262 220.784 98.2354C220.849 98.2088 220.918 98.1954 220.988 98.1959C221.058 98.1964 221.128 98.2108 221.192 98.2384C221.256 98.2659 221.315 98.306 221.363 98.3563C221.412 98.4066 221.451 98.4661 221.476 98.5314L231.166 122.268C231.192 122.332 231.205 122.401 231.205 122.471C231.205 122.541 231.191 122.61 231.164 122.674C231.137 122.739 231.098 122.797 231.048 122.846C230.999 122.895 230.94 122.934 230.876 122.96L230.865 122.964Z" fill="#0C0C0C"/>
</g>
<g opacity="0.2">
<path d="M220.548 127.54C220.419 127.589 220.276 127.586 220.149 127.531C220.022 127.476 219.922 127.373 219.869 127.245L209.056 100.755C209.029 100.691 209.016 100.622 209.016 100.552C209.016 100.483 209.03 100.414 209.057 100.35C209.084 100.285 209.123 100.227 209.172 100.178C209.222 100.129 209.28 100.09 209.344 100.064C209.475 100.015 209.618 100.018 209.747 100.072C209.875 100.126 209.978 100.226 210.035 100.353L220.848 126.843C220.901 126.974 220.901 127.12 220.846 127.25C220.792 127.38 220.689 127.483 220.559 127.536L220.548 127.54Z" fill="#0C0C0C"/>
</g>
<g opacity="0.2">
<path d="M209.401 132.561C209.272 132.61 209.129 132.607 209.002 132.552C208.875 132.497 208.775 132.394 208.723 132.266L200.092 111.136C200.065 111.072 200.052 111.002 200.052 110.933C200.053 110.863 200.067 110.794 200.094 110.73C200.12 110.665 200.16 110.607 200.209 110.558C200.258 110.509 200.317 110.47 200.381 110.443C200.446 110.417 200.515 110.404 200.584 110.404C200.654 110.404 200.723 110.418 200.787 110.445C200.851 110.472 200.909 110.512 200.958 110.561C201.007 110.611 201.046 110.67 201.072 110.734L209.703 131.864C209.756 131.994 209.756 132.14 209.701 132.27C209.647 132.4 209.544 132.503 209.415 132.557L209.401 132.561Z" fill="#0C0C0C"/>
</g>
<path d="M382.423 97.9141C390.506 98.4525 398.536 96.2732 405.246 91.7206C405.479 91.5657 405.751 91.4803 406.031 91.4741C406.31 91.468 406.586 91.5414 406.825 91.6859C407.065 91.8303 407.259 92.0399 407.385 92.2904C407.51 92.5408 407.563 92.8219 407.536 93.101C406.997 97.8918 404.637 106.699 394.621 107.821C388.154 108.545 383.467 103.562 381.106 100.25C380.945 100.02 380.852 99.7487 380.838 99.468C380.824 99.1873 380.89 98.9084 381.028 98.6637C381.166 98.4191 381.37 98.2187 381.617 98.086C381.864 97.9533 382.143 97.8937 382.423 97.9141V97.9141Z" fill="white"/>
<path d="M539.698 197.843C534.845 184.001 530.925 177.099 525.94 171.64C519.116 164.169 508.854 156.813 489.823 153.474C478.197 151.445 460.673 149.62 460.673 149.62C460.672 149.651 460.669 149.682 460.665 149.712C460.462 151.547 456.842 179.771 422.45 180.054C375.061 180.451 378.465 147.794 378.363 146.459C378.372 146.433 378.372 146.416 378.363 146.416C363.662 145.842 327.006 145.512 312.246 159.998C310.699 161.505 309.273 163.133 307.983 164.867L307.781 164.743L273.945 216.929L265.494 147.633L252.243 149.763L209.235 156.677L206.749 157.074L191.425 159.548L196.766 201.08L209.007 296.297C220.951 324.397 239.902 348.942 264.037 367.57C274.024 353.43 290.547 329.038 307.703 303.472C307.972 303.067 308.242 302.661 308.52 302.255V302.264C308.52 302.542 308.528 302.829 308.537 303.117C308.579 304.943 308.629 307.014 308.671 309.295C309.076 330.247 309.489 368.651 309.825 393.136C340.364 404.61 373.472 407.383 405.484 401.148C437.496 394.913 467.165 379.913 491.204 357.808C491.373 357.664 491.534 357.512 491.698 357.351C492.018 357.064 492.339 356.769 492.649 356.473C509.096 341.082 522.496 322.713 532.145 302.331C542.804 279.799 548.562 255.25 549.037 230.314V230.305L539.698 197.843Z" fill="#54ABA7"/>
<path d="M492.642 356.467C492.331 356.763 492.011 357.058 491.69 357.345C491.531 357.506 491.371 357.658 491.197 357.802L482.056 311.14L482.048 311.09L468.978 244.397L470.629 243.966L492.642 356.467Z" fill="#0C0C0C"/>
<path d="M308.751 309.297C308.538 309.289 308.336 309.2 308.185 309.049C308.034 308.897 307.944 308.695 307.935 308.481L306.245 271.193C306.239 271.081 306.256 270.969 306.294 270.864C306.333 270.758 306.391 270.661 306.466 270.578C306.542 270.495 306.633 270.428 306.734 270.38C306.836 270.333 306.945 270.306 307.057 270.3C307.169 270.295 307.281 270.312 307.386 270.351C307.491 270.389 307.588 270.447 307.671 270.523C307.753 270.599 307.82 270.69 307.868 270.792C307.915 270.893 307.942 271.003 307.947 271.116L309.638 308.404C309.643 308.516 309.626 308.628 309.588 308.734C309.55 308.839 309.491 308.936 309.416 309.019C309.34 309.102 309.249 309.169 309.148 309.217C309.047 309.264 308.937 309.291 308.825 309.296C308.794 309.297 308.771 309.299 308.751 309.297Z" fill="#0C0C0C"/>
</g>
<defs>
<clipPath id="clip0_2_1972">
<rect width="744" height="986" fill="white"/>
</clipPath>
</defs>
</svg>
