<svg width="100" height="100" viewBox="0 0 100 100" fill="none" xmlns="http://www.w3.org/2000/svg">
<path d="M76.7824 0.211693C76.5741 0.332214 76.088 0.995087 75.7176 1.69813C75.3241 2.46143 74.6065 3.36534 73.9815 3.8876C71.8055 5.71552 69.3056 6.29803 63.7731 6.27795C60.5324 6.27795 59.7917 6.21769 57.8241 5.75569C56.5741 5.47447 54.5833 4.87186 53.3796 4.42995C50.4861 3.36535 49.3287 3.1243 47.5926 3.26491C43.8657 3.56622 40.9028 5.55482 39.6759 8.56786L39.2593 9.59229L37.7546 9.7329C35.6944 9.93377 33.588 10.5163 31.3657 11.5006C29.9537 12.1233 29.0046 12.766 27.4074 14.152C25.625 15.6786 25.1389 16.2612 24.2361 17.8681C22.9167 20.1781 22.4769 21.6244 22.2917 23.9946C22.0833 26.8269 22.5231 28.2732 25.8565 35.8259L28.8426 42.5751L27.7546 43.5593C25.9954 45.1462 25.5787 46.9741 26.2731 49.9068C26.5046 50.8911 27.3148 52.5382 28.9352 55.3905L31.2731 59.4883L30.5787 61.3162C28.9583 65.5947 28.0324 69.5318 27.8241 73.0671L27.662 75.5578L18.6343 78.3298C13.6806 79.8364 9.21296 81.2224 8.75 81.4031C6.01852 82.4075 3.05556 84.9184 1.59722 87.4694C0.277778 89.7794 0 91.2056 0 95.7452V99.622H11.9444C20.4861 99.622 24.1667 99.6823 24.8148 99.863C25.5787 100.064 25.7639 100.044 25.9259 99.8028C26.0417 99.6421 27.338 96.7496 28.8194 93.3348L31.4815 87.1681V79.977C31.4815 76.0198 31.5972 72.0225 31.7361 71.0985C31.9907 69.2304 33.2407 64.6707 34.1898 62.1598C35.4861 58.6446 38.75 53.6832 40.0926 53.2011C41.412 52.7391 42.8704 53.8639 42.5 55.1093C42.4306 55.3705 41.8518 56.1338 41.2037 56.7765C39.6296 58.3634 38.5648 60.3118 37.7315 63.0638C36.8981 65.8759 36.875 66.358 37.6157 66.9807C38.0556 67.3824 38.4259 67.4829 39.2824 67.4829C40.8333 67.4829 41.9213 67.7842 42.9398 68.4872C43.4259 68.8287 44.0046 69.0898 44.2361 69.0898C45.3935 69.0898 46.0417 69.6924 46.3889 71.1186C46.4583 71.44 46.9907 71.9422 47.7315 72.4243C49.4444 73.5491 49.8843 74.4129 49.8611 76.522C49.8148 79.2337 48.8657 81.7647 47.037 84.0948C46.5278 84.7376 44.9537 86.4249 43.5417 87.8711C39.6296 91.8684 38.8889 93.3549 38.8889 97.3522V99.622H69.4444H100V95.7452C100 91.1654 99.7222 89.7995 98.3565 87.369C97.037 85.059 94.4213 82.7691 91.8981 81.7044C90.9491 81.3027 85.0231 79.4145 78.7269 77.5063L67.2917 74.0111L69.8148 73.8906C71.2037 73.8304 72.7778 73.6295 73.3333 73.4487C75.4861 72.7457 77.3148 71.2391 78.2176 69.4514C78.7963 68.3466 80.9028 59.0665 81.2731 56.1338C81.5509 53.7836 81.4352 49.4649 81.0185 47.1951C80.8796 46.4719 80.5324 44.8851 80.2315 43.6799C79.9074 42.3742 79.5833 40.1245 79.4444 38.1559C79.3056 36.328 78.912 33.2547 78.5648 31.3063L77.9398 27.7509L79.3519 26.0837C82.963 21.7851 85.1852 15.8996 85.1852 10.8176C85.162 6.8203 83.1713 3.24482 79.5602 0.774124C78.4028 -0.0293503 77.5694 -0.190048 76.7824 0.211693ZM48.7268 26.5055C55.7639 28.2531 59.5139 28.7151 67.7778 28.8557C71.3657 28.9159 74.3055 28.9963 74.3055 29.0365C74.3055 29.0766 74.5602 30.4626 74.8843 32.1299C75.1852 33.777 75.5555 36.7499 75.7176 38.7184C75.8796 41.0083 76.1574 42.9969 76.5046 44.2825C77.5463 48.1392 77.8935 51.8753 77.5463 55.27C77.2454 58.1425 75.2083 67.3423 74.6296 68.3868C74.1435 69.2907 72.9398 70.1745 71.7824 70.4758C69.3287 71.0985 62.1991 70.2549 57.4306 68.7684C56.2037 68.3868 55.0231 68.0252 54.8148 67.965C54.5139 67.8645 54.2593 68.1458 53.7268 69.1903C53.3333 69.9335 53.0093 70.6164 53.0093 70.6968C53.0093 70.8776 56.9907 72.1832 58.6343 72.5448C59.4907 72.7457 59.838 72.9465 60.3241 73.5692C60.625 73.9911 61.2731 74.6941 61.713 75.1159L62.5231 75.8993L61.412 76.3814C59.838 77.0644 57.3148 77.8477 55.6713 78.129C54.9074 78.2495 54.1204 78.3901 53.9352 78.4504C53.6343 78.5106 53.588 78.1691 53.588 76.2609C53.588 74.1116 53.5417 73.9308 52.8472 72.6854C52.4074 71.9221 51.6435 70.9981 51.0648 70.5361C50.4861 70.0741 49.838 69.3108 49.5833 68.8287C49.0509 67.7842 47.7083 66.5991 46.6898 66.2777C46.2731 66.1571 45.162 65.6951 44.1898 65.2532C43.2176 64.8314 42.2454 64.4698 42.037 64.4698C41.4352 64.4698 41.3657 63.9878 41.7824 62.7223C42.338 61.0952 43.0556 59.9302 44.4213 58.5643C45.8565 57.0979 46.3889 55.8325 46.25 54.2255C46.0648 52.0561 44.0509 50.1478 41.6898 49.8666L40.7407 49.7461V43.6999C40.7407 37.3525 40.9722 33.6966 41.5741 30.0207C42.0602 27.1282 42.5694 26.385 44.4213 25.8828C45.3472 25.6619 45.3472 25.6619 48.7268 26.5055ZM33.7269 45.3872C34.3056 45.6885 34.8148 46.3715 35.9259 48.2798L37.3611 50.7906L36.7361 51.333C36.0185 51.9557 34.2361 54.2255 33.7731 55.0692C33.6111 55.3905 33.4259 55.6316 33.3333 55.6316C33.2407 55.6316 32.5 54.3862 31.6435 52.8596C29.4444 48.8824 29.1204 46.8737 30.5093 45.7488C31.5741 44.8851 32.5694 44.7645 33.7269 45.3872ZM67.1296 73.7902C67.1296 73.9509 65.7176 74.0312 65.6019 73.8705C65.5324 73.7902 65.8565 73.7098 66.2963 73.7098C66.7593 73.7098 67.1296 73.75 67.1296 73.7902Z" fill="#F4F4F4"/>
<path d="M52.7549 51.6142C52.1762 51.9155 48.1484 57.3189 48.1484 57.8211C48.1484 58.0621 48.2642 58.4438 48.3799 58.6447C48.5188 58.8455 50.3012 59.89 52.3845 60.9747C54.4447 62.0393 56.2734 63.0236 56.4355 63.1642C56.6901 63.3651 56.6438 63.586 56.1577 64.4297C55.8336 64.9921 55.5558 65.6952 55.5558 65.9764C55.5558 66.6393 56.5281 67.4829 57.292 67.4829C58.5883 67.4829 69.1207 65.8358 69.6068 65.5546C70.6484 64.972 70.579 64.49 68.4262 58.9058C66.3197 53.422 66.0883 53.0203 64.8614 53.0203C63.9818 53.0203 63.4494 53.3819 62.8475 54.4264C62.5234 54.9888 62.1994 55.4307 62.1299 55.4307C62.0605 55.4307 60.2549 54.5268 58.1253 53.422C54.3984 51.4937 53.5651 51.1924 52.7549 51.6142ZM58.5188 57.4796C62.4308 59.5084 62.8938 59.649 64.1207 59.1669C64.4216 59.0665 64.6299 59.408 65.1392 60.794C65.5095 61.7782 65.8568 62.662 65.9031 62.7826C65.9494 62.9031 65.2318 63.0839 64.0744 63.2446C63.0095 63.3852 61.8753 63.5459 61.5281 63.6061C60.9262 63.7066 60.9031 63.6865 61.042 63.0236C61.1114 62.6219 61.042 62.1197 60.9031 61.8987C60.7642 61.6778 58.9586 60.5931 56.8753 59.5285C54.8151 58.4639 53.0327 57.5198 52.9401 57.4394C52.6855 57.2587 54.2133 55.2299 54.4679 55.3705C54.5836 55.4307 56.3892 56.3748 58.5188 57.4796Z" fill="#F4F4F4"/>
</svg>
