<svg width="80" height="80" viewBox="0 0 80 80" fill="none" xmlns="http://www.w3.org/2000/svg">
<g clip-path="url(#clip0_258_19117)">
<path d="M0.174805 0.175049H39.9998V40H0.174805V0.175049ZM39.9998 40H79.8248V79.8251H39.9998V40ZM0.181055 40H39.9998V79.8251H0.181055V40ZM39.9998 0.175049H79.8248V40H39.9998V0.175049Z" fill="white"/>
<g filter="url(#filter0_d_258_19117)">
<path d="M0.174805 0.175049V40H39.9998V0.175049H0.174805ZM27.0998 35.6C27.0998 35.8563 26.8936 36.0563 26.6436 36.0563H14.3561C14.0998 36.0563 13.8998 35.8563 13.8998 35.6V29.8125C13.8998 29.5625 14.0998 29.3563 14.3561 29.3563H16.7311V12.4375L13.6498 13.3188L13.2498 13.2438L13.0686 12.8813V6.7938C13.0686 6.5813 13.2186 6.3938 13.4248 6.35005L23.7123 4.1438L24.0936 4.23755L24.2623 4.58755V29.3688H26.6436C26.8936 29.3688 27.0998 29.575 27.0998 29.825V35.6ZM39.9998 40V79.8251H79.8248V40H39.9998ZM73.0686 70.2501C73.0686 70.5001 72.8623 70.7001 72.6123 70.7001H67.2248V76.2313C67.2248 76.4813 67.0248 76.6813 66.7686 76.6813H59.9061C59.6561 76.6813 59.4561 76.4813 59.4561 76.2313V70.7001H46.8186C46.5686 70.7001 46.3686 70.5001 46.3686 70.2501V64.7251C46.3686 64.6563 46.4123 64.6125 46.4373 64.5563V64.4813L59.5248 44.2875C59.5373 44.2688 59.5561 44.2626 59.5748 44.2438C59.5936 44.225 59.6061 44.2126 59.6248 44.2001C59.7061 44.1313 59.7998 44.0813 59.9061 44.0813H66.7748C66.8873 44.0813 66.9811 44.1313 67.0623 44.2001C67.0873 44.2188 67.0998 44.2375 67.1123 44.2563C67.1311 44.2813 67.1623 44.2938 67.1748 44.3188L67.1686 44.3938C67.1873 44.4438 67.2248 44.475 67.2248 44.5313V64.275H72.6123C72.8623 64.275 73.0686 64.4751 73.0686 64.7251V70.2501Z" fill="#54ABA7"/>
</g>
<path d="M59.4504 64.2687V56.6687L54.5254 64.2687H59.4504Z" fill="#54ABA7"/>
<g filter="url(#filter1_d_258_19117)">
<path d="M50.7122 15.4188L51.0685 15.65L51.4747 15.5188C51.5122 15.4875 55.2122 12.0625 58.4497 12.0625C59.7497 12.0625 60.7747 12.6125 61.5685 13.7375C62.2185 14.6563 62.4122 15.675 62.1497 16.8313C60.9122 22.3688 49.9997 28.625 49.8872 28.6938C49.731 28.7875 49.6372 28.9438 49.6372 29.125V35.675C49.6372 35.95 49.856 36.175 50.1372 36.175H71.3622C71.6372 36.175 71.8622 35.95 71.8622 35.675V29.4063C71.8622 29.1313 71.6435 28.9125 71.3622 28.9125H59.1935C61.106 27.7375 64.4622 25.4188 68.2685 21.6063C70.0935 19.7875 71.2497 17.2563 71.4435 14.6625C71.656 11.8375 70.706 9.21252 68.7685 7.27502C66.2997 4.80627 63.4872 3.55627 60.406 3.55627C53.6122 3.55627 47.9497 9.56252 47.7122 9.81877C47.5622 9.98127 47.531 10.225 47.6497 10.4188L50.7122 15.4188ZM27.3122 60.0813C29.8622 58.1625 31.3935 55.775 31.6622 53.2813C31.9185 50.8688 30.9747 48.4563 28.931 46.3125C26.881 44.1625 24.106 43.0188 20.9122 43.0188C16.006 43.0188 11.4997 45.6188 10.1247 47.4875C10.006 47.65 10.006 47.8688 10.1185 48.0313L13.1622 52.4438L13.481 52.6375L13.8435 52.5375C13.8747 52.5063 17.1935 49.8 20.0122 49.8C21.306 49.8 22.2622 50.3688 22.931 51.5313C23.4935 52.5063 23.5997 53.3938 23.256 54.2313C22.3247 56.5375 18.3935 57.6938 18.3497 57.7063C18.156 57.7625 18.0185 57.95 18.0185 58.1563V62.0375C18.0185 62.25 18.1622 62.4438 18.3747 62.4875C18.4122 62.5 22.1622 63.4313 23.0122 65.575C23.3497 66.4188 23.1747 67.3688 22.506 68.4063C21.7997 69.5063 20.7247 70.0625 19.3122 70.0625C16.581 70.0625 13.2372 67.9938 11.7685 66.6813L11.406 66.5688L11.0747 66.7688L8.03722 71.175C7.91847 71.35 7.93097 71.5813 8.06847 71.7438C8.27472 71.9875 13.2622 77.7375 20.3435 77.7375L20.5185 77.7313C22.4997 77.7063 26.256 77.2688 29.1185 74.6938C31.4685 72.5813 32.5997 69.5688 32.1497 66.6438C31.706 63.8875 29.9685 61.5313 27.3122 60.0813Z" fill="#54ABA7"/>
</g>
</g>
<defs>
<filter id="filter0_d_258_19117" x="-3.8252" y="0.175049" width="87.6504" height="87.65" filterUnits="userSpaceOnUse" color-interpolation-filters="sRGB">
<feFlood flood-opacity="0" result="BackgroundImageFix"/>
<feColorMatrix in="SourceAlpha" type="matrix" values="0 0 0 0 0 0 0 0 0 0 0 0 0 0 0 0 0 0 127 0" result="hardAlpha"/>
<feOffset dy="4"/>
<feGaussianBlur stdDeviation="2"/>
<feComposite in2="hardAlpha" operator="out"/>
<feColorMatrix type="matrix" values="0 0 0 0 0 0 0 0 0 0 0 0 0 0 0 0 0 0 0.25 0"/>
<feBlend mode="normal" in2="BackgroundImageFix" result="effect1_dropShadow_258_19117"/>
<feBlend mode="normal" in="SourceGraphic" in2="effect1_dropShadow_258_19117" result="shape"/>
</filter>
<filter id="filter1_d_258_19117" x="3.95605" y="3.55627" width="71.9062" height="82.1813" filterUnits="userSpaceOnUse" color-interpolation-filters="sRGB">
<feFlood flood-opacity="0" result="BackgroundImageFix"/>
<feColorMatrix in="SourceAlpha" type="matrix" values="0 0 0 0 0 0 0 0 0 0 0 0 0 0 0 0 0 0 127 0" result="hardAlpha"/>
<feOffset dy="4"/>
<feGaussianBlur stdDeviation="2"/>
<feComposite in2="hardAlpha" operator="out"/>
<feColorMatrix type="matrix" values="0 0 0 0 0 0 0 0 0 0 0 0 0 0 0 0 0 0 0.25 0"/>
<feBlend mode="normal" in2="BackgroundImageFix" result="effect1_dropShadow_258_19117"/>
<feBlend mode="normal" in="SourceGraphic" in2="effect1_dropShadow_258_19117" result="shape"/>
</filter>
<clipPath id="clip0_258_19117">
<rect width="80" height="80" fill="white"/>
</clipPath>
</defs>
</svg>
