<svg viewBox="0 0 2041 1353" fill="none" xmlns="http://www.w3.org/2000/svg">
<g clip-path="url(#clip0_608_291)">
<path d="M178.683 1353C116.019 1353.06 60.0754 1312.78 38.8344 1252.32C-6.71828 1122.16 -46.8534 881.053 131.5 620.256C328.711 331.896 723.224 33.7884 1000.72 3.24506C1435.44 -44.5745 1476.3 448.223 1638.1 632.357C1881.35 881.866 1978.7 967.166 1994.5 1185.13C2002.71 1268.99 1943.1 1343.8 1861.35 1352.22C1745.24 1352.23 178.683 1353 178.683 1353Z" fill="#F3F5FD"/>
<path d="M1542.77 1303.55L1593.84 1296.98C1591.54 1276.08 1588.94 1250.98 1588.76 1246.86C1588.76 1247.13 1588.76 1247.34 1588.76 1247.51H1537.34C1537.35 1249.18 1537.35 1254.25 1542.77 1303.55Z" fill="#E98862"/>
<path d="M1747.67 1310.19L1799.09 1310.01C1799.09 1310.01 1798.92 1252.6 1798.92 1247.51H1747.5C1747.5 1252.61 1747.67 1310.19 1747.67 1310.19Z" fill="#E98862"/>
<path d="M1523.8 1284.32C1528.05 1167.8 1528.31 1045.42 1529.65 928.59C1547.32 802.577 1556.63 664.372 1578.46 539.249L1579.11 539.456L1581.03 525.347L1767.32 512.903L1773.87 644.491C1783.25 820.772 1801.38 1104.16 1812.35 1282.81L1722.06 1291.08C1705.94 1115.38 1682.1 835.485 1667.53 662.318C1651.54 750.554 1634.01 849.92 1619.81 939.204C1616.71 1053.26 1614.11 1172.12 1614.39 1285.99L1523.8 1284.32Z" fill="#262626"/>
<path d="M1685.16 1331.69C1683.77 1331.69 1682.41 1331.37 1681.14 1330.77C1679.88 1330.16 1678.74 1329.28 1677.8 1328.18C1676.87 1327.08 1676.15 1325.79 1675.7 1324.37C1675.25 1322.96 1675.07 1321.46 1675.18 1319.97C1675.32 1317.91 1676.02 1315.93 1677.17 1314.27C1678.32 1312.62 1679.89 1311.35 1681.69 1310.63L1741.54 1288.95C1742.7 1288.54 1743.93 1288.4 1745.14 1288.54C1746.35 1288.69 1747.53 1289.12 1748.57 1289.8C1756.8 1295.97 1766.64 1299.13 1776.65 1298.8C1784.45 1298.2 1791.94 1295.25 1798.25 1290.27C1798.81 1289.78 1799.48 1289.47 1800.2 1289.37C1800.91 1289.28 1801.63 1289.4 1802.28 1289.74C1802.93 1290.07 1803.48 1290.6 1803.86 1291.25C1804.24 1291.91 1804.44 1292.67 1804.44 1293.45V1325.1C1804.44 1326.03 1804.27 1326.96 1803.94 1327.82C1803.61 1328.68 1803.12 1329.47 1802.51 1330.12C1801.9 1330.78 1801.17 1331.3 1800.37 1331.66C1799.58 1332.01 1798.72 1332.19 1797.86 1332.19L1685.16 1331.69Z" fill="#C1D8ED"/>
<path d="M1480.12 1331.69C1478.74 1331.69 1477.37 1331.37 1476.1 1330.77C1474.84 1330.16 1473.7 1329.28 1472.76 1328.18C1471.83 1327.08 1471.11 1325.79 1470.66 1324.37C1470.21 1322.96 1470.03 1321.46 1470.13 1319.97V1319.97C1470.28 1317.91 1470.98 1315.93 1472.13 1314.27C1473.28 1312.62 1474.85 1311.35 1476.65 1310.63L1536.5 1288.95C1537.66 1288.54 1538.89 1288.4 1540.1 1288.54C1541.32 1288.69 1542.49 1289.12 1543.53 1289.8C1551.76 1295.97 1561.6 1299.13 1571.61 1298.8C1579.41 1298.2 1586.89 1295.25 1593.21 1290.27C1593.77 1289.78 1594.44 1289.47 1595.15 1289.37C1595.87 1289.28 1596.59 1289.4 1597.24 1289.74C1597.89 1290.07 1598.44 1290.6 1598.82 1291.25C1599.2 1291.91 1599.4 1292.67 1599.4 1293.45V1325.1C1599.4 1326.03 1599.23 1326.96 1598.9 1327.82C1598.57 1328.68 1598.08 1329.46 1597.47 1330.12C1596.86 1330.78 1596.13 1331.3 1595.34 1331.66C1594.54 1332.01 1593.68 1332.19 1592.82 1332.19L1480.12 1331.69Z" fill="#C1D8ED"/>
<path d="M1695.75 705.083V877.064C1695.75 883.992 1698.3 890.637 1702.83 895.536C1707.36 900.435 1713.51 903.188 1719.91 903.188H1970.41C1976.81 903.188 1982.96 900.435 1987.49 895.536C1992.02 890.637 1994.57 883.992 1994.57 877.064V705.083C1994.57 698.155 1992.02 691.511 1987.49 686.612C1982.96 681.713 1976.81 678.961 1970.41 678.961H1904.2V660.811C1904.19 654.337 1901.81 648.131 1897.58 643.553C1893.34 638.975 1887.6 636.4 1881.62 636.392H1808.7C1802.71 636.4 1796.97 638.975 1792.74 643.553C1788.51 648.131 1786.12 654.337 1786.12 660.811V678.961H1719.91C1713.51 678.961 1707.36 681.713 1702.83 686.612C1698.3 691.511 1695.75 698.155 1695.75 705.083ZM1889.51 678.961H1800.81V660.811C1800.81 658.549 1801.65 656.38 1803.12 654.78C1804.6 653.181 1806.61 652.281 1808.7 652.278H1881.62C1883.71 652.281 1885.71 653.181 1887.19 654.78C1888.67 656.38 1889.51 658.549 1889.51 660.811V678.961Z" fill="#54ABA7"/>
<path d="M1357.79 456.42C1350.69 458.218 1326.05 460.18 1325.77 467.132C1325.6 471.302 1344.3 471.438 1344.3 471.438" fill="#E98862"/>
<path d="M1343.9 507.574C1373.27 500.136 1395.13 485.089 1392.72 473.965C1390.31 462.842 1364.55 459.854 1335.18 467.292C1305.81 474.73 1283.95 489.778 1286.36 500.901C1288.77 512.025 1314.53 515.012 1343.9 507.574Z" fill="#E98862"/>
<path d="M1822.02 603.037C1822.02 610.927 1818.17 637.305 1824.36 639.19C1828.08 640.318 1832.47 620.657 1832.47 620.657" fill="#E98862"/>
<path d="M1851.28 598.896C1851.28 598.896 1872.23 623.312 1857.99 652.278C1856.01 656.294 1836.75 658.653 1836.75 653.731C1836.75 633.08 1835.27 616.881 1822.69 621.832V588.567" fill="#E98862"/>
<path d="M1485.62 397.748L1576.8 250.414L1577.34 250.803C1585.18 237.88 1598.63 229.622 1620.86 228.595C1622.4 228.515 1624.88 228.462 1628.06 228.409C1628.7 242.971 1712.1 242.918 1713.87 228.065C1737.42 228.092 1756.74 235.902 1767.93 248.002C1773.14 253.573 1777.13 260.326 1779.62 267.772L1779.92 267.629L1839.11 411.725C1840.13 414.228 1840.83 416.877 1841.17 419.591L1864.16 604.474L1811.25 612.168L1788.77 431.381L1765.44 374.6C1761.7 388.173 1759.6 402.211 1759.17 416.366C1759.17 471.994 1782.44 496.908 1780.72 525.45C1778.03 570.301 1576.43 559.71 1566.17 534.214C1555.59 507.949 1577.06 491.745 1576.11 405.802C1575.72 390.72 1574.62 375.669 1572.79 360.71L1525.11 437.757C1521.93 442.889 1517.32 446.786 1511.95 448.877L1362.68 506.861L1344.63 452.525L1485.62 397.748Z" fill="#54ABA7"/>
<path d="M1628.07 228.414C1628.7 242.977 1636.03 264.396 1658.63 266.011C1688.75 268.156 1712.11 242.924 1713.87 228.07H1713.8C1684.15 228.065 1645.36 228.118 1628.07 228.414Z" fill="#E98862"/>
<path d="M1693.1 193.704C1693.01 187.731 1693.21 181.757 1693.69 175.806C1687.12 174.482 1661.58 169.377 1654.56 167.969C1655.92 173.161 1654.69 212.423 1647.21 223.331C1645.35 227.245 1642.75 230.692 1639.57 233.445H1701.1C1697.29 226.349 1693.37 214.117 1693.1 193.704Z" fill="#E98862"/>
<path opacity="0.15" d="M1647.18 223.368L1679.68 196.484L1654.16 196.198C1653.42 205.645 1651.05 214.86 1647.18 223.368Z" fill="black"/>
<path d="M1715.88 154.19C1710.9 193.969 1675.41 202.481 1643.44 199.51C1600.61 195.713 1609.08 90.4267 1629.41 69.9709C1649.74 49.5151 1709.43 62.4701 1716.68 96.6778C1720.43 114.369 1718.46 138.09 1715.88 154.19Z" fill="#E98862"/>
<path d="M1599.46 60.1957C1599.43 46.1632 1615.65 23.3165 1658.54 54.9269C1682.06 55.3902 1695.7 56.7432 1713.01 70.7043C1751.04 98.7827 1717.99 186.873 1695.11 193.097C1692.77 194.604 1692.2 193.378 1691.39 190.564C1688.84 180.163 1687.01 169.57 1685.92 158.874C1684.52 147.754 1675.28 140.684 1676.4 127.367C1676.79 122.712 1683.72 105.656 1662.26 105.463C1615.43 108.844 1594.21 101.017 1599.46 60.1957Z" fill="#0F1011"/>
<path d="M1673.08 146.713C1671.2 167.717 1701.75 170.428 1703.06 149.361C1705.31 127.677 1672.61 126.138 1673.08 146.713Z" fill="#E98862"/>
<path d="M1679.68 95.121L1690.76 99.5055C1687.38 109.545 1693.34 202.314 1662.14 203.606C1620.25 209.214 1612.73 195.536 1614.3 159.787C1678.46 167.656 1673.66 157.722 1679.68 95.121Z" fill="#0F1011"/>
<path d="M1651.08 137.012C1651.04 138.008 1651.35 138.984 1651.96 139.734C1652.57 140.485 1653.42 140.95 1654.34 141.031C1655.26 141.112 1656.17 140.803 1656.88 140.17C1657.59 139.536 1658.05 138.628 1658.15 137.637C1658.2 136.641 1657.89 135.665 1657.28 134.915C1656.67 134.165 1655.82 133.7 1654.9 133.618C1653.98 133.537 1653.07 133.846 1652.36 134.48C1651.64 135.113 1651.19 136.021 1651.08 137.012V137.012Z" fill="#0F1011"/>
<path d="M1623.09 134.529C1623.03 135.534 1623.33 136.527 1623.94 137.291C1624.55 138.055 1625.41 138.529 1626.34 138.612C1627.27 138.694 1628.19 138.378 1628.91 137.731C1629.62 137.085 1630.07 136.16 1630.16 135.156C1630.23 134.15 1629.92 133.158 1629.31 132.394C1628.7 131.63 1627.84 131.155 1626.91 131.073C1625.98 130.991 1625.06 131.307 1624.35 131.954C1623.63 132.6 1623.18 133.525 1623.09 134.529V134.529Z" fill="#0F1011"/>
<path d="M1620.48 126.668C1620.48 126.668 1629.89 126.538 1629.9 126.541C1630.33 126.518 1630.74 126.315 1631.03 125.975C1631.33 125.635 1631.49 125.184 1631.48 124.717C1631.48 124.25 1631.31 123.804 1631 123.472C1630.7 123.14 1630.29 122.948 1629.86 122.937L1620.46 123.064C1620.03 123.085 1619.62 123.285 1619.32 123.624C1619.03 123.962 1618.86 124.411 1618.86 124.878C1618.87 125.344 1619.04 125.791 1619.34 126.125C1619.64 126.459 1620.05 126.653 1620.48 126.668V126.668Z" fill="#0F1011"/>
<path d="M1662.28 130.372C1669.03 126.829 1654.88 125.116 1653.4 124.407C1652.97 124.307 1652.53 124.392 1652.16 124.642C1651.79 124.893 1651.53 125.29 1651.42 125.748C1651.32 126.206 1651.39 126.689 1651.61 127.093C1651.84 127.498 1652.2 127.792 1652.62 127.912C1653.08 127.976 1661.8 130.406 1662.28 130.372Z" fill="#0F1011"/>
<g opacity="0.15">
<path d="M1638.87 158.604C1643.9 156.152 1632.99 154.285 1632.01 153.618L1637.06 141.463C1636.13 133.207 1629.82 153.526 1629.22 153.907C1628.07 156.589 1637.77 157.794 1638.87 158.604Z" fill="black"/>
</g>
<path d="M1652.98 167.54C1652.98 167.54 1639.88 169.033 1630.69 165.564C1630.31 177.738 1651.55 179.576 1652.98 167.54Z" fill="#F8FCFF"/>
<path d="M1078.52 88.4225H536.125V1326.45H1078.52V88.4225Z" fill="#DEE8F5"/>
<path d="M1078.53 88.4225V1326.45H389.777V88.4225H1078.53ZM1105.08 61.868H363.219V1353H1105.07V61.868H1105.08Z" fill="#DEE8F5"/>
<path d="M592.538 738.608C609.757 738.608 623.715 724.651 623.715 707.435C623.715 690.219 609.757 676.263 592.538 676.263C575.319 676.263 561.36 690.219 561.36 707.435C561.36 724.651 575.319 738.608 592.538 738.608Z" fill="white"/>
<path d="M905.761 621.586C923.152 858.882 945.477 1096.22 977.276 1332.04L1028.14 1327.33C1016.07 1089.7 994.41 852.279 967.911 615.83L905.761 621.586Z" fill="#E98862"/>
<path d="M799.973 675.484C793.042 858.999 775.561 1137.29 765.478 1323.03L816.321 1327.87C840.395 1140.75 878.258 865.888 898.895 680.923L799.973 675.484Z" fill="#E98862"/>
<path d="M882.186 1349.82C883.595 1349.82 884.989 1349.52 886.278 1348.95C887.568 1348.38 888.727 1347.55 889.682 1346.52C890.637 1345.48 891.367 1344.26 891.829 1342.92C892.29 1341.59 892.471 1340.18 892.362 1338.77V1338.77C892.21 1336.83 891.505 1334.96 890.329 1333.4C889.152 1331.84 887.555 1330.65 885.723 1329.97L824.702 1309.53C823.519 1309.14 822.266 1309.01 821.028 1309.14C819.79 1309.28 818.596 1309.69 817.529 1310.33C809.14 1316.15 799.106 1319.12 788.901 1318.81C780.951 1318.25 773.32 1315.46 766.878 1310.77C766.312 1310.31 765.626 1310.01 764.899 1309.92C764.173 1309.84 763.436 1309.96 762.775 1310.27C762.114 1310.58 761.555 1311.08 761.165 1311.7C760.774 1312.32 760.568 1313.03 760.569 1313.76V1343.6C760.569 1344.48 760.743 1345.35 761.081 1346.16C761.419 1346.98 761.913 1347.71 762.537 1348.34C763.161 1348.96 763.901 1349.45 764.716 1349.78C765.53 1350.12 766.402 1350.29 767.283 1350.28L882.186 1349.82Z" fill="#C1D8ED"/>
<path d="M1091.23 1349.82C1092.64 1349.82 1094.04 1349.52 1095.33 1348.95C1096.62 1348.38 1097.77 1347.55 1098.73 1346.52C1099.68 1345.48 1100.42 1344.26 1100.88 1342.92C1101.34 1341.59 1101.52 1340.18 1101.41 1338.77C1101.26 1336.83 1100.55 1334.96 1099.38 1333.4C1098.2 1331.84 1096.6 1330.65 1094.77 1329.97L1033.75 1309.53C1032.57 1309.14 1031.31 1309.01 1030.08 1309.14C1028.84 1309.28 1027.65 1309.69 1026.58 1310.33C1018.19 1316.15 1008.15 1319.12 997.947 1318.81C989.998 1318.25 982.368 1315.46 975.928 1310.77C975.361 1310.31 974.675 1310.01 973.948 1309.92C973.221 1309.83 972.484 1309.95 971.822 1310.27C971.161 1310.58 970.602 1311.08 970.211 1311.7C969.821 1312.32 969.614 1313.03 969.616 1313.76V1343.6C969.616 1344.48 969.79 1345.35 970.128 1346.16C970.465 1346.98 970.96 1347.71 971.584 1348.34C972.208 1348.96 972.948 1349.45 973.762 1349.78C974.577 1350.12 975.449 1350.29 976.33 1350.28L1091.23 1349.82Z" fill="#C1D8ED"/>
<path d="M798.408 577.888C798.408 577.888 770.049 704.872 770.049 811.664C770.049 918.456 737.491 1083.86 737.491 1083.86C737.491 1083.86 831.063 1064.32 892.392 1083.86C953.721 1103.39 1068.08 1068.23 1068.08 1068.23L988.351 589.6L798.408 577.888Z" fill="#262626"/>
<path d="M744.798 667.833C744.798 675.272 748.726 700.141 742.409 701.916C738.619 702.982 734.146 684.443 734.146 684.443" fill="#E98862"/>
<path d="M714.972 663.927C714.972 663.927 694.34 714.135 717.871 742.981C718.471 743.715 719.279 744.25 720.188 744.518C721.098 744.786 722.067 744.773 722.969 744.481C723.872 744.19 724.665 743.633 725.246 742.883C725.826 742.134 726.167 741.226 726.224 740.28C727.37 720.832 731.292 680.886 744.115 685.551V654.191" fill="#E98862"/>
<path d="M1178.32 399.355C1178.32 399.355 1207.78 363.483 1211.43 355.849C1224.35 328.97 1217.9 316.659 1212.52 312.725C1206.17 308.072 1176.73 347.627 1176.73 347.627C1176.73 347.627 1179.28 333.399 1173.77 332.463C1171.51 332.081 1169.71 334.302 1166.16 344.374C1162.12 355.857 1154.05 373.118 1154.05 373.118L1178.32 399.355Z" fill="#E98862"/>
<path d="M859.627 320.179C859.627 320.179 879.704 311.557 879.704 258.82L920.062 254.709C920.062 254.709 911.743 301.308 930.632 317.862L859.627 320.179Z" fill="#E98862"/>
<path d="M858.826 236.656C860.274 252.777 867.714 268.538 881.315 274.821C896.101 282.139 912.454 285.729 928.947 285.277C972.758 285.277 972.263 185.634 953.179 164.724C934.095 143.813 872.457 151.012 862.446 182.549C857.258 198.859 857.435 221.315 858.826 236.656Z" fill="#E98862"/>
<path d="M950.86 205.187C959.364 205.121 967.85 204.406 976.245 203.048C976.245 203.048 973.668 138.349 904.945 142.033C896.02 141.626 887.077 142.153 878.261 143.606C857.605 146.773 828.317 167.891 823.586 220.738C821.419 244.984 813.061 267.839 806.682 282.309C805.928 284.008 805.61 285.867 805.757 287.72C805.904 289.572 806.511 291.359 807.523 292.917C808.536 294.475 809.922 295.756 811.555 296.644C813.188 297.531 815.017 297.996 816.875 297.998L964.121 296.832C965.863 296.834 967.581 296.428 969.137 295.647C970.693 294.866 972.045 293.731 973.084 292.334C974.123 290.936 974.82 289.315 975.12 287.6C975.419 285.885 975.313 284.123 974.809 282.456C966.808 255.939 952.16 239.684 950.86 205.187Z" fill="#0F1011"/>
<path d="M1149.86 365.999L1064.62 461.873L997.965 342.57C991.654 323.718 977.286 311.093 947.976 309.837C937.952 309.408 889.042 309.338 853.231 309.338C829.174 309.338 809.423 316.719 798.016 328.122C792.271 333.784 787.973 340.744 785.483 348.416L785.139 348.288L727.832 504.086C727.191 505.833 726.731 507.641 726.457 509.482L703.328 665.282L757.175 673.27L779.893 520.253L803.037 457.332C805.448 467.003 806.766 476.914 806.964 486.879C806.964 539.299 783.246 562.809 784.994 589.722C787.74 632.02 993.282 622.026 1003.75 598C1014.54 573.223 992.653 557.956 993.611 476.912C993.714 468.091 994.395 458.865 995.334 449.469L1035.78 521.859C1037.9 525.649 1040.89 528.878 1044.51 531.275C1048.13 533.672 1052.28 535.168 1056.59 535.638C1057.57 535.746 1058.56 535.8 1059.54 535.8C1063.39 535.799 1067.19 534.984 1070.69 533.41C1074.2 531.835 1077.33 529.536 1079.89 526.664L1191.94 395.614L1149.86 365.999Z" fill="#367CFF"/>
<path d="M266.886 1262.44C266.886 1262.44 254.902 819.714 139.972 812.31C25.0412 804.907 234.213 1291.14 234.213 1291.14" fill="#DEE8F5"/>
<path d="M271.999 1232.18C271.999 1232.18 415.276 913.631 319.881 849.114C224.486 784.598 229.307 1240.42 229.307 1240.42" fill="#8DDBE0"/>
<path d="M301.982 1204.74H173.166V1353H301.982V1204.74Z" fill="#0CBC8B"/>
</g>
<defs>
<clipPath id="clip0_608_291">
<rect width="2041" height="1353" fill="white"/>
</clipPath>
</defs>
</svg>
