<svg viewBox="0 0 1997 1366" fill="none" xmlns="http://www.w3.org/2000/svg">
<g clip-path="url(#clip0_429_2057)">
<path d="M162.398 1362.05C105.452 1362.11 54.6007 1321.55 35.294 1260.68C-6.10756 1129.64 -42.5832 886.891 119.516 624.322C298.754 333.999 657.312 33.8643 909.517 3.11702C1304.62 -45.0277 1415.05 478.389 1592.33 600.189C1745.5 705.425 1967.32 863.229 1996.31 1193.05C2003.78 1277.47 1949.6 1352.79 1875.3 1361.28C1870.83 1361.78 1866.35 1362.04 1861.85 1362.04L162.398 1362.05Z" fill="#F3F5FD"/>
<path d="M182.159 1353.23C148.259 1340.88 115.37 1324.74 85.4014 1279.58C79.2516 1270.33 73.4733 1258.47 76.8434 1247.39C79.38 1239.06 86.7176 1233.71 94.1733 1232.35C96.9503 1231.88 99.765 1231.79 102.56 1232.08C102.574 1232.08 102.587 1232.09 102.593 1232.08C106.887 1232.6 111.132 1233.58 115.275 1235L116.46 1235.4C136.239 1242.01 155.08 1252.01 172.374 1265.09C173.941 1266.26 175.8 1266.78 177.649 1266.55C179.497 1266.33 181.226 1265.37 182.555 1263.85C183.884 1262.32 184.734 1260.31 184.968 1258.14C185.201 1255.97 184.804 1253.78 183.842 1251.91C182.077 1248.52 180.024 1245.35 177.714 1242.46C174.308 1238.27 170.575 1234.46 166.565 1231.09C161.237 1226.52 155.549 1222.44 149.985 1218.27C129.299 1202.78 109.701 1185.38 91.38 1166.21C78.3034 1152.52 65.5144 1137.33 59.2997 1118.08C56.443 1109.23 55.1439 1099.02 58.55 1090.44C64.1708 1076.36 80.0937 1072.41 93.1138 1075.34C115.929 1080.47 134.156 1100.13 150.318 1119.72C163.722 1136 178.739 1154.03 197.996 1155.03C201.279 1155.39 204.58 1154.61 207.491 1152.79C212.983 1148.88 214.395 1139.82 212.437 1132.63C210.479 1125.43 205.95 1119.69 201.575 1114.17C176.162 1082.11 151.147 1048.77 134.642 1009.49C118.137 970.208 110.825 923.845 122.295 882.144C125.658 869.953 130.711 858.092 138.592 849.236C146.474 840.38 157.528 834.826 168.348 836.522C183.09 838.803 194.193 853.431 201.663 868.525C227.336 920.335 225.767 983.815 232.998 1043.16C235.023 1059.78 237.962 1076.82 246.383 1090.49C247.159 1091.81 248.167 1092.91 249.337 1093.73C256.266 1098.45 262.484 1088.94 265.084 1080.87C275.353 1048.94 277.921 1012.43 296.308 986.012C303.326 975.953 313.253 967.548 324.317 967.63C337.83 967.739 349.4 981.004 353.344 996.197C357.287 1011.39 354.927 1027.89 350.703 1042.98C342.86 1070.96 328.805 1096.09 312.241 1118.18C303.512 1129.85 293.635 1141.63 291.018 1156.84C290.216 1162.01 290.551 1167.34 291.993 1172.32C293.435 1177.29 295.935 1181.75 299.256 1185.27C300.808 1186.86 302.616 1188.07 304.573 1188.82C306.529 1189.57 308.594 1189.85 310.645 1189.65C315.081 1189.17 319.093 1186.51 322.959 1183.93C324.584 1182.84 326.211 1181.74 327.849 1180.66C334.308 1176.34 340.767 1172.01 347.228 1167.68C363.651 1156.67 383.481 1145.42 400.587 1154.9C409.316 1159.75 415.036 1169.28 417.725 1180.22C420.134 1190.15 420.134 1200.67 417.725 1210.6C412.63 1231.24 380.513 1288.69 367.267 1303.51C351.8 1320.83 298.159 1395.48 182.159 1353.23Z" fill="#8DDBE0"/>
<path d="M1564.96 15.4219H501.918V920.271H1564.96V15.4219Z" fill="#DEE8F5"/>
<path d="M1564.96 15.4219H501.918V89.9585H1564.96V15.4219Z" fill="#C1D8ED"/>
<path d="M1529.36 71.3923C1538.15 71.3923 1545.27 63.0196 1545.27 52.6913C1545.27 42.363 1538.15 33.9902 1529.36 33.9902C1520.57 33.9902 1513.45 42.363 1513.45 52.6913C1513.45 63.0196 1520.57 71.3923 1529.36 71.3923Z" fill="white"/>
<path d="M725.225 200.685H584.495V366.093H725.225V200.685Z" fill="white"/>
<path d="M914.515 200.685H773.785V366.093H914.515V200.685Z" fill="white"/>
<path d="M1103.8 200.685H963.074V366.093H1103.8V200.685Z" fill="white"/>
<path d="M1293.09 200.685H1152.36V366.093H1293.09V200.685Z" fill="white"/>
<path d="M725.225 421.146H584.495V586.555H725.225V421.146Z" fill="white"/>
<path d="M914.515 421.146H773.785V586.555H914.515V421.146Z" fill="#367CFF"/>
<path d="M1103.8 421.146H963.074V586.555H1103.8V421.146Z" fill="white"/>
<path d="M1293.09 421.146H1152.36V586.555H1293.09V421.146Z" fill="white"/>
<path d="M725.225 641.606H584.495V807.015H725.225V641.606Z" fill="white"/>
<path d="M914.515 641.606H773.785V807.015H914.515V641.606Z" fill="white"/>
<path d="M1103.8 641.606H963.074V807.015H1103.8V641.606Z" fill="white"/>
<path d="M1293.09 641.606H1152.36V807.015H1293.09V641.606Z" fill="white"/>
<path d="M1482.39 200.685H1341.66V366.093H1482.39V200.685Z" fill="white"/>
<path d="M1482.39 421.146H1341.66V586.555H1482.39V421.146Z" fill="white"/>
<path d="M1482.39 641.606H1341.66V807.015H1482.39V641.606Z" fill="white"/>
<path d="M690.271 1344.24L654.578 1339.25C656.185 1323.37 658.001 1304.3 658.123 1301.17C658.123 1301.37 658.123 1301.54 658.123 1301.66H694.066C694.059 1302.93 694.059 1306.78 690.271 1344.24Z" fill="#E98862"/>
<path d="M547.051 1349.29L511.107 1349.15C511.107 1349.15 511.227 1305.53 511.227 1301.66H547.171C547.171 1305.54 547.051 1349.29 547.051 1349.29Z" fill="#E98862"/>
<path d="M703.531 1329.63C700.556 1241.1 700.377 1148.11 699.444 1059.34C687.083 963.597 680.584 858.585 665.325 763.518L664.868 763.677L663.531 752.955L533.319 743.51L528.252 843.493H528.738C522.183 977.436 509.512 1192.76 501.844 1328.5L564.949 1334.77C576.22 1201.27 592.885 988.597 603.069 857.024C614.246 924.067 626.496 999.565 636.42 1067.4C638.592 1154.07 640.409 1244.38 640.211 1330.9L703.531 1329.63Z" fill="#262626"/>
<path d="M590.746 1365.63C591.669 1365.62 592.583 1365.41 593.434 1364.99C594.285 1364.57 595.058 1363.95 595.708 1363.18C596.357 1362.41 596.872 1361.5 597.221 1360.49C597.57 1359.49 597.747 1358.41 597.743 1357.33C597.743 1357.12 597.743 1356.92 597.722 1356.72C597.619 1355.15 597.136 1353.65 596.33 1352.39C595.523 1351.13 594.428 1350.17 593.173 1349.62L551.337 1333.15C550.526 1332.84 549.667 1332.73 548.819 1332.84C547.971 1332.95 547.153 1333.28 546.421 1333.8C540.67 1338.49 533.79 1340.88 526.792 1340.64C521.343 1340.18 516.112 1337.93 511.696 1334.15C511.308 1333.78 510.837 1333.54 510.339 1333.47C509.841 1333.4 509.335 1333.5 508.882 1333.75C508.428 1334 508.045 1334.4 507.777 1334.9C507.51 1335.4 507.368 1335.98 507.369 1336.57V1360.61C507.369 1362.04 507.852 1363.41 508.712 1364.42C509.571 1365.43 510.737 1366 511.953 1366H511.972L590.746 1365.63Z" fill="#C1D8ED"/>
<path d="M734.064 1365.63C734.987 1365.62 735.901 1365.41 736.752 1364.98C737.603 1364.56 738.376 1363.95 739.026 1363.18C739.676 1362.41 740.19 1361.5 740.539 1360.49C740.888 1359.49 741.065 1358.41 741.061 1357.32C741.061 1357.12 741.061 1356.92 741.04 1356.72C740.938 1355.15 740.455 1353.65 739.648 1352.39C738.842 1351.13 737.745 1350.17 736.489 1349.62L694.655 1333.15C693.844 1332.84 692.985 1332.73 692.136 1332.84C691.288 1332.95 690.469 1333.28 689.737 1333.79C683.986 1338.48 677.107 1340.88 670.111 1340.63C664.661 1340.18 659.429 1337.93 655.013 1334.15C654.625 1333.78 654.154 1333.54 653.656 1333.47C653.157 1333.4 652.652 1333.49 652.198 1333.75C651.745 1334 651.362 1334.4 651.095 1334.9C650.827 1335.4 650.686 1335.98 650.687 1336.57V1360.61C650.687 1362.04 651.17 1363.41 652.03 1364.42C652.89 1365.43 654.055 1366 655.271 1366H655.29L734.064 1365.63Z" fill="#C1D8ED"/>
<path d="M596.711 443.989L590.85 446.302C590.85 446.302 591.615 470.733 593.781 483.161C595.946 495.59 597.633 511.784 604.362 513.562C613.291 515.924 623.942 516.795 631.68 513.544C637.532 511.086 638.431 487.734 639.002 476.201C639.257 471.077 638.703 471.523 634.347 471.873C625.433 472.594 611.569 473.147 606.465 470.264C598.689 465.878 596.711 443.989 596.711 443.989Z" fill="#0F1011"/>
<path d="M575.042 535.545C575.042 535.545 588.278 527.297 585.322 484.938L612.666 478.977C612.666 478.977 609.585 516.957 623.429 529.013L575.042 535.545Z" fill="#E98862"/>
<path d="M569.806 468.512C571.699 481.363 577.666 493.534 587.312 497.682C598.761 502.611 607.242 502.945 620.444 502.945C638.458 502.945 637.862 480.862 638.369 458.608C638.883 436.278 638.766 417.402 631.646 409.617C617.44 394.076 574.323 398.818 569.248 424.809C566.624 438.252 568.004 456.279 569.806 468.512Z" fill="#E98862"/>
<path d="M561.132 451.982C563.763 471.518 567.208 477.68 572.182 487.018C575.13 492.854 579.087 497.898 583.799 501.822C587.465 504.597 623.429 504.021 629.637 502.955C638.797 501.38 640.185 470.705 638.549 470.705C636.512 470.705 636.028 470.641 633.734 470.641C629.549 470.641 629.132 441.336 628.343 428.37C628.986 428.265 629.634 428.212 630.284 428.211C649.975 428.203 556.716 419.187 561.132 451.982Z" fill="#0F1011"/>
<path d="M624.817 471.266C622.136 471.347 619.53 470.218 617.534 468.112C615.539 466.006 614.305 463.082 614.085 459.94C613.949 458.354 614.08 456.752 614.471 455.226C614.862 453.699 615.505 452.279 616.363 451.044C617.222 449.81 618.279 448.787 619.474 448.033C620.669 447.279 621.978 446.809 623.328 446.651C623.42 446.639 623.514 446.631 623.607 446.623C623.85 455.394 624.235 464.626 624.817 471.266Z" fill="#E98862"/>
<path d="M561.132 451.982C561.132 451.982 551.9 397.104 596.516 392.032C641.132 386.96 638.45 435.99 638.45 435.99L620.748 446.604C620.748 446.604 600.988 452.975 561.132 451.982Z" fill="#262626"/>
<path d="M567.494 445.599C567.386 440.829 568.893 436.203 571.685 432.739C574.476 429.274 578.323 427.253 582.381 427.12C586.439 426.987 590.376 428.752 593.328 432.028C596.279 435.304 598.004 439.823 598.123 444.593" fill="#0F1011"/>
<path d="M620.757 446.592C620.757 446.592 635.316 440.823 643.107 435.415C651.403 429.656 662.619 419.193 662.562 416.078C662.46 410.647 646.321 409.132 633.137 409.745L633.238 409.977C635.436 415.092 636.048 420.947 634.971 426.535C633.893 432.124 631.192 437.096 627.333 440.597L620.757 446.592Z" fill="#262626"/>
<path d="M494.991 815.999C494.991 821.993 497.683 842.034 493.351 843.467C490.755 844.326 487.688 829.385 487.688 829.385" fill="#E98862"/>
<path d="M474.546 812.85C474.546 812.85 460.402 853.314 476.535 876.56C476.946 877.151 477.499 877.582 478.122 877.798C478.744 878.015 479.408 878.005 480.026 877.772C480.644 877.538 481.188 877.091 481.587 876.489C481.986 875.886 482.221 875.157 482.262 874.395C483.046 858.722 485.735 826.528 494.527 830.288V805.004" fill="#E98862"/>
<path d="M793.492 597.265C793.492 597.265 813.247 578.821 814.644 572.197C816.04 565.572 802.129 552.542 802.129 552.542C802.129 552.542 820.627 530.614 816.939 527.448C812.585 523.698 791.12 555.576 791.12 555.576C791.12 555.576 794.153 544.109 790.373 543.355C788.821 543.047 787.59 544.837 785.16 552.954C782.391 562.208 776.855 576.12 776.855 576.12L793.492 597.265Z" fill="#E98862"/>
<path d="M772.689 572.74L714.259 650.01L668.56 553.85C664.233 538.659 654.381 528.484 634.289 527.472C627.417 527.126 593.885 527.069 569.334 527.069C552.841 527.069 539.301 533.016 531.481 542.208C527.542 546.77 524.595 552.379 522.888 558.561L522.65 558.458L483.364 684.025C482.924 685.433 482.608 686.89 482.42 688.374L466.563 813.934L503.481 820.372L519.056 697.043L534.923 646.333C536.574 654.127 537.476 662.115 537.613 670.146C537.613 712.392 521.353 731.339 522.551 753.029C524.434 787.118 665.347 779.063 672.527 759.7C679.92 739.732 664.916 727.428 665.573 662.111C665.643 655.003 666.111 647.568 666.754 639.998L694.482 698.338C695.933 701.394 697.986 703.996 700.468 705.929C702.95 707.861 705.79 709.068 708.75 709.447C711.71 709.826 714.704 709.367 717.482 708.108C720.26 706.849 722.741 704.827 724.719 702.211L801.542 596.595L772.689 572.74Z" fill="#54ABA7"/>
<path d="M1658.95 1047.43L1605.06 1356.41C1604.71 1358.02 1603.92 1359.45 1602.8 1360.47C1601.68 1361.5 1600.31 1362.05 1598.89 1362.05V1362.05C1597.93 1362.05 1596.98 1361.79 1596.11 1361.3C1595.24 1360.8 1594.48 1360.07 1593.89 1359.18C1593.29 1358.28 1592.88 1357.24 1592.68 1356.13C1592.48 1355.02 1592.5 1353.87 1592.73 1352.77L1647.4 1040.23L1658.95 1047.43Z" fill="#C1D8ED"/>
<path d="M1785.58 1046.94L1839.48 1355.91C1839.82 1357.52 1840.61 1358.95 1841.73 1359.98C1842.85 1361 1844.22 1361.55 1845.64 1361.55V1361.55C1846.6 1361.55 1847.56 1361.3 1848.42 1360.8C1849.29 1360.3 1850.05 1359.58 1850.65 1358.68C1851.24 1357.79 1851.65 1356.74 1851.85 1355.63C1852.05 1354.52 1852.03 1353.37 1851.8 1352.27L1797.14 1039.73L1785.58 1046.94Z" fill="#C1D8ED"/>
<path d="M1842.23 1017.21H1602.3C1596.24 1017.21 1591.32 1022.99 1591.32 1030.12V1058.54C1591.32 1065.67 1596.24 1071.45 1602.3 1071.45H1842.23C1848.29 1071.45 1853.21 1065.67 1853.21 1058.54V1030.12C1853.21 1022.99 1848.29 1017.21 1842.23 1017.21Z" fill="#DEE8F5"/>
<path d="M1774.03 874.311C1766.86 871.551 1759.5 874.647 1752.46 880.949C1761.73 853.413 1765.56 828.544 1749.7 827.425C1738.6 826.641 1730.1 836.647 1723.64 850.874C1721.37 825.86 1715.51 807.205 1702.39 813.389C1687.97 820.179 1685.78 843.453 1687.97 867.801C1681.62 855.364 1674.79 848.43 1668.58 855.73C1650.05 877.501 1695.52 938.861 1695.52 938.861H1706.82L1713.26 947.085C1711.96 950.324 1711.24 952.255 1711.24 952.255L1719.43 971.833C1719.43 971.833 1803.8 885.765 1774.03 874.311Z" fill="#8DDBE0"/>
<path d="M1753.79 1015.67H1689.88L1679.18 927.982H1764.48L1753.79 1015.67Z" fill="#C1D8ED"/>
</g>
<defs>
<clipPath id="clip0_429_2057">
<rect width="1997" height="1366" fill="white"/>
</clipPath>
</defs>
</svg>
