<svg width="319" height="196" viewBox="0 0 319 196" fill="none" xmlns="http://www.w3.org/2000/svg">
<g clip-path="url(#clip0_6_247)">
<path d="M319 196H0C3.49545 186.346 9.95039 178.156 19.05 175.725C32.3612 172.176 46.4483 181.935 59.7308 178.266C67.2765 176.183 73.2172 170.114 79.4594 165.074C103.009 146.057 135.282 140.436 163.149 150.502C177.715 155.761 190.988 164.957 205.91 168.868C225.205 173.926 245.384 169.732 265.225 169.041C284.549 168.367 312.238 176.895 319 196Z" fill="#F3F5FD"/>
<path d="M279.491 147.406C277.953 152.453 272.645 156.938 274.23 160.65C274.833 162.061 275.439 163.536 275.717 165.043C275.898 165.942 275.928 166.869 275.806 167.779C275.234 171.71 271.838 174.32 268.681 176.353C268.486 176.478 268.289 176.606 268.092 176.733C265.1 178.675 261.966 180.911 261.005 184.495C260.471 186.486 260.707 188.615 260.486 190.674C260.276 192.567 259.683 194.385 258.748 196H238.582C236.792 193.863 236.941 190.271 238.304 187.751C239.761 185.055 242.226 183.222 244.449 181.228C246.369 179.505 248.241 177.431 248.974 174.901C249.091 174.5 249.177 174.09 249.231 173.675C249.409 172.306 249.313 165.312 251.505 161.006C254.893 154.359 260.39 155.996 262.069 152.245C262.714 150.808 263.269 133.152 273.975 136.414C275.019 136.716 275.995 137.246 276.844 137.97C277.693 138.694 278.397 139.598 278.913 140.627C279.43 141.655 279.747 142.786 279.846 143.952C279.946 145.117 279.825 146.293 279.491 147.406Z" fill="#DEE8F5"/>
<path d="M299.075 175.013C298.768 175.242 298.437 175.432 298.09 175.58C295.201 176.754 287.167 176.624 285.992 179.713C285.439 181.166 285.307 182.769 284.834 184.256C283.759 187.626 280.924 190.154 277.751 191.104C276.61 191.445 275.428 191.603 274.298 191.984C272.116 192.72 270.308 194.201 268.72 196H242.676C242.664 194.129 243.089 192.286 243.911 190.64C244.733 188.995 245.925 187.601 247.377 186.588C250.273 184.61 253.93 184.24 256.774 182.173C258.648 180.809 259.996 178.839 261.066 176.66C261.746 175.235 262.347 173.767 262.865 172.264C263.661 170.028 264.492 167.628 266.299 166.244C267.16 165.586 268.179 165.216 269.2 164.927C271.81 164.187 273.817 164.623 275.718 165.044C278.025 165.555 280.178 166.041 283.069 164.378C288.198 161.427 295.696 146.707 303.189 160.693C306.194 166.301 302.048 172.857 299.075 175.013Z" fill="#8DDBE0"/>
<path d="M40.3194 147.406C41.8576 152.453 47.1663 156.938 45.581 160.65C44.9779 162.061 44.3722 163.536 44.0934 165.043C43.9125 165.942 43.8824 166.869 44.0046 167.779C44.5765 171.71 47.9724 174.32 51.1301 176.353C51.3248 176.478 51.5219 176.606 51.7189 176.733C54.711 178.675 57.8447 180.911 58.8061 184.495C59.3396 186.486 59.1041 188.615 59.3252 190.674C59.5348 192.567 60.1281 194.385 61.0627 196H81.2284C83.0187 193.863 82.8697 190.271 81.507 187.751C80.0492 185.055 77.5849 183.222 75.362 181.228C73.4416 179.505 71.5696 177.431 70.8366 174.901C70.7202 174.5 70.6342 174.09 70.5796 173.675C70.4017 172.306 70.4979 165.312 68.3062 161.006C64.916 154.359 59.4204 155.996 57.7411 152.245C57.0969 150.808 56.5418 133.152 45.8354 136.414C44.7914 136.716 43.8152 137.246 42.9662 137.97C42.1172 138.694 41.4132 139.598 40.8971 140.627C40.3811 141.655 40.0637 142.786 39.9644 143.952C39.865 145.117 39.9858 146.293 40.3194 147.406Z" fill="#DEE8F5"/>
<path d="M20.7355 175.013C21.043 175.242 21.3736 175.432 21.7209 175.58C24.6095 176.754 32.6436 176.624 33.8187 179.714C34.3715 181.166 34.5036 182.769 34.9772 184.256C36.0514 187.626 38.8872 190.154 42.0594 191.104C43.201 191.445 44.3827 191.604 45.513 191.984C47.6951 192.72 49.5022 194.201 51.0907 196H77.1346C77.1461 194.129 76.7213 192.286 75.8996 190.641C75.0779 188.995 73.8858 187.601 72.434 186.588C69.5381 184.61 65.8802 184.24 63.0373 182.173C61.1628 180.809 59.8145 178.839 58.7451 176.66C58.0649 175.235 57.464 173.767 56.9457 172.264C56.1503 170.028 55.3187 167.628 53.5115 166.244C52.6512 165.586 51.6322 165.216 50.6108 164.927C48.001 164.187 45.9943 164.623 44.0932 165.044C41.7854 165.554 39.6329 166.04 36.7402 164.377C31.6116 161.425 24.1134 146.706 16.6203 160.691C13.6171 166.301 17.7628 172.857 20.7355 175.013Z" fill="#8DDBE0"/>
<path d="M245.334 40.1859C243.581 39.57 241.694 39.57 239.942 40.1859C238.934 40.5499 238.035 41.1987 237.337 42.0652C236.445 43.2087 235.788 44.792 235.853 46.3085C235.899 47.093 236.128 47.8521 236.519 48.5146C236.91 49.177 237.45 49.7212 238.088 50.0961C239.218 50.7237 240.919 50.8539 241.908 49.8494C242.663 49.0846 242.624 47.7709 242.138 46.8594C241.36 45.4026 239.661 44.8103 238.187 45.0131C237.346 45.1437 236.538 45.456 235.811 45.9315C235.083 46.407 234.452 47.036 233.953 47.781C233.483 48.4861 233.142 49.2825 232.95 50.1269C232.77 50.9107 232.697 51.8097 232.981 52.5759C233.033 52.7567 233.146 52.9094 233.298 53.0028C233.45 53.0963 233.629 53.1233 233.798 53.0784C234.114 52.9845 234.397 52.5562 234.262 52.1935C234.18 51.9894 234.134 51.7704 234.126 51.5479C234.114 51.2732 234.134 50.9979 234.185 50.7286C234.303 50.1063 234.518 49.5103 234.821 48.9659C235.432 47.8814 236.378 47.0657 237.491 46.663C238.556 46.2774 239.813 46.2811 240.667 47.1549C240.826 47.31 240.956 47.4967 241.05 47.7051C241.063 47.7285 241.101 47.8338 241.056 47.7097C241.076 47.766 241.094 47.8235 241.11 47.8824C241.12 47.9189 241.129 47.9564 241.137 47.993C241.148 48.0423 241.164 48.2732 241.154 48.0628C241.157 48.1203 241.203 48.4595 241.153 48.492C241.138 48.5016 241.192 48.2875 241.162 48.4133C241.157 48.4353 241.156 48.4585 241.15 48.4799C241.138 48.5411 241.122 48.6013 241.103 48.6603C241.018 48.8101 240.89 48.9258 240.738 48.9896C240.835 48.9403 240.638 49.0274 240.639 49.0269C240.598 49.0404 240.557 49.0515 240.515 49.0624C240.393 49.097 240.268 49.1179 240.143 49.1246C239.926 49.141 239.709 49.1348 239.494 49.1061C239.264 49.0617 239.039 48.9889 238.824 48.889C238.353 48.6411 237.952 48.2611 237.663 47.7887C237.374 47.3162 237.207 46.7685 237.179 46.2024C237.192 45.5586 237.326 44.9244 237.573 44.3386C237.671 44.1009 237.783 43.8701 237.908 43.6478C238.018 43.4493 238.141 43.26 238.277 43.0816C238.415 42.9045 238.563 42.7371 238.721 42.5803C238.797 42.504 238.876 42.4304 238.957 42.3595C239.115 42.2209 238.855 42.4368 239.019 42.3087C239.068 42.2697 239.118 42.2315 239.169 42.1942C239.344 42.0656 239.527 41.9484 239.715 41.8434C239.813 41.7889 239.912 41.7378 240.012 41.6892C240.033 41.6789 240.129 41.6369 240.017 41.686C240.082 41.6579 240.146 41.6309 240.211 41.6049C240.645 41.4372 241.093 41.3156 241.548 41.242C241.739 41.2092 241.41 41.2555 241.601 41.2348C241.659 41.2287 241.715 41.221 241.773 41.2151C241.887 41.2035 242.001 41.1944 242.115 41.188C242.339 41.1751 242.564 41.172 242.789 41.1786C243.005 41.1845 243.221 41.199 243.437 41.222C243.484 41.2272 243.805 41.2713 243.623 41.2427C243.723 41.2583 243.822 41.2745 243.922 41.2933C244.28 41.3595 244.633 41.4525 244.98 41.5716C245.796 41.854 246.146 40.4654 245.333 40.1841L245.334 40.1859Z" fill="#367CFF"/>
<path d="M118.479 13.7957C120.174 13.1361 121.941 14.47 122.738 16.1034C123.523 17.7134 123.34 20.0131 121.805 21.0431C121.152 21.4807 120.238 21.6275 119.669 21.0658C119.075 20.4799 119.112 19.7499 119.698 19.164C119.836 19.0306 119.985 18.9129 120.145 18.8127C120.238 18.752 120.333 18.6945 120.43 18.6417C120.465 18.6224 120.501 18.6039 120.537 18.5857C120.636 18.5363 120.394 18.6417 120.573 18.5697C120.716 18.511 120.863 18.4615 121.012 18.4216C121.083 18.4032 121.154 18.3868 121.226 18.3723C121.267 18.3639 121.308 18.3565 121.35 18.3493C121.213 18.3728 121.416 18.3427 121.426 18.3417C121.764 18.308 122.104 18.3142 122.44 18.36C122.552 18.3752 122.35 18.3442 122.463 18.3644C122.507 18.3725 122.551 18.3804 122.595 18.3891C122.673 18.4045 122.75 18.422 122.827 18.4416C123.014 18.4893 123.199 18.548 123.381 18.6175C123.433 18.6372 123.589 18.7021 123.588 18.7016C123.533 18.677 123.635 18.7248 123.634 18.7241C123.675 18.7446 123.717 18.7655 123.758 18.7872C123.932 18.8789 124.101 18.9816 124.265 19.0949C124.544 19.2863 124.797 19.5201 125.016 19.7891C125.231 20.0504 125.409 20.3447 125.545 20.6624C125.572 20.7209 125.595 20.7815 125.613 20.8437C125.654 20.9651 125.69 21.0887 125.723 21.2138C125.795 21.4818 125.85 21.7552 125.885 22.0319C126.002 23.0491 125.852 24.0813 125.453 25.0109C125.055 25.9405 124.423 26.7304 123.63 27.2905C123.314 27.5047 122.956 27.6341 122.584 27.668C122.212 27.702 121.839 27.6396 121.494 27.4859C121.398 27.436 121.307 27.3783 121.219 27.3132C121.114 27.2372 121.268 27.3665 121.208 27.3056C121.192 27.2898 121.176 27.2745 121.161 27.2577C121.141 27.2353 121.124 27.2118 121.105 27.1891C121.278 27.3964 121.125 27.2276 121.135 27.2224C121.12 27.1965 121.107 27.1697 121.095 27.142C121.132 27.2044 121.124 27.2668 121.106 27.1627C121.102 27.1381 121.065 26.9286 121.077 27.0465C121.088 27.1573 121.079 26.9765 121.079 26.9407C121.078 26.9049 121.083 26.8706 121.084 26.8354C121.084 26.8628 121.051 26.9915 121.081 26.864C121.102 26.7794 121.117 26.6947 121.142 26.6111C121.155 26.5689 121.222 26.4009 121.17 26.5223C121.205 26.4417 121.243 26.3629 121.284 26.286C121.328 26.2041 121.375 26.1249 121.426 26.0477C121.431 26.0395 121.5 25.943 121.449 26.0143C121.479 25.9736 121.51 25.9342 121.542 25.8954C121.817 25.5611 122.138 25.2751 122.495 25.0478C122.604 24.9762 122.715 24.9074 122.83 24.845C122.868 24.8238 123.047 24.7414 122.901 24.8035C123.041 24.7437 123.184 24.6928 123.329 24.6511C123.623 24.5558 123.929 24.5106 124.236 24.5171C124.409 24.5142 124.583 24.5212 124.755 24.5381C124.814 24.5394 124.872 24.5477 124.928 24.5628C125.033 24.5837 125.138 24.6072 125.241 24.6368C125.587 24.7222 125.913 24.8837 126.198 25.1114C126.724 25.5724 127.095 26.209 127.252 26.922C127.43 27.6648 127.446 28.4425 127.299 29.1933C127.162 29.936 126.862 30.6318 126.424 31.222C126.201 31.5142 125.94 31.7686 125.648 31.9766C124.934 32.4806 125.6 33.7282 126.318 33.2192C127.964 32.0561 128.847 29.8745 128.717 27.7718C128.67 26.7052 128.339 25.6761 127.763 24.8092C127.142 23.9231 126.227 23.3329 125.212 23.163C123.297 22.8228 121.249 23.6495 120.188 25.4706C119.768 26.191 119.56 27.1761 119.989 27.949C120.533 28.9296 121.848 29.2071 122.816 29.0779C124.007 28.9197 124.988 28.1404 125.734 27.1509C126.563 26.095 127.082 24.7959 127.227 23.4191C127.357 22.1378 127.132 20.8436 126.58 19.7015C126.116 18.8285 125.433 18.1159 124.61 17.6462C123.036 16.7298 120.999 16.5534 119.437 17.593C118.416 18.2731 117.615 19.4726 117.998 20.8223C118.18 21.4297 118.538 21.9573 119.019 22.3267C119.5 22.6961 120.078 22.8874 120.667 22.8724C123.195 22.826 124.788 19.9613 124.494 17.4449C124.187 14.8348 122.216 12.4966 119.761 12.2011C119.209 12.1347 118.649 12.205 118.126 12.4066C117.958 12.4615 117.817 12.584 117.73 12.7487C117.644 12.9135 117.619 13.1079 117.662 13.2917C117.71 13.4748 117.822 13.6301 117.975 13.7241C118.128 13.8181 118.309 13.8433 118.479 13.7943L118.479 13.7957Z" fill="#367CFF"/>
<path d="M192.292 33.0369C194.228 32.8399 196.047 31.9497 197.463 30.507C198.277 29.6478 198.844 28.5523 199.096 27.3522C199.41 25.8691 199.285 24.1088 198.501 22.8179C198.135 22.2416 197.653 21.7626 197.092 21.4165C196.53 21.0705 195.904 20.8664 195.259 20.8196C194.028 20.7631 192.455 21.3542 191.927 22.6681C191.505 23.7191 192.027 24.9661 192.864 25.5774C194.191 26.5472 195.923 26.3235 197.237 25.4497C197.951 24.9508 198.565 24.301 199.042 23.539C199.519 22.7771 199.849 21.9188 200.012 21.0155C200.299 19.4173 200.126 17.4346 199.01 16.2378C198.755 15.964 198.281 16.0765 198.076 16.3568C197.971 16.5083 197.924 16.6979 197.944 16.8863C197.965 17.0747 198.051 17.2473 198.186 17.3682C198.087 17.2614 198.233 17.4326 198.24 17.4422C198.268 17.481 198.295 17.5209 198.32 17.5614C198.37 17.6344 198.413 17.7131 198.447 17.796C198.555 18.0487 198.638 18.3134 198.693 18.5854C198.802 19.1636 198.825 19.7568 198.763 20.3429C198.62 21.6221 198.061 22.8043 197.186 23.6771C196.36 24.4912 195.232 25.0424 194.124 24.6624C193.901 24.595 193.694 24.4753 193.518 24.3119C193.484 24.2813 193.451 24.2495 193.419 24.2164C193.521 24.3222 193.386 24.174 193.375 24.1587C193.35 24.1258 193.327 24.0929 193.305 24.06C193.282 24.0255 193.167 23.8034 193.252 23.986C193.195 23.8626 193.17 23.7045 193.107 23.5881C193.111 23.5947 193.126 23.7565 193.113 23.609C193.102 23.5346 193.099 23.4589 193.106 23.3838C193.138 23.1457 193.094 23.4072 193.132 23.2797C193.137 23.2624 193.204 23.1107 193.164 23.1874C193.197 23.1318 193.233 23.0784 193.273 23.0275C193.288 23.0051 193.392 22.885 193.313 22.9678C193.476 22.8067 193.66 22.672 193.858 22.5677C194.257 22.3355 194.706 22.2246 195.159 22.247C195.065 22.2433 195.21 22.2536 195.231 22.2564C195.289 22.2635 195.346 22.2689 195.404 22.2781C195.52 22.2956 195.634 22.3203 195.748 22.3521C195.669 22.3296 195.782 22.3637 195.789 22.3659C195.857 22.3906 195.925 22.4152 195.991 22.4451C196.115 22.4995 196.237 22.5606 196.355 22.6284C196.783 22.8803 197.151 23.2374 197.429 23.6709C198.027 24.6577 198.013 26.042 197.781 27.1356C197.753 27.2681 197.736 27.333 197.717 27.4008C197.682 27.5192 197.644 27.6362 197.602 27.7516C197.519 27.9761 197.424 28.1945 197.315 28.4056C197.212 28.6084 197.384 28.2946 197.27 28.4898C197.247 28.5296 197.223 28.569 197.199 28.6082C197.139 28.7054 197.077 28.8006 197.012 28.8939C196.871 29.0964 196.717 29.2891 196.554 29.4709C196.524 29.5037 196.494 29.5363 196.464 29.5681C196.563 29.463 196.405 29.6256 196.384 29.6451C196.298 29.7284 196.21 29.8093 196.12 29.8876C195.925 30.0569 195.721 30.2146 195.51 30.36C195.415 30.4264 195.317 30.4883 195.219 30.5512C195.191 30.5697 195.071 30.6417 195.188 30.5724C195.134 30.6042 195.08 30.6348 195.026 30.6652C194.812 30.7839 194.593 30.8926 194.37 30.9913C193.977 31.1638 193.573 31.308 193.161 31.423C193.125 31.4334 193.004 31.4623 193.149 31.427C193.098 31.4393 193.048 31.4516 192.997 31.4635C192.899 31.4862 192.8 31.5067 192.701 31.5254C192.519 31.5599 192.335 31.587 192.151 31.6066C191.298 31.6981 191.438 33.1292 192.289 33.0374L192.292 33.0369Z" fill="#367CFF"/>
<path d="M137.39 -0.000914057L135.283 1.46674L138.492 6.87275L140.599 5.4051L137.39 -0.000914057Z" fill="#367CFF"/>
<path d="M179.03 47.2709L175.406 53.1979L177.494 54.6964L181.119 48.7694L179.03 47.2709Z" fill="#367CFF"/>
<path d="M61.6942 17.3681L58.5178 22.6346L60.6155 24.1187L63.7918 18.8522L61.6942 17.3681Z" fill="#367CFF"/>
<path d="M260.879 71.5103L258.447 72.1607L260.001 78.9825L262.434 78.3321L260.879 71.5103Z" fill="#367CFF"/>
<path d="M265.894 17.3414L263.831 18.8813L267.654 24.8879L269.716 23.3479L265.894 17.3414Z" fill="#367CFF"/>
<path d="M82.5411 44.3679L77.8569 50.3747L79.7711 52.1257L84.4553 46.119L82.5411 44.3679Z" fill="#367CFF"/>
<path d="M120.997 87.8146L116.471 92.8479L118.265 94.7414L122.792 89.7081L120.997 87.8146Z" fill="#367CFF"/>
<path d="M218.536 81.3936L216.428 82.8613L219.638 88.2673L221.745 86.7996L218.536 81.3936Z" fill="#367CFF"/>
<path d="M276.106 44.4005C276.624 40.7753 275.599 38.3186 273.967 36.8021C272.357 35.3064 266.94 33.3777 264.244 37.4734C262.484 40.1459 262.89 41.263 261.885 45.8267C260.879 50.3904 259.318 50.6418 257.056 56.0103C255.279 60.2212 261.637 63.5966 267.439 64.2967C273.24 64.9969 277.085 64.1837 277.949 60.2582C279.189 54.625 275.091 51.5048 276.106 44.4005Z" fill="#0F1011"/>
<path d="M271.329 53.9012C271.329 53.9012 269.73 52.612 270.847 47.5423L267.352 46.2217C267.352 46.2217 267.104 50.8922 265.077 52.0512L271.329 53.9012Z" fill="#E98862"/>
<g opacity="0.15">
<path d="M265.951 51.2112L269.29 49.2324L266.947 48.8157C266.756 49.6744 266.418 50.4869 265.951 51.2112Z" fill="black"/>
</g>
<path d="M273.17 45.8906C272.7 47.4071 271.706 48.7523 270.366 49.0437C268.899 49.4082 267.372 49.3784 265.918 48.9569C262.03 47.9523 264.183 38.3845 266.32 36.812C268.456 35.2395 273.774 37.3446 273.994 40.606C274.109 42.2927 273.617 44.4474 273.17 45.8906Z" fill="#E98862"/>
<path d="M267.758 43.7581C267.94 43.7581 268.088 43.598 268.088 43.4006C268.088 43.2032 267.94 43.0432 267.758 43.0432C267.575 43.0432 267.428 43.2032 267.428 43.4006C267.428 43.598 267.575 43.7581 267.758 43.7581Z" fill="#0F1011"/>
<path d="M265.217 43.1014C265.399 43.1014 265.547 42.9413 265.547 42.7439C265.547 42.5465 265.399 42.3864 265.217 42.3864C265.034 42.3864 264.886 42.5465 264.886 42.7439C264.886 42.9413 265.034 43.1014 265.217 43.1014Z" fill="#0F1011"/>
<path d="M265.648 42.0309C265.64 42.031 265.632 42.0304 265.625 42.0292L264.759 41.8972C264.739 41.8949 264.719 41.888 264.7 41.8771C264.682 41.8662 264.666 41.8514 264.653 41.8336C264.64 41.8158 264.631 41.7954 264.626 41.7737C264.62 41.7519 264.619 41.7291 264.622 41.7068C264.625 41.6845 264.632 41.663 264.642 41.6437C264.653 41.6243 264.667 41.6075 264.684 41.5943C264.701 41.581 264.72 41.5715 264.741 41.5665C264.761 41.5614 264.782 41.5608 264.802 41.5647L265.668 41.6967C265.707 41.7027 265.742 41.7244 265.766 41.7574C265.791 41.7904 265.803 41.8323 265.8 41.8746C265.798 41.9169 265.78 41.9565 265.752 41.9855C265.723 42.0145 265.686 42.0307 265.646 42.0309H265.648Z" fill="#0F1011"/>
<path d="M268.576 42.8794C268.556 42.8794 268.536 42.8751 268.517 42.8668L267.697 42.5031C267.678 42.4952 267.66 42.4831 267.645 42.4676C267.63 42.4521 267.618 42.4335 267.61 42.413C267.602 42.3924 267.598 42.3703 267.597 42.3478C267.597 42.3254 267.601 42.3032 267.609 42.2824C267.617 42.2617 267.628 42.2428 267.643 42.227C267.658 42.2112 267.675 42.1987 267.694 42.1903C267.714 42.1819 267.734 42.1778 267.755 42.1781C267.776 42.1785 267.796 42.1833 267.815 42.1923L268.635 42.5562C268.668 42.5708 268.696 42.5976 268.713 42.6319C268.73 42.6661 268.736 42.7058 268.729 42.744C268.722 42.7822 268.703 42.8166 268.675 42.8413C268.647 42.866 268.612 42.8795 268.576 42.8794H268.576Z" fill="#0F1011"/>
<path d="M267.212 46.1578C267.212 46.1578 265.989 46.0951 265.19 45.6353C265.19 45.6353 265.075 46.4955 266.016 46.7385C266.957 46.9815 267.212 46.1578 267.212 46.1578Z" fill="white"/>
<path d="M271.093 41.414C270.336 45.0253 270.184 48.7545 270.644 52.424C270.644 52.424 274.12 47.7571 275.154 43.56C276.123 39.6256 273.735 36.8105 271.959 36.0603C265.21 33.205 263.99 38.647 263.99 38.647C264.191 40.5999 271.661 42.9583 271.661 42.9583" fill="#0F1011"/>
<path d="M269.189 45.1974C269.144 45.3918 269.135 45.5941 269.163 45.7923C269.19 45.9906 269.254 46.181 269.35 46.3524C269.446 46.5238 269.573 46.6729 269.722 46.791C269.872 46.9091 270.041 46.9938 270.222 47.0403C270.402 47.0869 270.588 47.0942 270.771 47.062C270.954 47.0297 271.129 46.9585 271.286 46.8525C271.443 46.7465 271.579 46.6077 271.687 46.4443C271.794 46.2809 271.87 46.096 271.911 45.9005C271.957 45.7068 271.966 45.505 271.939 45.3073C271.911 45.1096 271.847 44.9199 271.75 44.7496C271.654 44.5792 271.526 44.4317 271.376 44.3158C271.225 44.1999 271.055 44.1179 270.875 44.0749C269.894 43.876 269.368 44.3832 269.189 45.1974Z" fill="#E98862"/>
<g opacity="0.15">
<path d="M266.049 45.1217C266.032 45.1217 266.015 45.1174 265.999 45.1093L265.251 44.7176C265.237 44.7099 265.224 44.699 265.214 44.6856C265.203 44.6722 265.196 44.6565 265.191 44.6397C265.187 44.6229 265.186 44.6053 265.189 44.5881C265.191 44.5708 265.197 44.5543 265.206 44.5397L265.898 43.3802C265.915 43.3527 265.941 43.3334 265.97 43.3265C266 43.3197 266.031 43.3258 266.056 43.3436C266.081 43.3613 266.099 43.3893 266.105 43.4213C266.112 43.4533 266.106 43.4867 266.09 43.5142L265.467 44.5565L266.099 44.8875C266.122 44.8997 266.141 44.92 266.152 44.9452C266.163 44.9704 266.166 44.9989 266.16 45.0261C266.155 45.0534 266.141 45.0776 266.12 45.095C266.1 45.1124 266.075 45.1219 266.049 45.1219L266.049 45.1217Z" fill="black"/>
</g>
<path d="M299.021 109.099L279.683 112.916C279.11 113.03 278.519 112.964 277.979 112.727C277.44 112.49 276.973 112.092 276.635 111.578L276.489 111.356L267.939 98.3582L275.569 93.5873L280.898 106.235L298.314 103.976L299.021 109.099Z" fill="#E98862"/>
<path d="M302.605 114.819C302.636 114.955 302.64 115.095 302.617 115.233C302.595 115.37 302.547 115.501 302.476 115.617C302.405 115.733 302.313 115.832 302.205 115.908C302.097 115.984 301.975 116.035 301.848 116.057C301.673 116.089 301.492 116.065 301.328 115.989C301.164 115.913 301.024 115.788 300.923 115.629L297.78 110.257C297.719 110.153 297.68 110.036 297.666 109.914C297.651 109.792 297.66 109.668 297.694 109.551C298.026 108.608 298.071 107.575 297.821 106.603C297.597 105.853 297.184 105.187 296.627 104.68C296.574 104.637 296.533 104.578 296.509 104.51C296.485 104.443 296.48 104.369 296.493 104.298C296.507 104.227 296.538 104.162 296.585 104.11C296.631 104.058 296.69 104.021 296.755 104.004L299.399 103.298C299.477 103.277 299.558 103.273 299.637 103.287C299.716 103.3 299.793 103.33 299.861 103.375C299.93 103.42 299.99 103.479 300.037 103.55C300.084 103.62 300.119 103.7 300.137 103.784L302.605 114.819Z" fill="#C1D8ED"/>
<path d="M257.023 115.056L264.031 144.324L259.441 145.784L250.729 117.086L257.023 115.056Z" fill="#E98862"/>
<path d="M254.473 150.044C254.352 150.089 254.222 150.106 254.094 150.094C253.966 150.083 253.841 150.043 253.728 149.976C253.614 149.91 253.515 149.819 253.435 149.709C253.356 149.6 253.298 149.473 253.266 149.338C253.222 149.151 253.227 148.955 253.282 148.771C253.337 148.588 253.44 148.425 253.577 148.302L258.235 144.429C258.325 144.354 258.429 144.302 258.54 144.275C258.651 144.248 258.766 144.247 258.877 144.273C259.773 144.547 260.728 144.502 261.599 144.145C262.268 143.837 262.843 143.331 263.26 142.686C263.295 142.624 263.345 142.575 263.405 142.543C263.466 142.511 263.533 142.499 263.599 142.507C263.665 142.515 263.728 142.543 263.78 142.589C263.832 142.634 263.872 142.694 263.893 142.763L264.779 145.551C264.805 145.633 264.816 145.72 264.811 145.807C264.806 145.894 264.785 145.978 264.75 146.057C264.715 146.135 264.665 146.204 264.605 146.262C264.545 146.319 264.475 146.363 264.399 146.391L254.473 150.044Z" fill="#C1D8ED"/>
<path d="M255.158 77.373C255.158 77.373 249.141 98.3688 247.496 104.362C243.775 117.919 250.729 128.042 250.729 128.042C250.729 128.042 260.136 129.495 264.814 122.745C273.465 110.259 284.537 118.949 285.012 105.111C278.714 103.824 271.65 79.0923 271.65 79.0923L255.158 77.373Z" fill="#262626"/>
<path d="M47.6279 55.9331C47.6279 55.9331 49.341 54.8291 48.7124 49.6617L52.3137 48.7378C52.3137 48.7378 52.1169 53.4113 54.022 54.7901L47.6279 55.9331Z" fill="#E98862"/>
<g opacity="0.15">
<path d="M53.2344 53.8573L50.1011 51.5166L52.4713 51.3634C52.5799 52.2389 52.8387 53.0848 53.2344 53.8573Z" fill="black"/>
</g>
<path d="M46.559 47.7598C46.8822 49.3205 47.7435 50.7696 49.0482 51.209C50.597 51.7312 51.7266 51.712 53.4814 51.6185C55.8757 51.4907 55.6737 48.7903 55.617 46.061C55.56 43.3209 55.2257 40.3965 54.236 39.4934C52.2605 37.6907 46.7711 39.1919 46.241 42.4113C45.9675 44.0763 46.2513 46.2742 46.559 47.7598Z" fill="#E98862"/>
<path d="M56.6705 40.9492C56.6705 40.9492 57.6404 40.6598 57.3236 39.615C57.1138 38.922 56.2899 39.1216 56.2899 39.1216C56.2899 39.1216 57.0696 38.9243 57.0357 38.18C57.0145 37.7112 56.6459 36.9349 55.6633 37.4423C54.5105 38.0376 53.1651 38.0408 52.136 37.9093C51.5523 37.8032 50.962 37.7448 50.3703 37.7347H50.3673C49.6886 37.7579 49.017 37.8919 48.3752 38.1321C46.5776 38.8206 43.8969 40.7397 44.6665 44.7254C45.5255 49.1737 47.5458 50.7846 48.4248 51.2877C48.4769 51.318 48.5346 51.3351 48.5936 51.3376C48.6527 51.3402 48.7115 51.3282 48.7656 51.3026C48.8198 51.2769 48.8678 51.2382 48.9061 51.1895C48.9444 51.1407 48.972 51.0832 48.9867 51.0212C49.1917 50.1681 49.5129 48.0317 49.1974 43.6787C54.7923 43.0817 56.4018 42.9053 56.4018 42.9053C56.4018 42.9053 57.7245 42.8882 57.6773 41.8445C57.6302 40.8007 56.6705 40.9492 56.6705 40.9492Z" fill="#0F1011"/>
<path d="M52.1794 46.2441C52.3617 46.2441 52.5095 46.0841 52.5095 45.8866C52.5095 45.6892 52.3617 45.5292 52.1794 45.5292C51.9971 45.5292 51.8494 45.6892 51.8494 45.8866C51.8494 46.0841 51.9971 46.2441 52.1794 46.2441Z" fill="#0F1011"/>
<path d="M54.7695 45.8745C54.9518 45.8745 55.0995 45.7145 55.0995 45.5171C55.0995 45.3197 54.9518 45.1596 54.7695 45.1596C54.5872 45.1596 54.4395 45.3197 54.4395 45.5171C54.4395 45.7145 54.5872 45.8745 54.7695 45.8745Z" fill="#0F1011"/>
<path d="M54.4247 44.7604C54.3845 44.7598 54.3461 44.7422 54.3176 44.7114C54.2891 44.6807 54.2727 44.6391 54.272 44.5955C54.2713 44.552 54.2862 44.5098 54.3136 44.4779C54.341 44.446 54.3788 44.4269 54.419 44.4247L55.2928 44.3899C55.3336 44.3887 55.3732 44.4051 55.403 44.4354C55.4327 44.4657 55.4503 44.5075 55.4518 44.5517C55.4533 44.5959 55.4386 44.6389 55.411 44.6715C55.3833 44.7041 55.345 44.7235 55.3042 44.7256L54.4304 44.7604H54.4247Z" fill="#0F1011"/>
<path d="M51.4317 45.2777C51.3945 45.2776 51.3585 45.263 51.3304 45.2365C51.3023 45.21 51.2839 45.1735 51.2787 45.1335C51.2734 45.0936 51.2815 45.053 51.3017 45.019C51.3218 44.9851 51.3525 44.9601 51.3882 44.9486L52.2392 44.6773C52.2783 44.6659 52.3201 44.6715 52.3554 44.693C52.3908 44.7146 52.417 44.7502 52.4283 44.7924C52.4397 44.8345 52.4354 44.8799 52.4163 44.9186C52.3972 44.9574 52.3649 44.9865 52.3262 44.9997L51.4754 45.2698C51.4613 45.2748 51.4466 45.2774 51.4317 45.2777Z" fill="#0F1011"/>
<path d="M50.5041 46.8518C50.531 47.0506 50.5212 47.2532 50.4751 47.4478C50.429 47.6424 50.3477 47.8252 50.2358 47.9854C50.124 48.1457 49.9838 48.2803 49.8235 48.3813C49.6631 48.4824 49.4859 48.5479 49.3019 48.5741C49.118 48.6002 48.9311 48.5865 48.7521 48.5337C48.5732 48.481 48.4056 48.3902 48.2594 48.2666C48.1131 48.1431 47.9909 47.9893 47.9 47.8142C47.8091 47.639 47.7513 47.4461 47.7298 47.2465C47.7027 47.0487 47.7125 46.847 47.7588 46.6534C47.8051 46.4598 47.8868 46.2783 47.9992 46.1196C48.1116 45.961 48.2523 45.8284 48.4129 45.7299C48.5736 45.6313 48.7509 45.5688 48.9343 45.546C49.9283 45.4589 50.4032 46.0221 50.5041 46.8518Z" fill="#E98862"/>
<g opacity="0.15">
<path d="M53.7272 47.789C53.7005 47.7888 53.6747 47.7785 53.6544 47.7598C53.634 47.7412 53.6203 47.7154 53.6157 47.6869C53.6111 47.6585 53.6159 47.6292 53.6292 47.6041C53.6424 47.5791 53.6634 47.5599 53.6884 47.5499L54.349 47.2911L53.8287 46.1849C53.8212 46.1704 53.8164 46.1544 53.8147 46.1379C53.813 46.1214 53.8144 46.1046 53.8189 46.0887C53.8233 46.0728 53.8307 46.058 53.8405 46.0452C53.8503 46.0324 53.8625 46.0219 53.8762 46.0144C53.8898 46.0068 53.9048 46.0023 53.9201 46.0012C53.9355 46.0001 53.9508 46.0023 53.9653 46.0078C53.9798 46.0132 53.9932 46.0218 54.0045 46.033C54.0159 46.0442 54.0251 46.0578 54.0315 46.0729L54.6105 47.3037C54.6179 47.3193 54.6222 47.3365 54.623 47.354C54.6239 47.3715 54.6212 47.3891 54.6153 47.4054C54.6094 47.4218 54.6003 47.4366 54.5886 47.4488C54.577 47.461 54.5631 47.4704 54.5478 47.4764L53.7663 47.7825C53.7537 47.7872 53.7405 47.7894 53.7272 47.789Z" fill="black"/>
</g>
<path d="M52.4597 48.6904C52.4597 48.6904 53.6829 48.7644 54.5211 48.3961C54.5211 48.3961 54.5539 49.2645 53.5949 49.4014C52.636 49.5383 52.4597 48.6904 52.4597 48.6904Z" fill="white"/>
<path d="M61.7111 32.3778L64.1314 31.088C64.1314 31.088 64.0916 27.3086 61.0004 25.654C59.9754 25.1055 59.3853 26.3501 59.5978 26.7113C60.3002 27.9051 61.1011 28.9861 61.2031 30.1974C60.7954 29.8629 60.213 29.4418 60.0716 29.635C59.7 30.1432 61.7111 32.3778 61.7111 32.3778Z" fill="#E98862"/>
<path d="M21.5667 109.83C21.4276 109.792 21.0039 109.677 17.0112 108.034L18.7109 103.191C20.403 103.888 22.4396 104.708 22.779 104.819C22.7573 104.812 22.7391 104.807 22.725 104.804L21.5667 109.83Z" fill="#E98862"/>
<path d="M13.582 113.693C13.5461 113.827 13.5361 113.967 13.5527 114.105C13.5692 114.244 13.6118 114.377 13.6779 114.496C13.7441 114.616 13.8322 114.719 13.9369 114.8C14.0416 114.881 14.1606 114.938 14.2865 114.967C14.4609 115.007 14.6422 114.992 14.8092 114.924C14.9761 114.856 15.1217 114.738 15.2288 114.584L18.5928 109.372C18.6576 109.271 18.7014 109.156 18.7213 109.035C18.7413 108.914 18.7368 108.789 18.7083 108.67C18.4153 107.712 18.414 106.678 18.7044 105.719C18.9591 104.982 19.4 104.336 19.977 103.857C20.0322 103.816 20.0756 103.76 20.1022 103.693C20.1287 103.627 20.1372 103.554 20.1268 103.482C20.1164 103.411 20.0874 103.344 20.0432 103.289C19.9991 103.235 19.9416 103.196 19.8775 103.175L17.2653 102.341C17.1883 102.316 17.1075 102.308 17.0277 102.318C16.9478 102.327 16.8704 102.353 16.8 102.395C16.7295 102.437 16.6674 102.493 16.6171 102.561C16.5669 102.629 16.5295 102.707 16.5071 102.79L13.582 113.693Z" fill="#C1D8ED"/>
<path d="M41.1248 126.108L40.3103 121.003C42.0945 120.669 44.2331 120.252 44.5772 120.16C44.5545 120.166 44.5374 120.172 44.5235 120.176L45.8885 125.142C45.7512 125.186 45.333 125.321 41.1248 126.108Z" fill="#E98862"/>
<path d="M40.8338 132.871C40.8659 133.006 40.9234 133.132 41.0025 133.242C41.0817 133.352 41.181 133.442 41.2941 133.509C41.4072 133.575 41.5317 133.616 41.6599 133.628C41.788 133.64 41.9171 133.623 42.039 133.578C42.2079 133.517 42.3571 133.404 42.4689 133.253C42.5807 133.103 42.6504 132.921 42.6699 132.729L43.1146 126.389C43.1228 126.266 43.1065 126.143 43.0666 126.028C43.0268 125.912 42.9644 125.808 42.8838 125.721C42.1819 125.058 41.6949 124.169 41.4944 123.183C41.3667 122.408 41.4428 121.61 41.714 120.879C41.7424 120.814 41.7531 120.741 41.7447 120.669C41.7363 120.597 41.7092 120.529 41.6666 120.474C41.624 120.418 41.5676 120.376 41.5041 120.354C41.4405 120.332 41.3724 120.329 41.3076 120.347L38.6681 121.069C38.5903 121.091 38.517 121.128 38.4527 121.18C38.3883 121.232 38.3341 121.298 38.293 121.372C38.252 121.447 38.2251 121.53 38.2137 121.616C38.2023 121.702 38.2067 121.79 38.2267 121.874L40.8338 132.871Z" fill="#C1D8ED"/>
<path d="M67.014 116.721L66.9912 116.512C66.3923 111.121 63.0573 84.8412 62.6634 82.0634H45.4183C45.4183 82.0634 38.708 105.817 38.4484 106.475L21.9622 102.668L19.8931 111.517L40.1902 117.982C41.2674 118.325 42.4216 118.247 43.4511 117.762C44.4807 117.276 45.3203 116.415 45.8233 115.328C45.8233 115.328 53.1921 94.9404 53.3399 94.5649L57.889 114.039L42.5 118.783L44.8072 127.562L63.9877 121.649C64.9509 121.352 65.7847 120.692 66.3393 119.789C66.8939 118.886 67.1331 117.798 67.014 116.721Z" fill="#262626"/>
<path d="M29.802 36.8584L27.2217 37.7102C27.2217 37.7102 25.0408 34.4062 26.251 30.9092C26.6521 29.7497 27.8682 30.2206 27.942 30.6415C28.1832 32.0326 28.1048 33.9325 28.7957 34.8914C28.882 34.3452 29.0408 33.6066 29.266 33.6426C29.8582 33.7378 29.802 36.8584 29.802 36.8584Z" fill="#E98862"/>
<path d="M257.318 27.0032L254.788 25.9895C254.788 25.9895 254.469 22.2258 257.387 20.2359C258.354 19.5762 259.06 20.7486 258.883 21.1317C258.297 22.397 257.603 23.5617 257.617 24.7779C257.991 24.3997 258.53 23.9159 258.689 24.0923C259.107 24.5564 257.318 27.0032 257.318 27.0032Z" fill="#E98862"/>
<path d="M288.015 34.4513L290.707 34.6311C290.707 34.6311 292.119 30.869 290.193 27.7716C289.555 26.7453 288.472 27.5089 288.491 27.9367C288.555 29.3505 289.038 31.1786 288.572 32.2853C288.371 31.7756 288.058 31.0972 287.847 31.1889C287.291 31.4297 288.015 34.4513 288.015 34.4513Z" fill="#E98862"/>
<path d="M292.29 33.8617L289.495 49.7443C289.428 50.1246 289.286 50.4847 289.079 50.8002C288.872 51.1157 288.604 51.379 288.294 51.5721L277.687 58.1913C277.824 62.1333 274.209 66.6307 273.548 70.7385C272.728 75.8452 274.493 78.5343 273.917 81.1246C273.008 85.1979 254.688 80.7447 254.123 78.2259C253.54 75.6333 255.747 74.5155 256.927 66.609C257.49 62.8443 257.182 58.1397 258.096 54.8907L249.586 43.1724C249.336 42.8273 249.168 42.4213 249.095 41.9896C249.023 41.558 249.049 41.1137 249.172 40.6955L253.907 24.5613L258.64 26.1895L254.303 40.9669L261.67 51.1112C262.323 51.0115 262.987 51.0132 263.64 51.1162C263.781 51.1359 264.009 51.1729 264.303 51.2223C264.148 52.5717 271.79 54.0075 272.172 52.6729C273.143 52.8444 274.082 53.1887 274.949 53.6917L284.83 47.5267L287.411 32.8554L292.29 33.8617Z" fill="#54ABA7"/>
<path d="M179.456 173.129C162.35 164.813 160.731 131.232 161.532 128.042C161.828 126.862 161.307 126.556 160.534 126.638C159.501 126.508 157.585 127.559 156.962 127.921C156.338 127.558 154.422 126.507 153.39 126.638C152.615 126.556 152.095 126.862 152.391 128.042C153.192 131.232 151.573 164.813 134.468 173.129C130.874 174.876 132.111 176.957 132.111 176.957H181.812C181.812 176.957 183.05 174.876 179.456 173.129Z" fill="#367CFF"/>
<g opacity="0.09">
<path d="M181.811 176.959H178.622C178.622 176.959 179.861 174.876 176.267 173.13C159.161 164.814 159.819 131.233 160.621 128.043C160.853 127.115 160.58 126.728 160.074 126.644C160.226 126.624 160.379 126.623 160.532 126.639C161.306 126.558 161.828 126.864 161.532 128.043C160.73 131.233 162.349 164.814 179.455 173.13C183.051 174.876 181.811 176.959 181.811 176.959Z" fill="black"/>
</g>
<path d="M225.318 86.6041C220.337 94.9944 214.31 97.3381 207.584 99.4055C200.972 101.438 195.261 103.192 191.646 109.782C190.762 111.346 190.107 113.05 189.706 114.832V114.837C189.613 115.263 189.54 115.693 189.488 116.127C189.428 116.695 189.242 117.239 188.946 117.712C188.694 118.112 188.352 118.435 187.952 118.652C187.553 118.868 187.109 118.97 186.662 118.949C185.319 118.949 184.533 118.36 184.077 117.628C183.67 116.954 183.505 116.142 183.613 115.345C183.634 115.174 183.658 115.003 183.683 114.832C184.145 111.884 185.12 109.059 186.556 106.506C191.373 97.7205 199.127 95.3374 205.966 93.233C212.24 91.3063 216.567 89.4856 220.337 83.1355C222.212 79.9728 224.209 72.7124 221.82 66.9421C219.959 62.4521 216.914 59.8198 212.77 59.1142C201.459 57.19 196.145 69.1254 195.924 69.6336C195.584 70.3883 194.985 70.9688 194.255 71.2503C193.525 71.5319 192.722 71.492 192.018 71.1393C191.315 70.7866 190.767 70.1492 190.493 69.364C190.218 68.5788 190.239 67.7083 190.551 66.9396C191.939 63.9407 193.796 61.2248 196.04 58.912C201.022 53.7806 207.126 51.6614 213.688 52.779C219.761 53.8102 224.567 57.9079 227.223 64.3172C230.25 71.6245 228.523 81.2063 225.318 86.6041Z" fill="#367CFF"/>
<path d="M88.6154 86.6041C93.5969 94.9944 100.079 97.3381 106.806 99.4055C113.418 101.438 119.128 103.192 122.743 109.782C123.628 111.346 124.282 113.05 124.684 114.832V114.837C124.777 115.262 124.85 115.693 124.901 116.127C124.962 116.695 125.148 117.239 125.443 117.712C125.695 118.112 126.037 118.435 126.437 118.652C126.836 118.868 127.28 118.97 127.727 118.949C129.071 118.949 129.856 118.36 130.313 117.628C130.72 116.954 130.885 116.141 130.776 115.345C130.755 115.174 130.732 115.003 130.706 114.832C130.244 111.884 129.269 109.059 127.834 106.506C123.016 97.7205 115.263 95.3374 108.423 93.233C102.15 91.3063 97.3666 89.4856 93.5969 83.1355C91.7223 79.9728 90.1803 72.7124 92.5696 66.9421C94.4305 62.4521 97.4759 59.8198 101.619 59.1142C112.93 57.19 118.244 69.1254 118.465 69.6336C118.805 70.3883 119.404 70.9688 120.134 71.2503C120.865 71.5319 121.668 71.492 122.371 71.1393C123.075 70.7866 123.622 70.1492 123.897 69.364C124.171 68.5788 124.15 67.7083 123.839 66.9396C122.45 63.9407 120.593 61.2248 118.349 58.912C113.368 53.7806 107.263 51.6614 100.701 52.779C94.6287 53.8102 89.8226 57.9079 87.1668 64.3172C84.1403 71.6245 85.4106 81.2063 88.6154 86.6041Z" fill="#367CFF"/>
<path d="M194.857 48.9117C194.741 47.8039 194.252 46.7813 193.483 46.039C192.715 45.2968 191.722 44.8867 190.692 44.887H123.637C122.607 44.8867 121.614 45.2968 120.845 46.039C120.077 46.7813 119.588 47.8039 119.471 48.9117C118.393 59.2379 116.465 86.9283 124.663 102.207C134.873 121.237 150.37 128.042 153.708 128.042H160.62C163.958 128.042 179.455 121.237 189.665 102.207C197.864 86.9288 195.936 59.2379 194.857 48.9117Z" fill="#367CFF"/>
<g opacity="0.09">
<path d="M194.857 48.9117C194.741 47.8039 194.252 46.7813 193.483 46.039C192.715 45.2968 191.722 44.8867 190.692 44.887H177.26C177.26 44.887 179.544 82.862 175.269 101.892C170.994 120.922 160.502 128.042 160.621 128.042C163.959 128.042 179.456 121.237 189.666 102.207C197.864 86.9288 195.936 59.2379 194.857 48.9117Z" fill="black"/>
</g>
<path d="M181.812 176.957H132.133V189.815H181.812V176.957Z" fill="#0F1011"/>
<path d="M184.839 189.815H129.106V192.907H184.839V189.815Z" fill="#0F1011"/>
<path d="M187.703 192.908H126.242V196H187.703V192.908Z" fill="#0F1011"/>
<path d="M167.543 93.4619L157.126 87.5285L146.701 93.4619L148.696 80.9004L140.265 72.0011L151.913 70.1721L157.126 58.7405L162.326 70.1721L173.978 72.0011L165.548 80.9004L167.543 93.4619Z" fill="white"/>
<path d="M70.3979 43.6565L64.8808 29.5898L60.3098 31.693L65.2227 44.2192L57.5922 53.8031C56.9427 53.672 56.2794 53.6411 55.6219 53.7113C55.4807 53.7236 55.2529 53.7508 54.9568 53.7853C54.7926 53.8053 54.6026 53.8292 54.3992 53.8549L54.1184 52.2417L46.6198 53.3368L46.8268 54.8851C45.2203 55.1449 43.8869 55.7685 42.9635 56.6036L32.2722 50.3492L30.5335 35.7236L25.6077 36.4106L27.5089 52.404C27.5593 52.8273 27.702 53.2314 27.9251 53.5832C28.1482 53.9349 28.4453 54.2241 28.792 54.427L41.3684 61.7828C41.8948 65.3208 44.4853 69.2734 44.9046 72.8304C45.5105 77.9716 43.6359 80.5718 44.1028 83.1869C44.8408 87.2991 63.3271 83.7494 63.9968 81.2626C64.6869 78.6969 62.5299 77.4755 61.6803 69.5172C61.2755 65.7303 61.7801 61.0445 61.0031 57.7547L69.9927 46.4644C70.2957 46.0841 70.4942 45.6195 70.5658 45.1232C70.6375 44.6269 70.5793 44.1188 70.3979 43.6565Z" fill="#54ABA7"/>
<path d="M272.173 52.6726C271.79 54.0073 269.278 55.9168 266.549 55.1989C264.503 54.6635 264.148 52.5715 264.303 51.222C265.891 51.4934 269.446 52.157 272.166 52.6702C272.167 52.67 272.168 52.6702 272.169 52.6706C272.171 52.671 272.172 52.6717 272.173 52.6726Z" fill="#E98862"/>
</g>
<defs>
<clipPath id="clip0_6_247">
<rect width="319" height="196" fill="white"/>
</clipPath>
</defs>
</svg>
