<svg width="265" height="175" viewBox="0 0 265 175" fill="none" xmlns="http://www.w3.org/2000/svg">
<g clip-path="url(#clip0_234_1930)">
<path d="M24.2809 175C11.5047 175 -0.569347 165.142 0.02104 152.392C2.32925 102.503 34.7489 111.156 77.117 63.3036C132.66 0.571011 176.869 45.0011 201.254 79.1902C215.808 99.5957 254.243 106.708 264.006 145.115C268.392 162.371 257.619 175 244.845 175H24.2809Z" fill="#F3F5FD"/>
<path d="M256.138 150.531H204.073C201.218 142.821 209.798 139.019 212.526 144.015C210.899 141.035 210.467 137.257 213.846 134.826C217.388 132.898 221.652 135.102 222.305 138.588C221.437 133.946 225.573 129.319 230.177 128.267C241.992 125.569 244.627 137.66 243.556 139.561C246.677 134.022 259.581 140.859 256.138 150.531Z" fill="#D7E8F4"/>
<path d="M33.7404 149.247C29.7312 148.005 25.8415 146.383 22.2972 141.843C21.5698 140.912 20.8862 139.721 21.2845 138.607C21.5846 137.769 22.4525 137.232 23.3342 137.095C23.6624 137.047 23.9952 137.038 24.3256 137.068C24.3256 137.068 24.329 137.068 24.3296 137.068C24.8377 137.12 25.34 137.218 25.8301 137.362L25.9702 137.402C28.3096 138.066 30.5381 139.072 32.5836 140.386C32.7689 140.504 32.989 140.556 33.2078 140.534C33.4266 140.511 33.6314 140.415 33.7887 140.262C33.946 140.108 34.0466 139.906 34.0741 139.688C34.1016 139.47 34.0544 139.249 33.9402 139.061C33.7314 138.721 33.4886 138.402 33.2155 138.111C32.8124 137.69 32.371 137.308 31.897 136.968C31.2664 136.509 30.594 136.099 29.9358 135.68C27.4892 134.123 25.1713 132.373 23.0044 130.447C21.4577 129.07 19.9451 127.542 19.2099 125.607C18.8723 124.718 18.7188 123.692 19.1215 122.829C19.7865 121.413 21.6693 121.017 23.2093 121.312C25.9077 121.828 28.0637 123.804 29.9753 125.774C31.5618 127.411 33.3367 129.223 35.6145 129.324C36.0027 129.36 36.3931 129.282 36.7372 129.098C37.387 128.706 37.5538 127.794 37.3225 127.071C37.0341 126.367 36.5957 125.734 36.0378 125.217C33.0315 121.994 30.0728 118.643 28.1207 114.695C26.1686 110.747 25.3038 106.086 26.6605 101.894C27.0205 100.649 27.6826 99.5129 28.5879 98.5855C29.0443 98.127 29.5964 97.7747 30.2047 97.5538C30.813 97.3329 31.4627 97.2488 32.1073 97.3074C33.8511 97.5368 35.1639 99.0071 36.0476 100.525C39.0856 105.733 38.8986 112.115 39.7536 118.081C39.9933 119.751 40.3416 121.464 41.3368 122.839C41.4286 122.971 41.5477 123.082 41.6861 123.165C42.5057 123.639 43.2409 122.683 43.5491 121.872C44.7643 118.662 45.0681 114.992 47.242 112.336C48.0717 111.324 49.2464 110.481 50.5548 110.488C52.1531 110.499 53.5215 111.832 53.9877 113.36C54.4539 114.888 54.1751 116.546 53.6755 118.063C52.7479 120.875 51.0854 123.401 49.1266 125.623C48.0933 126.795 46.9257 127.98 46.6158 129.51C46.5211 130.029 46.561 130.565 46.7315 131.065C46.9021 131.565 47.1977 132.014 47.5903 132.368C47.7739 132.528 47.9877 132.649 48.2191 132.724C48.4504 132.8 48.6946 132.828 48.9372 132.808C49.458 132.722 49.9545 132.525 50.3937 132.233C50.5858 132.123 50.7786 132.013 50.9723 131.904C51.7359 131.47 52.4998 131.035 53.264 130.599C55.2063 129.492 57.551 128.361 59.5763 129.314C60.0763 129.569 60.5159 129.929 60.8652 130.368C61.2146 130.807 61.4657 131.316 61.6016 131.86C61.8864 132.857 61.8864 133.915 61.6016 134.913C60.9988 136.988 57.2002 142.764 55.6336 144.254C53.8044 145.989 47.4604 153.494 33.7404 149.247Z" fill="#8DDBE0"/>
<path d="M212.627 149.247C216.636 148.005 220.526 146.383 224.07 141.843C224.798 140.912 225.481 139.721 225.083 138.607C224.783 137.769 223.915 137.233 223.033 137.095C222.705 137.047 222.372 137.038 222.042 137.068C222.042 137.068 222.038 137.068 222.038 137.068C221.53 137.12 221.027 137.218 220.537 137.362L220.397 137.402C218.058 138.066 215.829 139.072 213.784 140.386C213.598 140.504 213.378 140.556 213.16 140.533C212.941 140.51 212.737 140.414 212.579 140.261C212.422 140.107 212.322 139.905 212.294 139.687C212.266 139.47 212.313 139.249 212.427 139.061C212.636 138.721 212.879 138.402 213.152 138.111C213.555 137.69 213.996 137.308 214.471 136.968C215.101 136.509 215.774 136.099 216.432 135.68C218.878 134.123 221.196 132.373 223.363 130.447C224.91 129.07 226.422 127.543 227.157 125.608C227.495 124.718 227.649 123.692 227.246 122.829C226.581 121.413 224.698 121.017 223.158 121.312C220.46 121.828 218.304 123.804 216.392 125.774C214.806 127.411 213.031 129.223 210.753 129.324C210.365 129.36 209.975 129.282 209.63 129.099C208.981 128.706 208.814 127.794 209.045 127.071C209.333 126.367 209.772 125.734 210.33 125.217C213.336 121.994 216.294 118.643 218.247 114.695C220.199 110.747 221.063 106.086 219.707 101.894C219.347 100.649 218.685 99.513 217.779 98.5856C217.323 98.127 216.771 97.7747 216.163 97.5538C215.554 97.3328 214.905 97.2487 214.26 97.3075C212.517 97.5368 211.203 99.0071 210.32 100.525C207.282 105.733 207.469 112.115 206.614 118.081C206.374 119.751 206.026 121.464 205.031 122.839C204.939 122.971 204.82 123.082 204.681 123.165C203.862 123.639 203.126 122.683 202.819 121.872C201.603 118.662 201.3 114.992 199.125 112.336C198.296 111.324 197.121 110.481 195.813 110.488C194.215 110.499 192.846 111.832 192.38 113.36C191.913 114.888 192.192 116.546 192.692 118.063C193.619 120.875 195.282 123.401 197.241 125.623C198.274 126.795 199.442 127.98 199.752 129.51C199.846 130.029 199.807 130.565 199.636 131.065C199.466 131.566 199.17 132.014 198.777 132.368C198.594 132.528 198.38 132.649 198.148 132.724C197.917 132.8 197.673 132.829 197.43 132.808C196.909 132.722 196.413 132.525 195.974 132.233C195.782 132.123 195.589 132.013 195.395 131.904C194.631 131.47 193.867 131.035 193.103 130.599C191.161 129.492 188.816 128.361 186.791 129.314C186.291 129.57 185.852 129.929 185.502 130.368C185.153 130.807 184.902 131.316 184.766 131.86C184.481 132.858 184.481 133.915 184.766 134.913C185.368 136.988 189.167 142.764 190.734 144.254C192.564 145.989 198.909 153.494 212.627 149.247Z" fill="#8DDBE0"/>
<path d="M84.4765 68.4465H77.8381V111.376H84.4765V68.4465Z" fill="#C1D8ED"/>
<path d="M84.4766 68.4465H79.7231V111.376H84.4766V68.4465Z" fill="#D7E8F4"/>
<path d="M145.993 68.4465H139.354V111.376H145.993V68.4465Z" fill="#C1D8ED"/>
<path d="M145.993 68.4465H141.24V111.376H145.993V68.4465Z" fill="#D7E8F4"/>
<path d="M75.0185 111.376H68.3801V150.531H75.0185V111.376Z" fill="#C1D8ED"/>
<path d="M75.0189 111.376H70.2654V150.531H75.0189V111.376Z" fill="#D7E8F4"/>
<path d="M155.385 111.376H148.747V150.531H155.385V111.376Z" fill="#C1D8ED"/>
<path d="M155.385 111.376H150.632V150.531H155.385V111.376Z" fill="#D7E8F4"/>
<path d="M96.8764 111.376H90.238V150.531H96.8764V111.376Z" fill="#C1D8ED"/>
<path d="M96.8765 111.376H92.123V150.531H96.8765V111.376Z" fill="#D7E8F4"/>
<path d="M175.358 111.376H168.719V150.531H175.358V111.376Z" fill="#C1D8ED"/>
<path d="M175.358 111.376H170.604V150.531H175.358V111.376Z" fill="#D7E8F4"/>
<path d="M156.41 71.1045H65.5366V77.2944H156.41V71.1045Z" fill="#C1D8ED"/>
<path d="M156.41 83.7087H65.5366V89.8986H156.41V83.7087Z" fill="#C1D8ED"/>
<path d="M156.41 96.3132H65.5366V102.503H156.41V96.3132Z" fill="#C1D8ED"/>
<path d="M158.295 71.1045H67.4216V77.2944H158.295V71.1045Z" fill="#D7E8F4"/>
<path d="M158.295 83.7087H67.4216V89.8986H158.295V83.7087Z" fill="#D7E8F4"/>
<path d="M158.295 96.3132H67.4216V102.503H158.295V96.3132Z" fill="#D7E8F4"/>
<path d="M88.6974 109.276H65.5366V113.476H88.6974V109.276Z" fill="#C1D8ED"/>
<path d="M178.718 109.276H88.6975V113.476H178.718V109.276Z" fill="#D7E8F4"/>
<path d="M136.68 10.0268C137.235 5.04322 139.581 2.19834 142.457 0.829859C145.295 -0.519063 153.733 -0.96994 156.126 5.47757C157.687 9.68452 156.708 11.0014 156.513 17.4118C156.319 23.8222 158.462 24.7584 159.781 32.7174C160.815 38.9608 150.515 40.9549 141.965 39.6336C133.415 38.3123 128.207 35.7524 128.374 30.2384C128.614 22.3246 135.591 19.7954 136.68 10.0268Z" fill="#0F1011"/>
<path d="M140.115 24.4112C140.115 24.4112 142.864 23.3286 143.08 16.2073L148.55 15.8162C148.55 15.8162 147.236 22.0752 149.721 24.3886L140.115 24.4112Z" fill="#E98862"/>
<g opacity="0.15">
<path d="M148.771 22.9431L144.703 19.04L148.204 19.3968C148.17 20.6039 148.363 21.8067 148.771 22.9431Z" fill="black"/>
</g>
<path d="M140.347 13.1289C140.477 15.3118 141.418 17.4704 143.231 18.3745C145.199 19.4231 147.394 19.9746 149.625 19.9808C155.546 20.1598 155.886 6.70233 153.393 3.8008C150.899 0.899267 142.54 1.61858 141.058 5.83733C140.291 8.01888 140.223 11.0516 140.347 13.1289Z" fill="#E98862"/>
<path d="M148.98 12.4265C149.25 12.4265 149.469 12.2077 149.469 11.9379C149.469 11.668 149.25 11.4492 148.98 11.4492C148.71 11.4492 148.491 11.668 148.491 11.9379C148.491 12.2077 148.71 12.4265 148.98 12.4265Z" fill="#0F1011"/>
<path d="M152.85 12.5437C153.12 12.5437 153.339 12.3249 153.339 12.0551C153.339 11.7852 153.12 11.5664 152.85 11.5664C152.58 11.5664 152.361 11.7852 152.361 12.0551C152.361 12.3249 152.58 12.5437 152.85 12.5437Z" fill="#0F1011"/>
<path d="M153.834 11.1161C153.825 11.1161 153.815 11.1155 153.806 11.1144L152.52 10.9536C152.459 10.946 152.404 10.9147 152.367 10.8665C152.33 10.8184 152.313 10.7574 152.32 10.6969C152.328 10.6365 152.359 10.5815 152.408 10.5441C152.456 10.5068 152.517 10.49 152.577 10.4976L153.863 10.6588C153.92 10.6665 153.973 10.6957 154.01 10.7406C154.047 10.7855 154.065 10.8427 154.062 10.9007C154.058 10.9587 154.033 11.0131 153.99 11.0531C153.948 11.0931 153.892 11.1156 153.834 11.1161Z" fill="#0F1011"/>
<path d="M148.055 10.9417C147.997 10.9418 147.94 10.9195 147.898 10.8794C147.855 10.8394 147.829 10.7845 147.826 10.7261C147.822 10.6677 147.841 10.6101 147.878 10.5652C147.916 10.5202 147.969 10.4912 148.027 10.4841L149.331 10.3216C149.392 10.3153 149.452 10.3326 149.5 10.3698C149.547 10.407 149.579 10.4613 149.587 10.5212C149.595 10.5816 149.578 10.6424 149.541 10.6904C149.503 10.7384 149.448 10.7696 149.388 10.7772L148.084 10.9401C148.074 10.9411 148.065 10.9417 148.055 10.9417Z" fill="#0F1011"/>
<path d="M148.774 15.7874C148.774 15.7874 150.547 16.1782 151.854 15.8804C151.854 15.8804 151.711 17.0607 150.278 17.0166C148.845 16.9724 148.774 15.7874 148.774 15.7874Z" fill="white"/>
<path d="M144.919 8.02613C143.614 17.6709 142.225 21.3083 142.225 21.3083C142.225 21.3083 138.321 15.2243 138.343 9.28703C138.365 3.72104 142.787 0.930124 145.596 0.625942C156.272 -0.529746 156.07 7.12269 156.07 7.12269C155.085 9.62156 143.557 9.84346 143.557 9.84346" fill="#0F1011"/>
<path d="M146.29 13.755C146.269 14.3012 146.033 14.8171 145.633 15.1902C145.233 15.5634 144.702 15.7634 144.155 15.7469C143.608 15.7303 143.09 15.4985 142.713 15.1019C142.337 14.7053 142.132 14.176 142.145 13.6295C142.148 13.3562 142.207 13.0864 142.317 12.8362C142.427 12.586 142.587 12.3605 142.786 12.1732C142.985 11.9859 143.22 11.8405 143.477 11.7457C143.734 11.651 144.007 11.6088 144.28 11.6216C145.754 11.739 146.324 12.6124 146.29 13.755Z" fill="#E98862"/>
<g opacity="0.15">
<path d="M150.832 14.8735C150.792 14.8687 150.755 14.8498 150.728 14.8201C150.701 14.7903 150.685 14.7519 150.684 14.7116C150.682 14.6713 150.696 14.6319 150.721 14.6005C150.746 14.5691 150.782 14.5477 150.821 14.5404L151.844 14.3485L151.327 12.7321C151.316 12.6905 151.322 12.6464 151.343 12.6089C151.364 12.5715 151.399 12.5434 151.44 12.5305C151.481 12.5176 151.525 12.5208 151.564 12.5395C151.603 12.5581 151.633 12.5909 151.648 12.631L152.225 14.4287C152.232 14.4515 152.234 14.4756 152.232 14.4993C152.229 14.5231 152.221 14.546 152.209 14.5665C152.197 14.5871 152.18 14.6048 152.161 14.6185C152.141 14.6321 152.119 14.6415 152.095 14.6459L150.885 14.8735C150.867 14.8763 150.85 14.8763 150.832 14.8735Z" fill="black"/>
</g>
<path d="M131.726 66.3411L131.598 66.4534L132.149 64.5437L127.997 64.717C127.997 64.717 123.436 70.4628 125.412 75.0876C125.463 75.2053 125.548 75.3052 125.656 75.374C125.764 75.4429 125.89 75.4776 126.018 75.4735C126.147 75.4694 126.271 75.4268 126.374 75.3512C126.478 75.2756 126.556 75.1705 126.599 75.0498C127.244 73.225 128.499 70.0207 129.711 68.8822C129.723 69.6396 129.801 70.6742 130.138 70.6762C131.027 70.6833 131.448 67.307 131.726 66.3411Z" fill="#E98862"/>
<path d="M150.23 26.6794L126.084 64.2473L132.277 68.2202L156.424 30.6523L150.23 26.6794Z" fill="#54ABA7"/>
<path d="M164.137 64.6358L164.306 64.6695L162.871 63.2912L166.551 61.365C166.551 61.365 173.379 64.0568 173.985 69.0488C174.001 69.1761 173.978 69.3051 173.918 69.4189C173.859 69.5327 173.767 69.626 173.654 69.6867C173.541 69.7473 173.412 69.7724 173.285 69.7587C173.157 69.7451 173.037 69.6932 172.939 69.6099C171.466 68.3527 168.774 66.2069 167.154 65.8276C167.523 66.4892 167.974 67.4237 167.683 67.5943C166.918 68.0432 164.863 65.3325 164.137 64.6358Z" fill="#E98862"/>
<path d="M177.672 160.249L170.632 159.413C170.949 156.751 171.307 153.554 171.332 153.03C171.332 153.064 171.332 153.091 171.332 153.112H178.42C178.419 153.325 178.419 153.971 177.672 160.249Z" fill="#E98862"/>
<path d="M105.551 156.248L99.3367 152.842C99.3367 152.842 102.858 146.431 103.168 145.861L109.394 149.248C109.083 149.818 105.551 156.248 105.551 156.248Z" fill="#E98862"/>
<path d="M160.931 111.748C163.277 127.188 165.98 143.329 167.858 158.773L180.227 157.04C177.575 141.061 175.654 124.19 173.264 108.153C168.215 93.5034 155.52 61.1307 155.52 61.1307L129.84 59.5474C129.84 59.5474 124.856 98.0095 122.96 110.291L99.3225 149.031L109.883 155.692L135.554 116.456C136.019 115.738 136.34 114.936 136.497 114.095C136.555 113.796 138.301 104.232 138.35 103.986C140.072 95.0237 144.47 76.1246 144.47 76.1246C149.959 87.9735 156.279 99.7827 160.931 111.748Z" fill="#262626"/>
<path d="M111.808 162.77C111.976 162.861 112.161 162.916 112.351 162.931C112.541 162.947 112.732 162.924 112.913 162.863C113.093 162.801 113.259 162.703 113.4 162.575C113.541 162.446 113.654 162.29 113.732 162.116C113.84 161.875 113.877 161.609 113.838 161.347C113.8 161.086 113.687 160.842 113.514 160.642L107.589 154.276C107.474 154.153 107.334 154.056 107.178 153.993C107.022 153.929 106.854 153.9 106.686 153.907C105.313 154.056 103.929 153.76 102.737 153.064C101.829 152.483 101.104 151.66 100.642 150.687C100.605 150.596 100.542 150.516 100.462 150.459C100.381 150.401 100.286 150.368 100.187 150.363C100.088 150.357 99.9897 150.38 99.9033 150.428C99.8169 150.476 99.746 150.548 99.6989 150.635L97.7694 154.176C97.7125 154.281 97.6768 154.395 97.6644 154.514C97.6519 154.632 97.663 154.751 97.6969 154.865C97.7308 154.979 97.7869 155.085 97.8619 155.178C97.937 155.27 98.0295 155.347 98.1343 155.403L111.808 162.77Z" fill="#C1D8ED"/>
<path d="M186.309 163.835C186.499 163.834 186.688 163.794 186.862 163.717C187.037 163.64 187.193 163.528 187.322 163.388C187.451 163.248 187.55 163.082 187.613 162.902C187.675 162.722 187.699 162.532 187.685 162.342C187.664 162.079 187.569 161.827 187.41 161.616C187.251 161.405 187.035 161.244 186.787 161.152L178.536 158.391C178.377 158.338 178.207 158.32 178.04 158.339C177.873 158.357 177.711 158.412 177.567 158.499C176.433 159.285 175.076 159.687 173.696 159.645C172.621 159.569 171.589 159.192 170.718 158.558C170.642 158.496 170.549 158.456 170.451 158.444C170.352 158.432 170.253 158.448 170.163 158.491C170.074 158.533 169.999 158.6 169.946 158.684C169.893 158.767 169.865 158.864 169.865 158.963V162.994C169.865 163.112 169.889 163.23 169.934 163.34C169.98 163.45 170.047 163.55 170.131 163.633C170.216 163.717 170.316 163.784 170.426 163.829C170.536 163.874 170.654 163.897 170.773 163.897L186.309 163.835Z" fill="#C1D8ED"/>
<path d="M168.58 60.7381L156.802 48.6602C156.82 47.9537 156.852 47.2101 156.905 46.4156C157.521 37.0804 163.129 24.6325 151.971 23.5429C151.76 23.5213 151.42 23.496 150.982 23.4654C150.793 25.3127 139.313 24.6814 139.174 22.7791C135.931 22.6061 133.217 23.4536 131.593 24.91C125.996 29.925 132.018 39.3172 131.633 46.3886C131.247 53.46 127.873 56.4576 127.911 60.1004C127.971 65.8249 155.793 65.9874 157.383 62.8212C157.776 62.047 157.952 61.1811 157.892 60.3152L163.308 65.869L168.58 60.7381Z" fill="#54ABA7"/>
<path d="M150.981 23.4654C150.793 25.3128 149.637 27.9819 146.515 28.018C142.354 28.0652 139.313 24.6794 139.173 22.7788H139.183C143.265 23.0017 148.604 23.2988 150.981 23.4654Z" fill="#E98862"/>
</g>
<defs>
<clipPath id="clip0_234_1930">
<rect width="265" height="175" fill="white"/>
</clipPath>
</defs>
</svg>
