<svg width="319" height="217" viewBox="0 0 319 217" fill="none" xmlns="http://www.w3.org/2000/svg">
<g clip-path="url(#clip0_6_61)">
<path d="M222.331 0H80.1527V178.761H222.331V0Z" fill="#C1D8ED"/>
<path d="M209.226 41.5812H93.2577V45.8372H209.226V41.5812Z" fill="white"/>
<path d="M209.226 54.2057H93.2577V58.4617H209.226V54.2057Z" fill="white"/>
<path d="M209.226 66.8305H93.2577V71.0866H209.226V66.8305Z" fill="white"/>
<path d="M209.226 79.455H93.2577V164.579H209.226V79.455Z" fill="white"/>
<path d="M209.226 19.3024H93.2577V30.9083H209.226V19.3024Z" fill="white"/>
<path d="M102.474 94.513C102.068 94.0047 102.552 93.1431 102.791 92.6631C103.101 92.0385 103.466 91.3167 104.149 91.0103C104.285 90.9359 104.435 90.891 104.59 90.8789C104.746 90.8667 104.902 90.8876 105.047 90.9399C105.193 90.9923 105.326 91.075 105.435 91.1821C105.545 91.2893 105.629 91.4183 105.682 91.5603C105.972 92.1756 106.055 92.8392 106.516 93.3745C106.932 93.8587 107.588 94.1978 108.236 93.9524C108.866 93.7145 109.128 93.0355 109.586 92.5988C110.468 91.758 111.91 91.2358 112.903 92.1926C113.44 92.7092 113.845 93.2877 114.581 93.5583C115.28 93.7806 116.035 93.7806 116.734 93.5583C118.236 93.1398 119.459 91.9546 121.081 91.9409C122.556 91.9288 123.916 92.6896 125.193 93.3129C126.471 93.9363 127.747 94.4565 129.182 94.6147C130.697 94.7734 132.228 94.5793 133.649 94.0486C135.07 93.518 136.34 92.6661 137.353 91.5638C137.739 91.1317 137.091 90.4982 136.702 90.933C135.785 91.9366 134.634 92.7141 133.345 93.2011C132.057 93.688 130.667 93.8704 129.291 93.7332C127.791 93.5863 126.475 92.9403 125.148 92.2928C123.821 91.6453 122.374 90.9604 120.844 91.0564C120.036 91.131 119.254 91.368 118.547 91.7521C117.834 92.109 117.151 92.5331 116.368 92.7291C115.626 92.9147 114.861 92.8722 114.287 92.3341C113.749 91.8285 113.349 91.2337 112.627 90.9505C111.369 90.458 109.949 91.0484 109.014 91.8943C108.776 92.1138 108.562 92.3563 108.375 92.6179C108.201 92.8558 108.007 93.232 107.646 93.1235C106.971 92.9168 106.84 92.0043 106.627 91.4612C106.358 90.7745 105.903 90.1549 105.109 90.0187C104.712 89.9647 104.308 90.0054 103.932 90.1371C103.555 90.2689 103.217 90.4878 102.948 90.7748C102.391 91.3987 101.96 92.1194 101.679 92.8986C101.365 93.6636 101.279 94.4642 101.822 95.1453C101.909 95.2283 102.026 95.2749 102.148 95.2749C102.269 95.2749 102.386 95.2283 102.473 95.1453C102.557 95.0603 102.603 94.9473 102.603 94.8298C102.603 94.7122 102.557 94.5992 102.473 94.5142L102.474 94.513Z" fill="#367CFF"/>
<path d="M110.346 213.782L103.947 213.045C104.235 210.697 104.56 207.878 104.582 207.415C104.582 207.445 104.582 207.469 104.582 207.488H111.027C111.024 207.675 111.024 208.245 110.346 213.782Z" fill="#E98862"/>
<path d="M84.6683 214.528L78.2241 214.508C78.2241 214.508 78.2459 208.058 78.2459 207.487H84.6901C84.6901 208.061 84.6683 214.528 84.6683 214.528Z" fill="#E98862"/>
<path d="M75.3356 135.686C75.3356 136.572 75.8183 139.535 75.0417 139.747C74.5762 139.874 74.0262 137.665 74.0262 137.665" fill="#E98862"/>
<path d="M71.6692 135.221C71.6692 135.221 69.1332 141.203 72.0257 144.64C72.0995 144.727 72.1988 144.791 72.3106 144.823C72.4223 144.855 72.5414 144.853 72.6523 144.818C72.7632 144.784 72.8607 144.717 72.9321 144.628C73.0035 144.539 73.0455 144.431 73.0525 144.318C73.1931 142.001 73.6751 137.24 75.2515 137.797V134.06" fill="#E98862"/>
<path d="M129.465 97.6972C129.465 97.6972 133.007 94.9705 133.257 93.9911C133.507 93.0117 131.013 91.0853 131.013 91.0853L129.039 91.5338C129.039 91.5338 129.583 89.8385 128.906 89.727C128.627 89.6812 128.407 89.9462 127.971 91.1463C127.474 92.5144 126.482 94.5711 126.482 94.5711L129.465 97.6972Z" fill="#E98862"/>
<path d="M89.3766 94.0315C89.3766 94.0315 91.8444 93.0039 91.8444 86.7204L96.8049 86.2305C96.8049 86.2305 95.7824 91.783 98.1042 93.7552L89.3766 94.0315Z" fill="#E98862"/>
<path d="M89.2766 84.0802C89.4548 86.0006 90.3693 87.8785 92.0411 88.6274C93.8586 89.4993 95.8686 89.927 97.8958 89.873C103.281 89.873 103.22 78.0009 100.874 75.5092C98.5279 73.0174 90.9524 73.8754 89.7218 77.6333C89.0854 79.5764 89.1072 82.2516 89.2766 84.0802Z" fill="#E98862"/>
<path d="M97.0881 83.2307C97.3336 83.2307 97.5327 83.0378 97.5327 82.7998C97.5327 82.5618 97.3336 82.3688 97.0881 82.3688C96.8425 82.3688 96.6434 82.5618 96.6434 82.7998C96.6434 83.0378 96.8425 83.2307 97.0881 83.2307Z" fill="#54ABA7"/>
<path d="M96.2141 81.9462C96.1615 81.9459 96.111 81.9265 96.0726 81.8917C96.0343 81.8569 96.0108 81.8094 96.0069 81.7586C96.003 81.7078 96.0191 81.6575 96.0518 81.6176C96.0845 81.5778 96.1315 81.5513 96.1834 81.5435L97.3636 81.3651C97.4182 81.3578 97.4736 81.3713 97.5182 81.4029C97.5627 81.4344 97.5929 81.4814 97.6024 81.534C97.6108 81.5871 97.5972 81.6413 97.5644 81.6846C97.5317 81.7279 97.4825 81.7569 97.4278 81.7651L96.2475 81.9435C96.2365 81.9454 96.2253 81.9463 96.2141 81.9462Z" fill="#54ABA7"/>
<path d="M100.347 79.4595C98.2416 88.614 96.3025 91.0612 91.4206 89.2285C90.3008 88.808 87.6191 86.2305 87.3506 80.7461C87.2406 78.9146 87.8259 77.1074 88.9961 75.6654C90.1662 74.2233 91.8404 73.2461 93.7028 72.9181C103.372 71.6148 103.711 80.0763 103.711 80.0763C98.8584 80.8826 92.2491 79.5505 92.2491 79.5505" fill="#0F1011"/>
<path d="M88.699 80.7435C91.0727 80.7435 92.9969 78.8784 92.9969 76.5778C92.9969 74.2772 91.0727 72.4122 88.699 72.4122C86.3253 72.4122 84.401 74.2772 84.401 76.5778C84.401 78.8784 86.3253 80.7435 88.699 80.7435Z" fill="#0F1011"/>
<path d="M101.371 211.81L112.723 211.623C112.19 198.527 112.157 184.79 111.991 171.662C109.775 157.513 108.608 141.975 105.873 127.927L105.791 127.951L105.551 126.366L82.2063 124.968C82.2063 124.968 77.95 190.893 76.563 211.456L87.8768 212.382C89.915 192.221 93.0699 162.845 95.0099 141.666C97.2381 151.977 98.7537 162.654 100.692 172.877C101.079 185.674 101.407 199.051 101.371 211.81Z" fill="#262626"/>
<path d="M92.5023 216.944C92.6756 216.944 92.8468 216.908 93.0053 216.84C93.1638 216.773 93.3062 216.674 93.4236 216.55C93.5409 216.427 93.6308 216.281 93.6875 216.123C93.7442 215.964 93.7665 215.796 93.7531 215.628C93.7344 215.396 93.6477 215.174 93.5032 214.988C93.3586 214.802 93.1622 214.66 92.9371 214.579L85.4367 212.144C85.2915 212.097 85.1375 212.082 84.9854 212.098C84.8332 212.114 84.6866 212.162 84.5554 212.239C83.5242 212.932 82.2907 213.287 81.0363 213.25C80.0592 213.183 79.1213 212.851 78.3294 212.292C78.2598 212.237 78.1755 212.201 78.0861 212.191C77.9968 212.18 77.9062 212.194 77.8249 212.232C77.7436 212.269 77.6749 212.328 77.6269 212.402C77.579 212.476 77.5537 212.562 77.554 212.649V216.204C77.554 216.308 77.5753 216.412 77.6168 216.509C77.6583 216.606 77.7192 216.694 77.7958 216.768C77.8725 216.842 77.9635 216.9 78.0636 216.94C78.1637 216.98 78.2709 217 78.3791 217L92.5023 216.944Z" fill="#C1D8ED"/>
<path d="M118.197 216.944C118.37 216.944 118.542 216.908 118.7 216.84C118.859 216.773 119.001 216.674 119.118 216.55C119.236 216.427 119.326 216.281 119.382 216.123C119.439 215.964 119.462 215.796 119.448 215.628C119.429 215.396 119.343 215.174 119.198 214.988C119.054 214.802 118.857 214.66 118.632 214.579L111.131 212.144C110.986 212.097 110.832 212.082 110.68 212.098C110.528 212.114 110.381 212.162 110.25 212.239C109.219 212.932 107.985 213.286 106.731 213.249C105.754 213.182 104.816 212.85 104.024 212.291C103.955 212.235 103.871 212.2 103.781 212.19C103.692 212.179 103.601 212.193 103.52 212.231C103.439 212.268 103.37 212.327 103.322 212.401C103.274 212.475 103.249 212.56 103.249 212.648V216.202C103.249 216.307 103.27 216.411 103.312 216.508C103.353 216.605 103.414 216.693 103.491 216.767C103.567 216.841 103.658 216.899 103.758 216.939C103.858 216.979 103.966 216.999 104.074 216.999L118.197 216.944Z" fill="#C1D8ED"/>
<path d="M100.575 84.6286C100.578 84.8705 100.531 85.1106 100.438 85.3349C100.345 85.5593 100.207 85.7634 100.031 85.9356C99.8558 86.1077 99.647 86.2444 99.4167 86.3377C99.1864 86.4309 98.9393 86.479 98.6897 86.479C98.4402 86.479 98.1931 86.4309 97.9628 86.3377C97.7325 86.2444 97.5237 86.1077 97.3483 85.9356C97.173 85.7634 97.0346 85.5593 96.9413 85.3349C96.848 85.1106 96.8016 84.8705 96.8048 84.6286C96.8006 84.3876 96.8465 84.1482 96.9397 83.9247C97.033 83.7012 97.1716 83.4982 97.3475 83.3278C97.5234 83.1573 97.7328 83.0229 97.9634 82.9325C98.1939 82.8421 98.4409 82.7976 98.6896 82.8016C100.032 82.8658 100.575 83.6198 100.575 84.6286Z" fill="#E98862"/>
<path d="M125.497 93.7058L116.912 107.459L106.096 96.0893C105.183 94.3152 103.44 93.1613 100.309 93.031C99.0769 92.9798 93.0651 92.9715 88.6634 92.9715C85.7061 92.9715 83.2785 93.851 81.8767 95.2099C81.1705 95.8842 80.6421 96.7134 80.336 97.6273L80.2936 97.6124L73.2489 116.175C73.17 116.383 73.1133 116.599 73.0795 116.818L70.2367 135.381L76.8552 136.333L79.6477 118.099L82.4923 110.603C82.7885 111.755 82.9503 112.936 82.9747 114.123C82.9747 120.369 80.0595 123.17 80.2743 126.375C80.6118 131.415 105.876 130.224 107.163 127.362C108.488 124.41 105.798 122.591 105.916 112.934C105.942 110.787 106.264 108.438 106.547 106.131L115.01 115.026C115.362 115.396 115.797 115.682 116.282 115.86C116.768 116.039 117.289 116.106 117.806 116.055C118.322 116.005 118.819 115.838 119.258 115.57C119.696 115.301 120.064 114.937 120.333 114.506L131.222 97.0619L125.497 93.7058Z" fill="#54ABA7"/>
<path d="M136.746 91.3577L135.166 91.8901L128.709 91.2238L127.831 91.1316L126.266 90.971L126.429 89.5048L128.009 89.6683L128.887 89.7576L135.325 90.4238L136.746 91.3577Z" fill="#367CFF"/>
<path d="M128.887 89.7576L128.709 91.2238L127.832 91.1316L128.01 89.6683L128.887 89.7576Z" fill="white"/>
<path d="M129.35 91.1781C129.67 90.9442 130.007 90.7306 130.356 90.5386C130.711 90.335 131.085 90.1636 131.472 90.0267C131.687 89.9498 131.908 89.8926 132.134 89.8557C132.261 89.8358 132.39 89.8259 132.518 89.826L132.816 89.8406C133.215 89.8676 133.61 89.9312 133.996 90.0303C134.102 90.0579 134.195 90.1209 134.257 90.2083C134.32 90.2956 134.349 90.4016 134.338 90.5074C134.328 90.6133 134.28 90.7122 134.201 90.7867C134.123 90.8611 134.02 90.9063 133.91 90.9142L133.884 90.916L132.815 90.9922L132.55 91.0133C132.491 91.0216 132.433 91.0334 132.375 91.0487C132.233 91.088 132.096 91.1393 131.963 91.2021C131.658 91.3477 131.364 91.5117 131.08 91.6932C130.791 91.8791 130.487 92.0834 130.221 92.2779L130.209 92.2871C130.057 92.3943 129.868 92.4394 129.682 92.4126C129.497 92.3858 129.329 92.2894 129.216 92.144C129.103 91.9987 129.054 91.8161 129.078 91.6358C129.103 91.4554 129.2 91.2916 129.348 91.1798L129.35 91.1781Z" fill="#E98862"/>
<path d="M254.394 212.34H250.032V217H254.394V212.34Z" fill="#C1D8ED"/>
<path d="M295.892 212.34H291.53V217H295.892V212.34Z" fill="#C1D8ED"/>
<path d="M299.647 159.207H281.346V212.88H299.647V159.207Z" fill="#C1D8ED"/>
<path d="M249.977 160.396H231.236V212.34H249.977V160.396Z" fill="#C1D8ED"/>
<path d="M282.579 212.881H230.003V159.209H282.579V212.881ZM232.468 210.492H280.114V161.597H232.469L232.468 210.492Z" fill="#DEE8F5"/>
<path d="M282.579 212.88H230.003V183.287H282.579V212.88ZM232.468 210.491H280.114V185.678H232.469L232.468 210.491Z" fill="#DEE8F5"/>
<path d="M237.723 212.34H233.361V217H237.723V212.34Z" fill="#DEE8F5"/>
<path d="M279.221 212.34H274.859V217H279.221V212.34Z" fill="#DEE8F5"/>
<path d="M272.358 178.959H251.43V183.552H272.358V178.959Z" fill="#C1D8ED"/>
<path d="M272.718 169.783H251.79V174.376H272.718V169.783Z" fill="#C1D8ED"/>
<path d="M265.217 178.959H243.085V183.552H265.217V178.959Z" fill="#DEE8F5"/>
<g opacity="0.62">
<path d="M263.41 178.959H262.336V183.552H263.41V178.959Z" fill="#C1D8ED"/>
</g>
<g opacity="0.62">
<path d="M261.262 178.959H260.187V183.552H261.262V178.959Z" fill="#C1D8ED"/>
</g>
<path d="M245.622 182.737C246.466 182.737 247.15 182.073 247.15 181.255C247.15 180.437 246.466 179.774 245.622 179.774C244.778 179.774 244.094 180.437 244.094 181.255C244.094 182.073 244.778 182.737 245.622 182.737Z" fill="#F3F5FD"/>
<path d="M265.576 169.783H243.445V174.376H265.576V169.783Z" fill="#DEE8F5"/>
<path d="M260.314 170.818H244.87V173.342H260.314V170.818Z" fill="#F3F5FD"/>
<g opacity="0.62">
<path d="M263.77 169.783H261.737V174.376H263.77V169.783Z" fill="#C1D8ED"/>
</g>
<path d="M253.137 178.964H274.065V174.371H253.137V178.964Z" fill="#C1D8ED"/>
<path d="M244.792 178.964H266.924V174.371H244.792V178.964Z" fill="#F3F5FD"/>
<path d="M246.599 178.964H247.673V174.371H246.599V178.964Z" fill="#DEE8F5"/>
<path d="M248.747 178.964H249.821V174.371H248.747V178.964Z" fill="#DEE8F5"/>
<path d="M264.386 178.149C265.23 178.149 265.914 177.486 265.914 176.668C265.914 175.85 265.23 175.187 264.386 175.187C263.542 175.187 262.858 175.85 262.858 176.668C262.858 177.486 263.542 178.149 264.386 178.149Z" fill="#DEE8F5"/>
<path d="M261.246 175.542H251.477V177.793H261.246V175.542Z" fill="#DEE8F5"/>
<path d="M264.843 137.685H264.464V146.745H264.843V137.685Z" fill="#C1D8ED"/>
<path d="M264.653 147.947C265.143 147.947 265.541 147.562 265.541 147.087C265.541 146.612 265.143 146.227 264.653 146.227C264.163 146.227 263.766 146.612 263.766 147.087C263.766 147.562 264.163 147.947 264.653 147.947Z" fill="#C1D8ED"/>
<path d="M260.322 130.588L260.163 157.856H255.867C255.774 157.854 255.682 157.87 255.595 157.903C255.509 157.936 255.431 157.986 255.364 158.048C255.298 158.111 255.245 158.187 255.209 158.269C255.173 158.352 255.155 158.441 255.155 158.531C255.155 158.621 255.173 158.71 255.209 158.793C255.245 158.876 255.298 158.951 255.364 159.014C255.431 159.077 255.509 159.126 255.595 159.16C255.682 159.193 255.774 159.209 255.867 159.207H265.58C265.763 159.203 265.936 159.13 266.064 159.004C266.191 158.878 266.263 158.708 266.263 158.531C266.263 158.355 266.191 158.185 266.064 158.058C265.936 157.932 265.763 157.859 265.58 157.856H261.557L261.716 130.586" fill="#C1D8ED"/>
<path d="M269.261 143.13H252.188L252.288 127.618H269.161L269.261 143.13Z" fill="#DEE8F5"/>
<path d="M48.1165 154.915C47.1742 154.618 46.2075 154.953 45.2823 155.634C46.5009 152.651 47.0038 149.958 44.9205 149.836C43.4629 149.751 42.3462 150.835 41.4978 152.376C41.1995 149.667 40.4299 147.647 38.7053 148.316C36.8122 149.052 36.5241 151.572 36.8113 154.21C35.9775 152.863 35.0793 152.111 34.2643 152.901C31.8309 155.26 37.8034 161.906 37.8034 161.906H39.2868L40.1331 162.798C39.9619 163.149 39.868 163.358 39.868 163.358L40.942 165.479C40.942 165.479 52.0254 156.156 48.1165 154.915Z" fill="#8DDBE0"/>
<path d="M45.456 170.227H37.0613L35.6559 160.729H46.8611L45.456 170.227Z" fill="#C1D8ED"/>
<path d="M30.8268 174.019L21.897 216.228C21.8398 216.448 21.7083 216.643 21.5234 216.783C21.3385 216.923 21.1108 216.999 20.8764 216.999C20.7164 216.999 20.5585 216.963 20.4148 216.895C20.271 216.827 20.1452 216.729 20.0468 216.606C19.9484 216.484 19.8801 216.342 19.8471 216.19C19.814 216.038 19.8171 215.881 19.856 215.731L28.9132 173.036L30.8268 174.019Z" fill="#C1D8ED"/>
<path d="M51.8044 173.953L60.7342 216.161C60.7912 216.382 60.9226 216.577 61.1075 216.717C61.2923 216.857 61.5201 216.933 61.7546 216.933C61.9146 216.933 62.0725 216.897 62.2162 216.829C62.36 216.761 62.4859 216.662 62.5843 216.54C62.6827 216.418 62.751 216.275 62.784 216.124C62.817 215.972 62.8139 215.815 62.7749 215.665L53.7181 172.969L51.8044 173.953Z" fill="#C1D8ED"/>
<path d="M61.189 169.893H21.4425C20.4375 169.893 19.6228 170.682 19.6228 171.656V175.538C19.6228 176.512 20.4375 177.302 21.4425 177.302H61.189C62.194 177.302 63.0087 176.512 63.0087 175.538V171.656C63.0087 170.682 62.194 169.893 61.189 169.893Z" fill="#DEE8F5"/>
</g>
<defs>
<clipPath id="clip0_6_61">
<rect width="319" height="217" fill="white"/>
</clipPath>
</defs>
</svg>
