<svg  viewBox="0 0 705 652" fill="none" xmlns="http://www.w3.org/2000/svg">
<path d="M228.296 142.639C228.296 142.639 223.057 137.429 223 127.08C222.955 119.067 229.508 125.152 229.508 125.152C229.508 125.152 229.532 119.382 233.583 120.51C237.633 121.638 239.131 127.908 239.131 127.908" fill="#0C0C0C"/>
<path d="M254.833 124.097C254.833 124.097 275.019 129.099 263.811 155.845L261.981 155.718L258.268 155.461" fill="#0C0C0C"/>
<path d="M228.925 183.642C229.016 183.63 230.025 200.368 249.471 198.91C262.934 197.901 267.734 183.618 268.043 183.618C266.591 183.31 264.798 182.842 264.084 182.681C262.531 182.32 261.125 181.495 260.052 180.315C258.979 179.135 258.291 177.656 258.079 176.076C257.684 173.703 258.351 161.564 258.147 159.163L237.482 163.776C237.77 168.846 239.792 180.6 232.71 182.681C231.527 183.025 230.258 183.34 228.925 183.642Z" fill="#E98862"/>
<path opacity="0.52" d="M237.19 177.877C237.514 176.834 237.722 175.758 237.812 174.67C238.039 172.186 237.993 169.684 237.675 167.21C241.876 166.643 245.833 164.909 249.097 162.206C249.48 163.623 251.591 169.815 251.006 171.16C249.904 173.708 244.713 177.877 237.19 177.877Z" fill="#0C0C0C"/>
<path d="M240.28 172.995C248.457 173.377 258.824 169.598 260.465 158.653L261.946 148.776C263.587 137.831 259.169 128.096 248.864 126.551C238.559 125.006 229.525 132.724 227.884 143.669L227.884 148.776C227.685 150.282 227.877 151.482 227.884 153C227.874 157.012 237.28 172.995 240.28 172.995C233.5 170 239.28 172.543 240.28 172.995Z" fill="#E98862"/>
<path d="M241.395 162.245C239.717 162.092 238.1 161.547 236.672 160.654C236.641 160.637 236.613 160.614 236.591 160.586C236.569 160.558 236.553 160.526 236.544 160.492C236.535 160.458 236.532 160.422 236.537 160.387C236.542 160.352 236.554 160.318 236.572 160.288C236.59 160.257 236.614 160.231 236.643 160.21C236.672 160.189 236.704 160.174 236.739 160.166C236.773 160.158 236.809 160.158 236.844 160.164C236.879 160.17 236.912 160.183 236.942 160.202C240.029 162.05 243.032 162.253 245.632 160.79C245.684 160.759 245.738 160.731 245.794 160.705C245.858 160.682 245.929 160.684 245.991 160.711C246.054 160.739 246.103 160.79 246.129 160.853C246.154 160.917 246.154 160.988 246.129 161.051C246.103 161.114 246.054 161.165 245.991 161.193C245.971 161.202 245.937 161.222 245.89 161.248C244.524 162.02 242.959 162.367 241.395 162.245Z" fill="#0C0C0C"/>
<path d="M240.533 165.592C240.182 165.572 239.834 165.53 239.493 165.465C239.454 165.457 239.417 165.444 239.385 165.426C239.353 165.408 239.326 165.386 239.305 165.36C239.285 165.334 239.271 165.305 239.265 165.275C239.259 165.245 239.261 165.214 239.271 165.185C239.28 165.156 239.297 165.128 239.321 165.103C239.344 165.079 239.374 165.058 239.408 165.043C239.442 165.027 239.48 165.016 239.52 165.012C239.559 165.007 239.599 165.009 239.638 165.016C241.692 165.401 242.818 164.779 242.865 164.752C242.929 164.715 243.01 164.699 243.09 164.707C243.169 164.715 243.242 164.747 243.29 164.796C243.339 164.845 243.36 164.906 243.35 164.967C243.339 165.028 243.297 165.083 243.232 165.12C242.431 165.51 241.477 165.677 240.533 165.592V165.592Z" fill="#0C0C0C"/>
<path d="M236 149.546C236.709 149.546 237.283 148.971 237.283 148.262C237.283 147.554 236.709 146.979 236 146.979C235.291 146.979 234.716 147.554 234.716 148.262C234.716 148.971 235.291 149.546 236 149.546Z" fill="#0C0C0C"/>
<path d="M246.909 150C247.617 150 248.192 149.426 248.192 148.717C248.192 148.008 247.617 147.433 246.909 147.433C246.2 147.433 245.625 148.008 245.625 148.717C245.625 149.426 246.2 150 246.909 150Z" fill="#0C0C0C"/>
<path d="M259.324 161.891C262.456 162.36 265.498 159.391 265.967 156.259C266.437 153.127 264.157 151.019 261.025 150.55L259.097 152.406L256.632 161.487L259.324 161.891Z" fill="#E98862"/>
<path d="M256.894 156.422C256.894 156.422 257.96 140.763 253.386 139.16C250.341 138.093 242.134 141.497 235.28 139.19C232.28 138.181 229.255 138.543 228.758 139.957C228.561 140.516 227.776 131.979 233.458 126.359C237.982 121.884 250.738 122.193 256.229 124.616C271.433 131.323 261.579 151.322 261.579 151.322L260.14 156.574L256.894 156.422Z" fill="#0C0C0C"/>
<path d="M241.279 158.339H241.274C241.02 158.179 240.599 157.79 240.626 156.979C240.649 156.306 241.33 149.319 241.407 148.525C241.411 148.489 241.415 148.457 241.421 148.43C241.427 148.402 241.435 148.38 241.443 148.365C241.451 148.35 241.459 148.343 241.468 148.342C241.477 148.342 241.486 148.349 241.494 148.364C241.502 148.378 241.509 148.4 241.515 148.427C241.522 148.454 241.526 148.485 241.53 148.521C241.533 148.556 241.534 148.593 241.534 148.631C241.534 148.668 241.532 148.705 241.528 148.739C241.226 151.834 240.771 156.602 240.756 157.06C240.774 157.267 241.03 157.62 241.292 157.786C241.309 157.798 241.324 157.836 241.334 157.892C241.344 157.949 241.349 158.021 241.347 158.092C241.345 158.163 241.337 158.229 241.324 158.275C241.311 158.322 241.295 158.345 241.278 158.341L241.279 158.339Z" fill="#0C0C0C"/>
<path d="M238.775 144.295C237.753 143.857 236.631 143.704 235.528 143.852C234.987 143.921 234.459 144.07 233.963 144.296C233.472 144.516 233.011 144.798 232.591 145.134C232.514 145.193 232.463 145.28 232.448 145.377C232.433 145.473 232.456 145.571 232.512 145.651C232.568 145.731 232.653 145.786 232.748 145.805C232.844 145.824 232.943 145.806 233.025 145.753L233.051 145.737C233.434 145.468 233.848 145.249 234.286 145.085C234.716 144.92 235.168 144.822 235.627 144.793C236.532 144.73 237.438 144.906 238.253 145.304L238.287 145.322C238.421 145.391 238.577 145.404 238.721 145.358C238.865 145.312 238.984 145.211 239.053 145.076C239.122 144.942 239.135 144.786 239.089 144.643C239.043 144.499 238.942 144.379 238.808 144.31L238.775 144.295Z" fill="#0C0C0C"/>
<path d="M244.6 145.085C245.462 144.803 246.384 144.754 247.271 144.943C247.722 145.034 248.157 145.194 248.559 145.416C248.97 145.64 249.35 145.914 249.692 146.232L249.714 146.252C249.788 146.316 249.884 146.349 249.982 146.343C250.08 146.338 250.172 146.295 250.239 146.224C250.305 146.152 250.342 146.058 250.341 145.96C250.339 145.862 250.3 145.769 250.231 145.699C249.861 145.308 249.444 144.966 248.988 144.68C248.528 144.388 248.026 144.166 247.499 144.023C246.428 143.725 245.295 143.722 244.222 144.014C244.077 144.054 243.954 144.151 243.88 144.283C243.806 144.414 243.787 144.57 243.828 144.715C243.868 144.86 243.965 144.983 244.097 145.057C244.228 145.131 244.384 145.15 244.529 145.109L244.562 145.099L244.6 145.085Z" fill="#0C0C0C"/>
<path d="M244.332 127.92C245.514 124.6 244.644 121.258 242.388 120.454C240.133 119.651 237.345 121.691 236.163 125.012C234.981 128.332 235.851 131.674 238.107 132.478C240.363 133.281 243.15 131.241 244.332 127.92Z" fill="#0C0C0C"/>
<path d="M478.309 480.499L454.952 594.421C454.803 595.016 454.459 595.544 453.975 595.921C453.492 596.299 452.896 596.503 452.283 596.503V596.503C451.864 596.503 451.451 596.408 451.075 596.224C450.699 596.041 450.37 595.774 450.113 595.444C449.855 595.114 449.677 594.73 449.59 594.32C449.503 593.911 449.511 593.487 449.613 593.081L473.303 477.842L478.309 480.499Z" fill="#C1D8ED"/>
<path d="M533.186 480.317L556.543 594.24C556.692 594.835 557.036 595.362 557.52 595.739C558.004 596.116 558.599 596.321 559.213 596.321V596.321C559.631 596.321 560.044 596.226 560.42 596.042C560.796 595.859 561.125 595.592 561.382 595.262C561.64 594.932 561.818 594.548 561.905 594.138C561.991 593.729 561.983 593.305 561.882 592.899L538.192 477.661L533.186 480.317Z" fill="#C1D8ED"/>
<path d="M557.736 469.357H453.76C451.131 469.357 449 471.488 449 474.117V484.596C449 487.225 451.131 489.356 453.76 489.356H557.736C560.365 489.356 562.496 487.225 562.496 484.596V474.117C562.496 471.488 560.365 469.357 557.736 469.357Z" fill="#DEE8F5"/>
<path d="M529.605 413.359C526.299 412.276 522.905 413.491 519.661 415.959C523.936 405.159 525.701 395.411 518.391 394.972C513.277 394.664 509.359 398.588 506.383 404.167C505.336 394.358 502.635 387.044 496.583 389.467C489.941 392.129 488.931 401.254 489.938 410.802C487.012 405.925 483.862 403.202 481.001 406.066C472.464 414.603 493.419 438.666 493.419 438.666H498.619L501.589 441.89C500.989 443.161 500.658 443.918 500.658 443.918L504.431 451.595C504.431 451.595 543.324 417.849 529.605 413.359Z" fill="#8DDBE0"/>
<path d="M520.274 468.786H490.821L485.891 434.403H525.204L520.274 468.786Z" fill="#C1D8ED"/>
<path d="M339.289 585.854L318.435 583.374C319.374 575.481 320.435 566 320.507 564.446C320.507 564.546 320.507 564.627 320.507 564.691H341.507C341.502 565.32 341.502 567.24 339.289 585.854Z" fill="#E98862"/>
<path d="M364.875 596.487C365.44 596.484 365.998 596.365 366.515 596.137C367.031 595.908 367.495 595.576 367.878 595.161C368.261 594.745 368.553 594.255 368.738 593.722C368.923 593.188 368.996 592.622 368.952 592.059V592.059C368.891 591.278 368.608 590.532 368.137 589.907C367.666 589.281 367.026 588.804 366.293 588.53L341.85 580.34C341.377 580.183 340.875 580.13 340.379 580.185C339.883 580.24 339.405 580.402 338.978 580.659C335.618 582.99 331.598 584.182 327.51 584.059C324.326 583.832 321.27 582.716 318.69 580.837C318.463 580.651 318.188 580.533 317.897 580.497C317.606 580.462 317.311 580.51 317.046 580.635C316.781 580.761 316.557 580.96 316.401 581.208C316.244 581.456 316.161 581.743 316.162 582.037V593.989C316.162 594.341 316.232 594.691 316.367 595.016C316.502 595.342 316.701 595.637 316.95 595.886C317.2 596.135 317.497 596.332 317.823 596.466C318.149 596.6 318.499 596.668 318.851 596.667L364.875 596.487Z" fill="#C1D8ED"/>
<path d="M239.95 588L225 587.933C225 587.933 225.05 566.861 225.05 565H240C240 566.867 239.95 588 239.95 588Z" fill="#E98862"/>
<path d="M310.534 583.16L346.543 574.66C323.228 483.132 303.664 389.707 284.715 297.191L284.448 297.27L283.666 291.94L207.59 287.24C207.59 287.24 204.628 324.497 204.63 336.946C204.637 397.951 214.339 499.375 219.159 580.534L256.111 578.642C253.937 499.942 248.064 421.128 248.486 342.406C270.613 422.046 292.68 502.54 310.534 583.16Z" fill="#262626"/>
<path d="M217.091 599.815C216.802 599.812 216.516 599.689 216.252 599.454C215.988 599.219 215.751 598.877 215.555 598.449C215.36 598.021 215.21 597.516 215.115 596.966C215.021 596.417 214.984 595.833 215.006 595.253V595.253C215.037 594.449 215.182 593.68 215.423 593.036C215.664 592.392 215.991 591.9 216.366 591.618L228.864 583.182C229.107 583.02 229.363 582.965 229.617 583.022C229.87 583.079 230.115 583.245 230.333 583.51C232.051 585.911 234.107 587.139 236.197 587.013C237.825 586.779 239.388 585.629 240.708 583.694C240.824 583.502 240.964 583.38 241.113 583.344C241.262 583.307 241.413 583.356 241.549 583.486C241.684 583.615 241.798 583.82 241.878 584.076C241.958 584.331 242 584.627 242 584.93V597.241C242 597.605 241.964 597.964 241.895 598.3C241.826 598.635 241.725 598.94 241.597 599.196C241.469 599.452 241.318 599.655 241.151 599.793C240.984 599.931 240.805 600.002 240.625 600L217.091 599.815Z" fill="#C1D8ED"/>
<path d="M338.028 195.121C338.028 195.121 339.628 183.221 348.074 184.873C353.403 185.918 379.094 187.837 379.191 190.212C379.432 196.087 355.891 194.65 353.12 199.757L338.028 195.121Z" fill="#E98862"/>
<path d="M345.01 184.888C345.01 184.888 357.342 182.464 360.173 183.511C362.679 184.439 356.789 187.986 356.789 187.986L345.01 184.888Z" fill="#E98862"/>
<path d="M157.167 195.121C157.167 195.121 155.567 183.221 147.121 184.873C141.792 185.918 116.102 187.84 116.002 190.212C115.761 196.087 139.302 194.65 142.073 199.757L157.167 195.121Z" fill="#E98862"/>
<path d="M150.185 184.888C150.185 184.888 137.853 182.464 135.022 183.511C132.516 184.439 138.406 187.986 138.406 187.986L150.185 184.888Z" fill="#E98862"/>
<path d="M264.639 179.784C264.379 185.284 261.389 193.373 252.159 193.984C239.859 194.794 230.319 185.264 229.599 179.654H229.629C241.739 179.654 257.579 179.674 264.639 179.784Z" fill="#E98862"/>
<path d="M290.029 295.454C285.84 305.084 205.709 309.084 204.609 292.144C203.909 281.364 212.715 271.295 212.715 250.285C212.715 229.275 196.95 208.174 212.7 192.424C217.27 187.854 220.09 179.834 229.71 179.824C230.43 185.434 264.49 185.454 264.75 179.954C266.05 179.974 267.06 179.994 267.69 180.024C300.87 181.454 283.777 219.302 283.457 247.042C283.067 279.502 294.35 285.534 290.029 295.454Z" fill="white"/>
<path d="M264.765 180.04C264.505 185.54 261.515 193.63 252.285 194.24C239.985 195.05 230.445 185.52 229.725 179.91H229.755C241.865 179.912 257.702 179.932 264.765 180.04Z" fill="#E98862"/>
<path d="M337.99 188.119L308.93 231.809L287.23 190.123C284.623 184.117 279.493 180.217 270.12 179.807C269.575 179.783 261.394 179.419 261.062 179.751C259.052 181.761 260.501 217.363 261.501 237.043C262.594 258.343 261.471 284.943 262.486 300.236C262.552 301.239 262.825 302.218 263.288 303.111C263.752 304.003 264.396 304.79 265.179 305.421C265.962 306.052 266.868 306.513 267.839 306.776C268.809 307.039 269.824 307.097 270.819 306.948C281.601 305.301 290.008 302.492 291.234 299.675C295.554 289.755 285.585 279.413 285.975 246.953C286.015 243.53 286.267 239.953 286.621 236.3L298.279 258.179C299.166 259.844 300.47 261.25 302.063 262.26C303.657 263.27 305.485 263.849 307.37 263.941C307.548 263.95 307.725 263.955 307.901 263.955C309.697 263.955 311.466 263.51 313.049 262.662C314.633 261.813 315.982 260.586 316.977 259.09L356.149 200.196L337.99 188.119Z" fill="#54ABA7"/>
<path d="M234.349 187.013C232.849 179.086 233.649 179.648 229.887 179.645C229.276 179.645 228.672 179.658 228.075 179.684C219.148 179.984 211.217 182.31 207.519 187.184C199.761 197.407 180.365 232.803 180.365 232.803L155.376 187.013L136.236 197.458L170.502 260.24C171.428 261.937 172.789 263.358 174.445 264.355C176.102 265.353 177.993 265.892 179.927 265.918H180.072C181.981 265.918 183.856 265.417 185.511 264.464C187.165 263.512 188.54 262.142 189.499 260.491L207.155 230.091L207.193 230.006C209.314 237.211 211.211 244.363 211.211 250.941C211.211 271.951 201.711 281.361 202.411 292.141C202.843 298.874 206.284 307.392 232.236 309.217C234.337 309.365 236.415 308.7 238.04 307.36C239.665 306.02 240.714 304.108 240.97 302.017C245.944 260.664 236.892 205.588 234.349 187.013Z" fill="#54ABA7"/>
<path d="M225.741 203.319L228.221 195.189L223.441 192.059L227.303 179.712C230.86 179.526 233.551 179.539 234.582 179.579C236.941 187.469 239.525 222.349 240.444 235.579L225.741 203.319Z" fill="#54ABA7"/>
<path d="M267.142 195.189L271.842 202.319L261.395 235.103C261.395 235.103 258.052 190.73 260.882 179.703C260.882 179.703 262.228 179.554 263.866 179.531C265.25 179.523 266.633 179.584 268.011 179.715L271.922 192.062L267.142 195.189Z" fill="#54ABA7"/>
<g opacity="0.24">
<path d="M225.741 203.319L228.221 195.189L223.441 192.059L227.303 179.712C230.86 179.526 233.551 179.539 234.582 179.579C236.941 187.469 239.525 222.349 240.444 235.579L225.741 203.319Z" fill="white"/>
</g>
<g opacity="0.24">
<path d="M267.142 195.189L271.842 202.319L261.395 235.103C261.395 235.103 258.052 190.73 260.882 179.703C260.882 179.703 262.228 179.554 263.866 179.531C265.25 179.523 266.633 179.584 268.011 179.715L271.922 192.062L267.142 195.189Z" fill="white"/>
</g>
<path d="M28.2354 65.1623C38.4924 57.2383 53.3354 61.1143 62.3424 69.0743C67.1332 73.1769 70.5207 78.6753 72.0304 84.7993C73.5519 91.2127 72.5058 97.9667 69.1154 103.619C65.8594 108.839 59.6484 113.168 53.2404 112.188C47.4494 111.302 42.3974 106.035 43.6534 99.9473C44.7724 94.5303 49.3174 89.8213 54.0094 87.1593C58.2114 84.848 62.8951 83.5499 67.6874 83.3683C72.6827 83.0756 77.6764 83.9665 82.2624 85.9683C87.2484 88.2604 91.4011 92.042 94.1484 96.7923C97.7291 102.6 99.6096 109.296 99.5764 116.119C99.3588 122.8 97.4699 129.319 94.0824 135.08C92.5924 137.843 90.5654 140.281 88.1204 142.25C85.8076 143.956 83.156 145.145 80.3444 145.738C76.4004 146.585 70.4124 146.538 68.8624 141.964C67.2404 137.173 69.7064 131.723 72.3454 127.801C75.4012 123.099 79.8477 119.467 85.0654 117.411C90.4804 115.303 96.5804 114.574 102.165 116.46C107.308 118.196 111.479 122.276 114.279 126.828C117.004 131.303 118.646 136.352 119.075 141.573C119.505 146.794 118.709 152.044 116.752 156.903C115.778 159.202 114.481 161.35 112.9 163.282C111.682 164.762 113.793 166.896 115.021 165.404C122.596 156.204 123.964 143.042 120.021 131.979C118.134 126.414 114.76 121.471 110.265 117.685C107.641 115.575 104.603 114.037 101.348 113.172C98.0935 112.307 94.6935 112.133 91.3674 112.662C85.4202 113.438 79.8268 115.926 75.2674 119.822C70.3464 124.205 66.2014 130.594 65.4784 137.251C64.9784 141.86 66.7054 146.712 71.3874 148.298C77.5404 150.382 84.8564 148.454 89.9184 144.625C95.5984 140.325 99.0564 133.125 100.953 126.419C103.081 119.202 103.033 111.517 100.815 104.327C98.7844 97.8843 95.2154 91.4113 89.8714 87.1373C85.3198 83.5789 79.8815 81.3336 74.1454 80.6443C62.8454 79.1503 50.8534 82.8773 43.9834 92.2933C41.6941 95.1955 40.4561 98.7879 40.4714 102.484C40.676 105.78 42.1447 108.87 44.5714 111.109C49.7544 116.003 57.2784 116.354 63.4014 113.06C69.7954 109.621 73.9604 102.951 75.2144 95.9073C76.4657 88.7212 75.0698 81.325 71.2854 75.0893C64.1934 63.3223 49.4644 55.5063 35.7084 58.4443C32.4437 59.1307 29.374 60.5391 26.7244 62.5663C26.3914 62.7765 26.1507 63.1053 26.0508 63.4862C25.9509 63.8671 25.9994 64.2718 26.1864 64.6183C26.3887 64.9604 26.7178 65.2088 27.1022 65.3096C27.4867 65.4103 27.8954 65.3553 28.2394 65.1563L28.2354 65.1623Z" fill="#DEE8F5"/>
<path d="M168.842 64.4492C185.644 83.5919 196.285 107.355 199.377 132.636C200.235 139.727 200.484 146.877 200.12 154.01C200.02 155.939 203.02 155.934 203.12 154.01C204.34 127.909 197.658 102.046 183.945 79.8032C180.125 73.6183 175.782 67.7719 170.963 62.3282C169.681 60.8792 167.563 63.0072 168.842 64.4492V64.4492Z" fill="#DEE8F5"/>
<path d="M407.585 51.9293C394.785 51.8093 381.169 55.6193 370.753 63.1513C364.65 67.4494 359.805 73.2983 356.718 80.0943C352.977 88.6203 351.618 99.2103 354.306 108.217C355.883 113.075 358.722 117.427 362.533 120.827C366.343 124.228 370.989 126.555 375.994 127.571C380.815 128.46 385.788 127.977 390.348 126.178C394.756 124.435 399.13 121.684 400.534 116.862C402.076 111.567 399.05 105.552 394.989 102.262C386.939 95.7393 375.294 96.0623 366.308 100.385C359.298 103.879 353.34 109.17 349.043 115.72C344.747 122.269 342.265 129.841 341.852 137.662C341.429 142.605 342.077 147.581 343.752 152.25C344.482 154.164 345.516 155.949 346.812 157.535C348.045 159.023 350.157 156.891 348.934 155.414C346.401 152.356 345.356 148.157 344.967 144.286C344.508 139.522 344.858 134.715 346.003 130.067C348.396 120.531 354.109 112.16 362.117 106.456C365.96 103.582 370.396 101.603 375.102 100.662C379.796 99.7155 384.667 100.225 389.063 102.123C392.08 103.376 394.616 105.562 396.3 108.361C396.835 109.294 397.245 110.292 397.52 111.331C397.631 111.738 397.72 112.149 397.796 112.563C397.813 112.653 397.896 113.302 397.845 112.851C397.863 113.009 397.884 113.167 397.893 113.325C398.127 117.104 395.743 120.062 392.571 121.834C388.635 124.074 384.152 125.17 379.627 124.997C374.992 124.646 370.538 123.049 366.736 120.373C362.935 117.697 359.929 114.043 358.035 109.797C354.656 101.652 355.585 91.5283 358.595 83.3903C361.035 76.9893 365.148 71.3603 370.505 67.0903C379.775 59.5523 392.178 55.6683 404.005 55.0123C405.197 54.9456 406.391 54.9176 407.586 54.9283C407.984 54.9283 408.365 54.7702 408.647 54.4889C408.928 54.2076 409.086 53.8261 409.086 53.4283C409.086 53.0304 408.928 52.6489 408.647 52.3676C408.365 52.0863 407.984 51.9283 407.586 51.9283L407.585 51.9293Z" fill="#DEE8F5"/>
<path d="M260.947 103.615C267.921 79.8383 281.005 58.3045 298.894 41.16C303.938 36.3242 309.342 31.8781 315.059 27.86C316.626 26.76 315.129 24.16 313.544 25.27C292.757 39.9153 276.193 59.7776 265.52 82.858C262.54 89.3175 260.044 95.99 258.054 102.82C257.948 103.204 257.999 103.614 258.195 103.96C258.391 104.306 258.717 104.56 259.101 104.667C259.484 104.773 259.894 104.722 260.241 104.526C260.587 104.329 260.841 104.004 260.947 103.62V103.615Z" fill="#DEE8F5"/>
<path d="M17.5 51.8592V50.7925C17.5 47.3382 19.6506 45.5094 21.8012 44.0363C23.9006 42.6139 26 40.7852 26 37.4325C26 32.7591 22.2108 29 17.5 29C12.7892 29 9 32.7591 9 37.4325M17.4744 64H17.5256" stroke="#8DDBE0" stroke-width="5" stroke-linecap="round" stroke-linejoin="round"/>
<path d="M422.5 42.8592V41.7925C422.5 38.3382 424.651 36.5094 426.801 35.0363C428.901 33.6139 431 31.7852 431 28.4325C431 23.7591 427.211 20 422.5 20C417.789 20 414 23.7591 414 28.4325M422.474 55H422.526" stroke="#8DDBE0" stroke-width="5" stroke-linecap="round" stroke-linejoin="round"/>
<path d="M312 5.1493V18.0416C312 18.561 312.187 19.0591 312.521 19.4263C312.855 19.7936 313.307 19.9999 313.779 20H332.221C332.693 19.9999 333.145 19.7936 333.479 19.4263C333.813 19.0591 334 18.561 334 18.0416V5.1493C334 4.62996 333.813 4.13189 333.479 3.76466C333.145 3.39743 332.693 3.19112 332.221 3.19112H327.347V1.83056C327.346 1.34524 327.171 0.879966 326.859 0.536795C326.548 0.193623 326.125 0.000577791 325.684 0H320.316C319.875 0.000577791 319.452 0.193623 319.141 0.536795C318.829 0.879966 318.654 1.34524 318.653 1.83056V3.19112H313.779C313.307 3.19112 312.855 3.39743 312.521 3.76466C312.187 4.13189 312 4.62996 312 5.1493ZM326.265 3.19112H319.735V1.83056C319.735 1.66097 319.796 1.49838 319.905 1.37846C320.014 1.25854 320.162 1.19108 320.316 1.19087H325.684C325.838 1.19108 325.986 1.25854 326.095 1.37846C326.204 1.49838 326.265 1.66097 326.265 1.83056V3.19112Z" fill="#54ABA7"/>
<path d="M178.226 35.6132C178.226 32.7984 177.108 30.0989 175.118 28.1086C173.128 26.1182 170.428 25 167.613 25C161.751 25 156.941 29.8601 157.001 35.7223C157.023 38.2268 157.933 40.642 159.57 42.5375C161.899 45.2393 163.138 48.7119 163.138 52.2787H172.088C172.094 48.6862 173.377 45.2126 175.707 42.4784C177.337 40.5628 178.23 38.1286 178.226 35.6132V35.6132Z" fill="#0CBC8B"/>
<path d="M166.232 53.8856C166.198 53.8855 166.165 53.873 166.139 53.8504C166.114 53.8277 166.097 53.7965 166.092 53.7625C166.002 53.067 163.872 36.7238 163.872 36.2744C163.872 35.7005 164.262 35.286 164.865 35.2183C165.163 35.1888 165.464 35.2348 165.739 35.3521C166.035 34.8081 166.611 34.4935 167.377 34.4627C167.839 34.444 168.27 34.6808 168.611 35.1338C168.792 34.9456 169.015 34.8032 169.262 34.7184C169.589 34.6145 170.091 34.6029 170.624 35.1353C170.923 35.4344 170.803 37.0569 170.457 40.688C170.381 41.4833 170.303 42.3057 170.237 43.0878C169.792 48.337 169.327 53.7031 169.323 53.7567C169.321 53.7754 169.316 53.7937 169.308 53.8104C169.299 53.8272 169.288 53.8421 169.273 53.8543C169.259 53.8665 169.243 53.8757 169.225 53.8814C169.207 53.8872 169.188 53.8893 169.169 53.8877C169.151 53.886 169.133 53.8807 169.116 53.872C169.099 53.8633 169.085 53.8513 169.073 53.8369C169.061 53.8224 169.052 53.8057 169.046 53.7877C169.041 53.7698 169.039 53.7509 169.041 53.7323C169.046 53.6787 169.511 48.3129 169.955 43.064C170.022 42.2803 170.1 41.4572 170.176 40.6611C170.304 39.3194 170.424 38.0517 170.48 37.0672C170.563 35.6108 170.458 35.3731 170.424 35.3349C170.077 34.9883 169.715 34.8716 169.347 34.9879C169.126 35.0661 168.927 35.1989 168.77 35.3741C169.171 36.0526 169.303 36.9378 169.063 37.3669C169.019 37.4511 168.954 37.5217 168.873 37.5707C168.792 37.6197 168.699 37.6453 168.604 37.6445C168.461 37.6445 168.319 37.566 168.194 37.4174C168.083 37.2806 168.002 37.1225 167.956 36.953C167.909 36.7835 167.898 36.6062 167.923 36.4322C168 36.0376 168.17 35.667 168.419 35.351C168.22 35.0722 167.873 34.7264 167.388 34.7451C166.732 34.7714 166.241 35.0305 165.993 35.4777C166.508 35.7776 166.956 36.3282 167.138 37.1298C167.249 37.6163 167.064 37.7862 166.943 37.8442C166.677 37.9729 166.259 37.7856 165.95 37.3993C165.753 37.1507 165.62 36.8573 165.564 36.5452C165.508 36.233 165.529 35.9118 165.627 35.61C165.396 35.5128 165.145 35.4747 164.896 35.4991C164.432 35.5512 164.154 35.8411 164.154 36.2744C164.155 36.6257 165.606 47.8435 166.372 53.726C166.377 53.7631 166.367 53.8007 166.344 53.8304C166.321 53.86 166.288 53.8794 166.251 53.8843C166.245 53.8851 166.238 53.8855 166.232 53.8856V53.8856ZM165.882 35.7392C165.81 35.9917 165.799 36.2577 165.849 36.5155C165.899 36.7733 166.009 37.0156 166.17 37.2227C166.424 37.5388 166.716 37.6402 166.821 37.5897C166.894 37.5541 166.91 37.4019 166.863 37.1924C166.704 36.4916 166.321 36.0071 165.882 35.7392V35.7392ZM168.579 35.6091C168.392 35.8693 168.263 36.1664 168.201 36.4805C168.184 36.6139 168.194 36.7494 168.229 36.879C168.265 37.0087 168.327 37.1299 168.41 37.2355C168.432 37.2683 168.461 37.2964 168.494 37.318C168.528 37.3397 168.565 37.3546 168.604 37.3618C168.649 37.3627 168.692 37.3506 168.73 37.327C168.768 37.3033 168.798 37.2692 168.816 37.2288C168.977 36.9416 168.913 36.2292 168.579 35.6091V35.6091Z" fill="white"/>
<path d="M172.046 52.2787C172.046 53.4543 171.579 54.5818 170.747 55.4131C169.916 56.2444 168.789 56.7115 167.613 56.7115C166.437 56.7115 165.31 56.2444 164.479 55.4131C163.647 54.5818 163.18 53.4543 163.18 52.2787" fill="#DEE8F5"/>
</svg>
